<?xml version="1.0" encoding="utf-8"?>
<svg xmlns="http://www.w3.org/2000/svg" xmlns:xlink="http://www.w3.org/1999/xlink" width="600" height="400" viewBox="0 0 2400 1600">
<defs>
  <clipPath id="clip720">
    <rect x="0" y="0" width="2400" height="1600"/>
  </clipPath>
</defs>
<path clip-path="url(#clip720)" d="M0 1600 L2400 1600 L2400 0 L0 0  Z" fill="#ffffff" fill-rule="evenodd" fill-opacity="1"/>
<defs>
  <clipPath id="clip721">
    <rect x="257" y="47" width="2097" height="1377"/>
  </clipPath>
</defs>
<path clip-path="url(#clip720)" d="M257.204 1423.18 L2352.76 1423.18 L2352.76 47.2441 L257.204 47.2441  Z" fill="#ffffff" fill-rule="evenodd" fill-opacity="1"/>
<polyline clip-path="url(#clip721)" style="stroke:#000000; stroke-linecap:round; stroke-linejoin:round; stroke-width:2; stroke-opacity:0.1; fill:none" points="257.204,1423.18 257.204,47.2441 "/>
<polyline clip-path="url(#clip721)" style="stroke:#000000; stroke-linecap:round; stroke-linejoin:round; stroke-width:2; stroke-opacity:0.1; fill:none" points="955.721,1423.18 955.721,47.2441 "/>
<polyline clip-path="url(#clip721)" style="stroke:#000000; stroke-linecap:round; stroke-linejoin:round; stroke-width:2; stroke-opacity:0.1; fill:none" points="1654.24,1423.18 1654.24,47.2441 "/>
<polyline clip-path="url(#clip721)" style="stroke:#000000; stroke-linecap:round; stroke-linejoin:round; stroke-width:2; stroke-opacity:0.1; fill:none" points="2352.76,1423.18 2352.76,47.2441 "/>
<polyline clip-path="url(#clip721)" style="stroke:#000000; stroke-linecap:round; stroke-linejoin:round; stroke-width:2; stroke-opacity:0.1; fill:none" points="257.204,1295.72 2352.76,1295.72 "/>
<polyline clip-path="url(#clip721)" style="stroke:#000000; stroke-linecap:round; stroke-linejoin:round; stroke-width:2; stroke-opacity:0.1; fill:none" points="257.204,1074.05 2352.76,1074.05 "/>
<polyline clip-path="url(#clip721)" style="stroke:#000000; stroke-linecap:round; stroke-linejoin:round; stroke-width:2; stroke-opacity:0.1; fill:none" points="257.204,852.388 2352.76,852.388 "/>
<polyline clip-path="url(#clip721)" style="stroke:#000000; stroke-linecap:round; stroke-linejoin:round; stroke-width:2; stroke-opacity:0.1; fill:none" points="257.204,630.724 2352.76,630.724 "/>
<polyline clip-path="url(#clip721)" style="stroke:#000000; stroke-linecap:round; stroke-linejoin:round; stroke-width:2; stroke-opacity:0.1; fill:none" points="257.204,409.06 2352.76,409.06 "/>
<polyline clip-path="url(#clip721)" style="stroke:#000000; stroke-linecap:round; stroke-linejoin:round; stroke-width:2; stroke-opacity:0.1; fill:none" points="257.204,187.396 2352.76,187.396 "/>
<polyline clip-path="url(#clip720)" style="stroke:#000000; stroke-linecap:round; stroke-linejoin:round; stroke-width:4; stroke-opacity:1; fill:none" points="257.204,1423.18 2352.76,1423.18 "/>
<polyline clip-path="url(#clip720)" style="stroke:#000000; stroke-linecap:round; stroke-linejoin:round; stroke-width:4; stroke-opacity:1; fill:none" points="257.204,1423.18 257.204,1404.28 "/>
<polyline clip-path="url(#clip720)" style="stroke:#000000; stroke-linecap:round; stroke-linejoin:round; stroke-width:4; stroke-opacity:1; fill:none" points="955.721,1423.18 955.721,1404.28 "/>
<polyline clip-path="url(#clip720)" style="stroke:#000000; stroke-linecap:round; stroke-linejoin:round; stroke-width:4; stroke-opacity:1; fill:none" points="1654.24,1423.18 1654.24,1404.28 "/>
<polyline clip-path="url(#clip720)" style="stroke:#000000; stroke-linecap:round; stroke-linejoin:round; stroke-width:4; stroke-opacity:1; fill:none" points="2352.76,1423.18 2352.76,1404.28 "/>
<path clip-path="url(#clip720)" d="M247.586 1481.64 L255.225 1481.64 L255.225 1455.28 L246.915 1456.95 L246.915 1452.69 L255.179 1451.02 L259.854 1451.02 L259.854 1481.64 L267.493 1481.64 L267.493 1485.58 L247.586 1485.58 L247.586 1481.64 Z" fill="#000000" fill-rule="nonzero" fill-opacity="1" /><path clip-path="url(#clip720)" d="M950.374 1481.64 L966.693 1481.64 L966.693 1485.58 L944.749 1485.58 L944.749 1481.64 Q947.411 1478.89 951.994 1474.26 Q956.601 1469.61 957.781 1468.27 Q960.027 1465.74 960.906 1464.01 Q961.809 1462.25 961.809 1460.56 Q961.809 1457.8 959.865 1456.07 Q957.944 1454.33 954.842 1454.33 Q952.643 1454.33 950.189 1455.09 Q947.758 1455.86 944.981 1457.41 L944.981 1452.69 Q947.805 1451.55 950.258 1450.97 Q952.712 1450.39 954.749 1450.39 Q960.119 1450.39 963.314 1453.08 Q966.508 1455.77 966.508 1460.26 Q966.508 1462.39 965.698 1464.31 Q964.911 1466.2 962.805 1468.8 Q962.226 1469.47 959.124 1472.69 Q956.022 1475.88 950.374 1481.64 Z" fill="#000000" fill-rule="nonzero" fill-opacity="1" /><path clip-path="url(#clip720)" d="M1658.49 1466.95 Q1661.84 1467.66 1663.72 1469.93 Q1665.62 1472.2 1665.62 1475.53 Q1665.62 1480.65 1662.1 1483.45 Q1658.58 1486.25 1652.1 1486.25 Q1649.92 1486.25 1647.61 1485.81 Q1645.32 1485.39 1642.86 1484.54 L1642.86 1480.02 Q1644.81 1481.16 1647.12 1481.74 Q1649.44 1482.32 1651.96 1482.32 Q1656.36 1482.32 1658.65 1480.58 Q1660.96 1478.84 1660.96 1475.53 Q1660.96 1472.48 1658.81 1470.77 Q1656.68 1469.03 1652.86 1469.03 L1648.83 1469.03 L1648.83 1465.19 L1653.05 1465.19 Q1656.5 1465.19 1658.32 1463.82 Q1660.15 1462.43 1660.15 1459.84 Q1660.15 1457.18 1658.25 1455.77 Q1656.38 1454.33 1652.86 1454.33 Q1650.94 1454.33 1648.74 1454.75 Q1646.54 1455.16 1643.9 1456.04 L1643.9 1451.88 Q1646.57 1451.14 1648.88 1450.77 Q1651.22 1450.39 1653.28 1450.39 Q1658.6 1450.39 1661.7 1452.83 Q1664.81 1455.23 1664.81 1459.35 Q1664.81 1462.22 1663.16 1464.21 Q1661.52 1466.18 1658.49 1466.95 Z" fill="#000000" fill-rule="nonzero" fill-opacity="1" /><path clip-path="url(#clip720)" d="M2355.77 1455.09 L2343.96 1473.54 L2355.77 1473.54 L2355.77 1455.09 M2354.54 1451.02 L2360.42 1451.02 L2360.42 1473.54 L2365.35 1473.54 L2365.35 1477.43 L2360.42 1477.43 L2360.42 1485.58 L2355.77 1485.58 L2355.77 1477.43 L2340.16 1477.43 L2340.16 1472.92 L2354.54 1451.02 Z" fill="#000000" fill-rule="nonzero" fill-opacity="1" /><path clip-path="url(#clip720)" d="M1321.59 1532.4 L1308.7 1549.74 L1322.26 1568.04 L1315.36 1568.04 L1304.98 1554.04 L1294.6 1568.04 L1287.7 1568.04 L1301.54 1549.39 L1288.87 1532.4 L1295.78 1532.4 L1305.23 1545.1 L1314.69 1532.4 L1321.59 1532.4 Z" fill="#000000" fill-rule="nonzero" fill-opacity="1" /><polyline clip-path="url(#clip720)" style="stroke:#000000; stroke-linecap:round; stroke-linejoin:round; stroke-width:4; stroke-opacity:1; fill:none" points="257.204,1423.18 257.204,47.2441 "/>
<polyline clip-path="url(#clip720)" style="stroke:#000000; stroke-linecap:round; stroke-linejoin:round; stroke-width:4; stroke-opacity:1; fill:none" points="257.204,1295.72 276.102,1295.72 "/>
<polyline clip-path="url(#clip720)" style="stroke:#000000; stroke-linecap:round; stroke-linejoin:round; stroke-width:4; stroke-opacity:1; fill:none" points="257.204,1074.05 276.102,1074.05 "/>
<polyline clip-path="url(#clip720)" style="stroke:#000000; stroke-linecap:round; stroke-linejoin:round; stroke-width:4; stroke-opacity:1; fill:none" points="257.204,852.388 276.102,852.388 "/>
<polyline clip-path="url(#clip720)" style="stroke:#000000; stroke-linecap:round; stroke-linejoin:round; stroke-width:4; stroke-opacity:1; fill:none" points="257.204,630.724 276.102,630.724 "/>
<polyline clip-path="url(#clip720)" style="stroke:#000000; stroke-linecap:round; stroke-linejoin:round; stroke-width:4; stroke-opacity:1; fill:none" points="257.204,409.06 276.102,409.06 "/>
<polyline clip-path="url(#clip720)" style="stroke:#000000; stroke-linecap:round; stroke-linejoin:round; stroke-width:4; stroke-opacity:1; fill:none" points="257.204,187.396 276.102,187.396 "/>
<path clip-path="url(#clip720)" d="M114.26 1296.17 L143.936 1296.17 L143.936 1300.1 L114.26 1300.1 L114.26 1296.17 Z" fill="#000000" fill-rule="nonzero" fill-opacity="1" /><path clip-path="url(#clip720)" d="M154.839 1309.06 L162.477 1309.06 L162.477 1282.7 L154.167 1284.36 L154.167 1280.1 L162.431 1278.44 L167.107 1278.44 L167.107 1309.06 L174.746 1309.06 L174.746 1313 L154.839 1313 L154.839 1309.06 Z" fill="#000000" fill-rule="nonzero" fill-opacity="1" /><path clip-path="url(#clip720)" d="M184.19 1307.12 L189.075 1307.12 L189.075 1313 L184.19 1313 L184.19 1307.12 Z" fill="#000000" fill-rule="nonzero" fill-opacity="1" /><path clip-path="url(#clip720)" d="M209.26 1281.51 Q205.649 1281.51 203.82 1285.08 Q202.014 1288.62 202.014 1295.75 Q202.014 1302.86 203.82 1306.42 Q205.649 1309.96 209.26 1309.96 Q212.894 1309.96 214.699 1306.42 Q216.528 1302.86 216.528 1295.75 Q216.528 1288.62 214.699 1285.08 Q212.894 1281.51 209.26 1281.51 M209.26 1277.81 Q215.07 1277.81 218.125 1282.42 Q221.204 1287 221.204 1295.75 Q221.204 1304.48 218.125 1309.08 Q215.07 1313.67 209.26 1313.67 Q203.449 1313.67 200.371 1309.08 Q197.315 1304.48 197.315 1295.75 Q197.315 1287 200.371 1282.42 Q203.449 1277.81 209.26 1277.81 Z" fill="#000000" fill-rule="nonzero" fill-opacity="1" /><path clip-path="url(#clip720)" d="M115.256 1074.5 L144.931 1074.5 L144.931 1078.44 L115.256 1078.44 L115.256 1074.5 Z" fill="#000000" fill-rule="nonzero" fill-opacity="1" /><path clip-path="url(#clip720)" d="M165.024 1059.85 Q161.413 1059.85 159.584 1063.42 Q157.778 1066.96 157.778 1074.09 Q157.778 1081.19 159.584 1084.76 Q161.413 1088.3 165.024 1088.3 Q168.658 1088.3 170.464 1084.76 Q172.292 1081.19 172.292 1074.09 Q172.292 1066.96 170.464 1063.42 Q168.658 1059.85 165.024 1059.85 M165.024 1056.15 Q170.834 1056.15 173.889 1060.75 Q176.968 1065.34 176.968 1074.09 Q176.968 1082.81 173.889 1087.42 Q170.834 1092 165.024 1092 Q159.214 1092 156.135 1087.42 Q153.079 1082.81 153.079 1074.09 Q153.079 1065.34 156.135 1060.75 Q159.214 1056.15 165.024 1056.15 Z" fill="#000000" fill-rule="nonzero" fill-opacity="1" /><path clip-path="url(#clip720)" d="M185.186 1085.45 L190.07 1085.45 L190.07 1091.33 L185.186 1091.33 L185.186 1085.45 Z" fill="#000000" fill-rule="nonzero" fill-opacity="1" /><path clip-path="url(#clip720)" d="M200.301 1056.77 L218.658 1056.77 L218.658 1060.71 L204.584 1060.71 L204.584 1069.18 Q205.602 1068.83 206.621 1068.67 Q207.639 1068.48 208.658 1068.48 Q214.445 1068.48 217.824 1071.66 Q221.204 1074.83 221.204 1080.24 Q221.204 1085.82 217.732 1088.92 Q214.26 1092 207.94 1092 Q205.764 1092 203.496 1091.63 Q201.25 1091.26 198.843 1090.52 L198.843 1085.82 Q200.926 1086.96 203.149 1087.51 Q205.371 1088.07 207.848 1088.07 Q211.852 1088.07 214.19 1085.96 Q216.528 1083.86 216.528 1080.24 Q216.528 1076.63 214.19 1074.53 Q211.852 1072.42 207.848 1072.42 Q205.973 1072.42 204.098 1072.84 Q202.246 1073.25 200.301 1074.13 L200.301 1056.77 Z" fill="#000000" fill-rule="nonzero" fill-opacity="1" /><path clip-path="url(#clip720)" d="M164.028 838.187 Q160.417 838.187 158.589 841.752 Q156.783 845.293 156.783 852.423 Q156.783 859.529 158.589 863.094 Q160.417 866.636 164.028 866.636 Q167.663 866.636 169.468 863.094 Q171.297 859.529 171.297 852.423 Q171.297 845.293 169.468 841.752 Q167.663 838.187 164.028 838.187 M164.028 834.483 Q169.839 834.483 172.894 839.089 Q175.973 843.673 175.973 852.423 Q175.973 861.15 172.894 865.756 Q169.839 870.339 164.028 870.339 Q158.218 870.339 155.14 865.756 Q152.084 861.15 152.084 852.423 Q152.084 843.673 155.14 839.089 Q158.218 834.483 164.028 834.483 Z" fill="#000000" fill-rule="nonzero" fill-opacity="1" /><path clip-path="url(#clip720)" d="M184.19 863.788 L189.075 863.788 L189.075 869.668 L184.19 869.668 L184.19 863.788 Z" fill="#000000" fill-rule="nonzero" fill-opacity="1" /><path clip-path="url(#clip720)" d="M209.26 838.187 Q205.649 838.187 203.82 841.752 Q202.014 845.293 202.014 852.423 Q202.014 859.529 203.82 863.094 Q205.649 866.636 209.26 866.636 Q212.894 866.636 214.699 863.094 Q216.528 859.529 216.528 852.423 Q216.528 845.293 214.699 841.752 Q212.894 838.187 209.26 838.187 M209.26 834.483 Q215.07 834.483 218.125 839.089 Q221.204 843.673 221.204 852.423 Q221.204 861.15 218.125 865.756 Q215.07 870.339 209.26 870.339 Q203.449 870.339 200.371 865.756 Q197.315 861.15 197.315 852.423 Q197.315 843.673 200.371 839.089 Q203.449 834.483 209.26 834.483 Z" fill="#000000" fill-rule="nonzero" fill-opacity="1" /><path clip-path="url(#clip720)" d="M165.024 616.523 Q161.413 616.523 159.584 620.088 Q157.778 623.629 157.778 630.759 Q157.778 637.865 159.584 641.43 Q161.413 644.972 165.024 644.972 Q168.658 644.972 170.464 641.43 Q172.292 637.865 172.292 630.759 Q172.292 623.629 170.464 620.088 Q168.658 616.523 165.024 616.523 M165.024 612.819 Q170.834 612.819 173.889 617.425 Q176.968 622.009 176.968 630.759 Q176.968 639.486 173.889 644.092 Q170.834 648.675 165.024 648.675 Q159.214 648.675 156.135 644.092 Q153.079 639.486 153.079 630.759 Q153.079 622.009 156.135 617.425 Q159.214 612.819 165.024 612.819 Z" fill="#000000" fill-rule="nonzero" fill-opacity="1" /><path clip-path="url(#clip720)" d="M185.186 642.124 L190.07 642.124 L190.07 648.004 L185.186 648.004 L185.186 642.124 Z" fill="#000000" fill-rule="nonzero" fill-opacity="1" /><path clip-path="url(#clip720)" d="M200.301 613.444 L218.658 613.444 L218.658 617.379 L204.584 617.379 L204.584 625.851 Q205.602 625.504 206.621 625.342 Q207.639 625.157 208.658 625.157 Q214.445 625.157 217.824 628.328 Q221.204 631.499 221.204 636.916 Q221.204 642.495 217.732 645.597 Q214.26 648.675 207.94 648.675 Q205.764 648.675 203.496 648.305 Q201.25 647.935 198.843 647.194 L198.843 642.495 Q200.926 643.629 203.149 644.185 Q205.371 644.74 207.848 644.74 Q211.852 644.74 214.19 642.634 Q216.528 640.527 216.528 636.916 Q216.528 633.305 214.19 631.199 Q211.852 629.092 207.848 629.092 Q205.973 629.092 204.098 629.509 Q202.246 629.925 200.301 630.805 L200.301 613.444 Z" fill="#000000" fill-rule="nonzero" fill-opacity="1" /><path clip-path="url(#clip720)" d="M154.839 422.405 L162.477 422.405 L162.477 396.039 L154.167 397.706 L154.167 393.447 L162.431 391.78 L167.107 391.78 L167.107 422.405 L174.746 422.405 L174.746 426.34 L154.839 426.34 L154.839 422.405 Z" fill="#000000" fill-rule="nonzero" fill-opacity="1" /><path clip-path="url(#clip720)" d="M184.19 420.46 L189.075 420.46 L189.075 426.34 L184.19 426.34 L184.19 420.46 Z" fill="#000000" fill-rule="nonzero" fill-opacity="1" /><path clip-path="url(#clip720)" d="M209.26 394.859 Q205.649 394.859 203.82 398.423 Q202.014 401.965 202.014 409.095 Q202.014 416.201 203.82 419.766 Q205.649 423.308 209.26 423.308 Q212.894 423.308 214.699 419.766 Q216.528 416.201 216.528 409.095 Q216.528 401.965 214.699 398.423 Q212.894 394.859 209.26 394.859 M209.26 391.155 Q215.07 391.155 218.125 395.761 Q221.204 400.345 221.204 409.095 Q221.204 417.822 218.125 422.428 Q215.07 427.011 209.26 427.011 Q203.449 427.011 200.371 422.428 Q197.315 417.822 197.315 409.095 Q197.315 400.345 200.371 395.761 Q203.449 391.155 209.26 391.155 Z" fill="#000000" fill-rule="nonzero" fill-opacity="1" /><path clip-path="url(#clip720)" d="M155.834 200.741 L163.473 200.741 L163.473 174.375 L155.163 176.042 L155.163 171.783 L163.427 170.116 L168.102 170.116 L168.102 200.741 L175.741 200.741 L175.741 204.676 L155.834 204.676 L155.834 200.741 Z" fill="#000000" fill-rule="nonzero" fill-opacity="1" /><path clip-path="url(#clip720)" d="M185.186 198.796 L190.07 198.796 L190.07 204.676 L185.186 204.676 L185.186 198.796 Z" fill="#000000" fill-rule="nonzero" fill-opacity="1" /><path clip-path="url(#clip720)" d="M200.301 170.116 L218.658 170.116 L218.658 174.051 L204.584 174.051 L204.584 182.523 Q205.602 182.176 206.621 182.014 Q207.639 181.829 208.658 181.829 Q214.445 181.829 217.824 185 Q221.204 188.171 221.204 193.588 Q221.204 199.167 217.732 202.269 Q214.26 205.347 207.94 205.347 Q205.764 205.347 203.496 204.977 Q201.25 204.607 198.843 203.866 L198.843 199.167 Q200.926 200.301 203.149 200.857 Q205.371 201.412 207.848 201.412 Q211.852 201.412 214.19 199.306 Q216.528 197.199 216.528 193.588 Q216.528 189.977 214.19 187.871 Q211.852 185.764 207.848 185.764 Q205.973 185.764 204.098 186.181 Q202.246 186.597 200.301 187.477 L200.301 170.116 Z" fill="#000000" fill-rule="nonzero" fill-opacity="1" /><path clip-path="url(#clip720)" d="M67.3143 733.525 Q73.68 736.008 75.6216 738.363 Q77.5631 740.718 77.5631 744.665 L77.5631 749.344 L72.6615 749.344 L72.6615 745.906 Q72.6615 743.487 71.5157 742.151 Q70.3699 740.814 66.1048 739.191 L63.4312 738.14 L28.3562 752.559 L28.3562 746.352 L56.238 735.212 L28.3562 724.072 L28.3562 717.865 L67.3143 733.525 Z" fill="#000000" fill-rule="nonzero" fill-opacity="1" /><circle clip-path="url(#clip721)" cx="306.319" cy="646.678" r="14.4" fill="#fdedb0" fill-rule="evenodd" fill-opacity="1" stroke="#000000" stroke-opacity="1" stroke-width="3.2"/>
<circle clip-path="url(#clip721)" cx="1354.09" cy="277.553" r="14.4" fill="#fdedb0" fill-rule="evenodd" fill-opacity="1" stroke="#000000" stroke-opacity="1" stroke-width="3.2"/>
<circle clip-path="url(#clip721)" cx="1877.98" cy="1373.37" r="14.4" fill="#fdedb0" fill-rule="evenodd" fill-opacity="1" stroke="#000000" stroke-opacity="1" stroke-width="3.2"/>
<circle clip-path="url(#clip721)" cx="830.206" cy="517.578" r="14.4" fill="#fdedb0" fill-rule="evenodd" fill-opacity="1" stroke="#000000" stroke-opacity="1" stroke-width="3.2"/>
<circle clip-path="url(#clip721)" cx="1092.15" cy="111.647" r="14.4" fill="#fdedb0" fill-rule="evenodd" fill-opacity="1" stroke="#000000" stroke-opacity="1" stroke-width="3.2"/>
<circle clip-path="url(#clip721)" cx="2139.93" cy="1194.62" r="14.4" fill="#fdedb0" fill-rule="evenodd" fill-opacity="1" stroke="#000000" stroke-opacity="1" stroke-width="3.2"/>
<circle clip-path="url(#clip721)" cx="1616.04" cy="935.678" r="14.4" fill="#fdedb0" fill-rule="evenodd" fill-opacity="1" stroke="#000000" stroke-opacity="1" stroke-width="3.2"/>
<circle clip-path="url(#clip721)" cx="568.263" cy="853.417" r="14.4" fill="#fdedb0" fill-rule="evenodd" fill-opacity="1" stroke="#000000" stroke-opacity="1" stroke-width="3.2"/>
<circle clip-path="url(#clip721)" cx="699.235" cy="740.175" r="14.4" fill="#fdedb0" fill-rule="evenodd" fill-opacity="1" stroke="#000000" stroke-opacity="1" stroke-width="3.2"/>
<circle clip-path="url(#clip721)" cx="1747.01" cy="1225.78" r="14.4" fill="#fdedb0" fill-rule="evenodd" fill-opacity="1" stroke="#000000" stroke-opacity="1" stroke-width="3.2"/>
<circle clip-path="url(#clip721)" cx="2270.9" cy="988.787" r="14.4" fill="#fdedb0" fill-rule="evenodd" fill-opacity="1" stroke="#000000" stroke-opacity="1" stroke-width="3.2"/>
<circle clip-path="url(#clip721)" cx="1223.12" cy="105.778" r="14.4" fill="#fdedb0" fill-rule="evenodd" fill-opacity="1" stroke="#000000" stroke-opacity="1" stroke-width="3.2"/>
<circle clip-path="url(#clip721)" cx="961.178" cy="274.204" r="14.4" fill="#fdedb0" fill-rule="evenodd" fill-opacity="1" stroke="#000000" stroke-opacity="1" stroke-width="3.2"/>
<circle clip-path="url(#clip721)" cx="2008.95" cy="1351.03" r="14.4" fill="#fdedb0" fill-rule="evenodd" fill-opacity="1" stroke="#000000" stroke-opacity="1" stroke-width="3.2"/>
<circle clip-path="url(#clip721)" cx="1485.07" cy="584.432" r="14.4" fill="#fdedb0" fill-rule="evenodd" fill-opacity="1" stroke="#000000" stroke-opacity="1" stroke-width="3.2"/>
<circle clip-path="url(#clip721)" cx="437.291" cy="815.396" r="14.4" fill="#fdedb0" fill-rule="evenodd" fill-opacity="1" stroke="#000000" stroke-opacity="1" stroke-width="3.2"/>
<circle clip-path="url(#clip721)" cx="502.777" cy="853.519" r="14.4" fill="#fdedb0" fill-rule="evenodd" fill-opacity="1" stroke="#000000" stroke-opacity="1" stroke-width="3.2"/>
<circle clip-path="url(#clip721)" cx="1550.55" cy="761.223" r="14.4" fill="#fdedb0" fill-rule="evenodd" fill-opacity="1" stroke="#000000" stroke-opacity="1" stroke-width="3.2"/>
<circle clip-path="url(#clip721)" cx="2074.44" cy="1285.12" r="14.4" fill="#fdedb0" fill-rule="evenodd" fill-opacity="1" stroke="#000000" stroke-opacity="1" stroke-width="3.2"/>
<circle clip-path="url(#clip721)" cx="1026.66" cy="177.056" r="14.4" fill="#fdedb0" fill-rule="evenodd" fill-opacity="1" stroke="#000000" stroke-opacity="1" stroke-width="3.2"/>
<circle clip-path="url(#clip721)" cx="1288.61" cy="170.698" r="14.4" fill="#fdedb0" fill-rule="evenodd" fill-opacity="1" stroke="#000000" stroke-opacity="1" stroke-width="3.2"/>
<circle clip-path="url(#clip721)" cx="2336.38" cy="899.219" r="14.4" fill="#fdedb0" fill-rule="evenodd" fill-opacity="1" stroke="#000000" stroke-opacity="1" stroke-width="3.2"/>
<circle clip-path="url(#clip721)" cx="1812.5" cy="1320.59" r="14.4" fill="#fdedb0" fill-rule="evenodd" fill-opacity="1" stroke="#000000" stroke-opacity="1" stroke-width="3.2"/>
<circle clip-path="url(#clip721)" cx="764.72" cy="637.77" r="14.4" fill="#fdedb0" fill-rule="evenodd" fill-opacity="1" stroke="#000000" stroke-opacity="1" stroke-width="3.2"/>
<circle clip-path="url(#clip721)" cx="633.749" cy="814.474" r="14.4" fill="#fdedb0" fill-rule="evenodd" fill-opacity="1" stroke="#000000" stroke-opacity="1" stroke-width="3.2"/>
<circle clip-path="url(#clip721)" cx="1681.52" cy="1094.45" r="14.4" fill="#fdedb0" fill-rule="evenodd" fill-opacity="1" stroke="#000000" stroke-opacity="1" stroke-width="3.2"/>
<circle clip-path="url(#clip721)" cx="2205.41" cy="1091.51" r="14.4" fill="#fdedb0" fill-rule="evenodd" fill-opacity="1" stroke="#000000" stroke-opacity="1" stroke-width="3.2"/>
<circle clip-path="url(#clip721)" cx="1157.64" cy="86.3106" r="14.4" fill="#fdedb0" fill-rule="evenodd" fill-opacity="1" stroke="#000000" stroke-opacity="1" stroke-width="3.2"/>
<circle clip-path="url(#clip721)" cx="895.692" cy="391.978" r="14.4" fill="#fdedb0" fill-rule="evenodd" fill-opacity="1" stroke="#000000" stroke-opacity="1" stroke-width="3.2"/>
<circle clip-path="url(#clip721)" cx="1943.47" cy="1382.63" r="14.4" fill="#fdedb0" fill-rule="evenodd" fill-opacity="1" stroke="#000000" stroke-opacity="1" stroke-width="3.2"/>
<circle clip-path="url(#clip721)" cx="1419.58" cy="418.974" r="14.4" fill="#fdedb0" fill-rule="evenodd" fill-opacity="1" stroke="#000000" stroke-opacity="1" stroke-width="3.2"/>
<circle clip-path="url(#clip721)" cx="371.805" cy="743.705" r="14.4" fill="#fdedb0" fill-rule="evenodd" fill-opacity="1" stroke="#000000" stroke-opacity="1" stroke-width="3.2"/>
<circle clip-path="url(#clip721)" cx="339.062" cy="697.724" r="14.4" fill="#fdedb0" fill-rule="evenodd" fill-opacity="1" stroke="#000000" stroke-opacity="1" stroke-width="3.2"/>
<circle clip-path="url(#clip721)" cx="1386.84" cy="344.537" r="14.4" fill="#fdedb0" fill-rule="evenodd" fill-opacity="1" stroke="#000000" stroke-opacity="1" stroke-width="3.2"/>
<circle clip-path="url(#clip721)" cx="1910.73" cy="1383.37" r="14.4" fill="#fdedb0" fill-rule="evenodd" fill-opacity="1" stroke="#000000" stroke-opacity="1" stroke-width="3.2"/>
<circle clip-path="url(#clip721)" cx="862.949" cy="454.632" r="14.4" fill="#fdedb0" fill-rule="evenodd" fill-opacity="1" stroke="#000000" stroke-opacity="1" stroke-width="3.2"/>
<circle clip-path="url(#clip721)" cx="1124.89" cy="93.582" r="14.4" fill="#fdedb0" fill-rule="evenodd" fill-opacity="1" stroke="#000000" stroke-opacity="1" stroke-width="3.2"/>
<circle clip-path="url(#clip721)" cx="2172.67" cy="1143.84" r="14.4" fill="#fdedb0" fill-rule="evenodd" fill-opacity="1" stroke="#000000" stroke-opacity="1" stroke-width="3.2"/>
<circle clip-path="url(#clip721)" cx="1648.78" cy="1017.81" r="14.4" fill="#fdedb0" fill-rule="evenodd" fill-opacity="1" stroke="#000000" stroke-opacity="1" stroke-width="3.2"/>
<circle clip-path="url(#clip721)" cx="601.006" cy="838.677" r="14.4" fill="#fdedb0" fill-rule="evenodd" fill-opacity="1" stroke="#000000" stroke-opacity="1" stroke-width="3.2"/>
<circle clip-path="url(#clip721)" cx="731.978" cy="691.902" r="14.4" fill="#fdedb0" fill-rule="evenodd" fill-opacity="1" stroke="#000000" stroke-opacity="1" stroke-width="3.2"/>
<circle clip-path="url(#clip721)" cx="1779.75" cy="1278.19" r="14.4" fill="#fdedb0" fill-rule="evenodd" fill-opacity="1" stroke="#000000" stroke-opacity="1" stroke-width="3.2"/>
<circle clip-path="url(#clip721)" cx="2303.64" cy="941.606" r="14.4" fill="#fdedb0" fill-rule="evenodd" fill-opacity="1" stroke="#000000" stroke-opacity="1" stroke-width="3.2"/>
<circle clip-path="url(#clip721)" cx="1255.87" cy="132.68" r="14.4" fill="#fdedb0" fill-rule="evenodd" fill-opacity="1" stroke="#000000" stroke-opacity="1" stroke-width="3.2"/>
<circle clip-path="url(#clip721)" cx="993.921" cy="222.304" r="14.4" fill="#fdedb0" fill-rule="evenodd" fill-opacity="1" stroke="#000000" stroke-opacity="1" stroke-width="3.2"/>
<circle clip-path="url(#clip721)" cx="2041.7" cy="1321.82" r="14.4" fill="#fdedb0" fill-rule="evenodd" fill-opacity="1" stroke="#000000" stroke-opacity="1" stroke-width="3.2"/>
<circle clip-path="url(#clip721)" cx="1517.81" cy="672.257" r="14.4" fill="#fdedb0" fill-rule="evenodd" fill-opacity="1" stroke="#000000" stroke-opacity="1" stroke-width="3.2"/>
<circle clip-path="url(#clip721)" cx="470.034" cy="839.036" r="14.4" fill="#fdedb0" fill-rule="evenodd" fill-opacity="1" stroke="#000000" stroke-opacity="1" stroke-width="3.2"/>
<circle clip-path="url(#clip721)" cx="404.548" cy="783.308" r="14.4" fill="#fdedb0" fill-rule="evenodd" fill-opacity="1" stroke="#000000" stroke-opacity="1" stroke-width="3.2"/>
<circle clip-path="url(#clip721)" cx="1452.32" cy="499.455" r="14.4" fill="#fdedb0" fill-rule="evenodd" fill-opacity="1" stroke="#000000" stroke-opacity="1" stroke-width="3.2"/>
<circle clip-path="url(#clip721)" cx="1976.21" cy="1371.61" r="14.4" fill="#fdedb0" fill-rule="evenodd" fill-opacity="1" stroke="#000000" stroke-opacity="1" stroke-width="3.2"/>
<circle clip-path="url(#clip721)" cx="928.435" cy="331.287" r="14.4" fill="#fdedb0" fill-rule="evenodd" fill-opacity="1" stroke="#000000" stroke-opacity="1" stroke-width="3.2"/>
<circle clip-path="url(#clip721)" cx="1190.38" cy="90.3046" r="14.4" fill="#fdedb0" fill-rule="evenodd" fill-opacity="1" stroke="#000000" stroke-opacity="1" stroke-width="3.2"/>
<circle clip-path="url(#clip721)" cx="2238.16" cy="1039.28" r="14.4" fill="#fdedb0" fill-rule="evenodd" fill-opacity="1" stroke="#000000" stroke-opacity="1" stroke-width="3.2"/>
<circle clip-path="url(#clip721)" cx="1714.27" cy="1164.19" r="14.4" fill="#fdedb0" fill-rule="evenodd" fill-opacity="1" stroke="#000000" stroke-opacity="1" stroke-width="3.2"/>
<circle clip-path="url(#clip721)" cx="666.492" cy="781.373" r="14.4" fill="#fdedb0" fill-rule="evenodd" fill-opacity="1" stroke="#000000" stroke-opacity="1" stroke-width="3.2"/>
<circle clip-path="url(#clip721)" cx="535.52" cy="858.382" r="14.4" fill="#fdedb0" fill-rule="evenodd" fill-opacity="1" stroke="#000000" stroke-opacity="1" stroke-width="3.2"/>
<circle clip-path="url(#clip721)" cx="1583.3" cy="849.6" r="14.4" fill="#fdedb0" fill-rule="evenodd" fill-opacity="1" stroke="#000000" stroke-opacity="1" stroke-width="3.2"/>
<circle clip-path="url(#clip721)" cx="2107.18" cy="1242.23" r="14.4" fill="#fdedb0" fill-rule="evenodd" fill-opacity="1" stroke="#000000" stroke-opacity="1" stroke-width="3.2"/>
<circle clip-path="url(#clip721)" cx="1059.41" cy="139.787" r="14.4" fill="#fdedb0" fill-rule="evenodd" fill-opacity="1" stroke="#000000" stroke-opacity="1" stroke-width="3.2"/>
<circle clip-path="url(#clip721)" cx="797.463" cy="579.159" r="14.4" fill="#fdedb0" fill-rule="evenodd" fill-opacity="1" stroke="#000000" stroke-opacity="1" stroke-width="3.2"/>
<circle clip-path="url(#clip721)" cx="1845.24" cy="1352.43" r="14.4" fill="#fdedb0" fill-rule="evenodd" fill-opacity="1" stroke="#000000" stroke-opacity="1" stroke-width="3.2"/>
<circle clip-path="url(#clip721)" cx="1321.35" cy="219.26" r="14.4" fill="#fdedb0" fill-rule="evenodd" fill-opacity="1" stroke="#000000" stroke-opacity="1" stroke-width="3.2"/>
<circle clip-path="url(#clip721)" cx="273.576" cy="592.021" r="14.4" fill="#fdedb0" fill-rule="evenodd" fill-opacity="1" stroke="#000000" stroke-opacity="1" stroke-width="3.2"/>
<circle clip-path="url(#clip721)" cx="281.761" cy="605.94" r="14.4" fill="#fdedb0" fill-rule="evenodd" fill-opacity="1" stroke="#000000" stroke-opacity="1" stroke-width="3.2"/>
<circle clip-path="url(#clip721)" cx="1329.54" cy="232.958" r="14.4" fill="#fdedb0" fill-rule="evenodd" fill-opacity="1" stroke="#000000" stroke-opacity="1" stroke-width="3.2"/>
<circle clip-path="url(#clip721)" cx="1853.43" cy="1358.69" r="14.4" fill="#fdedb0" fill-rule="evenodd" fill-opacity="1" stroke="#000000" stroke-opacity="1" stroke-width="3.2"/>
<circle clip-path="url(#clip721)" cx="805.649" cy="563.981" r="14.4" fill="#fdedb0" fill-rule="evenodd" fill-opacity="1" stroke="#000000" stroke-opacity="1" stroke-width="3.2"/>
<circle clip-path="url(#clip721)" cx="1067.59" cy="131.855" r="14.4" fill="#fdedb0" fill-rule="evenodd" fill-opacity="1" stroke="#000000" stroke-opacity="1" stroke-width="3.2"/>
<circle clip-path="url(#clip721)" cx="2115.37" cy="1230.71" r="14.4" fill="#fdedb0" fill-rule="evenodd" fill-opacity="1" stroke="#000000" stroke-opacity="1" stroke-width="3.2"/>
<circle clip-path="url(#clip721)" cx="1591.48" cy="871.401" r="14.4" fill="#fdedb0" fill-rule="evenodd" fill-opacity="1" stroke="#000000" stroke-opacity="1" stroke-width="3.2"/>
<circle clip-path="url(#clip721)" cx="543.705" cy="858.065" r="14.4" fill="#fdedb0" fill-rule="evenodd" fill-opacity="1" stroke="#000000" stroke-opacity="1" stroke-width="3.2"/>
<circle clip-path="url(#clip721)" cx="674.677" cy="771.796" r="14.4" fill="#fdedb0" fill-rule="evenodd" fill-opacity="1" stroke="#000000" stroke-opacity="1" stroke-width="3.2"/>
<circle clip-path="url(#clip721)" cx="1722.45" cy="1180.39" r="14.4" fill="#fdedb0" fill-rule="evenodd" fill-opacity="1" stroke="#000000" stroke-opacity="1" stroke-width="3.2"/>
<circle clip-path="url(#clip721)" cx="2246.34" cy="1026.43" r="14.4" fill="#fdedb0" fill-rule="evenodd" fill-opacity="1" stroke="#000000" stroke-opacity="1" stroke-width="3.2"/>
<circle clip-path="url(#clip721)" cx="1198.57" cy="93.0942" r="14.4" fill="#fdedb0" fill-rule="evenodd" fill-opacity="1" stroke="#000000" stroke-opacity="1" stroke-width="3.2"/>
<circle clip-path="url(#clip721)" cx="936.621" cy="316.615" r="14.4" fill="#fdedb0" fill-rule="evenodd" fill-opacity="1" stroke="#000000" stroke-opacity="1" stroke-width="3.2"/>
<circle clip-path="url(#clip721)" cx="1984.4" cy="1367.33" r="14.4" fill="#fdedb0" fill-rule="evenodd" fill-opacity="1" stroke="#000000" stroke-opacity="1" stroke-width="3.2"/>
<circle clip-path="url(#clip721)" cx="1460.51" cy="520.34" r="14.4" fill="#fdedb0" fill-rule="evenodd" fill-opacity="1" stroke="#000000" stroke-opacity="1" stroke-width="3.2"/>
<circle clip-path="url(#clip721)" cx="412.733" cy="792.075" r="14.4" fill="#fdedb0" fill-rule="evenodd" fill-opacity="1" stroke="#000000" stroke-opacity="1" stroke-width="3.2"/>
<circle clip-path="url(#clip721)" cx="478.219" cy="843.537" r="14.4" fill="#fdedb0" fill-rule="evenodd" fill-opacity="1" stroke="#000000" stroke-opacity="1" stroke-width="3.2"/>
<circle clip-path="url(#clip721)" cx="1526" cy="694.459" r="14.4" fill="#fdedb0" fill-rule="evenodd" fill-opacity="1" stroke="#000000" stroke-opacity="1" stroke-width="3.2"/>
<circle clip-path="url(#clip721)" cx="2049.88" cy="1313.3" r="14.4" fill="#fdedb0" fill-rule="evenodd" fill-opacity="1" stroke="#000000" stroke-opacity="1" stroke-width="3.2"/>
<circle clip-path="url(#clip721)" cx="1002.11" cy="210.314" r="14.4" fill="#fdedb0" fill-rule="evenodd" fill-opacity="1" stroke="#000000" stroke-opacity="1" stroke-width="3.2"/>
<circle clip-path="url(#clip721)" cx="1264.05" cy="141.161" r="14.4" fill="#fdedb0" fill-rule="evenodd" fill-opacity="1" stroke="#000000" stroke-opacity="1" stroke-width="3.2"/>
<circle clip-path="url(#clip721)" cx="2311.83" cy="930.505" r="14.4" fill="#fdedb0" fill-rule="evenodd" fill-opacity="1" stroke="#000000" stroke-opacity="1" stroke-width="3.2"/>
<circle clip-path="url(#clip721)" cx="1787.94" cy="1289.75" r="14.4" fill="#fdedb0" fill-rule="evenodd" fill-opacity="1" stroke="#000000" stroke-opacity="1" stroke-width="3.2"/>
<circle clip-path="url(#clip721)" cx="740.163" cy="678.867" r="14.4" fill="#fdedb0" fill-rule="evenodd" fill-opacity="1" stroke="#000000" stroke-opacity="1" stroke-width="3.2"/>
<circle clip-path="url(#clip721)" cx="609.191" cy="833.496" r="14.4" fill="#fdedb0" fill-rule="evenodd" fill-opacity="1" stroke="#000000" stroke-opacity="1" stroke-width="3.2"/>
<circle clip-path="url(#clip721)" cx="1656.97" cy="1037.54" r="14.4" fill="#fdedb0" fill-rule="evenodd" fill-opacity="1" stroke="#000000" stroke-opacity="1" stroke-width="3.2"/>
<circle clip-path="url(#clip721)" cx="2180.86" cy="1130.84" r="14.4" fill="#fdedb0" fill-rule="evenodd" fill-opacity="1" stroke="#000000" stroke-opacity="1" stroke-width="3.2"/>
<circle clip-path="url(#clip721)" cx="1133.08" cy="90.7295" r="14.4" fill="#fdedb0" fill-rule="evenodd" fill-opacity="1" stroke="#000000" stroke-opacity="1" stroke-width="3.2"/>
<circle clip-path="url(#clip721)" cx="871.135" cy="438.876" r="14.4" fill="#fdedb0" fill-rule="evenodd" fill-opacity="1" stroke="#000000" stroke-opacity="1" stroke-width="3.2"/>
<circle clip-path="url(#clip721)" cx="1918.91" cy="1384.18" r="14.4" fill="#fdedb0" fill-rule="evenodd" fill-opacity="1" stroke="#000000" stroke-opacity="1" stroke-width="3.2"/>
<circle clip-path="url(#clip721)" cx="1395.02" cy="362.5" r="14.4" fill="#fdedb0" fill-rule="evenodd" fill-opacity="1" stroke="#000000" stroke-opacity="1" stroke-width="3.2"/>
<circle clip-path="url(#clip721)" cx="347.247" cy="709.748" r="14.4" fill="#fdedb0" fill-rule="evenodd" fill-opacity="1" stroke="#000000" stroke-opacity="1" stroke-width="3.2"/>
<circle clip-path="url(#clip721)" cx="379.99" cy="754.251" r="14.4" fill="#fdedb0" fill-rule="evenodd" fill-opacity="1" stroke="#000000" stroke-opacity="1" stroke-width="3.2"/>
<circle clip-path="url(#clip721)" cx="1427.77" cy="438.586" r="14.4" fill="#fdedb0" fill-rule="evenodd" fill-opacity="1" stroke="#000000" stroke-opacity="1" stroke-width="3.2"/>
<circle clip-path="url(#clip721)" cx="1951.65" cy="1380.81" r="14.4" fill="#fdedb0" fill-rule="evenodd" fill-opacity="1" stroke="#000000" stroke-opacity="1" stroke-width="3.2"/>
<circle clip-path="url(#clip721)" cx="903.878" cy="376.556" r="14.4" fill="#fdedb0" fill-rule="evenodd" fill-opacity="1" stroke="#000000" stroke-opacity="1" stroke-width="3.2"/>
<polyline clip-path="url(#clip721)" style="stroke:#fdedb0; stroke-linecap:round; stroke-linejoin:round; stroke-width:4; stroke-opacity:1; fill:none" points="257.204,563.824 262.612,573.184 268.021,582.502 273.429,591.772 278.838,600.986 310.515,653.453 342.192,702.361 358.03,725.067 373.869,746.403 389.707,766.226 405.545,784.402 420.282,799.728 435.018,813.432 449.754,825.434 464.49,835.661 484.242,846.478 503.993,853.874 513.869,856.26 523.745,857.759 533.621,858.368 543.497,858.08 559.818,855.64 576.139,850.757 592.461,843.454 608.782,833.769 623.959,822.674 639.136,809.621 654.313,794.678 669.49,777.923 688.542,754.46 707.594,728.477 726.647,700.194 745.699,669.854 762.789,641.101 779.879,611.103 796.969,580.069 814.06,548.219 853.183,473.452 892.307,398.393 921.552,343.801 950.797,291.814 969.5,260.462 988.202,230.929 1006.9,203.489 1025.61,178.399 1042.68,157.757 1059.75,139.446 1076.82,123.623 1093.89,110.429 1103.6,104.142 1113.31,98.7689 1123.03,94.327 1132.74,90.8337 1142.46,88.3039 1152.17,86.7509 1161.88,86.1857 1171.6,86.6174 1187,89.362 1202.4,94.6478 1217.8,102.48 1233.2,112.85 1242.77,120.56 1252.33,129.235 1261.9,138.865 1271.47,149.437 1281.03,160.94 1290.6,173.357 1300.17,186.673 1309.73,200.868 1324.39,224.268 1339.04,249.603 1353.69,276.782 1368.35,305.707 1378.67,327.089 1389,349.247 1399.33,372.139 1409.66,395.722 1430.32,444.782 1450.98,496.054 1481.86,575.947 1512.73,658.52 1547.84,753.865 1582.96,848.696 1600.34,894.812 1617.73,940.034 1635.12,984.119 1652.5,1026.83 1671.63,1071.96 1690.76,1114.88 1709.89,1155.31 1729.02,1193.01 1743.63,1219.83 1758.24,1244.84 1772.85,1267.95 1787.46,1289.1 1796.68,1301.4 1805.9,1312.89 1815.12,1323.54 1824.34,1333.35 1833.56,1342.31 1842.78,1350.41 1852,1357.65 1861.21,1364.02 1878.27,1373.51 1895.32,1380.02 1912.37,1383.59 1929.43,1384.24 1947.01,1381.92 1964.6,1376.66 1982.19,1368.54 1999.78,1357.72 2017.6,1344.11 2035.43,1328.03 2053.26,1309.65 2071.08,1289.19 2089.7,1265.82 2108.31,1240.66 2126.93,1213.99 2145.54,1186.09 2174.87,1140.35 2204.2,1093.46 2237.59,1040.17 2270.98,988.662 2287.68,964.097 2304.38,940.598 2321.07,918.355 2337.77,897.553 2341.52,893.101 2345.26,888.732 2349.01,884.448 2352.76,880.252 "/>
<polyline clip-path="url(#clip721)" style="stroke:#fdedb0; stroke-linecap:round; stroke-linejoin:round; stroke-width:4; stroke-opacity:1; fill:none" points="257.204,563.841 262.612,573.191 268.021,582.504 273.429,591.772 278.838,600.985 310.515,653.454 342.192,702.361 358.03,725.067 373.869,746.403 389.707,766.225 405.545,784.402 420.282,799.728 435.018,813.432 449.754,825.434 464.49,835.661 484.242,846.478 503.993,853.874 513.869,856.26 523.745,857.759 533.621,858.368 543.497,858.08 559.818,855.64 576.139,850.757 592.461,843.454 608.782,833.769 623.959,822.674 639.136,809.621 654.313,794.678 669.49,777.923 688.542,754.46 707.594,728.477 726.647,700.194 745.699,669.854 762.789,641.102 779.879,611.101 796.969,580.069 814.06,548.218 853.183,473.452 892.307,398.393 921.552,343.801 950.797,291.814 969.5,260.462 988.202,230.929 1006.9,203.489 1025.61,178.399 1042.68,157.757 1059.75,139.446 1076.82,123.623 1093.89,110.429 1103.6,104.142 1113.31,98.7689 1123.03,94.327 1132.74,90.8337 1142.46,88.3039 1152.17,86.7509 1161.88,86.1857 1171.6,86.6174 1187,89.362 1202.4,94.6478 1217.8,102.48 1233.2,112.85 1242.77,120.561 1252.33,129.236 1261.9,138.865 1271.47,149.438 1281.03,160.94 1290.6,173.357 1300.17,186.673 1309.73,200.868 1324.39,224.268 1339.04,249.603 1353.69,276.782 1368.35,305.707 1378.67,327.089 1389,349.247 1399.33,372.139 1409.66,395.722 1430.32,444.782 1450.98,496.054 1481.86,575.947 1512.73,658.52 1547.84,753.865 1582.96,848.696 1600.34,894.812 1617.73,940.034 1635.12,984.119 1652.5,1026.83 1671.63,1071.96 1690.76,1114.88 1709.89,1155.31 1729.02,1193.01 1743.63,1219.83 1758.24,1244.84 1772.85,1267.95 1787.46,1289.1 1796.68,1301.4 1805.9,1312.89 1815.12,1323.54 1824.34,1333.36 1833.56,1342.31 1842.78,1350.41 1852,1357.65 1861.21,1364.02 1878.27,1373.51 1895.32,1380.02 1912.37,1383.59 1929.43,1384.24 1947.01,1381.92 1964.6,1376.66 1982.19,1368.54 1999.78,1357.72 2017.6,1344.11 2035.43,1328.03 2053.26,1309.65 2071.08,1289.19 2089.7,1265.82 2108.31,1240.66 2126.93,1213.99 2145.54,1186.09 2174.87,1140.35 2204.2,1093.46 2237.59,1040.17 2270.98,988.661 2287.68,964.096 2304.38,940.598 2321.07,918.359 2337.77,897.55 2341.52,893.087 2345.26,888.702 2349.01,884.396 2352.76,880.169 "/>
<path clip-path="url(#clip720)" d="M1638.63 300.469 L2282.9 300.469 L2282.9 93.1086 L1638.63 93.1086  Z" fill="#ffffff" fill-rule="evenodd" fill-opacity="1"/>
<polyline clip-path="url(#clip720)" style="stroke:#000000; stroke-linecap:round; stroke-linejoin:round; stroke-width:4; stroke-opacity:1; fill:none" points="1638.63,300.469 2282.9,300.469 2282.9,93.1086 1638.63,93.1086 1638.63,300.469 "/>
<circle clip-path="url(#clip720)" cx="1731.76" cy="144.949" r="20.48" fill="#fdedb0" fill-rule="evenodd" fill-opacity="1" stroke="#000000" stroke-opacity="1" stroke-width="4.55111"/>
<path clip-path="url(#clip720)" d="M1847.15 128.803 L1847.15 133.363 Q1844.48 132.09 1842.12 131.465 Q1839.76 130.84 1837.56 130.84 Q1833.74 130.84 1831.66 132.321 Q1829.6 133.803 1829.6 136.534 Q1829.6 138.826 1830.97 140.007 Q1832.35 141.164 1836.2 141.882 L1839.02 142.46 Q1844.25 143.456 1846.73 145.979 Q1849.23 148.479 1849.23 152.692 Q1849.23 157.715 1845.85 160.307 Q1842.49 162.9 1835.99 162.9 Q1833.53 162.9 1830.76 162.344 Q1828 161.789 1825.04 160.701 L1825.04 155.886 Q1827.89 157.483 1830.62 158.293 Q1833.35 159.104 1835.99 159.104 Q1839.99 159.104 1842.17 157.53 Q1844.34 155.956 1844.34 153.039 Q1844.34 150.493 1842.77 149.057 Q1841.22 147.622 1837.65 146.905 L1834.81 146.349 Q1829.58 145.307 1827.24 143.085 Q1824.9 140.863 1824.9 136.905 Q1824.9 132.321 1828.12 129.682 Q1831.36 127.044 1837.03 127.044 Q1839.46 127.044 1841.98 127.483 Q1844.51 127.923 1847.15 128.803 Z" fill="#000000" fill-rule="nonzero" fill-opacity="1" /><path clip-path="url(#clip720)" d="M1868.12 149.196 Q1862.96 149.196 1860.96 150.377 Q1858.97 151.557 1858.97 154.405 Q1858.97 156.673 1860.46 158.016 Q1861.96 159.335 1864.53 159.335 Q1868.07 159.335 1870.2 156.835 Q1872.35 154.312 1872.35 150.145 L1872.35 149.196 L1868.12 149.196 M1876.61 147.437 L1876.61 162.229 L1872.35 162.229 L1872.35 158.293 Q1870.9 160.655 1868.72 161.789 Q1866.54 162.9 1863.4 162.9 Q1859.41 162.9 1857.05 160.678 Q1854.72 158.432 1854.72 154.682 Q1854.72 150.307 1857.63 148.085 Q1860.57 145.863 1866.38 145.863 L1872.35 145.863 L1872.35 145.446 Q1872.35 142.507 1870.41 140.909 Q1868.49 139.289 1864.99 139.289 Q1862.77 139.289 1860.66 139.821 Q1858.56 140.354 1856.61 141.419 L1856.61 137.483 Q1858.95 136.581 1861.15 136.141 Q1863.35 135.678 1865.43 135.678 Q1871.06 135.678 1873.84 138.594 Q1876.61 141.511 1876.61 147.437 Z" fill="#000000" fill-rule="nonzero" fill-opacity="1" /><path clip-path="url(#clip720)" d="M1905.57 141.28 Q1907.17 138.409 1909.39 137.044 Q1911.61 135.678 1914.62 135.678 Q1918.67 135.678 1920.87 138.525 Q1923.07 141.349 1923.07 146.581 L1923.07 162.229 L1918.79 162.229 L1918.79 146.719 Q1918.79 142.993 1917.47 141.187 Q1916.15 139.382 1913.44 139.382 Q1910.13 139.382 1908.21 141.581 Q1906.29 143.78 1906.29 147.576 L1906.29 162.229 L1902.01 162.229 L1902.01 146.719 Q1902.01 142.969 1900.69 141.187 Q1899.37 139.382 1896.61 139.382 Q1893.35 139.382 1891.43 141.604 Q1889.51 143.803 1889.51 147.576 L1889.51 162.229 L1885.22 162.229 L1885.22 136.303 L1889.51 136.303 L1889.51 140.331 Q1890.96 137.946 1893 136.812 Q1895.04 135.678 1897.84 135.678 Q1900.66 135.678 1902.63 137.113 Q1904.62 138.548 1905.57 141.28 Z" fill="#000000" fill-rule="nonzero" fill-opacity="1" /><path clip-path="url(#clip720)" d="M1935.69 158.34 L1935.69 172.09 L1931.4 172.09 L1931.4 136.303 L1935.69 136.303 L1935.69 140.238 Q1937.03 137.923 1939.07 136.812 Q1941.13 135.678 1943.97 135.678 Q1948.7 135.678 1951.64 139.428 Q1954.6 143.178 1954.6 149.289 Q1954.6 155.4 1951.64 159.15 Q1948.7 162.9 1943.97 162.9 Q1941.13 162.9 1939.07 161.789 Q1937.03 160.655 1935.69 158.34 M1950.18 149.289 Q1950.18 144.59 1948.23 141.928 Q1946.31 139.243 1942.93 139.243 Q1939.55 139.243 1937.61 141.928 Q1935.69 144.59 1935.69 149.289 Q1935.69 153.988 1937.61 156.673 Q1939.55 159.335 1942.93 159.335 Q1946.31 159.335 1948.23 156.673 Q1950.18 153.988 1950.18 149.289 Z" fill="#000000" fill-rule="nonzero" fill-opacity="1" /><path clip-path="url(#clip720)" d="M1961.66 126.21 L1965.92 126.21 L1965.92 162.229 L1961.66 162.229 L1961.66 126.21 Z" fill="#000000" fill-rule="nonzero" fill-opacity="1" /><path clip-path="url(#clip720)" d="M1997.01 148.201 L1997.01 150.284 L1977.42 150.284 Q1977.7 154.682 1980.06 156.997 Q1982.45 159.289 1986.68 159.289 Q1989.14 159.289 1991.43 158.687 Q1993.74 158.085 1996.01 156.881 L1996.01 160.909 Q1993.72 161.881 1991.31 162.391 Q1988.9 162.9 1986.43 162.9 Q1980.22 162.9 1976.59 159.289 Q1972.98 155.678 1972.98 149.52 Q1972.98 143.155 1976.4 139.428 Q1979.85 135.678 1985.69 135.678 Q1990.92 135.678 1993.95 139.057 Q1997.01 142.414 1997.01 148.201 M1992.75 146.951 Q1992.7 143.456 1990.78 141.372 Q1988.88 139.289 1985.73 139.289 Q1982.17 139.289 1980.02 141.303 Q1977.89 143.317 1977.56 146.974 L1992.75 146.951 Z" fill="#000000" fill-rule="nonzero" fill-opacity="1" /><path clip-path="url(#clip720)" d="M2021.06 140.238 L2021.06 126.21 L2025.32 126.21 L2025.32 162.229 L2021.06 162.229 L2021.06 158.34 Q2019.71 160.655 2017.65 161.789 Q2015.62 162.9 2012.75 162.9 Q2008.05 162.9 2005.08 159.15 Q2002.14 155.4 2002.14 149.289 Q2002.14 143.178 2005.08 139.428 Q2008.05 135.678 2012.75 135.678 Q2015.62 135.678 2017.65 136.812 Q2019.71 137.923 2021.06 140.238 M2006.54 149.289 Q2006.54 153.988 2008.46 156.673 Q2010.41 159.335 2013.79 159.335 Q2017.17 159.335 2019.11 156.673 Q2021.06 153.988 2021.06 149.289 Q2021.06 144.59 2019.11 141.928 Q2017.17 139.243 2013.79 139.243 Q2010.41 139.243 2008.46 141.928 Q2006.54 144.59 2006.54 149.289 Z" fill="#000000" fill-rule="nonzero" fill-opacity="1" /><path clip-path="url(#clip720)" d="M2053.28 158.34 L2053.28 172.09 L2049 172.09 L2049 136.303 L2053.28 136.303 L2053.28 140.238 Q2054.62 137.923 2056.66 136.812 Q2058.72 135.678 2061.57 135.678 Q2066.29 135.678 2069.23 139.428 Q2072.19 143.178 2072.19 149.289 Q2072.19 155.4 2069.23 159.15 Q2066.29 162.9 2061.57 162.9 Q2058.72 162.9 2056.66 161.789 Q2054.62 160.655 2053.28 158.34 M2067.77 149.289 Q2067.77 144.59 2065.83 141.928 Q2063.9 139.243 2060.52 139.243 Q2057.14 139.243 2055.2 141.928 Q2053.28 144.59 2053.28 149.289 Q2053.28 153.988 2055.2 156.673 Q2057.14 159.335 2060.52 159.335 Q2063.9 159.335 2065.83 156.673 Q2067.77 153.988 2067.77 149.289 Z" fill="#000000" fill-rule="nonzero" fill-opacity="1" /><path clip-path="url(#clip720)" d="M2089.3 139.289 Q2085.87 139.289 2083.88 141.974 Q2081.89 144.636 2081.89 149.289 Q2081.89 153.942 2083.86 156.627 Q2085.85 159.289 2089.3 159.289 Q2092.7 159.289 2094.69 156.604 Q2096.68 153.918 2096.68 149.289 Q2096.68 144.682 2094.69 141.997 Q2092.7 139.289 2089.3 139.289 M2089.3 135.678 Q2094.85 135.678 2098.02 139.289 Q2101.2 142.9 2101.2 149.289 Q2101.2 155.655 2098.02 159.289 Q2094.85 162.9 2089.3 162.9 Q2083.72 162.9 2080.55 159.289 Q2077.4 155.655 2077.4 149.289 Q2077.4 142.9 2080.55 139.289 Q2083.72 135.678 2089.3 135.678 Z" fill="#000000" fill-rule="nonzero" fill-opacity="1" /><path clip-path="url(#clip720)" d="M2108.26 136.303 L2112.51 136.303 L2112.51 162.229 L2108.26 162.229 L2108.26 136.303 M2108.26 126.21 L2112.51 126.21 L2112.51 131.604 L2108.26 131.604 L2108.26 126.21 Z" fill="#000000" fill-rule="nonzero" fill-opacity="1" /><path clip-path="url(#clip720)" d="M2142.98 146.581 L2142.98 162.229 L2138.72 162.229 L2138.72 146.719 Q2138.72 143.039 2137.28 141.21 Q2135.85 139.382 2132.98 139.382 Q2129.53 139.382 2127.54 141.581 Q2125.55 143.78 2125.55 147.576 L2125.55 162.229 L2121.26 162.229 L2121.26 136.303 L2125.55 136.303 L2125.55 140.331 Q2127.07 137.993 2129.13 136.835 Q2131.22 135.678 2133.93 135.678 Q2138.39 135.678 2140.69 138.456 Q2142.98 141.21 2142.98 146.581 Z" fill="#000000" fill-rule="nonzero" fill-opacity="1" /><path clip-path="url(#clip720)" d="M2155.69 128.942 L2155.69 136.303 L2164.46 136.303 L2164.46 139.613 L2155.69 139.613 L2155.69 153.687 Q2155.69 156.858 2156.54 157.761 Q2157.42 158.664 2160.08 158.664 L2164.46 158.664 L2164.46 162.229 L2160.08 162.229 Q2155.15 162.229 2153.28 160.4 Q2151.4 158.548 2151.4 153.687 L2151.4 139.613 L2148.28 139.613 L2148.28 136.303 L2151.4 136.303 L2151.4 128.942 L2155.69 128.942 Z" fill="#000000" fill-rule="nonzero" fill-opacity="1" /><path clip-path="url(#clip720)" d="M2186.59 137.067 L2186.59 141.094 Q2184.78 140.169 2182.84 139.706 Q2180.89 139.243 2178.81 139.243 Q2175.64 139.243 2174.04 140.215 Q2172.47 141.187 2172.47 143.131 Q2172.47 144.613 2173.6 145.469 Q2174.74 146.303 2178.16 147.067 L2179.62 147.391 Q2184.16 148.363 2186.06 150.145 Q2187.98 151.905 2187.98 155.076 Q2187.98 158.687 2185.11 160.793 Q2182.26 162.9 2177.26 162.9 Q2175.18 162.9 2172.91 162.483 Q2170.66 162.09 2168.16 161.28 L2168.16 156.881 Q2170.52 158.108 2172.82 158.733 Q2175.11 159.335 2177.35 159.335 Q2180.36 159.335 2181.98 158.317 Q2183.6 157.275 2183.6 155.4 Q2183.6 153.664 2182.42 152.738 Q2181.26 151.812 2177.31 150.956 L2175.82 150.608 Q2171.87 149.775 2170.11 148.062 Q2168.35 146.326 2168.35 143.317 Q2168.35 139.659 2170.94 137.669 Q2173.53 135.678 2178.3 135.678 Q2180.66 135.678 2182.75 136.025 Q2184.83 136.372 2186.59 137.067 Z" fill="#000000" fill-rule="nonzero" fill-opacity="1" /><polyline clip-path="url(#clip720)" style="stroke:#fdedb0; stroke-linecap:round; stroke-linejoin:round; stroke-width:4; stroke-opacity:1; fill:none" points="1661.91,196.789 1801.62,196.789 "/>
<path clip-path="url(#clip720)" d="M1824.9 179.509 L1854.14 179.509 L1854.14 183.444 L1841.87 183.444 L1841.87 214.069 L1837.17 214.069 L1837.17 183.444 L1824.9 183.444 L1824.9 179.509 Z" fill="#000000" fill-rule="nonzero" fill-opacity="1" /><path clip-path="url(#clip720)" d="M1866.52 192.124 Q1865.8 191.708 1864.95 191.522 Q1864.11 191.314 1863.09 191.314 Q1859.48 191.314 1857.54 193.675 Q1855.62 196.013 1855.62 200.411 L1855.62 214.069 L1851.34 214.069 L1851.34 188.143 L1855.62 188.143 L1855.62 192.171 Q1856.96 189.809 1859.11 188.675 Q1861.27 187.518 1864.34 187.518 Q1864.78 187.518 1865.32 187.587 Q1865.85 187.634 1866.5 187.749 L1866.52 192.124 Z" fill="#000000" fill-rule="nonzero" fill-opacity="1" /><path clip-path="url(#clip720)" d="M1870.55 203.837 L1870.55 188.143 L1874.81 188.143 L1874.81 203.675 Q1874.81 207.356 1876.24 209.208 Q1877.68 211.036 1880.55 211.036 Q1884 211.036 1885.99 208.837 Q1888 206.638 1888 202.842 L1888 188.143 L1892.26 188.143 L1892.26 214.069 L1888 214.069 L1888 210.087 Q1886.45 212.448 1884.39 213.606 Q1882.35 214.74 1879.65 214.74 Q1875.18 214.74 1872.86 211.962 Q1870.55 209.184 1870.55 203.837 M1881.27 187.518 L1881.27 187.518 Z" fill="#000000" fill-rule="nonzero" fill-opacity="1" /><path clip-path="url(#clip720)" d="M1923.21 200.041 L1923.21 202.124 L1903.63 202.124 Q1903.9 206.522 1906.27 208.837 Q1908.65 211.129 1912.89 211.129 Q1915.34 211.129 1917.63 210.527 Q1919.95 209.925 1922.21 208.721 L1922.21 212.749 Q1919.92 213.721 1917.52 214.231 Q1915.11 214.74 1912.63 214.74 Q1906.43 214.74 1902.79 211.129 Q1899.18 207.518 1899.18 201.36 Q1899.18 194.995 1902.61 191.268 Q1906.06 187.518 1911.89 187.518 Q1917.12 187.518 1920.15 190.897 Q1923.21 194.254 1923.21 200.041 M1918.95 198.791 Q1918.9 195.296 1916.98 193.212 Q1915.09 191.129 1911.94 191.129 Q1908.37 191.129 1906.22 193.143 Q1904.09 195.157 1903.77 198.814 L1918.95 198.791 Z" fill="#000000" fill-rule="nonzero" fill-opacity="1" /><path clip-path="url(#clip720)" d="M1958.4 178.05 L1958.4 181.592 L1954.32 181.592 Q1952.03 181.592 1951.13 182.518 Q1950.25 183.444 1950.25 185.851 L1950.25 188.143 L1957.26 188.143 L1957.26 191.453 L1950.25 191.453 L1950.25 214.069 L1945.96 214.069 L1945.96 191.453 L1941.89 191.453 L1941.89 188.143 L1945.96 188.143 L1945.96 186.337 Q1945.96 182.009 1947.98 180.041 Q1949.99 178.05 1954.37 178.05 L1958.4 178.05 Z" fill="#000000" fill-rule="nonzero" fill-opacity="1" /><path clip-path="url(#clip720)" d="M1961.52 203.837 L1961.52 188.143 L1965.78 188.143 L1965.78 203.675 Q1965.78 207.356 1967.21 209.208 Q1968.65 211.036 1971.52 211.036 Q1974.97 211.036 1976.96 208.837 Q1978.97 206.638 1978.97 202.842 L1978.97 188.143 L1983.23 188.143 L1983.23 214.069 L1978.97 214.069 L1978.97 210.087 Q1977.42 212.448 1975.36 213.606 Q1973.33 214.74 1970.62 214.74 Q1966.15 214.74 1963.83 211.962 Q1961.52 209.184 1961.52 203.837 M1972.24 187.518 L1972.24 187.518 Z" fill="#000000" fill-rule="nonzero" fill-opacity="1" /><path clip-path="url(#clip720)" d="M2013.56 198.421 L2013.56 214.069 L2009.3 214.069 L2009.3 198.559 Q2009.3 194.879 2007.86 193.05 Q2006.43 191.222 2003.56 191.222 Q2000.11 191.222 1998.12 193.421 Q1996.13 195.62 1996.13 199.416 L1996.13 214.069 L1991.84 214.069 L1991.84 188.143 L1996.13 188.143 L1996.13 192.171 Q1997.65 189.833 1999.71 188.675 Q2001.8 187.518 2004.51 187.518 Q2008.97 187.518 2011.27 190.296 Q2013.56 193.05 2013.56 198.421 Z" fill="#000000" fill-rule="nonzero" fill-opacity="1" /><path clip-path="url(#clip720)" d="M2040.71 189.138 L2040.71 193.12 Q2038.9 192.124 2037.08 191.638 Q2035.27 191.129 2033.42 191.129 Q2029.27 191.129 2026.98 193.768 Q2024.69 196.384 2024.69 201.129 Q2024.69 205.874 2026.98 208.513 Q2029.27 211.129 2033.42 211.129 Q2035.27 211.129 2037.08 210.643 Q2038.9 210.133 2040.71 209.138 L2040.71 213.073 Q2038.93 213.907 2037.01 214.323 Q2035.11 214.74 2032.95 214.74 Q2027.1 214.74 2023.65 211.059 Q2020.2 207.379 2020.2 201.129 Q2020.2 194.786 2023.67 191.152 Q2027.17 187.518 2033.23 187.518 Q2035.2 187.518 2037.08 187.935 Q2038.95 188.328 2040.71 189.138 Z" fill="#000000" fill-rule="nonzero" fill-opacity="1" /><path clip-path="url(#clip720)" d="M2052.33 180.782 L2052.33 188.143 L2061.1 188.143 L2061.1 191.453 L2052.33 191.453 L2052.33 205.527 Q2052.33 208.698 2053.19 209.601 Q2054.07 210.504 2056.73 210.504 L2061.1 210.504 L2061.1 214.069 L2056.73 214.069 Q2051.8 214.069 2049.92 212.24 Q2048.05 210.388 2048.05 205.527 L2048.05 191.453 L2044.92 191.453 L2044.92 188.143 L2048.05 188.143 L2048.05 180.782 L2052.33 180.782 Z" fill="#000000" fill-rule="nonzero" fill-opacity="1" /><path clip-path="url(#clip720)" d="M2066.7 188.143 L2070.96 188.143 L2070.96 214.069 L2066.7 214.069 L2066.7 188.143 M2066.7 178.05 L2070.96 178.05 L2070.96 183.444 L2066.7 183.444 L2066.7 178.05 Z" fill="#000000" fill-rule="nonzero" fill-opacity="1" /><path clip-path="url(#clip720)" d="M2089.92 191.129 Q2086.5 191.129 2084.51 193.814 Q2082.51 196.476 2082.51 201.129 Q2082.51 205.782 2084.48 208.467 Q2086.47 211.129 2089.92 211.129 Q2093.32 211.129 2095.32 208.444 Q2097.31 205.758 2097.31 201.129 Q2097.31 196.522 2095.32 193.837 Q2093.32 191.129 2089.92 191.129 M2089.92 187.518 Q2095.48 187.518 2098.65 191.129 Q2101.82 194.74 2101.82 201.129 Q2101.82 207.495 2098.65 211.129 Q2095.48 214.74 2089.92 214.74 Q2084.34 214.74 2081.17 211.129 Q2078.02 207.495 2078.02 201.129 Q2078.02 194.74 2081.17 191.129 Q2084.34 187.518 2089.92 187.518 Z" fill="#000000" fill-rule="nonzero" fill-opacity="1" /><path clip-path="url(#clip720)" d="M2130.43 198.421 L2130.43 214.069 L2126.17 214.069 L2126.17 198.559 Q2126.17 194.879 2124.74 193.05 Q2123.3 191.222 2120.43 191.222 Q2116.98 191.222 2114.99 193.421 Q2113 195.62 2113 199.416 L2113 214.069 L2108.72 214.069 L2108.72 188.143 L2113 188.143 L2113 192.171 Q2114.53 189.833 2116.59 188.675 Q2118.67 187.518 2121.38 187.518 Q2125.85 187.518 2128.14 190.296 Q2130.43 193.05 2130.43 198.421 Z" fill="#000000" fill-rule="nonzero" fill-opacity="1" /><polyline clip-path="url(#clip720)" style="stroke:#fdedb0; stroke-linecap:round; stroke-linejoin:round; stroke-width:4; stroke-opacity:1; fill:none" points="1661.91,248.629 1801.62,248.629 "/>
<path clip-path="url(#clip720)" d="M1847.15 232.483 L1847.15 237.043 Q1844.48 235.77 1842.12 235.145 Q1839.76 234.52 1837.56 234.52 Q1833.74 234.52 1831.66 236.001 Q1829.6 237.483 1829.6 240.214 Q1829.6 242.506 1830.97 243.687 Q1832.35 244.844 1836.2 245.562 L1839.02 246.14 Q1844.25 247.136 1846.73 249.659 Q1849.23 252.159 1849.23 256.372 Q1849.23 261.395 1845.85 263.987 Q1842.49 266.58 1835.99 266.58 Q1833.53 266.58 1830.76 266.024 Q1828 265.469 1825.04 264.381 L1825.04 259.566 Q1827.89 261.163 1830.62 261.973 Q1833.35 262.784 1835.99 262.784 Q1839.99 262.784 1842.17 261.21 Q1844.34 259.636 1844.34 256.719 Q1844.34 254.173 1842.77 252.737 Q1841.22 251.302 1837.65 250.585 L1834.81 250.029 Q1829.58 248.987 1827.24 246.765 Q1824.9 244.543 1824.9 240.585 Q1824.9 236.001 1828.12 233.362 Q1831.36 230.724 1837.03 230.724 Q1839.46 230.724 1841.98 231.163 Q1844.51 231.603 1847.15 232.483 Z" fill="#000000" fill-rule="nonzero" fill-opacity="1" /><path clip-path="url(#clip720)" d="M1855.9 255.677 L1855.9 239.983 L1860.15 239.983 L1860.15 255.515 Q1860.15 259.196 1861.59 261.048 Q1863.03 262.876 1865.9 262.876 Q1869.34 262.876 1871.34 260.677 Q1873.35 258.478 1873.35 254.682 L1873.35 239.983 L1877.61 239.983 L1877.61 265.909 L1873.35 265.909 L1873.35 261.927 Q1871.8 264.288 1869.74 265.446 Q1867.7 266.58 1864.99 266.58 Q1860.53 266.58 1858.21 263.802 Q1855.9 261.024 1855.9 255.677 M1866.61 239.358 L1866.61 239.358 Z" fill="#000000" fill-rule="nonzero" fill-opacity="1" /><path clip-path="url(#clip720)" d="M1901.4 243.964 Q1900.69 243.548 1899.83 243.362 Q1899 243.154 1897.98 243.154 Q1894.37 243.154 1892.42 245.515 Q1890.5 247.853 1890.5 252.251 L1890.5 265.909 L1886.22 265.909 L1886.22 239.983 L1890.5 239.983 L1890.5 244.011 Q1891.84 241.649 1894 240.515 Q1896.15 239.358 1899.23 239.358 Q1899.67 239.358 1900.2 239.427 Q1900.73 239.474 1901.38 239.589 L1901.4 243.964 Z" fill="#000000" fill-rule="nonzero" fill-opacity="1" /><path clip-path="url(#clip720)" d="M1920.06 243.964 Q1919.34 243.548 1918.49 243.362 Q1917.65 243.154 1916.64 243.154 Q1913.02 243.154 1911.08 245.515 Q1909.16 247.853 1909.16 252.251 L1909.16 265.909 L1904.88 265.909 L1904.88 239.983 L1909.16 239.983 L1909.16 244.011 Q1910.5 241.649 1912.65 240.515 Q1914.81 239.358 1917.89 239.358 Q1918.33 239.358 1918.86 239.427 Q1919.39 239.474 1920.04 239.589 L1920.06 243.964 Z" fill="#000000" fill-rule="nonzero" fill-opacity="1" /><path clip-path="url(#clip720)" d="M1933.53 242.969 Q1930.11 242.969 1928.12 245.654 Q1926.13 248.316 1926.13 252.969 Q1926.13 257.622 1928.09 260.307 Q1930.08 262.969 1933.53 262.969 Q1936.94 262.969 1938.93 260.284 Q1940.92 257.598 1940.92 252.969 Q1940.92 248.362 1938.93 245.677 Q1936.94 242.969 1933.53 242.969 M1933.53 239.358 Q1939.09 239.358 1942.26 242.969 Q1945.43 246.58 1945.43 252.969 Q1945.43 259.335 1942.26 262.969 Q1939.09 266.58 1933.53 266.58 Q1927.96 266.58 1924.78 262.969 Q1921.64 259.335 1921.64 252.969 Q1921.64 246.58 1924.78 242.969 Q1927.96 239.358 1933.53 239.358 Z" fill="#000000" fill-rule="nonzero" fill-opacity="1" /><path clip-path="url(#clip720)" d="M1969.55 252.645 Q1969.55 248.015 1967.63 245.469 Q1965.73 242.923 1962.28 242.923 Q1958.86 242.923 1956.94 245.469 Q1955.04 248.015 1955.04 252.645 Q1955.04 257.251 1956.94 259.798 Q1958.86 262.344 1962.28 262.344 Q1965.73 262.344 1967.63 259.798 Q1969.55 257.251 1969.55 252.645 M1973.81 262.691 Q1973.81 269.311 1970.87 272.529 Q1967.93 275.77 1961.87 275.77 Q1959.62 275.77 1957.63 275.422 Q1955.64 275.098 1953.77 274.404 L1953.77 270.26 Q1955.64 271.279 1957.47 271.765 Q1959.3 272.251 1961.2 272.251 Q1965.39 272.251 1967.47 270.052 Q1969.55 267.876 1969.55 263.455 L1969.55 261.348 Q1968.23 263.64 1966.17 264.774 Q1964.11 265.909 1961.24 265.909 Q1956.47 265.909 1953.56 262.274 Q1950.64 258.64 1950.64 252.645 Q1950.64 246.626 1953.56 242.992 Q1956.47 239.358 1961.24 239.358 Q1964.11 239.358 1966.17 240.492 Q1968.23 241.626 1969.55 243.918 L1969.55 239.983 L1973.81 239.983 L1973.81 262.691 Z" fill="#000000" fill-rule="nonzero" fill-opacity="1" /><path clip-path="url(#clip720)" d="M1994.37 252.876 Q1989.21 252.876 1987.21 254.057 Q1985.22 255.237 1985.22 258.085 Q1985.22 260.353 1986.71 261.696 Q1988.21 263.015 1990.78 263.015 Q1994.32 263.015 1996.45 260.515 Q1998.6 257.992 1998.6 253.825 L1998.6 252.876 L1994.37 252.876 M2002.86 251.117 L2002.86 265.909 L1998.6 265.909 L1998.6 261.973 Q1997.14 264.335 1994.97 265.469 Q1992.79 266.58 1989.64 266.58 Q1985.66 266.58 1983.3 264.358 Q1980.96 262.112 1980.96 258.362 Q1980.96 253.987 1983.88 251.765 Q1986.82 249.543 1992.63 249.543 L1998.6 249.543 L1998.6 249.126 Q1998.6 246.187 1996.66 244.589 Q1994.74 242.969 1991.24 242.969 Q1989.02 242.969 1986.91 243.501 Q1984.81 244.034 1982.86 245.099 L1982.86 241.163 Q1985.2 240.261 1987.4 239.821 Q1989.6 239.358 1991.68 239.358 Q1997.31 239.358 2000.08 242.274 Q2002.86 245.191 2002.86 251.117 Z" fill="#000000" fill-rule="nonzero" fill-opacity="1" /><path clip-path="url(#clip720)" d="M2015.85 232.622 L2015.85 239.983 L2024.62 239.983 L2024.62 243.293 L2015.85 243.293 L2015.85 257.367 Q2015.85 260.538 2016.7 261.441 Q2017.58 262.344 2020.25 262.344 L2024.62 262.344 L2024.62 265.909 L2020.25 265.909 Q2015.32 265.909 2013.44 264.08 Q2011.57 262.228 2011.57 257.367 L2011.57 243.293 L2008.44 243.293 L2008.44 239.983 L2011.57 239.983 L2011.57 232.622 L2015.85 232.622 Z" fill="#000000" fill-rule="nonzero" fill-opacity="1" /><path clip-path="url(#clip720)" d="M2052.4 251.881 L2052.4 253.964 L2032.82 253.964 Q2033.09 258.362 2035.45 260.677 Q2037.84 262.969 2042.08 262.969 Q2044.53 262.969 2046.82 262.367 Q2049.14 261.765 2051.4 260.561 L2051.4 264.589 Q2049.11 265.561 2046.7 266.071 Q2044.3 266.58 2041.82 266.58 Q2035.62 266.58 2031.98 262.969 Q2028.37 259.358 2028.37 253.2 Q2028.37 246.835 2031.8 243.108 Q2035.25 239.358 2041.08 239.358 Q2046.31 239.358 2049.34 242.737 Q2052.4 246.094 2052.4 251.881 M2048.14 250.631 Q2048.09 247.136 2046.17 245.052 Q2044.27 242.969 2041.13 242.969 Q2037.56 242.969 2035.41 244.983 Q2033.28 246.997 2032.95 250.654 L2048.14 250.631 Z" fill="#000000" fill-rule="nonzero" fill-opacity="1" /><path clip-path="url(#clip720)" d="M2087.58 229.89 L2087.58 233.432 L2083.51 233.432 Q2081.22 233.432 2080.32 234.358 Q2079.44 235.284 2079.44 237.691 L2079.44 239.983 L2086.45 239.983 L2086.45 243.293 L2079.44 243.293 L2079.44 265.909 L2075.15 265.909 L2075.15 243.293 L2071.08 243.293 L2071.08 239.983 L2075.15 239.983 L2075.15 238.177 Q2075.15 233.849 2077.17 231.881 Q2079.18 229.89 2083.56 229.89 L2087.58 229.89 Z" fill="#000000" fill-rule="nonzero" fill-opacity="1" /><path clip-path="url(#clip720)" d="M2090.71 255.677 L2090.71 239.983 L2094.97 239.983 L2094.97 255.515 Q2094.97 259.196 2096.4 261.048 Q2097.84 262.876 2100.71 262.876 Q2104.16 262.876 2106.15 260.677 Q2108.16 258.478 2108.16 254.682 L2108.16 239.983 L2112.42 239.983 L2112.42 265.909 L2108.16 265.909 L2108.16 261.927 Q2106.61 264.288 2104.55 265.446 Q2102.51 266.58 2099.81 266.58 Q2095.34 266.58 2093.02 263.802 Q2090.71 261.024 2090.71 255.677 M2101.43 239.358 L2101.43 239.358 Z" fill="#000000" fill-rule="nonzero" fill-opacity="1" /><path clip-path="url(#clip720)" d="M2142.75 250.261 L2142.75 265.909 L2138.49 265.909 L2138.49 250.399 Q2138.49 246.719 2137.05 244.89 Q2135.62 243.062 2132.75 243.062 Q2129.3 243.062 2127.31 245.261 Q2125.32 247.46 2125.32 251.256 L2125.32 265.909 L2121.03 265.909 L2121.03 239.983 L2125.32 239.983 L2125.32 244.011 Q2126.84 241.673 2128.9 240.515 Q2130.99 239.358 2133.7 239.358 Q2138.16 239.358 2140.45 242.136 Q2142.75 244.89 2142.75 250.261 Z" fill="#000000" fill-rule="nonzero" fill-opacity="1" /><path clip-path="url(#clip720)" d="M2169.9 240.978 L2169.9 244.96 Q2168.09 243.964 2166.26 243.478 Q2164.46 242.969 2162.61 242.969 Q2158.46 242.969 2156.17 245.608 Q2153.88 248.224 2153.88 252.969 Q2153.88 257.714 2156.17 260.353 Q2158.46 262.969 2162.61 262.969 Q2164.46 262.969 2166.26 262.483 Q2168.09 261.973 2169.9 260.978 L2169.9 264.913 Q2168.12 265.747 2166.19 266.163 Q2164.3 266.58 2162.14 266.58 Q2156.29 266.58 2152.84 262.899 Q2149.39 259.219 2149.39 252.969 Q2149.39 246.626 2152.86 242.992 Q2156.36 239.358 2162.42 239.358 Q2164.39 239.358 2166.26 239.775 Q2168.14 240.168 2169.9 240.978 Z" fill="#000000" fill-rule="nonzero" fill-opacity="1" /><path clip-path="url(#clip720)" d="M2181.52 232.622 L2181.52 239.983 L2190.29 239.983 L2190.29 243.293 L2181.52 243.293 L2181.52 257.367 Q2181.52 260.538 2182.38 261.441 Q2183.25 262.344 2185.92 262.344 L2190.29 262.344 L2190.29 265.909 L2185.92 265.909 Q2180.99 265.909 2179.11 264.08 Q2177.24 262.228 2177.24 257.367 L2177.24 243.293 L2174.11 243.293 L2174.11 239.983 L2177.24 239.983 L2177.24 232.622 L2181.52 232.622 Z" fill="#000000" fill-rule="nonzero" fill-opacity="1" /><path clip-path="url(#clip720)" d="M2195.89 239.983 L2200.15 239.983 L2200.15 265.909 L2195.89 265.909 L2195.89 239.983 M2195.89 229.89 L2200.15 229.89 L2200.15 235.284 L2195.89 235.284 L2195.89 229.89 Z" fill="#000000" fill-rule="nonzero" fill-opacity="1" /><path clip-path="url(#clip720)" d="M2219.11 242.969 Q2215.69 242.969 2213.69 245.654 Q2211.7 248.316 2211.7 252.969 Q2211.7 257.622 2213.67 260.307 Q2215.66 262.969 2219.11 262.969 Q2222.51 262.969 2224.5 260.284 Q2226.5 257.598 2226.5 252.969 Q2226.5 248.362 2224.5 245.677 Q2222.51 242.969 2219.11 242.969 M2219.11 239.358 Q2224.67 239.358 2227.84 242.969 Q2231.01 246.58 2231.01 252.969 Q2231.01 259.335 2227.84 262.969 Q2224.67 266.58 2219.11 266.58 Q2213.53 266.58 2210.36 262.969 Q2207.21 259.335 2207.21 252.969 Q2207.21 246.58 2210.36 242.969 Q2213.53 239.358 2219.11 239.358 Z" fill="#000000" fill-rule="nonzero" fill-opacity="1" /><path clip-path="url(#clip720)" d="M2259.62 250.261 L2259.62 265.909 L2255.36 265.909 L2255.36 250.399 Q2255.36 246.719 2253.93 244.89 Q2252.49 243.062 2249.62 243.062 Q2246.17 243.062 2244.18 245.261 Q2242.19 247.46 2242.19 251.256 L2242.19 265.909 L2237.91 265.909 L2237.91 239.983 L2242.19 239.983 L2242.19 244.011 Q2243.72 241.673 2245.78 240.515 Q2247.86 239.358 2250.57 239.358 Q2255.04 239.358 2257.33 242.136 Q2259.62 244.89 2259.62 250.261 Z" fill="#000000" fill-rule="nonzero" fill-opacity="1" /></svg>
