<?xml version="1.0" encoding="utf-8"?>
<svg xmlns="http://www.w3.org/2000/svg" xmlns:xlink="http://www.w3.org/1999/xlink" width="600" height="400" viewBox="0 0 2400 1600">
<defs>
  <clipPath id="clip530">
    <rect x="0" y="0" width="2400" height="1600"/>
  </clipPath>
</defs>
<path clip-path="url(#clip530)" d="M0 1600 L2400 1600 L2400 0 L0 0  Z" fill="#ffffff" fill-rule="evenodd" fill-opacity="1"/>
<defs>
  <clipPath id="clip531">
    <rect x="480" y="0" width="1681" height="1600"/>
  </clipPath>
</defs>
<path clip-path="url(#clip530)" d="M147.478 1486.45 L2352.76 1486.45 L2352.76 47.2441 L147.478 47.2441  Z" fill="#ffffff" fill-rule="evenodd" fill-opacity="1"/>
<defs>
  <clipPath id="clip532">
    <rect x="147" y="47" width="2206" height="1440"/>
  </clipPath>
</defs>
<polyline clip-path="url(#clip532)" style="stroke:#000000; stroke-linecap:round; stroke-linejoin:round; stroke-width:2; stroke-opacity:0.1; fill:none" points="147.478,1486.45 147.478,47.2441 "/>
<polyline clip-path="url(#clip532)" style="stroke:#000000; stroke-linecap:round; stroke-linejoin:round; stroke-width:2; stroke-opacity:0.1; fill:none" points="588.534,1486.45 588.534,47.2441 "/>
<polyline clip-path="url(#clip532)" style="stroke:#000000; stroke-linecap:round; stroke-linejoin:round; stroke-width:2; stroke-opacity:0.1; fill:none" points="1029.59,1486.45 1029.59,47.2441 "/>
<polyline clip-path="url(#clip532)" style="stroke:#000000; stroke-linecap:round; stroke-linejoin:round; stroke-width:2; stroke-opacity:0.1; fill:none" points="1470.64,1486.45 1470.64,47.2441 "/>
<polyline clip-path="url(#clip532)" style="stroke:#000000; stroke-linecap:round; stroke-linejoin:round; stroke-width:2; stroke-opacity:0.1; fill:none" points="1911.7,1486.45 1911.7,47.2441 "/>
<polyline clip-path="url(#clip532)" style="stroke:#000000; stroke-linecap:round; stroke-linejoin:round; stroke-width:2; stroke-opacity:0.1; fill:none" points="2352.76,1486.45 2352.76,47.2441 "/>
<polyline clip-path="url(#clip530)" style="stroke:#000000; stroke-linecap:round; stroke-linejoin:round; stroke-width:4; stroke-opacity:1; fill:none" points="147.478,1486.45 2352.76,1486.45 "/>
<polyline clip-path="url(#clip530)" style="stroke:#000000; stroke-linecap:round; stroke-linejoin:round; stroke-width:4; stroke-opacity:1; fill:none" points="147.478,1486.45 147.478,1467.55 "/>
<polyline clip-path="url(#clip530)" style="stroke:#000000; stroke-linecap:round; stroke-linejoin:round; stroke-width:4; stroke-opacity:1; fill:none" points="588.534,1486.45 588.534,1467.55 "/>
<polyline clip-path="url(#clip530)" style="stroke:#000000; stroke-linecap:round; stroke-linejoin:round; stroke-width:4; stroke-opacity:1; fill:none" points="1029.59,1486.45 1029.59,1467.55 "/>
<polyline clip-path="url(#clip530)" style="stroke:#000000; stroke-linecap:round; stroke-linejoin:round; stroke-width:4; stroke-opacity:1; fill:none" points="1470.64,1486.45 1470.64,1467.55 "/>
<polyline clip-path="url(#clip530)" style="stroke:#000000; stroke-linecap:round; stroke-linejoin:round; stroke-width:4; stroke-opacity:1; fill:none" points="1911.7,1486.45 1911.7,1467.55 "/>
<polyline clip-path="url(#clip530)" style="stroke:#000000; stroke-linecap:round; stroke-linejoin:round; stroke-width:4; stroke-opacity:1; fill:none" points="2352.76,1486.45 2352.76,1467.55 "/>
<path clip-path="url(#clip530)" d="M147.478 1517.37 Q143.867 1517.37 142.038 1520.93 Q140.233 1524.47 140.233 1531.6 Q140.233 1538.71 142.038 1542.27 Q143.867 1545.82 147.478 1545.82 Q151.112 1545.82 152.918 1542.27 Q154.746 1538.71 154.746 1531.6 Q154.746 1524.47 152.918 1520.93 Q151.112 1517.37 147.478 1517.37 M147.478 1513.66 Q153.288 1513.66 156.344 1518.27 Q159.422 1522.85 159.422 1531.6 Q159.422 1540.33 156.344 1544.94 Q153.288 1549.52 147.478 1549.52 Q141.668 1549.52 138.589 1544.94 Q135.534 1540.33 135.534 1531.6 Q135.534 1522.85 138.589 1518.27 Q141.668 1513.66 147.478 1513.66 Z" fill="#000000" fill-rule="nonzero" fill-opacity="1" /><path clip-path="url(#clip530)" d="M583.186 1544.91 L599.506 1544.91 L599.506 1548.85 L577.561 1548.85 L577.561 1544.91 Q580.223 1542.16 584.807 1537.53 Q589.413 1532.88 590.594 1531.53 Q592.839 1529.01 593.719 1527.27 Q594.621 1525.51 594.621 1523.82 Q594.621 1521.07 592.677 1519.33 Q590.756 1517.6 587.654 1517.6 Q585.455 1517.6 583.001 1518.36 Q580.571 1519.13 577.793 1520.68 L577.793 1515.95 Q580.617 1514.82 583.071 1514.24 Q585.524 1513.66 587.561 1513.66 Q592.932 1513.66 596.126 1516.35 Q599.32 1519.03 599.32 1523.52 Q599.32 1525.65 598.51 1527.57 Q597.723 1529.47 595.617 1532.07 Q595.038 1532.74 591.936 1535.95 Q588.834 1539.15 583.186 1544.91 Z" fill="#000000" fill-rule="nonzero" fill-opacity="1" /><path clip-path="url(#clip530)" d="M1032.6 1518.36 L1020.79 1536.81 L1032.6 1536.81 L1032.6 1518.36 M1031.37 1514.29 L1037.25 1514.29 L1037.25 1536.81 L1042.18 1536.81 L1042.18 1540.7 L1037.25 1540.7 L1037.25 1548.85 L1032.6 1548.85 L1032.6 1540.7 L1017 1540.7 L1017 1536.19 L1031.37 1514.29 Z" fill="#000000" fill-rule="nonzero" fill-opacity="1" /><path clip-path="url(#clip530)" d="M1471.05 1529.7 Q1467.9 1529.7 1466.05 1531.86 Q1464.22 1534.01 1464.22 1537.76 Q1464.22 1541.49 1466.05 1543.66 Q1467.9 1545.82 1471.05 1545.82 Q1474.2 1545.82 1476.03 1543.66 Q1477.88 1541.49 1477.88 1537.76 Q1477.88 1534.01 1476.03 1531.86 Q1474.2 1529.7 1471.05 1529.7 M1480.33 1515.05 L1480.33 1519.31 Q1478.57 1518.48 1476.77 1518.04 Q1474.98 1517.6 1473.23 1517.6 Q1468.6 1517.6 1466.14 1520.72 Q1463.71 1523.85 1463.36 1530.17 Q1464.73 1528.15 1466.79 1527.09 Q1468.85 1526 1471.33 1526 Q1476.54 1526 1479.55 1529.17 Q1482.58 1532.32 1482.58 1537.76 Q1482.58 1543.08 1479.43 1546.3 Q1476.28 1549.52 1471.05 1549.52 Q1465.05 1549.52 1461.88 1544.94 Q1458.71 1540.33 1458.71 1531.6 Q1458.71 1523.41 1462.6 1518.55 Q1466.49 1513.66 1473.04 1513.66 Q1474.8 1513.66 1476.58 1514.01 Q1478.39 1514.36 1480.33 1515.05 Z" fill="#000000" fill-rule="nonzero" fill-opacity="1" /><path clip-path="url(#clip530)" d="M1911.7 1532.44 Q1908.37 1532.44 1906.45 1534.22 Q1904.55 1536 1904.55 1539.13 Q1904.55 1542.25 1906.45 1544.03 Q1908.37 1545.82 1911.7 1545.82 Q1915.03 1545.82 1916.95 1544.03 Q1918.88 1542.23 1918.88 1539.13 Q1918.88 1536 1916.95 1534.22 Q1915.06 1532.44 1911.7 1532.44 M1907.02 1530.45 Q1904.02 1529.7 1902.33 1527.64 Q1900.66 1525.58 1900.66 1522.62 Q1900.66 1518.48 1903.6 1516.07 Q1906.56 1513.66 1911.7 1513.66 Q1916.86 1513.66 1919.8 1516.07 Q1922.74 1518.48 1922.74 1522.62 Q1922.74 1525.58 1921.05 1527.64 Q1919.39 1529.7 1916.4 1530.45 Q1919.78 1531.23 1921.65 1533.52 Q1923.55 1535.82 1923.55 1539.13 Q1923.55 1544.15 1920.47 1546.83 Q1917.42 1549.52 1911.7 1549.52 Q1905.98 1549.52 1902.9 1546.83 Q1899.85 1544.15 1899.85 1539.13 Q1899.85 1535.82 1901.75 1533.52 Q1903.64 1531.23 1907.02 1530.45 M1905.31 1523.06 Q1905.31 1525.75 1906.98 1527.25 Q1908.67 1528.76 1911.7 1528.76 Q1914.71 1528.76 1916.4 1527.25 Q1918.11 1525.75 1918.11 1523.06 Q1918.11 1520.38 1916.4 1518.87 Q1914.71 1517.37 1911.7 1517.37 Q1908.67 1517.37 1906.98 1518.87 Q1905.31 1520.38 1905.31 1523.06 Z" fill="#000000" fill-rule="nonzero" fill-opacity="1" /><path clip-path="url(#clip530)" d="M2327.44 1544.91 L2335.08 1544.91 L2335.08 1518.55 L2326.77 1520.21 L2326.77 1515.95 L2335.04 1514.29 L2339.71 1514.29 L2339.71 1544.91 L2347.35 1544.91 L2347.35 1548.85 L2327.44 1548.85 L2327.44 1544.91 Z" fill="#000000" fill-rule="nonzero" fill-opacity="1" /><path clip-path="url(#clip530)" d="M2366.8 1517.37 Q2363.18 1517.37 2361.36 1520.93 Q2359.55 1524.47 2359.55 1531.6 Q2359.55 1538.71 2361.36 1542.27 Q2363.18 1545.82 2366.8 1545.82 Q2370.43 1545.82 2372.23 1542.27 Q2374.06 1538.71 2374.06 1531.6 Q2374.06 1524.47 2372.23 1520.93 Q2370.43 1517.37 2366.8 1517.37 M2366.8 1513.66 Q2372.61 1513.66 2375.66 1518.27 Q2378.74 1522.85 2378.74 1531.6 Q2378.74 1540.33 2375.66 1544.94 Q2372.61 1549.52 2366.8 1549.52 Q2360.99 1549.52 2357.91 1544.94 Q2354.85 1540.33 2354.85 1531.6 Q2354.85 1522.85 2357.91 1518.27 Q2360.99 1513.66 2366.8 1513.66 Z" fill="#000000" fill-rule="nonzero" fill-opacity="1" /><polyline clip-path="url(#clip532)" style="stroke:#000000; stroke-linecap:round; stroke-linejoin:round; stroke-width:2; stroke-opacity:0.1; fill:none" points="147.478,1445.72 2352.76,1445.72 "/>
<polyline clip-path="url(#clip532)" style="stroke:#000000; stroke-linecap:round; stroke-linejoin:round; stroke-width:2; stroke-opacity:0.1; fill:none" points="147.478,1106.27 2352.76,1106.27 "/>
<polyline clip-path="url(#clip532)" style="stroke:#000000; stroke-linecap:round; stroke-linejoin:round; stroke-width:2; stroke-opacity:0.1; fill:none" points="147.478,766.825 2352.76,766.825 "/>
<polyline clip-path="url(#clip532)" style="stroke:#000000; stroke-linecap:round; stroke-linejoin:round; stroke-width:2; stroke-opacity:0.1; fill:none" points="147.478,427.379 2352.76,427.379 "/>
<polyline clip-path="url(#clip532)" style="stroke:#000000; stroke-linecap:round; stroke-linejoin:round; stroke-width:2; stroke-opacity:0.1; fill:none" points="147.478,87.9332 2352.76,87.9332 "/>
<polyline clip-path="url(#clip530)" style="stroke:#000000; stroke-linecap:round; stroke-linejoin:round; stroke-width:4; stroke-opacity:1; fill:none" points="147.478,1486.45 147.478,47.2441 "/>
<polyline clip-path="url(#clip530)" style="stroke:#000000; stroke-linecap:round; stroke-linejoin:round; stroke-width:4; stroke-opacity:1; fill:none" points="147.478,1445.72 166.376,1445.72 "/>
<polyline clip-path="url(#clip530)" style="stroke:#000000; stroke-linecap:round; stroke-linejoin:round; stroke-width:4; stroke-opacity:1; fill:none" points="147.478,1106.27 166.376,1106.27 "/>
<polyline clip-path="url(#clip530)" style="stroke:#000000; stroke-linecap:round; stroke-linejoin:round; stroke-width:4; stroke-opacity:1; fill:none" points="147.478,766.825 166.376,766.825 "/>
<polyline clip-path="url(#clip530)" style="stroke:#000000; stroke-linecap:round; stroke-linejoin:round; stroke-width:4; stroke-opacity:1; fill:none" points="147.478,427.379 166.376,427.379 "/>
<polyline clip-path="url(#clip530)" style="stroke:#000000; stroke-linecap:round; stroke-linejoin:round; stroke-width:4; stroke-opacity:1; fill:none" points="147.478,87.9332 166.376,87.9332 "/>
<path clip-path="url(#clip530)" d="M50.9921 1446.17 L80.6679 1446.17 L80.6679 1450.1 L50.9921 1450.1 L50.9921 1446.17 Z" fill="#000000" fill-rule="nonzero" fill-opacity="1" /><path clip-path="url(#clip530)" d="M91.5706 1459.06 L99.2095 1459.06 L99.2095 1432.7 L90.8993 1434.36 L90.8993 1430.1 L99.1632 1428.44 L103.839 1428.44 L103.839 1459.06 L111.478 1459.06 L111.478 1463 L91.5706 1463 L91.5706 1459.06 Z" fill="#000000" fill-rule="nonzero" fill-opacity="1" /><path clip-path="url(#clip530)" d="M99.5335 1092.07 Q95.9224 1092.07 94.0937 1095.63 Q92.2882 1099.18 92.2882 1106.3 Q92.2882 1113.41 94.0937 1116.98 Q95.9224 1120.52 99.5335 1120.52 Q103.168 1120.52 104.973 1116.98 Q106.802 1113.41 106.802 1106.3 Q106.802 1099.18 104.973 1095.63 Q103.168 1092.07 99.5335 1092.07 M99.5335 1088.37 Q105.344 1088.37 108.399 1092.97 Q111.478 1097.56 111.478 1106.3 Q111.478 1115.03 108.399 1119.64 Q105.344 1124.22 99.5335 1124.22 Q93.7234 1124.22 90.6447 1119.64 Q87.5892 1115.03 87.5892 1106.3 Q87.5892 1097.56 90.6447 1092.97 Q93.7234 1088.37 99.5335 1088.37 Z" fill="#000000" fill-rule="nonzero" fill-opacity="1" /><path clip-path="url(#clip530)" d="M91.5706 780.169 L99.2095 780.169 L99.2095 753.804 L90.8993 755.47 L90.8993 751.211 L99.1632 749.545 L103.839 749.545 L103.839 780.169 L111.478 780.169 L111.478 784.105 L91.5706 784.105 L91.5706 780.169 Z" fill="#000000" fill-rule="nonzero" fill-opacity="1" /><path clip-path="url(#clip530)" d="M95.1586 440.724 L111.478 440.724 L111.478 444.659 L89.5336 444.659 L89.5336 440.724 Q92.1956 437.969 96.7789 433.339 Q101.385 428.687 102.566 427.344 Q104.811 424.821 105.691 423.085 Q106.594 421.326 106.594 419.636 Q106.594 416.881 104.649 415.145 Q102.728 413.409 99.6261 413.409 Q97.4271 413.409 94.9734 414.173 Q92.5428 414.937 89.7651 416.488 L89.7651 411.766 Q92.5891 410.631 95.0428 410.053 Q97.4965 409.474 99.5335 409.474 Q104.904 409.474 108.098 412.159 Q111.293 414.844 111.293 419.335 Q111.293 421.465 110.483 423.386 Q109.696 425.284 107.589 427.877 Q107.01 428.548 103.909 431.765 Q100.807 434.96 95.1586 440.724 Z" fill="#000000" fill-rule="nonzero" fill-opacity="1" /><path clip-path="url(#clip530)" d="M104.348 86.579 Q107.705 87.2966 109.58 89.5651 Q111.478 91.8336 111.478 95.1669 Q111.478 100.283 107.959 103.084 Q104.441 105.884 97.9595 105.884 Q95.7836 105.884 93.4688 105.445 Q91.1771 105.028 88.7234 104.172 L88.7234 99.6577 Q90.6678 100.792 92.9826 101.371 Q95.2974 101.949 97.8206 101.949 Q102.219 101.949 104.51 100.213 Q106.825 98.4771 106.825 95.1669 Q106.825 92.1114 104.672 90.3984 Q102.543 88.6623 98.7234 88.6623 L94.6956 88.6623 L94.6956 84.8198 L98.9085 84.8198 Q102.358 84.8198 104.186 83.454 Q106.015 82.0652 106.015 79.4726 Q106.015 76.8106 104.117 75.3985 Q102.242 73.9633 98.7234 73.9633 Q96.8021 73.9633 94.603 74.38 Q92.4039 74.7967 89.7651 75.6763 L89.7651 71.5097 Q92.4271 70.7689 94.7419 70.3986 Q97.0798 70.0282 99.14 70.0282 Q104.464 70.0282 107.566 72.4587 Q110.668 74.8661 110.668 78.9865 Q110.668 81.8568 109.024 83.8476 Q107.381 85.8151 104.348 86.579 Z" fill="#000000" fill-rule="nonzero" fill-opacity="1" /><circle clip-path="url(#clip532)" cx="191.583" cy="1022.77" r="14.4" fill="#009af9" fill-rule="evenodd" fill-opacity="1" stroke="#000000" stroke-opacity="1" stroke-width="3.2"/>
<circle clip-path="url(#clip532)" cx="1294.22" cy="1375.28" r="14.4" fill="#009af9" fill-rule="evenodd" fill-opacity="1" stroke="#000000" stroke-opacity="1" stroke-width="3.2"/>
<circle clip-path="url(#clip532)" cx="742.903" cy="872.699" r="14.4" fill="#009af9" fill-rule="evenodd" fill-opacity="1" stroke="#000000" stroke-opacity="1" stroke-width="3.2"/>
<circle clip-path="url(#clip532)" cx="1845.54" cy="111.841" r="14.4" fill="#009af9" fill-rule="evenodd" fill-opacity="1" stroke="#000000" stroke-opacity="1" stroke-width="3.2"/>
<circle clip-path="url(#clip532)" cx="467.243" cy="102.702" r="14.4" fill="#009af9" fill-rule="evenodd" fill-opacity="1" stroke="#000000" stroke-opacity="1" stroke-width="3.2"/>
<circle clip-path="url(#clip532)" cx="1569.88" cy="1039" r="14.4" fill="#009af9" fill-rule="evenodd" fill-opacity="1" stroke="#000000" stroke-opacity="1" stroke-width="3.2"/>
<circle clip-path="url(#clip532)" cx="1018.56" cy="1302.61" r="14.4" fill="#009af9" fill-rule="evenodd" fill-opacity="1" stroke="#000000" stroke-opacity="1" stroke-width="3.2"/>
<circle clip-path="url(#clip532)" cx="2121.2" cy="847.731" r="14.4" fill="#009af9" fill-rule="evenodd" fill-opacity="1" stroke="#000000" stroke-opacity="1" stroke-width="3.2"/>
<circle clip-path="url(#clip532)" cx="329.413" cy="539.246" r="14.4" fill="#009af9" fill-rule="evenodd" fill-opacity="1" stroke="#000000" stroke-opacity="1" stroke-width="3.2"/>
<circle clip-path="url(#clip532)" cx="1432.05" cy="1219.38" r="14.4" fill="#009af9" fill-rule="evenodd" fill-opacity="1" stroke="#000000" stroke-opacity="1" stroke-width="3.2"/>
<circle clip-path="url(#clip532)" cx="880.733" cy="1158.95" r="14.4" fill="#009af9" fill-rule="evenodd" fill-opacity="1" stroke="#000000" stroke-opacity="1" stroke-width="3.2"/>
<circle clip-path="url(#clip532)" cx="1983.37" cy="294.052" r="14.4" fill="#009af9" fill-rule="evenodd" fill-opacity="1" stroke="#000000" stroke-opacity="1" stroke-width="3.2"/>
<circle clip-path="url(#clip532)" cx="605.073" cy="321.006" r="14.4" fill="#009af9" fill-rule="evenodd" fill-opacity="1" stroke="#000000" stroke-opacity="1" stroke-width="3.2"/>
<circle clip-path="url(#clip532)" cx="1707.71" cy="570.48" r="14.4" fill="#009af9" fill-rule="evenodd" fill-opacity="1" stroke="#000000" stroke-opacity="1" stroke-width="3.2"/>
<circle clip-path="url(#clip532)" cx="1156.39" cy="1439.38" r="14.4" fill="#009af9" fill-rule="evenodd" fill-opacity="1" stroke="#000000" stroke-opacity="1" stroke-width="3.2"/>
<circle clip-path="url(#clip532)" cx="2259.03" cy="1150.61" r="14.4" fill="#009af9" fill-rule="evenodd" fill-opacity="1" stroke="#000000" stroke-opacity="1" stroke-width="3.2"/>
<circle clip-path="url(#clip532)" cx="260.498" cy="818.178" r="14.4" fill="#009af9" fill-rule="evenodd" fill-opacity="1" stroke="#000000" stroke-opacity="1" stroke-width="3.2"/>
<circle clip-path="url(#clip532)" cx="1363.14" cy="1292.76" r="14.4" fill="#009af9" fill-rule="evenodd" fill-opacity="1" stroke="#000000" stroke-opacity="1" stroke-width="3.2"/>
<circle clip-path="url(#clip532)" cx="811.818" cy="1056.22" r="14.4" fill="#009af9" fill-rule="evenodd" fill-opacity="1" stroke="#000000" stroke-opacity="1" stroke-width="3.2"/>
<circle clip-path="url(#clip532)" cx="1914.46" cy="113.256" r="14.4" fill="#009af9" fill-rule="evenodd" fill-opacity="1" stroke="#000000" stroke-opacity="1" stroke-width="3.2"/>
<circle clip-path="url(#clip532)" cx="536.158" cy="124.789" r="14.4" fill="#009af9" fill-rule="evenodd" fill-opacity="1" stroke="#000000" stroke-opacity="1" stroke-width="3.2"/>
<circle clip-path="url(#clip532)" cx="1638.8" cy="844.241" r="14.4" fill="#009af9" fill-rule="evenodd" fill-opacity="1" stroke="#000000" stroke-opacity="1" stroke-width="3.2"/>
<circle clip-path="url(#clip532)" cx="1087.48" cy="1384.55" r="14.4" fill="#009af9" fill-rule="evenodd" fill-opacity="1" stroke="#000000" stroke-opacity="1" stroke-width="3.2"/>
<circle clip-path="url(#clip532)" cx="2190.12" cy="1041.13" r="14.4" fill="#009af9" fill-rule="evenodd" fill-opacity="1" stroke="#000000" stroke-opacity="1" stroke-width="3.2"/>
<circle clip-path="url(#clip532)" cx="398.328" cy="264.821" r="14.4" fill="#009af9" fill-rule="evenodd" fill-opacity="1" stroke="#000000" stroke-opacity="1" stroke-width="3.2"/>
<circle clip-path="url(#clip532)" cx="1250.12" cy="1418.95" r="14.4" fill="#009af9" fill-rule="evenodd" fill-opacity="1" stroke="#000000" stroke-opacity="1" stroke-width="3.2"/>
<circle clip-path="url(#clip532)" cx="1272.17" cy="1398.95" r="14.4" fill="#009af9" fill-rule="evenodd" fill-opacity="1" stroke="#000000" stroke-opacity="1" stroke-width="3.2"/>
<circle clip-path="url(#clip532)" cx="1294.22" cy="1375.28" r="14.4" fill="#009af9" fill-rule="evenodd" fill-opacity="1" stroke="#000000" stroke-opacity="1" stroke-width="3.2"/>
<polyline clip-path="url(#clip532)" style="stroke:#e26f46; stroke-linecap:round; stroke-linejoin:round; stroke-width:4; stroke-opacity:1; fill:none" points="147.478,1106.27 151.067,1100.65 154.657,1094.85 158.246,1088.85 161.835,1082.66 170.133,1067.52 178.43,1051.21 186.727,1033.65 195.025,1014.79 203.322,994.585 211.619,973.007 219.916,950.041 228.214,925.684 236.511,899.953 244.808,872.877 253.106,844.502 261.403,814.893 269.7,784.126 277.997,752.299 286.295,719.52 294.592,685.916 314.537,602.623 334.482,517.616 354.428,433.448 374.373,352.875 382.805,320.58 391.236,289.642 399.668,260.266 408.1,232.649 416.532,206.98 424.963,183.437 433.395,162.185 441.827,143.374 450.986,125.861 460.145,111.535 464.725,105.606 469.305,100.517 473.884,96.2787 478.464,92.9009 483.043,90.3907 487.623,88.7533 492.203,87.9923 496.782,88.1093 501.362,89.1041 505.941,90.9745 510.521,93.7166 515.101,97.3243 523.545,106.219 531.989,117.964 540.433,132.474 548.877,149.646 557.321,169.354 565.765,191.46 574.209,215.806 582.653,242.223 591.705,272.636 600.758,304.982 609.811,339.01 618.864,374.464 636.97,448.594 655.075,525.265 676.053,614.582 697.03,701.633 707.519,743.505 718.007,783.911 728.496,822.623 738.984,859.453 748.306,890.485 757.627,919.839 766.948,947.465 776.269,973.339 785.59,997.46 794.911,1019.85 804.232,1040.56 813.553,1059.66 821.727,1075.14 829.9,1089.5 838.074,1102.83 846.248,1115.2 862.595,1137.44 878.943,1156.94 914.589,1193.65 950.235,1228.08 986.093,1265.31 1021.95,1306.67 1041.77,1330.71 1061.6,1354.74 1081.42,1377.83 1101.24,1398.98 1110.67,1408.06 1120.1,1416.36 1129.53,1423.79 1138.96,1430.24 1148.39,1435.66 1157.83,1439.96 1167.26,1443.09 1176.69,1445.02 1186.49,1445.72 1196.3,1445.07 1206.1,1443.1 1215.91,1439.82 1225.71,1435.28 1235.52,1429.54 1245.32,1422.68 1255.13,1414.8 1271.64,1399.48 1288.15,1382.09 1304.65,1363.2 1321.16,1343.43 1361.47,1294.72 1401.78,1249.77 1438.71,1212.95 1475.63,1176.99 1492.69,1158.91 1509.74,1138.76 1518.26,1127.65 1526.79,1115.7 1535.32,1102.82 1543.84,1088.89 1552.48,1073.63 1561.12,1057.11 1569.75,1039.28 1578.39,1020.04 1587.03,999.366 1595.66,977.208 1604.3,953.548 1612.93,928.381 1622.61,898.403 1632.29,866.6 1641.97,833.048 1651.65,797.855 1661.33,761.158 1671.01,723.124 1680.69,683.948 1690.37,643.85 1707.91,569.636 1725.45,494.834 1742.99,421.24 1760.54,350.748 1770.58,312.532 1780.62,276.315 1790.66,242.44 1800.7,211.232 1810.75,182.997 1820.79,158.015 1825.81,146.824 1830.83,136.537 1835.85,127.181 1840.87,118.779 1845.52,111.87 1850.17,105.813 1854.82,100.621 1859.47,96.3059 1864.12,92.8774 1868.77,90.3428 1873.42,88.7079 1878.06,87.9763 1882.71,88.1495 1887.36,89.2273 1892.01,91.2071 1896.66,94.0847 1901.31,97.8536 1905.96,102.505 1910.61,108.03 1915.26,114.415 1924.42,129.47 1933.59,147.685 1942.76,168.908 1951.92,192.958 1961.09,219.637 1970.26,248.724 1979.42,279.984 1988.59,313.166 1997.49,346.975 2006.39,382.104 2015.29,418.303 2024.19,455.321 2041.99,530.813 2059.79,606.643 2078.04,682.848 2096.29,755.817 2105.41,790.636 2114.54,824.147 2123.66,856.229 2132.78,886.783 2142.78,918.42 2152.78,948.072 2162.77,975.709 2172.77,1001.33 2182.77,1024.98 2192.76,1046.7 2202.76,1066.59 2212.75,1084.76 2227.28,1108.37 2241.8,1129.08 2256.32,1147.4 2270.84,1163.87 2299.88,1193.34 2328.92,1221.3 2334.88,1227.13 2340.84,1233.03 2346.8,1239.03 2352.76,1245.13 "/>
<polyline clip-path="url(#clip532)" style="stroke:#3da44d; stroke-linecap:round; stroke-linejoin:round; stroke-width:4; stroke-opacity:1; fill:none" points="147.478,824.322 151.067,828.632 154.657,833.604 158.246,839.38 161.835,846.143 165.984,855.511 170.133,867.055 172.207,873.874 174.281,881.561 176.356,890.282 178.43,900.253 180.504,911.752 182.579,925.149 184.653,940.946 186.727,959.838 187.764,970.741 188.802,982.823 189.839,996.286 190.876,1011.38 191.913,1017.32 192.95,1001.23 193.987,986.57 195.025,973.156 196.062,960.836 197.099,949.477 198.136,938.971 199.173,929.223 201.248,911.694 203.322,896.37 205.396,882.858 207.47,870.857 209.545,860.131 211.619,850.494 215.768,833.925 219.916,820.28 224.065,808.999 228.214,799.731 232.362,792.286 236.511,786.619 240.66,782.842 244.808,781.278 246.883,781.511 248.957,782.583 251.031,784.674 253.106,788.039 255.18,793.05 257.254,800.262 258.291,804.945 259.328,810.535 260.366,817.229 261.403,811.899 262.44,805.265 263.477,799.136 264.514,793.43 265.551,788.08 267.626,778.247 269.7,769.319 273.849,753.368 277.997,739.101 286.295,713.286 294.592,688.881 299.578,674.109 304.565,658.785 309.551,642.42 314.537,624.294 317.03,614.221 319.523,603.177 322.017,590.815 324.51,576.597 325.756,568.54 327.003,559.652 327.626,554.833 328.25,549.72 328.873,544.274 329.496,540.034 330.119,545.602 330.743,550.587 331.366,555.057 331.989,559.072 333.236,565.929 334.482,571.478 335.729,575.958 336.976,579.548 338.222,582.391 339.469,584.595 341.962,587.418 344.455,588.529 346.948,588.266 349.441,586.857 351.935,584.455 354.428,581.162 356.921,577.039 359.414,572.121 361.907,566.413 364.4,559.897 366.893,552.533 369.387,544.254 371.88,534.963 374.373,524.527 376.481,514.678 378.589,503.739 380.697,491.522 382.805,477.782 384.913,462.194 387.021,444.315 388.075,434.333 389.128,423.531 390.182,411.789 391.236,398.965 392.29,384.881 393.344,369.32 394.398,352.008 395.452,332.596 395.979,321.968 396.506,310.636 397.033,298.522 397.56,285.535 398.087,271.569 398.614,272.78 399.141,286.533 399.668,299.208 400.722,321.769 401.776,341.206 402.83,358.078 403.884,372.819 404.938,385.764 405.992,397.181 407.046,407.286 408.1,416.251 410.208,431.309 412.316,443.23 414.424,452.626 416.532,459.937 418.64,465.481 420.747,469.496 422.855,472.153 424.963,473.58 427.071,473.864 429.179,473.064 431.287,471.213 433.395,468.318 435.503,464.366 437.611,459.318 439.719,453.111 441.827,445.655 444.117,435.991 446.406,424.484 448.696,410.839 450.986,394.652 452.131,385.441 453.276,375.373 454.421,364.344 455.566,352.231 456.711,338.885 457.855,324.126 459,307.734 460.145,289.435 461.29,268.89 462.435,245.667 463.008,232.884 463.58,219.212 464.152,204.554 464.725,188.8 465.297,171.821 465.87,153.466 466.442,133.561 467.015,111.896 467.587,116.412 468.16,137.673 468.732,157.195 469.305,175.181 469.877,191.803 470.449,207.208 471.022,221.523 471.594,234.857 472.739,258.947 473.884,280.103 475.029,298.805 476.174,315.434 477.319,330.289 478.464,343.614 479.609,355.606 480.754,366.426 481.898,376.21 483.043,385.069 485.333,400.372 487.623,412.926 489.913,423.155 492.203,431.369 494.492,437.79 496.782,442.577 499.072,445.835 501.362,447.625 503.652,447.971 505.941,446.856 508.231,444.228 510.521,439.988 512.811,433.992 515.101,426.031 517.212,416.705 519.323,405.162 521.434,390.992 523.545,373.64 524.6,363.541 525.656,352.338 526.711,339.883 527.767,326.001 528.822,310.477 529.878,293.051 530.933,273.397 531.989,251.108 532.516,238.819 533.044,225.668 533.572,211.565 534.1,196.41 534.627,180.087 535.155,162.46 535.683,143.375 536.211,126.912 536.738,147.347 537.266,166.257 537.794,183.812 538.322,200.157 539.377,229.701 540.433,255.7 541.488,278.773 542.544,299.401 543.599,317.963 544.655,334.759 545.71,350.034 546.766,363.987 547.821,376.782 548.877,388.554 550.988,409.47 553.099,427.452 555.21,443.019 557.321,456.556 559.432,468.349 561.543,478.615 563.654,487.516 565.765,495.17 567.876,501.666 569.987,507.059 572.098,511.382 574.209,514.642 576.32,516.825 578.431,517.89 580.542,517.77 582.653,516.368 584.916,513.282 587.179,508.331 589.442,501.199 591.705,491.448 592.837,485.41 593.969,478.474 595.1,470.523 596.232,461.418 597.364,450.991 598.495,439.036 599.627,425.298 600.758,409.459 601.89,391.116 603.022,369.754 603.587,357.739 604.153,344.701 604.719,330.522 605.285,326.768 605.851,341.396 606.416,355.002 606.982,367.701 607.548,379.59 608.68,401.268 609.811,420.583 610.943,437.951 612.074,453.696 613.206,468.072 614.338,481.282 616.601,504.831 618.864,525.333 621.127,543.472 623.39,559.737 625.654,574.486 627.917,587.989 632.443,612.036 636.97,633.055 641.496,651.802 646.023,668.787 650.549,684.37 655.075,698.811 665.564,728.875 676.053,755.399 686.541,779.334 697.03,801.267 707.519,821.538 718.007,840.259 723.252,848.971 728.496,857.114 733.74,864.425 738.984,870.271 743.645,872.587 748.306,874.607 752.966,879.393 757.627,885.663 766.948,900.832 776.269,918.627 780.929,928.563 785.59,939.387 790.25,951.387 794.911,965.056 797.241,972.767 799.571,981.271 801.902,990.809 804.232,1001.73 806.562,1014.58 808.892,1030.22 809.475,1034.73 810.057,1039.52 810.64,1044.65 811.223,1050.15 811.805,1056.09 812.388,1050.48 812.97,1045.18 813.553,1040.39 814.575,1033.04 815.596,1026.81 816.618,1021.51 817.64,1016.98 819.683,1009.78 821.727,1004.5 823.77,1000.69 825.813,998.025 827.857,996.274 829.9,995.275 833.987,995.09 838.074,996.836 842.161,1000.17 846.248,1004.92 850.335,1011.06 854.421,1018.69 858.508,1028.05 862.595,1039.57 864.639,1046.36 866.682,1054.01 868.726,1062.71 870.769,1072.72 872.812,1084.39 874.856,1098.23 875.878,1106.19 876.899,1115 877.921,1124.82 878.943,1135.85 879.5,1142.47 880.057,1149.58 880.614,1157.23 881.171,1152.82 882.284,1139 883.398,1127.3 884.512,1117.29 885.626,1108.65 886.74,1101.13 887.854,1094.56 890.082,1083.66 892.31,1075.09 894.538,1068.26 896.766,1062.8 901.222,1054.88 905.677,1049.85 910.133,1046.85 914.589,1045.36 923.5,1045.66 932.412,1049.11 941.324,1054.94 950.235,1062.81 959.2,1072.68 968.164,1084.67 977.129,1099.21 986.093,1117.25 990.575,1128.11 995.058,1140.71 999.54,1155.71 1004.02,1174.21 1006.26,1185.34 1008.5,1198.21 1010.75,1213.39 1012.99,1231.74 1014.11,1242.51 1015.23,1254.65 1016.35,1268.47 1017.47,1284.42 1018.03,1293.37 1018.59,1302.13 1019.15,1292.53 1019.71,1283.76 1020.83,1268.36 1021.95,1255.32 1023.19,1243.11 1024.43,1232.77 1025.67,1223.96 1026.91,1216.41 1029.38,1204.34 1031.86,1195.39 1034.34,1188.79 1036.82,1184.03 1039.3,1180.76 1041.77,1178.73 1046.73,1177.74 1051.69,1180.22 1054.16,1182.65 1056.64,1185.85 1059.12,1189.87 1061.6,1194.75 1064.07,1200.59 1066.55,1207.51 1069.03,1215.69 1071.51,1225.41 1073.99,1237.05 1076.46,1251.18 1077.7,1259.43 1078.94,1268.66 1080.18,1279.07 1081.42,1290.88 1082.66,1304.44 1083.9,1320.17 1085.14,1338.68 1086.38,1360.81 1086.99,1373.61 1087.61,1381.36 1088.23,1367.85 1088.85,1355.73 1089.47,1344.79 1090.09,1334.89 1090.71,1325.88 1091.33,1317.65 1092.57,1303.21 1093.81,1290.97 1095.05,1280.51 1096.29,1271.51 1097.53,1263.72 1098.76,1256.95 1100,1251.04 1101.24,1245.89 1103.6,1237.81 1105.96,1231.61 1108.32,1226.92 1110.67,1223.5 1113.03,1221.18 1115.39,1219.82 1117.75,1219.35 1120.1,1219.71 1122.46,1220.87 1124.82,1222.83 1127.18,1225.6 1129.53,1229.24 1131.89,1233.81 1134.25,1239.43 1136.61,1246.27 1138.96,1254.54 1141.32,1264.57 1143.68,1276.81 1144.86,1283.96 1146.04,1291.95 1147.22,1300.91 1148.39,1311.02 1149.57,1322.51 1150.75,1335.68 1151.93,1350.91 1153.11,1368.74 1153.7,1378.84 1154.29,1389.88 1154.88,1402 1155.47,1415.37 1156.06,1430.2 1156.65,1432.38 1157.24,1417.35 1157.83,1403.82 1158.41,1391.57 1159,1380.44 1159.59,1370.28 1160.18,1360.98 1161.36,1344.53 1162.54,1330.47 1163.72,1318.32 1164.9,1307.75 1166.08,1298.46 1167.26,1290.27 1169.61,1276.53 1171.97,1265.54 1174.33,1256.65 1176.69,1249.43 1179.14,1243.33 1181.59,1238.42 1184.04,1234.49 1186.49,1231.41 1191.39,1227.36 1196.3,1225.64 1201.2,1225.9 1206.1,1227.91 1211.01,1231.61 1215.91,1237.01 1220.81,1244.25 1225.71,1253.64 1228.17,1259.31 1230.62,1265.77 1233.07,1273.19 1235.52,1281.79 1237.97,1291.96 1240.42,1304.27 1241.65,1311.53 1242.87,1319.76 1244.1,1329.24 1245.32,1340.39 1245.94,1346.76 1246.55,1353.81 1247.16,1361.66 1247.78,1370.5 1248.39,1380.57 1249,1392.19 1249.61,1405.82 1250.23,1415.88 1250.84,1400.59 1251.45,1387.76 1252.07,1376.91 1252.68,1367.66 1253.29,1359.76 1253.9,1352.97 1254.52,1347.14 1255.13,1342.13 1256.16,1335.26 1257.19,1330.05 1258.23,1326.22 1259.26,1323.58 1260.29,1322 1261.32,1321.39 1262.35,1321.7 1263.38,1322.93 1264.42,1325.1 1265.45,1328.29 1266.48,1332.63 1267.51,1338.35 1268.54,1345.78 1269.57,1355.52 1270.09,1361.53 1270.61,1368.53 1271.12,1376.78 1271.64,1386.61 1272.15,1398.55 1272.67,1387.19 1273.19,1377.11 1273.7,1368.61 1274.73,1355.19 1275.77,1345.21 1276.8,1337.67 1277.83,1331.98 1278.86,1327.76 1279.89,1324.75 1281.96,1321.73 1284.02,1322.13 1286.08,1325.67 1288.15,1332.38 1289.18,1337.01 1290.21,1342.59 1291.24,1349.19 1292.27,1356.95 1292.79,1361.3 1293.31,1366 1293.82,1371.06 1294.34,1374.04 1294.85,1368.71 1295.37,1363.69 1295.88,1358.95 1296.4,1354.45 1298.46,1338.49 1300.53,1324.97 1302.59,1313.21 1304.65,1302.8 1308.78,1284.98 1312.91,1270.12 1314.97,1263.57 1317.04,1257.51 1319.1,1251.92 1321.16,1246.75 1326.2,1235.79 1331.24,1227.1 1336.28,1220.76 1341.32,1217.11 1343.84,1216.52 1346.36,1216.97 1348.88,1218.69 1351.4,1222.07 1352.66,1224.54 1353.91,1227.66 1355.17,1231.56 1356.43,1236.4 1357.69,1242.42 1358.95,1249.93 1360.21,1259.35 1361.47,1271.33 1362.1,1278.55 1362.73,1286.81 1363.36,1289.38 1363.99,1280.67 1364.62,1272.89 1365.25,1265.91 1365.88,1259.59 1366.51,1253.82 1367.77,1243.66 1369.03,1234.95 1370.29,1227.35 1371.55,1220.63 1374.07,1209.18 1376.59,1199.68 1379.11,1191.6 1381.63,1184.59 1386.67,1172.98 1391.7,1163.83 1396.74,1156.7 1401.78,1151.47 1406.4,1148.49 1411.01,1147.6 1413.32,1148.14 1415.63,1149.49 1417.94,1151.85 1420.25,1155.48 1422.55,1160.76 1424.86,1168.25 1426.01,1173.08 1427.17,1178.83 1428.32,1185.7 1429.48,1193.95 1430.05,1198.7 1430.63,1203.94 1431.21,1209.73 1431.78,1216.15 1432.36,1215.65 1432.94,1209.16 1433.52,1203.2 1434.09,1197.69 1435.25,1187.82 1436.4,1179.19 1437.55,1171.55 1438.71,1164.69 1441.02,1152.81 1443.32,1142.74 1445.63,1133.98 1447.94,1126.2 1452.56,1112.77 1457.17,1101.29 1461.79,1091.14 1466.4,1081.96 1471.02,1073.51 1475.63,1065.63 1484.16,1052.25 1492.69,1040.08 1501.21,1028.92 1509.74,1018.69 1518.26,1009.43 1526.79,1001.34 1535.32,994.797 1543.84,990.636 1548.16,989.945 1552.48,990.722 1554.64,991.87 1556.8,993.691 1558.96,996.37 1561.12,1000.16 1563.27,1005.45 1565.43,1012.8 1566.51,1017.51 1567.59,1023.11 1568.13,1026.31 1568.67,1029.82 1569.21,1033.67 1569.75,1037.91 1570.29,1035.62 1570.83,1031.42 1571.37,1027.48 1571.91,1023.75 1572.99,1016.89 1574.07,1010.69 1576.23,999.814 1578.39,990.462 1582.71,974.785 1587.03,961.67 1591.34,950.115 1595.66,939.557 1604.3,920.174 1612.93,901.896 1617.77,891.782 1622.61,881.591 1627.45,871.172 1632.29,860.315 1634.71,854.61 1637.13,848.613 1638.34,845.46 1639.55,846.08 1640.76,848.283 1641.97,849.757 1644.39,851.086 1646.81,850.865 1649.23,849.543 1651.65,847.394 1656.49,841.23 1661.33,833.123 1666.17,823.348 1671.01,811.921 1675.85,798.663 1680.69,783.186 1683.11,774.42 1685.53,764.816 1687.95,754.215 1690.37,742.409 1692.56,730.435 1694.75,716.961 1696.95,701.604 1699.14,683.838 1700.24,673.826 1701.33,662.904 1702.43,650.92 1703.52,637.686 1704.62,622.964 1705.72,606.454 1706.27,597.411 1706.81,587.767 1707.36,577.453 1707.91,574.453 1708.46,584.817 1709.01,594.342 1709.55,603.118 1710.1,611.227 1711.2,625.704 1712.3,638.22 1713.39,649.116 1714.49,658.658 1715.58,667.057 1716.68,674.48 1718.87,686.92 1721.07,696.801 1723.26,704.694 1725.45,711.006 1729.84,720.006 1734.22,725.414 1738.61,728.193 1742.99,728.946 1747.38,728.067 1751.76,725.818 1756.15,722.374 1760.54,717.848 1765.56,711.426 1770.58,703.724 1775.6,694.741 1780.62,684.427 1785.64,672.688 1790.66,659.371 1795.68,644.261 1800.7,627.05 1805.72,607.309 1810.75,584.424 1813.26,571.539 1815.77,557.502 1818.28,542.129 1820.79,525.186 1823.3,506.379 1825.81,485.322 1828.32,461.51 1830.83,434.26 1832.09,419.063 1833.34,402.625 1834.6,384.765 1835.85,365.261 1837.11,343.842 1838.36,320.175 1839.62,293.839 1840.87,264.299 1841.45,249.354 1842.03,233.494 1842.62,216.625 1843.2,198.639 1843.78,179.411 1844.36,158.8 1844.94,136.636 1845.52,112.726 1846.1,134.96 1846.68,157.12 1847.26,177.629 1847.85,196.655 1848.43,214.343 1849.01,230.821 1849.59,246.198 1850.17,260.573 1851.33,286.652 1852.49,309.638 1853.66,329.99 1854.82,348.08 1855.98,364.21 1857.14,378.628 1858.31,391.539 1859.47,403.114 1860.63,413.497 1861.79,422.809 1862.96,431.153 1864.12,438.618 1866.44,451.199 1868.77,461.033 1871.09,468.476 1873.42,473.789 1875.74,477.159 1878.06,478.713 1880.39,478.525 1882.71,476.626 1885.04,472.999 1887.36,467.583 1889.69,460.266 1892.01,450.874 1894.34,439.162 1896.66,424.785 1897.82,416.456 1898.99,407.271 1900.15,397.141 1901.31,385.962 1902.47,373.611 1903.63,359.938 1904.8,344.765 1905.96,327.873 1907.12,308.996 1908.28,287.803 1908.86,276.214 1909.45,263.882 1910.03,250.74 1910.61,236.708 1911.19,221.697 1911.77,205.605 1912.35,188.314 1912.93,169.689 1913.51,149.573 1914.09,127.782 1914.68,122.123 1915.26,144.381 1915.83,164.658 1916.4,183.464 1916.98,200.955 1917.55,217.265 1918.69,246.795 1919.84,272.816 1920.99,295.918 1922.13,316.56 1923.28,335.108 1924.42,351.856 1925.57,367.041 1926.72,380.859 1927.86,393.473 1929.01,405.017 1931.3,425.332 1933.59,442.519 1935.88,457.096 1938.17,469.447 1940.47,479.854 1942.76,488.525 1945.05,495.612 1947.34,501.219 1949.63,505.41 1951.92,508.214 1954.22,509.624 1956.51,509.601 1958.8,508.067 1961.09,504.898 1963.38,499.922 1965.67,492.895 1967.97,483.489 1970.26,471.252 1971.4,463.888 1972.55,455.567 1973.7,446.172 1974.84,435.565 1975.99,423.579 1977.13,410.01 1978.28,394.611 1979.42,377.075 1980.57,357.02 1981.72,333.963 1982.29,321.123 1982.86,307.286 1983.44,295.743 1984.01,310.488 1985.15,337.138 1986.3,360.623 1987.45,381.53 1988.59,400.305 1989.7,416.824 1990.82,431.916 1991.93,445.783 1993.04,458.591 1995.27,481.557 1997.49,501.656 1999.72,519.49 2001.94,535.497 2004.17,550.007 2006.39,563.273 2010.84,586.817 2015.29,607.268 2019.74,625.377 2024.19,641.662 2028.64,656.493 2033.09,670.142 2037.54,682.817 2041.99,694.679 2050.89,716.451 2059.79,736.22 2078.04,772.56 2096.29,805.557 2105.41,821.375 2114.54,836.85 2116.82,840.638 2119.1,844.368 2120.24,846.203 2121.38,847.458 2122.52,845.984 2123.66,844.937 2128.22,843.853 2132.78,846.056 2137.78,850.849 2142.78,857.429 2147.78,865.475 2152.78,874.89 2157.77,885.739 2162.77,898.235 2167.77,912.779 2172.77,930.059 2175.27,940.068 2177.77,951.27 2180.27,963.975 2182.77,978.629 2185.26,995.883 2187.76,1016.74 2188.39,1022.69 2189.01,1029 2189.64,1035.7 2190.26,1039.46 2190.89,1032.64 2191.51,1026.37 2192.14,1020.61 2192.76,1015.29 2194.01,1005.82 2195.26,997.699 2196.51,990.691 2197.76,984.63 2200.26,974.831 2202.76,967.497 2205.26,962.095 2207.76,958.257 2210.25,955.728 2212.75,954.328 2216.38,954.057 2220.01,955.672 2223.64,959.064 2227.28,964.23 2230.91,971.265 2234.54,980.367 2238.17,991.86 2241.8,1006.23 2243.61,1014.71 2245.43,1024.2 2247.24,1034.85 2249.06,1046.85 2250.87,1060.42 2252.69,1075.84 2254.5,1093.48 2256.32,1113.8 2257.23,1125.16 2258.13,1137.43 2259.04,1150.47 2259.95,1137.29 2260.86,1125.3 2261.76,1114.33 2262.67,1104.27 2263.58,1094.99 2265.39,1078.44 2267.21,1064.11 2269.02,1051.56 2270.84,1040.46 2274.47,1021.7 2278.1,1006.4 2281.73,993.652 2285.36,982.848 2288.99,973.559 2292.62,965.478 2296.25,958.376 2299.88,952.083 2307.14,941.416 2314.4,932.713 2321.66,925.478 2328.92,919.375 2334.88,915.041 2340.84,911.208 2346.8,907.798 2352.76,904.749 "/>
<path clip-path="url(#clip530)" d="M922.493 302.578 L1577.74 302.578 L1577.74 95.2176 L922.493 95.2176  Z" fill="#ffffff" fill-rule="evenodd" fill-opacity="1"/>
<polyline clip-path="url(#clip530)" style="stroke:#000000; stroke-linecap:round; stroke-linejoin:round; stroke-width:4; stroke-opacity:1; fill:none" points="922.493,302.578 1577.74,302.578 1577.74,95.2176 922.493,95.2176 922.493,302.578 "/>
<circle clip-path="url(#clip530)" cx="1020.51" cy="147.058" r="20.48" fill="#009af9" fill-rule="evenodd" fill-opacity="1" stroke="#000000" stroke-opacity="1" stroke-width="4.55111"/>
<path clip-path="url(#clip530)" d="M1140.76 130.912 L1140.76 135.472 Q1138.1 134.199 1135.74 133.574 Q1133.38 132.949 1131.18 132.949 Q1127.36 132.949 1125.28 134.43 Q1123.22 135.912 1123.22 138.643 Q1123.22 140.935 1124.58 142.115 Q1125.97 143.273 1129.81 143.99 L1132.64 144.569 Q1137.87 145.565 1140.35 148.088 Q1142.85 150.588 1142.85 154.801 Q1142.85 159.824 1139.47 162.416 Q1136.11 165.009 1129.61 165.009 Q1127.15 165.009 1124.37 164.453 Q1121.62 163.898 1118.66 162.81 L1118.66 157.995 Q1121.5 159.592 1124.24 160.402 Q1126.97 161.213 1129.61 161.213 Q1133.61 161.213 1135.79 159.639 Q1137.96 158.064 1137.96 155.148 Q1137.96 152.602 1136.39 151.166 Q1134.84 149.731 1131.27 149.014 L1128.43 148.458 Q1123.19 147.416 1120.86 145.194 Q1118.52 142.972 1118.52 139.014 Q1118.52 134.43 1121.74 131.791 Q1124.98 129.153 1130.65 129.153 Q1133.08 129.153 1135.6 129.592 Q1138.12 130.032 1140.76 130.912 Z" fill="#000000" fill-rule="nonzero" fill-opacity="1" /><path clip-path="url(#clip530)" d="M1161.74 151.305 Q1156.57 151.305 1154.58 152.486 Q1152.59 153.666 1152.59 156.514 Q1152.59 158.782 1154.07 160.125 Q1155.58 161.444 1158.15 161.444 Q1161.69 161.444 1163.82 158.944 Q1165.97 156.421 1165.97 152.254 L1165.97 151.305 L1161.74 151.305 M1170.23 149.546 L1170.23 164.338 L1165.97 164.338 L1165.97 160.402 Q1164.51 162.763 1162.34 163.898 Q1160.16 165.009 1157.01 165.009 Q1153.03 165.009 1150.67 162.787 Q1148.33 160.541 1148.33 156.791 Q1148.33 152.416 1151.25 150.194 Q1154.19 147.972 1160 147.972 L1165.97 147.972 L1165.97 147.555 Q1165.97 144.615 1164.03 143.018 Q1162.11 141.398 1158.61 141.398 Q1156.39 141.398 1154.28 141.93 Q1152.18 142.463 1150.23 143.527 L1150.23 139.592 Q1152.57 138.69 1154.77 138.25 Q1156.97 137.787 1159.05 137.787 Q1164.67 137.787 1167.45 140.703 Q1170.23 143.62 1170.23 149.546 Z" fill="#000000" fill-rule="nonzero" fill-opacity="1" /><path clip-path="url(#clip530)" d="M1199.19 143.389 Q1200.79 140.518 1203.01 139.153 Q1205.23 137.787 1208.24 137.787 Q1212.29 137.787 1214.49 140.634 Q1216.69 143.458 1216.69 148.689 L1216.69 164.338 L1212.41 164.338 L1212.41 148.828 Q1212.41 145.102 1211.09 143.296 Q1209.77 141.49 1207.06 141.49 Q1203.75 141.49 1201.83 143.69 Q1199.91 145.889 1199.91 149.685 L1199.91 164.338 L1195.62 164.338 L1195.62 148.828 Q1195.62 145.078 1194.3 143.296 Q1192.98 141.49 1190.23 141.49 Q1186.97 141.49 1185.05 143.713 Q1183.12 145.912 1183.12 149.685 L1183.12 164.338 L1178.84 164.338 L1178.84 138.412 L1183.12 138.412 L1183.12 142.44 Q1184.58 140.055 1186.62 138.921 Q1188.66 137.787 1191.46 137.787 Q1194.28 137.787 1196.25 139.222 Q1198.24 140.657 1199.19 143.389 Z" fill="#000000" fill-rule="nonzero" fill-opacity="1" /><path clip-path="url(#clip530)" d="M1229.3 160.449 L1229.3 174.199 L1225.02 174.199 L1225.02 138.412 L1229.3 138.412 L1229.3 142.347 Q1230.65 140.032 1232.68 138.921 Q1234.74 137.787 1237.59 137.787 Q1242.31 137.787 1245.25 141.537 Q1248.22 145.287 1248.22 151.398 Q1248.22 157.509 1245.25 161.259 Q1242.31 165.009 1237.59 165.009 Q1234.74 165.009 1232.68 163.898 Q1230.65 162.763 1229.3 160.449 M1243.79 151.398 Q1243.79 146.699 1241.85 144.037 Q1239.93 141.352 1236.55 141.352 Q1233.17 141.352 1231.23 144.037 Q1229.3 146.699 1229.3 151.398 Q1229.3 156.097 1231.23 158.782 Q1233.17 161.444 1236.55 161.444 Q1239.93 161.444 1241.85 158.782 Q1243.79 156.097 1243.79 151.398 Z" fill="#000000" fill-rule="nonzero" fill-opacity="1" /><path clip-path="url(#clip530)" d="M1255.28 128.319 L1259.54 128.319 L1259.54 164.338 L1255.28 164.338 L1255.28 128.319 Z" fill="#000000" fill-rule="nonzero" fill-opacity="1" /><path clip-path="url(#clip530)" d="M1290.62 150.31 L1290.62 152.393 L1271.04 152.393 Q1271.32 156.791 1273.68 159.106 Q1276.06 161.398 1280.3 161.398 Q1282.75 161.398 1285.04 160.796 Q1287.36 160.194 1289.63 158.99 L1289.63 163.018 Q1287.34 163.99 1284.93 164.5 Q1282.52 165.009 1280.04 165.009 Q1273.84 165.009 1270.21 161.398 Q1266.6 157.787 1266.6 151.629 Q1266.6 145.264 1270.02 141.537 Q1273.47 137.787 1279.3 137.787 Q1284.54 137.787 1287.57 141.166 Q1290.62 144.523 1290.62 150.31 M1286.36 149.06 Q1286.32 145.565 1284.4 143.481 Q1282.5 141.398 1279.35 141.398 Q1275.79 141.398 1273.63 143.412 Q1271.5 145.426 1271.18 149.083 L1286.36 149.06 Z" fill="#000000" fill-rule="nonzero" fill-opacity="1" /><path clip-path="url(#clip530)" d="M1314.67 142.347 L1314.67 128.319 L1318.93 128.319 L1318.93 164.338 L1314.67 164.338 L1314.67 160.449 Q1313.33 162.763 1311.27 163.898 Q1309.23 165.009 1306.36 165.009 Q1301.66 165.009 1298.7 161.259 Q1295.76 157.509 1295.76 151.398 Q1295.76 145.287 1298.7 141.537 Q1301.66 137.787 1306.36 137.787 Q1309.23 137.787 1311.27 138.921 Q1313.33 140.032 1314.67 142.347 M1300.16 151.398 Q1300.16 156.097 1302.08 158.782 Q1304.03 161.444 1307.41 161.444 Q1310.79 161.444 1312.73 158.782 Q1314.67 156.097 1314.67 151.398 Q1314.67 146.699 1312.73 144.037 Q1310.79 141.352 1307.41 141.352 Q1304.03 141.352 1302.08 144.037 Q1300.16 146.699 1300.16 151.398 Z" fill="#000000" fill-rule="nonzero" fill-opacity="1" /><path clip-path="url(#clip530)" d="M1346.9 160.449 L1346.9 174.199 L1342.61 174.199 L1342.61 138.412 L1346.9 138.412 L1346.9 142.347 Q1348.24 140.032 1350.28 138.921 Q1352.34 137.787 1355.18 137.787 Q1359.91 137.787 1362.85 141.537 Q1365.81 145.287 1365.81 151.398 Q1365.81 157.509 1362.85 161.259 Q1359.91 165.009 1355.18 165.009 Q1352.34 165.009 1350.28 163.898 Q1348.24 162.763 1346.9 160.449 M1361.39 151.398 Q1361.39 146.699 1359.44 144.037 Q1357.52 141.352 1354.14 141.352 Q1350.76 141.352 1348.82 144.037 Q1346.9 146.699 1346.9 151.398 Q1346.9 156.097 1348.82 158.782 Q1350.76 161.444 1354.14 161.444 Q1357.52 161.444 1359.44 158.782 Q1361.39 156.097 1361.39 151.398 Z" fill="#000000" fill-rule="nonzero" fill-opacity="1" /><path clip-path="url(#clip530)" d="M1382.91 141.398 Q1379.49 141.398 1377.5 144.083 Q1375.51 146.745 1375.51 151.398 Q1375.51 156.051 1377.47 158.736 Q1379.47 161.398 1382.91 161.398 Q1386.32 161.398 1388.31 158.713 Q1390.3 156.027 1390.3 151.398 Q1390.3 146.791 1388.31 144.106 Q1386.32 141.398 1382.91 141.398 M1382.91 137.787 Q1388.47 137.787 1391.64 141.398 Q1394.81 145.009 1394.81 151.398 Q1394.81 157.764 1391.64 161.398 Q1388.47 165.009 1382.91 165.009 Q1377.34 165.009 1374.16 161.398 Q1371.02 157.764 1371.02 151.398 Q1371.02 145.009 1374.16 141.398 Q1377.34 137.787 1382.91 137.787 Z" fill="#000000" fill-rule="nonzero" fill-opacity="1" /><path clip-path="url(#clip530)" d="M1401.87 138.412 L1406.13 138.412 L1406.13 164.338 L1401.87 164.338 L1401.87 138.412 M1401.87 128.319 L1406.13 128.319 L1406.13 133.713 L1401.87 133.713 L1401.87 128.319 Z" fill="#000000" fill-rule="nonzero" fill-opacity="1" /><path clip-path="url(#clip530)" d="M1436.59 148.689 L1436.59 164.338 L1432.34 164.338 L1432.34 148.828 Q1432.34 145.148 1430.9 143.319 Q1429.47 141.49 1426.59 141.49 Q1423.15 141.49 1421.16 143.69 Q1419.16 145.889 1419.16 149.685 L1419.16 164.338 L1414.88 164.338 L1414.88 138.412 L1419.16 138.412 L1419.16 142.44 Q1420.69 140.102 1422.75 138.944 Q1424.84 137.787 1427.54 137.787 Q1432.01 137.787 1434.3 140.565 Q1436.59 143.319 1436.59 148.689 Z" fill="#000000" fill-rule="nonzero" fill-opacity="1" /><path clip-path="url(#clip530)" d="M1449.3 131.051 L1449.3 138.412 L1458.08 138.412 L1458.08 141.722 L1449.3 141.722 L1449.3 155.796 Q1449.3 158.967 1450.16 159.87 Q1451.04 160.773 1453.7 160.773 L1458.08 160.773 L1458.08 164.338 L1453.7 164.338 Q1448.77 164.338 1446.9 162.509 Q1445.02 160.657 1445.02 155.796 L1445.02 141.722 L1441.9 141.722 L1441.9 138.412 L1445.02 138.412 L1445.02 131.051 L1449.3 131.051 Z" fill="#000000" fill-rule="nonzero" fill-opacity="1" /><path clip-path="url(#clip530)" d="M1480.21 139.176 L1480.21 143.203 Q1478.4 142.277 1476.46 141.815 Q1474.51 141.352 1472.43 141.352 Q1469.26 141.352 1467.66 142.324 Q1466.09 143.296 1466.09 145.24 Q1466.09 146.722 1467.22 147.578 Q1468.35 148.412 1471.78 149.176 L1473.24 149.5 Q1477.78 150.472 1479.67 152.254 Q1481.59 154.014 1481.59 157.185 Q1481.59 160.796 1478.72 162.902 Q1475.88 165.009 1470.88 165.009 Q1468.79 165.009 1466.53 164.592 Q1464.28 164.199 1461.78 163.388 L1461.78 158.99 Q1464.14 160.217 1466.43 160.842 Q1468.72 161.444 1470.97 161.444 Q1473.98 161.444 1475.6 160.426 Q1477.22 159.384 1477.22 157.509 Q1477.22 155.773 1476.04 154.847 Q1474.88 153.921 1470.92 153.064 L1469.44 152.717 Q1465.48 151.884 1463.72 150.171 Q1461.97 148.435 1461.97 145.426 Q1461.97 141.768 1464.56 139.778 Q1467.15 137.787 1471.92 137.787 Q1474.28 137.787 1476.36 138.134 Q1478.45 138.481 1480.21 139.176 Z" fill="#000000" fill-rule="nonzero" fill-opacity="1" /><polyline clip-path="url(#clip530)" style="stroke:#e26f46; stroke-linecap:round; stroke-linejoin:round; stroke-width:4; stroke-opacity:1; fill:none" points="946.996,198.898 1094.01,198.898 "/>
<path clip-path="url(#clip530)" d="M1118.52 181.618 L1147.75 181.618 L1147.75 185.553 L1135.49 185.553 L1135.49 216.178 L1130.79 216.178 L1130.79 185.553 L1118.52 185.553 L1118.52 181.618 Z" fill="#000000" fill-rule="nonzero" fill-opacity="1" /><path clip-path="url(#clip530)" d="M1160.14 194.233 Q1159.42 193.817 1158.56 193.631 Q1157.73 193.423 1156.71 193.423 Q1153.1 193.423 1151.16 195.784 Q1149.24 198.122 1149.24 202.52 L1149.24 216.178 L1144.95 216.178 L1144.95 190.252 L1149.24 190.252 L1149.24 194.28 Q1150.58 191.918 1152.73 190.784 Q1154.88 189.627 1157.96 189.627 Q1158.4 189.627 1158.93 189.696 Q1159.47 189.743 1160.11 189.858 L1160.14 194.233 Z" fill="#000000" fill-rule="nonzero" fill-opacity="1" /><path clip-path="url(#clip530)" d="M1164.17 205.946 L1164.17 190.252 L1168.42 190.252 L1168.42 205.784 Q1168.42 209.465 1169.86 211.316 Q1171.3 213.145 1174.17 213.145 Q1177.61 213.145 1179.61 210.946 Q1181.62 208.747 1181.62 204.951 L1181.62 190.252 L1185.88 190.252 L1185.88 216.178 L1181.62 216.178 L1181.62 212.196 Q1180.07 214.557 1178.01 215.715 Q1175.97 216.849 1173.26 216.849 Q1168.8 216.849 1166.48 214.071 Q1164.17 211.293 1164.17 205.946 M1174.88 189.627 L1174.88 189.627 Z" fill="#000000" fill-rule="nonzero" fill-opacity="1" /><path clip-path="url(#clip530)" d="M1216.83 202.15 L1216.83 204.233 L1197.24 204.233 Q1197.52 208.631 1199.88 210.946 Q1202.27 213.238 1206.5 213.238 Q1208.96 213.238 1211.25 212.636 Q1213.56 212.034 1215.83 210.83 L1215.83 214.858 Q1213.54 215.83 1211.13 216.34 Q1208.73 216.849 1206.25 216.849 Q1200.05 216.849 1196.41 213.238 Q1192.8 209.627 1192.8 203.469 Q1192.8 197.104 1196.23 193.377 Q1199.67 189.627 1205.51 189.627 Q1210.74 189.627 1213.77 193.006 Q1216.83 196.363 1216.83 202.15 M1212.57 200.9 Q1212.52 197.405 1210.6 195.321 Q1208.7 193.238 1205.55 193.238 Q1201.99 193.238 1199.84 195.252 Q1197.71 197.266 1197.38 200.923 L1212.57 200.9 Z" fill="#000000" fill-rule="nonzero" fill-opacity="1" /><path clip-path="url(#clip530)" d="M1252.01 180.159 L1252.01 183.701 L1247.94 183.701 Q1245.65 183.701 1244.74 184.627 Q1243.86 185.553 1243.86 187.96 L1243.86 190.252 L1250.88 190.252 L1250.88 193.562 L1243.86 193.562 L1243.86 216.178 L1239.58 216.178 L1239.58 193.562 L1235.51 193.562 L1235.51 190.252 L1239.58 190.252 L1239.58 188.446 Q1239.58 184.118 1241.6 182.15 Q1243.61 180.159 1247.98 180.159 L1252.01 180.159 Z" fill="#000000" fill-rule="nonzero" fill-opacity="1" /><path clip-path="url(#clip530)" d="M1255.14 205.946 L1255.14 190.252 L1259.4 190.252 L1259.4 205.784 Q1259.4 209.465 1260.83 211.316 Q1262.27 213.145 1265.14 213.145 Q1268.59 213.145 1270.58 210.946 Q1272.59 208.747 1272.59 204.951 L1272.59 190.252 L1276.85 190.252 L1276.85 216.178 L1272.59 216.178 L1272.59 212.196 Q1271.04 214.557 1268.98 215.715 Q1266.94 216.849 1264.23 216.849 Q1259.77 216.849 1257.45 214.071 Q1255.14 211.293 1255.14 205.946 M1265.85 189.627 L1265.85 189.627 Z" fill="#000000" fill-rule="nonzero" fill-opacity="1" /><path clip-path="url(#clip530)" d="M1307.17 200.529 L1307.17 216.178 L1302.91 216.178 L1302.91 200.668 Q1302.91 196.988 1301.48 195.159 Q1300.04 193.33 1297.17 193.33 Q1293.73 193.33 1291.73 195.53 Q1289.74 197.729 1289.74 201.525 L1289.74 216.178 L1285.46 216.178 L1285.46 190.252 L1289.74 190.252 L1289.74 194.28 Q1291.27 191.942 1293.33 190.784 Q1295.41 189.627 1298.12 189.627 Q1302.59 189.627 1304.88 192.405 Q1307.17 195.159 1307.17 200.529 Z" fill="#000000" fill-rule="nonzero" fill-opacity="1" /><path clip-path="url(#clip530)" d="M1334.33 191.247 L1334.33 195.229 Q1332.52 194.233 1330.69 193.747 Q1328.89 193.238 1327.04 193.238 Q1322.89 193.238 1320.6 195.877 Q1318.31 198.492 1318.31 203.238 Q1318.31 207.983 1320.6 210.622 Q1322.89 213.238 1327.04 213.238 Q1328.89 213.238 1330.69 212.752 Q1332.52 212.242 1334.33 211.247 L1334.33 215.182 Q1332.54 216.016 1330.62 216.432 Q1328.72 216.849 1326.57 216.849 Q1320.72 216.849 1317.27 213.168 Q1313.82 209.488 1313.82 203.238 Q1313.82 196.895 1317.29 193.261 Q1320.79 189.627 1326.85 189.627 Q1328.82 189.627 1330.69 190.043 Q1332.57 190.437 1334.33 191.247 Z" fill="#000000" fill-rule="nonzero" fill-opacity="1" /><path clip-path="url(#clip530)" d="M1345.95 182.891 L1345.95 190.252 L1354.72 190.252 L1354.72 193.562 L1345.95 193.562 L1345.95 207.636 Q1345.95 210.807 1346.8 211.71 Q1347.68 212.613 1350.35 212.613 L1354.72 212.613 L1354.72 216.178 L1350.35 216.178 Q1345.41 216.178 1343.54 214.349 Q1341.66 212.497 1341.66 207.636 L1341.66 193.562 L1338.54 193.562 L1338.54 190.252 L1341.66 190.252 L1341.66 182.891 L1345.95 182.891 Z" fill="#000000" fill-rule="nonzero" fill-opacity="1" /><path clip-path="url(#clip530)" d="M1360.32 190.252 L1364.58 190.252 L1364.58 216.178 L1360.32 216.178 L1360.32 190.252 M1360.32 180.159 L1364.58 180.159 L1364.58 185.553 L1360.32 185.553 L1360.32 180.159 Z" fill="#000000" fill-rule="nonzero" fill-opacity="1" /><path clip-path="url(#clip530)" d="M1383.54 193.238 Q1380.11 193.238 1378.12 195.923 Q1376.13 198.585 1376.13 203.238 Q1376.13 207.891 1378.1 210.576 Q1380.09 213.238 1383.54 213.238 Q1386.94 213.238 1388.93 210.553 Q1390.92 207.867 1390.92 203.238 Q1390.92 198.631 1388.93 195.946 Q1386.94 193.238 1383.54 193.238 M1383.54 189.627 Q1389.1 189.627 1392.27 193.238 Q1395.44 196.849 1395.44 203.238 Q1395.44 209.604 1392.27 213.238 Q1389.1 216.849 1383.54 216.849 Q1377.96 216.849 1374.79 213.238 Q1371.64 209.604 1371.64 203.238 Q1371.64 196.849 1374.79 193.238 Q1377.96 189.627 1383.54 189.627 Z" fill="#000000" fill-rule="nonzero" fill-opacity="1" /><path clip-path="url(#clip530)" d="M1424.05 200.529 L1424.05 216.178 L1419.79 216.178 L1419.79 200.668 Q1419.79 196.988 1418.35 195.159 Q1416.92 193.33 1414.05 193.33 Q1410.6 193.33 1408.61 195.53 Q1406.62 197.729 1406.62 201.525 L1406.62 216.178 L1402.34 216.178 L1402.34 190.252 L1406.62 190.252 L1406.62 194.28 Q1408.15 191.942 1410.21 190.784 Q1412.29 189.627 1415 189.627 Q1419.47 189.627 1421.76 192.405 Q1424.05 195.159 1424.05 200.529 Z" fill="#000000" fill-rule="nonzero" fill-opacity="1" /><polyline clip-path="url(#clip530)" style="stroke:#3da44d; stroke-linecap:round; stroke-linejoin:round; stroke-width:4; stroke-opacity:1; fill:none" points="946.996,250.738 1094.01,250.738 "/>
<path clip-path="url(#clip530)" d="M1140.76 234.592 L1140.76 239.152 Q1138.1 237.879 1135.74 237.254 Q1133.38 236.629 1131.18 236.629 Q1127.36 236.629 1125.28 238.11 Q1123.22 239.592 1123.22 242.323 Q1123.22 244.615 1124.58 245.795 Q1125.97 246.953 1129.81 247.67 L1132.64 248.249 Q1137.87 249.245 1140.35 251.768 Q1142.85 254.268 1142.85 258.481 Q1142.85 263.504 1139.47 266.096 Q1136.11 268.689 1129.61 268.689 Q1127.15 268.689 1124.37 268.133 Q1121.62 267.578 1118.66 266.49 L1118.66 261.675 Q1121.5 263.272 1124.24 264.082 Q1126.97 264.893 1129.61 264.893 Q1133.61 264.893 1135.79 263.319 Q1137.96 261.744 1137.96 258.828 Q1137.96 256.282 1136.39 254.846 Q1134.84 253.411 1131.27 252.694 L1128.43 252.138 Q1123.19 251.096 1120.86 248.874 Q1118.52 246.652 1118.52 242.694 Q1118.52 238.11 1121.74 235.471 Q1124.98 232.833 1130.65 232.833 Q1133.08 232.833 1135.6 233.272 Q1138.12 233.712 1140.76 234.592 Z" fill="#000000" fill-rule="nonzero" fill-opacity="1" /><path clip-path="url(#clip530)" d="M1149.51 257.786 L1149.51 242.092 L1153.77 242.092 L1153.77 257.624 Q1153.77 261.305 1155.21 263.156 Q1156.64 264.985 1159.51 264.985 Q1162.96 264.985 1164.95 262.786 Q1166.97 260.587 1166.97 256.791 L1166.97 242.092 L1171.23 242.092 L1171.23 268.018 L1166.97 268.018 L1166.97 264.036 Q1165.42 266.397 1163.36 267.555 Q1161.32 268.689 1158.61 268.689 Q1154.14 268.689 1151.83 265.911 Q1149.51 263.133 1149.51 257.786 M1160.23 241.467 L1160.23 241.467 Z" fill="#000000" fill-rule="nonzero" fill-opacity="1" /><path clip-path="url(#clip530)" d="M1195.02 246.073 Q1194.3 245.657 1193.45 245.471 Q1192.61 245.263 1191.6 245.263 Q1187.98 245.263 1186.04 247.624 Q1184.12 249.962 1184.12 254.36 L1184.12 268.018 L1179.84 268.018 L1179.84 242.092 L1184.12 242.092 L1184.12 246.12 Q1185.46 243.758 1187.61 242.624 Q1189.77 241.467 1192.85 241.467 Q1193.29 241.467 1193.82 241.536 Q1194.35 241.583 1195 241.698 L1195.02 246.073 Z" fill="#000000" fill-rule="nonzero" fill-opacity="1" /><path clip-path="url(#clip530)" d="M1213.68 246.073 Q1212.96 245.657 1212.11 245.471 Q1211.27 245.263 1210.25 245.263 Q1206.64 245.263 1204.7 247.624 Q1202.78 249.962 1202.78 254.36 L1202.78 268.018 L1198.49 268.018 L1198.49 242.092 L1202.78 242.092 L1202.78 246.12 Q1204.12 243.758 1206.27 242.624 Q1208.42 241.467 1211.5 241.467 Q1211.94 241.467 1212.48 241.536 Q1213.01 241.583 1213.66 241.698 L1213.68 246.073 Z" fill="#000000" fill-rule="nonzero" fill-opacity="1" /><path clip-path="url(#clip530)" d="M1227.15 245.078 Q1223.73 245.078 1221.73 247.763 Q1219.74 250.425 1219.74 255.078 Q1219.74 259.731 1221.71 262.416 Q1223.7 265.078 1227.15 265.078 Q1230.55 265.078 1232.54 262.393 Q1234.54 259.707 1234.54 255.078 Q1234.54 250.471 1232.54 247.786 Q1230.55 245.078 1227.15 245.078 M1227.15 241.467 Q1232.71 241.467 1235.88 245.078 Q1239.05 248.689 1239.05 255.078 Q1239.05 261.444 1235.88 265.078 Q1232.71 268.689 1227.15 268.689 Q1221.57 268.689 1218.4 265.078 Q1215.25 261.444 1215.25 255.078 Q1215.25 248.689 1218.4 245.078 Q1221.57 241.467 1227.15 241.467 Z" fill="#000000" fill-rule="nonzero" fill-opacity="1" /><path clip-path="url(#clip530)" d="M1263.17 254.754 Q1263.17 250.124 1261.25 247.578 Q1259.35 245.032 1255.9 245.032 Q1252.48 245.032 1250.55 247.578 Q1248.66 250.124 1248.66 254.754 Q1248.66 259.36 1250.55 261.906 Q1252.48 264.453 1255.9 264.453 Q1259.35 264.453 1261.25 261.906 Q1263.17 259.36 1263.17 254.754 M1267.43 264.8 Q1267.43 271.42 1264.49 274.638 Q1261.55 277.879 1255.48 277.879 Q1253.24 277.879 1251.25 277.531 Q1249.26 277.207 1247.38 276.513 L1247.38 272.369 Q1249.26 273.388 1251.09 273.874 Q1252.92 274.36 1254.81 274.36 Q1259 274.36 1261.09 272.161 Q1263.17 269.985 1263.17 265.564 L1263.17 263.457 Q1261.85 265.749 1259.79 266.883 Q1257.73 268.018 1254.86 268.018 Q1250.09 268.018 1247.17 264.383 Q1244.26 260.749 1244.26 254.754 Q1244.26 248.735 1247.17 245.101 Q1250.09 241.467 1254.86 241.467 Q1257.73 241.467 1259.79 242.601 Q1261.85 243.735 1263.17 246.027 L1263.17 242.092 L1267.43 242.092 L1267.43 264.8 Z" fill="#000000" fill-rule="nonzero" fill-opacity="1" /><path clip-path="url(#clip530)" d="M1287.98 254.985 Q1282.82 254.985 1280.83 256.166 Q1278.84 257.346 1278.84 260.194 Q1278.84 262.462 1280.32 263.805 Q1281.83 265.124 1284.4 265.124 Q1287.94 265.124 1290.07 262.624 Q1292.22 260.101 1292.22 255.934 L1292.22 254.985 L1287.98 254.985 M1296.48 253.226 L1296.48 268.018 L1292.22 268.018 L1292.22 264.082 Q1290.76 266.443 1288.59 267.578 Q1286.41 268.689 1283.26 268.689 Q1279.28 268.689 1276.92 266.467 Q1274.58 264.221 1274.58 260.471 Q1274.58 256.096 1277.5 253.874 Q1280.44 251.652 1286.25 251.652 L1292.22 251.652 L1292.22 251.235 Q1292.22 248.295 1290.28 246.698 Q1288.35 245.078 1284.86 245.078 Q1282.64 245.078 1280.53 245.61 Q1278.42 246.143 1276.48 247.207 L1276.48 243.272 Q1278.82 242.37 1281.02 241.93 Q1283.22 241.467 1285.3 241.467 Q1290.92 241.467 1293.7 244.383 Q1296.48 247.3 1296.48 253.226 Z" fill="#000000" fill-rule="nonzero" fill-opacity="1" /><path clip-path="url(#clip530)" d="M1309.47 234.731 L1309.47 242.092 L1318.24 242.092 L1318.24 245.402 L1309.47 245.402 L1309.47 259.476 Q1309.47 262.647 1310.32 263.55 Q1311.2 264.453 1313.86 264.453 L1318.24 264.453 L1318.24 268.018 L1313.86 268.018 Q1308.93 268.018 1307.06 266.189 Q1305.18 264.337 1305.18 259.476 L1305.18 245.402 L1302.06 245.402 L1302.06 242.092 L1305.18 242.092 L1305.18 234.731 L1309.47 234.731 Z" fill="#000000" fill-rule="nonzero" fill-opacity="1" /><path clip-path="url(#clip530)" d="M1346.02 253.99 L1346.02 256.073 L1326.43 256.073 Q1326.71 260.471 1329.07 262.786 Q1331.46 265.078 1335.69 265.078 Q1338.15 265.078 1340.44 264.476 Q1342.75 263.874 1345.02 262.67 L1345.02 266.698 Q1342.73 267.67 1340.32 268.18 Q1337.91 268.689 1335.44 268.689 Q1329.23 268.689 1325.6 265.078 Q1321.99 261.467 1321.99 255.309 Q1321.99 248.944 1325.41 245.217 Q1328.86 241.467 1334.7 241.467 Q1339.93 241.467 1342.96 244.846 Q1346.02 248.203 1346.02 253.99 M1341.76 252.74 Q1341.71 249.245 1339.79 247.161 Q1337.89 245.078 1334.74 245.078 Q1331.18 245.078 1329.03 247.092 Q1326.9 249.106 1326.57 252.763 L1341.76 252.74 Z" fill="#000000" fill-rule="nonzero" fill-opacity="1" /><path clip-path="url(#clip530)" d="M1381.2 231.999 L1381.2 235.541 L1377.13 235.541 Q1374.84 235.541 1373.93 236.467 Q1373.05 237.393 1373.05 239.8 L1373.05 242.092 L1380.07 242.092 L1380.07 245.402 L1373.05 245.402 L1373.05 268.018 L1368.77 268.018 L1368.77 245.402 L1364.7 245.402 L1364.7 242.092 L1368.77 242.092 L1368.77 240.286 Q1368.77 235.958 1370.78 233.99 Q1372.8 231.999 1377.17 231.999 L1381.2 231.999 Z" fill="#000000" fill-rule="nonzero" fill-opacity="1" /><path clip-path="url(#clip530)" d="M1384.33 257.786 L1384.33 242.092 L1388.59 242.092 L1388.59 257.624 Q1388.59 261.305 1390.02 263.156 Q1391.46 264.985 1394.33 264.985 Q1397.78 264.985 1399.77 262.786 Q1401.78 260.587 1401.78 256.791 L1401.78 242.092 L1406.04 242.092 L1406.04 268.018 L1401.78 268.018 L1401.78 264.036 Q1400.23 266.397 1398.17 267.555 Q1396.13 268.689 1393.42 268.689 Q1388.96 268.689 1386.64 265.911 Q1384.33 263.133 1384.33 257.786 M1395.04 241.467 L1395.04 241.467 Z" fill="#000000" fill-rule="nonzero" fill-opacity="1" /><path clip-path="url(#clip530)" d="M1436.36 252.369 L1436.36 268.018 L1432.1 268.018 L1432.1 252.508 Q1432.1 248.828 1430.67 246.999 Q1429.23 245.17 1426.36 245.17 Q1422.91 245.17 1420.92 247.37 Q1418.93 249.569 1418.93 253.365 L1418.93 268.018 L1414.65 268.018 L1414.65 242.092 L1418.93 242.092 L1418.93 246.12 Q1420.46 243.782 1422.52 242.624 Q1424.6 241.467 1427.31 241.467 Q1431.78 241.467 1434.07 244.245 Q1436.36 246.999 1436.36 252.369 Z" fill="#000000" fill-rule="nonzero" fill-opacity="1" /><path clip-path="url(#clip530)" d="M1463.52 243.087 L1463.52 247.069 Q1461.71 246.073 1459.88 245.587 Q1458.08 245.078 1456.22 245.078 Q1452.08 245.078 1449.79 247.717 Q1447.5 250.332 1447.5 255.078 Q1447.5 259.823 1449.79 262.462 Q1452.08 265.078 1456.22 265.078 Q1458.08 265.078 1459.88 264.592 Q1461.71 264.082 1463.52 263.087 L1463.52 267.022 Q1461.73 267.856 1459.81 268.272 Q1457.91 268.689 1455.76 268.689 Q1449.9 268.689 1446.46 265.008 Q1443.01 261.328 1443.01 255.078 Q1443.01 248.735 1446.48 245.101 Q1449.97 241.467 1456.04 241.467 Q1458.01 241.467 1459.88 241.883 Q1461.76 242.277 1463.52 243.087 Z" fill="#000000" fill-rule="nonzero" fill-opacity="1" /><path clip-path="url(#clip530)" d="M1475.14 234.731 L1475.14 242.092 L1483.91 242.092 L1483.91 245.402 L1475.14 245.402 L1475.14 259.476 Q1475.14 262.647 1475.99 263.55 Q1476.87 264.453 1479.53 264.453 L1483.91 264.453 L1483.91 268.018 L1479.53 268.018 Q1474.6 268.018 1472.73 266.189 Q1470.85 264.337 1470.85 259.476 L1470.85 245.402 L1467.73 245.402 L1467.73 242.092 L1470.85 242.092 L1470.85 234.731 L1475.14 234.731 Z" fill="#000000" fill-rule="nonzero" fill-opacity="1" /><path clip-path="url(#clip530)" d="M1489.51 242.092 L1493.77 242.092 L1493.77 268.018 L1489.51 268.018 L1489.51 242.092 M1489.51 231.999 L1493.77 231.999 L1493.77 237.393 L1489.51 237.393 L1489.51 231.999 Z" fill="#000000" fill-rule="nonzero" fill-opacity="1" /><path clip-path="url(#clip530)" d="M1512.73 245.078 Q1509.3 245.078 1507.31 247.763 Q1505.32 250.425 1505.32 255.078 Q1505.32 259.731 1507.29 262.416 Q1509.28 265.078 1512.73 265.078 Q1516.13 265.078 1518.12 262.393 Q1520.11 259.707 1520.11 255.078 Q1520.11 250.471 1518.12 247.786 Q1516.13 245.078 1512.73 245.078 M1512.73 241.467 Q1518.28 241.467 1521.46 245.078 Q1524.63 248.689 1524.63 255.078 Q1524.63 261.444 1521.46 265.078 Q1518.28 268.689 1512.73 268.689 Q1507.15 268.689 1503.98 265.078 Q1500.83 261.444 1500.83 255.078 Q1500.83 248.689 1503.98 245.078 Q1507.15 241.467 1512.73 241.467 Z" fill="#000000" fill-rule="nonzero" fill-opacity="1" /><path clip-path="url(#clip530)" d="M1553.24 252.369 L1553.24 268.018 L1548.98 268.018 L1548.98 252.508 Q1548.98 248.828 1547.54 246.999 Q1546.11 245.17 1543.24 245.17 Q1539.79 245.17 1537.8 247.37 Q1535.81 249.569 1535.81 253.365 L1535.81 268.018 L1531.52 268.018 L1531.52 242.092 L1535.81 242.092 L1535.81 246.12 Q1537.33 243.782 1539.4 242.624 Q1541.48 241.467 1544.19 241.467 Q1548.65 241.467 1550.95 244.245 Q1553.24 246.999 1553.24 252.369 Z" fill="#000000" fill-rule="nonzero" fill-opacity="1" /></svg>
