<?xml version="1.0" encoding="utf-8"?>
<svg xmlns="http://www.w3.org/2000/svg" xmlns:xlink="http://www.w3.org/1999/xlink" width="600" height="400" viewBox="0 0 2400 1600">
<defs>
  <clipPath id="clip810">
    <rect x="0" y="0" width="2400" height="1600"/>
  </clipPath>
</defs>
<path clip-path="url(#clip810)" d="M0 1600 L2400 1600 L2400 0 L0 0  Z" fill="#ffffff" fill-rule="evenodd" fill-opacity="1"/>
<defs>
  <clipPath id="clip811">
    <rect x="480" y="0" width="1681" height="1600"/>
  </clipPath>
</defs>
<path clip-path="url(#clip810)" d="M193.936 1486.45 L2352.76 1486.45 L2352.76 47.2441 L193.936 47.2441  Z" fill="#ffffff" fill-rule="evenodd" fill-opacity="1"/>
<defs>
  <clipPath id="clip812">
    <rect x="193" y="47" width="2160" height="1440"/>
  </clipPath>
</defs>
<polyline clip-path="url(#clip812)" style="stroke:#000000; stroke-linecap:round; stroke-linejoin:round; stroke-width:2; stroke-opacity:0.1; fill:none" points="328.862,1486.45 328.862,47.2441 "/>
<polyline clip-path="url(#clip812)" style="stroke:#000000; stroke-linecap:round; stroke-linejoin:round; stroke-width:2; stroke-opacity:0.1; fill:none" points="778.616,1486.45 778.616,47.2441 "/>
<polyline clip-path="url(#clip812)" style="stroke:#000000; stroke-linecap:round; stroke-linejoin:round; stroke-width:2; stroke-opacity:0.1; fill:none" points="1228.37,1486.45 1228.37,47.2441 "/>
<polyline clip-path="url(#clip812)" style="stroke:#000000; stroke-linecap:round; stroke-linejoin:round; stroke-width:2; stroke-opacity:0.1; fill:none" points="1678.12,1486.45 1678.12,47.2441 "/>
<polyline clip-path="url(#clip812)" style="stroke:#000000; stroke-linecap:round; stroke-linejoin:round; stroke-width:2; stroke-opacity:0.1; fill:none" points="2127.88,1486.45 2127.88,47.2441 "/>
<polyline clip-path="url(#clip810)" style="stroke:#000000; stroke-linecap:round; stroke-linejoin:round; stroke-width:4; stroke-opacity:1; fill:none" points="193.936,1486.45 2352.76,1486.45 "/>
<polyline clip-path="url(#clip810)" style="stroke:#000000; stroke-linecap:round; stroke-linejoin:round; stroke-width:4; stroke-opacity:1; fill:none" points="328.862,1486.45 328.862,1467.55 "/>
<polyline clip-path="url(#clip810)" style="stroke:#000000; stroke-linecap:round; stroke-linejoin:round; stroke-width:4; stroke-opacity:1; fill:none" points="778.616,1486.45 778.616,1467.55 "/>
<polyline clip-path="url(#clip810)" style="stroke:#000000; stroke-linecap:round; stroke-linejoin:round; stroke-width:4; stroke-opacity:1; fill:none" points="1228.37,1486.45 1228.37,1467.55 "/>
<polyline clip-path="url(#clip810)" style="stroke:#000000; stroke-linecap:round; stroke-linejoin:round; stroke-width:4; stroke-opacity:1; fill:none" points="1678.12,1486.45 1678.12,1467.55 "/>
<polyline clip-path="url(#clip810)" style="stroke:#000000; stroke-linecap:round; stroke-linejoin:round; stroke-width:4; stroke-opacity:1; fill:none" points="2127.88,1486.45 2127.88,1467.55 "/>
<path clip-path="url(#clip810)" d="M333.11 1530.21 Q336.466 1530.93 338.341 1533.2 Q340.239 1535.47 340.239 1538.8 Q340.239 1543.92 336.721 1546.72 Q333.202 1549.52 326.721 1549.52 Q324.545 1549.52 322.23 1549.08 Q319.939 1548.66 317.485 1547.81 L317.485 1543.29 Q319.429 1544.43 321.744 1545.01 Q324.059 1545.58 326.582 1545.58 Q330.98 1545.58 333.272 1543.85 Q335.587 1542.11 335.587 1538.8 Q335.587 1535.75 333.434 1534.03 Q331.304 1532.3 327.485 1532.3 L323.457 1532.3 L323.457 1528.45 L327.67 1528.45 Q331.119 1528.45 332.948 1527.09 Q334.777 1525.7 334.777 1523.11 Q334.777 1520.45 332.878 1519.03 Q331.003 1517.6 327.485 1517.6 Q325.564 1517.6 323.365 1518.01 Q321.166 1518.43 318.527 1519.31 L318.527 1515.14 Q321.189 1514.4 323.503 1514.03 Q325.841 1513.66 327.902 1513.66 Q333.226 1513.66 336.327 1516.09 Q339.429 1518.5 339.429 1522.62 Q339.429 1525.49 337.786 1527.48 Q336.142 1529.45 333.11 1530.21 Z" fill="#000000" fill-rule="nonzero" fill-opacity="1" /><path clip-path="url(#clip810)" d="M781.626 1518.36 L769.82 1536.81 L781.626 1536.81 L781.626 1518.36 M780.399 1514.29 L786.278 1514.29 L786.278 1536.81 L791.209 1536.81 L791.209 1540.7 L786.278 1540.7 L786.278 1548.85 L781.626 1548.85 L781.626 1540.7 L766.024 1540.7 L766.024 1536.19 L780.399 1514.29 Z" fill="#000000" fill-rule="nonzero" fill-opacity="1" /><path clip-path="url(#clip810)" d="M1218.65 1514.29 L1237 1514.29 L1237 1518.22 L1222.93 1518.22 L1222.93 1526.7 Q1223.95 1526.35 1224.97 1526.19 Q1225.99 1526 1227 1526 Q1232.79 1526 1236.17 1529.17 Q1239.55 1532.34 1239.55 1537.76 Q1239.55 1543.34 1236.08 1546.44 Q1232.61 1549.52 1226.29 1549.52 Q1224.11 1549.52 1221.84 1549.15 Q1219.6 1548.78 1217.19 1548.04 L1217.19 1543.34 Q1219.27 1544.47 1221.5 1545.03 Q1223.72 1545.58 1226.19 1545.58 Q1230.2 1545.58 1232.54 1543.48 Q1234.88 1541.37 1234.88 1537.76 Q1234.88 1534.15 1232.54 1532.04 Q1230.2 1529.94 1226.19 1529.94 Q1224.32 1529.94 1222.44 1530.35 Q1220.59 1530.77 1218.65 1531.65 L1218.65 1514.29 Z" fill="#000000" fill-rule="nonzero" fill-opacity="1" /><path clip-path="url(#clip810)" d="M1678.53 1529.7 Q1675.38 1529.7 1673.53 1531.86 Q1671.7 1534.01 1671.7 1537.76 Q1671.7 1541.49 1673.53 1543.66 Q1675.38 1545.82 1678.53 1545.82 Q1681.68 1545.82 1683.51 1543.66 Q1685.36 1541.49 1685.36 1537.76 Q1685.36 1534.01 1683.51 1531.86 Q1681.68 1529.7 1678.53 1529.7 M1687.81 1515.05 L1687.81 1519.31 Q1686.05 1518.48 1684.25 1518.04 Q1682.46 1517.6 1680.71 1517.6 Q1676.08 1517.6 1673.62 1520.72 Q1671.19 1523.85 1670.84 1530.17 Q1672.21 1528.15 1674.27 1527.09 Q1676.33 1526 1678.81 1526 Q1684.02 1526 1687.03 1529.17 Q1690.06 1532.32 1690.06 1537.76 Q1690.06 1543.08 1686.91 1546.3 Q1683.76 1549.52 1678.53 1549.52 Q1672.53 1549.52 1669.36 1544.94 Q1666.19 1540.33 1666.19 1531.6 Q1666.19 1523.41 1670.08 1518.55 Q1673.97 1513.66 1680.52 1513.66 Q1682.28 1513.66 1684.06 1514.01 Q1685.87 1514.36 1687.81 1515.05 Z" fill="#000000" fill-rule="nonzero" fill-opacity="1" /><path clip-path="url(#clip810)" d="M2116.77 1514.29 L2138.99 1514.29 L2138.99 1516.28 L2126.44 1548.85 L2121.56 1548.85 L2133.36 1518.22 L2116.77 1518.22 L2116.77 1514.29 Z" fill="#000000" fill-rule="nonzero" fill-opacity="1" /><polyline clip-path="url(#clip812)" style="stroke:#000000; stroke-linecap:round; stroke-linejoin:round; stroke-width:2; stroke-opacity:0.1; fill:none" points="193.936,1251.1 2352.76,1251.1 "/>
<polyline clip-path="url(#clip812)" style="stroke:#000000; stroke-linecap:round; stroke-linejoin:round; stroke-width:2; stroke-opacity:0.1; fill:none" points="193.936,1007.57 2352.76,1007.57 "/>
<polyline clip-path="url(#clip812)" style="stroke:#000000; stroke-linecap:round; stroke-linejoin:round; stroke-width:2; stroke-opacity:0.1; fill:none" points="193.936,764.048 2352.76,764.048 "/>
<polyline clip-path="url(#clip812)" style="stroke:#000000; stroke-linecap:round; stroke-linejoin:round; stroke-width:2; stroke-opacity:0.1; fill:none" points="193.936,520.524 2352.76,520.524 "/>
<polyline clip-path="url(#clip812)" style="stroke:#000000; stroke-linecap:round; stroke-linejoin:round; stroke-width:2; stroke-opacity:0.1; fill:none" points="193.936,277.001 2352.76,277.001 "/>
<polyline clip-path="url(#clip810)" style="stroke:#000000; stroke-linecap:round; stroke-linejoin:round; stroke-width:4; stroke-opacity:1; fill:none" points="193.936,1486.45 193.936,47.2441 "/>
<polyline clip-path="url(#clip810)" style="stroke:#000000; stroke-linecap:round; stroke-linejoin:round; stroke-width:4; stroke-opacity:1; fill:none" points="193.936,1251.1 212.834,1251.1 "/>
<polyline clip-path="url(#clip810)" style="stroke:#000000; stroke-linecap:round; stroke-linejoin:round; stroke-width:4; stroke-opacity:1; fill:none" points="193.936,1007.57 212.834,1007.57 "/>
<polyline clip-path="url(#clip810)" style="stroke:#000000; stroke-linecap:round; stroke-linejoin:round; stroke-width:4; stroke-opacity:1; fill:none" points="193.936,764.048 212.834,764.048 "/>
<polyline clip-path="url(#clip810)" style="stroke:#000000; stroke-linecap:round; stroke-linejoin:round; stroke-width:4; stroke-opacity:1; fill:none" points="193.936,520.524 212.834,520.524 "/>
<polyline clip-path="url(#clip810)" style="stroke:#000000; stroke-linecap:round; stroke-linejoin:round; stroke-width:4; stroke-opacity:1; fill:none" points="193.936,277.001 212.834,277.001 "/>
<path clip-path="url(#clip810)" d="M51.9875 1251.55 L81.6633 1251.55 L81.6633 1255.48 L51.9875 1255.48 L51.9875 1251.55 Z" fill="#000000" fill-rule="nonzero" fill-opacity="1" /><path clip-path="url(#clip810)" d="M92.566 1264.44 L100.205 1264.44 L100.205 1238.07 L91.8947 1239.74 L91.8947 1235.48 L100.159 1233.82 L104.834 1233.82 L104.834 1264.44 L112.473 1264.44 L112.473 1268.38 L92.566 1268.38 L92.566 1264.44 Z" fill="#000000" fill-rule="nonzero" fill-opacity="1" /><path clip-path="url(#clip810)" d="M121.918 1262.5 L126.802 1262.5 L126.802 1268.38 L121.918 1268.38 L121.918 1262.5 Z" fill="#000000" fill-rule="nonzero" fill-opacity="1" /><path clip-path="url(#clip810)" d="M137.033 1233.82 L155.39 1233.82 L155.39 1237.75 L141.316 1237.75 L141.316 1246.22 Q142.334 1245.88 143.353 1245.71 Q144.371 1245.53 145.39 1245.53 Q151.177 1245.53 154.556 1248.7 Q157.936 1251.87 157.936 1257.29 Q157.936 1262.87 154.464 1265.97 Q150.992 1269.05 144.672 1269.05 Q142.496 1269.05 140.228 1268.68 Q137.982 1268.31 135.575 1267.57 L135.575 1262.87 Q137.658 1264 139.881 1264.56 Q142.103 1265.11 144.58 1265.11 Q148.584 1265.11 150.922 1263.01 Q153.26 1260.9 153.26 1257.29 Q153.26 1253.68 150.922 1251.57 Q148.584 1249.46 144.58 1249.46 Q142.705 1249.46 140.83 1249.88 Q138.978 1250.3 137.033 1251.18 L137.033 1233.82 Z" fill="#000000" fill-rule="nonzero" fill-opacity="1" /><path clip-path="url(#clip810)" d="M50.9921 1008.02 L80.6679 1008.02 L80.6679 1011.96 L50.9921 1011.96 L50.9921 1008.02 Z" fill="#000000" fill-rule="nonzero" fill-opacity="1" /><path clip-path="url(#clip810)" d="M91.5706 1020.92 L99.2095 1020.92 L99.2095 994.551 L90.8993 996.218 L90.8993 991.958 L99.1632 990.292 L103.839 990.292 L103.839 1020.92 L111.478 1020.92 L111.478 1024.85 L91.5706 1024.85 L91.5706 1020.92 Z" fill="#000000" fill-rule="nonzero" fill-opacity="1" /><path clip-path="url(#clip810)" d="M120.922 1018.97 L125.807 1018.97 L125.807 1024.85 L120.922 1024.85 L120.922 1018.97 Z" fill="#000000" fill-rule="nonzero" fill-opacity="1" /><path clip-path="url(#clip810)" d="M145.992 993.37 Q142.381 993.37 140.552 996.935 Q138.746 1000.48 138.746 1007.61 Q138.746 1014.71 140.552 1018.28 Q142.381 1021.82 145.992 1021.82 Q149.626 1021.82 151.431 1018.28 Q153.26 1014.71 153.26 1007.61 Q153.26 1000.48 151.431 996.935 Q149.626 993.37 145.992 993.37 M145.992 989.667 Q151.802 989.667 154.857 994.273 Q157.936 998.857 157.936 1007.61 Q157.936 1016.33 154.857 1020.94 Q151.802 1025.52 145.992 1025.52 Q140.181 1025.52 137.103 1020.94 Q134.047 1016.33 134.047 1007.61 Q134.047 998.857 137.103 994.273 Q140.181 989.667 145.992 989.667 Z" fill="#000000" fill-rule="nonzero" fill-opacity="1" /><path clip-path="url(#clip810)" d="M51.9875 764.5 L81.6633 764.5 L81.6633 768.435 L51.9875 768.435 L51.9875 764.5 Z" fill="#000000" fill-rule="nonzero" fill-opacity="1" /><path clip-path="url(#clip810)" d="M101.756 749.847 Q98.1447 749.847 96.316 753.412 Q94.5104 756.953 94.5104 764.083 Q94.5104 771.189 96.316 774.754 Q98.1447 778.296 101.756 778.296 Q105.39 778.296 107.196 774.754 Q109.024 771.189 109.024 764.083 Q109.024 756.953 107.196 753.412 Q105.39 749.847 101.756 749.847 M101.756 746.143 Q107.566 746.143 110.621 750.75 Q113.7 755.333 113.7 764.083 Q113.7 772.81 110.621 777.416 Q107.566 781.999 101.756 781.999 Q95.9456 781.999 92.8669 777.416 Q89.8114 772.81 89.8114 764.083 Q89.8114 755.333 92.8669 750.75 Q95.9456 746.143 101.756 746.143 Z" fill="#000000" fill-rule="nonzero" fill-opacity="1" /><path clip-path="url(#clip810)" d="M121.918 775.449 L126.802 775.449 L126.802 781.328 L121.918 781.328 L121.918 775.449 Z" fill="#000000" fill-rule="nonzero" fill-opacity="1" /><path clip-path="url(#clip810)" d="M137.033 746.768 L155.39 746.768 L155.39 750.703 L141.316 750.703 L141.316 759.175 Q142.334 758.828 143.353 758.666 Q144.371 758.481 145.39 758.481 Q151.177 758.481 154.556 761.652 Q157.936 764.824 157.936 770.24 Q157.936 775.819 154.464 778.921 Q150.992 781.999 144.672 781.999 Q142.496 781.999 140.228 781.629 Q137.982 781.259 135.575 780.518 L135.575 775.819 Q137.658 776.953 139.881 777.509 Q142.103 778.064 144.58 778.064 Q148.584 778.064 150.922 775.958 Q153.26 773.851 153.26 770.24 Q153.26 766.629 150.922 764.523 Q148.584 762.416 144.58 762.416 Q142.705 762.416 140.83 762.833 Q138.978 763.25 137.033 764.129 L137.033 746.768 Z" fill="#000000" fill-rule="nonzero" fill-opacity="1" /><path clip-path="url(#clip810)" d="M100.76 506.323 Q97.1493 506.323 95.3206 509.888 Q93.515 513.43 93.515 520.559 Q93.515 527.666 95.3206 531.23 Q97.1493 534.772 100.76 534.772 Q104.395 534.772 106.2 531.23 Q108.029 527.666 108.029 520.559 Q108.029 513.43 106.2 509.888 Q104.395 506.323 100.76 506.323 M100.76 502.619 Q106.571 502.619 109.626 507.226 Q112.705 511.809 112.705 520.559 Q112.705 529.286 109.626 533.892 Q106.571 538.476 100.76 538.476 Q94.9502 538.476 91.8715 533.892 Q88.816 529.286 88.816 520.559 Q88.816 511.809 91.8715 507.226 Q94.9502 502.619 100.76 502.619 Z" fill="#000000" fill-rule="nonzero" fill-opacity="1" /><path clip-path="url(#clip810)" d="M120.922 531.925 L125.807 531.925 L125.807 537.804 L120.922 537.804 L120.922 531.925 Z" fill="#000000" fill-rule="nonzero" fill-opacity="1" /><path clip-path="url(#clip810)" d="M145.992 506.323 Q142.381 506.323 140.552 509.888 Q138.746 513.43 138.746 520.559 Q138.746 527.666 140.552 531.23 Q142.381 534.772 145.992 534.772 Q149.626 534.772 151.431 531.23 Q153.26 527.666 153.26 520.559 Q153.26 513.43 151.431 509.888 Q149.626 506.323 145.992 506.323 M145.992 502.619 Q151.802 502.619 154.857 507.226 Q157.936 511.809 157.936 520.559 Q157.936 529.286 154.857 533.892 Q151.802 538.476 145.992 538.476 Q140.181 538.476 137.103 533.892 Q134.047 529.286 134.047 520.559 Q134.047 511.809 137.103 507.226 Q140.181 502.619 145.992 502.619 Z" fill="#000000" fill-rule="nonzero" fill-opacity="1" /><path clip-path="url(#clip810)" d="M101.756 262.8 Q98.1447 262.8 96.316 266.364 Q94.5104 269.906 94.5104 277.036 Q94.5104 284.142 96.316 287.707 Q98.1447 291.248 101.756 291.248 Q105.39 291.248 107.196 287.707 Q109.024 284.142 109.024 277.036 Q109.024 269.906 107.196 266.364 Q105.39 262.8 101.756 262.8 M101.756 259.096 Q107.566 259.096 110.621 263.702 Q113.7 268.286 113.7 277.036 Q113.7 285.762 110.621 290.369 Q107.566 294.952 101.756 294.952 Q95.9456 294.952 92.8669 290.369 Q89.8114 285.762 89.8114 277.036 Q89.8114 268.286 92.8669 263.702 Q95.9456 259.096 101.756 259.096 Z" fill="#000000" fill-rule="nonzero" fill-opacity="1" /><path clip-path="url(#clip810)" d="M121.918 288.401 L126.802 288.401 L126.802 294.281 L121.918 294.281 L121.918 288.401 Z" fill="#000000" fill-rule="nonzero" fill-opacity="1" /><path clip-path="url(#clip810)" d="M137.033 259.721 L155.39 259.721 L155.39 263.656 L141.316 263.656 L141.316 272.128 Q142.334 271.781 143.353 271.619 Q144.371 271.434 145.39 271.434 Q151.177 271.434 154.556 274.605 Q157.936 277.776 157.936 283.193 Q157.936 288.772 154.464 291.873 Q150.992 294.952 144.672 294.952 Q142.496 294.952 140.228 294.582 Q137.982 294.211 135.575 293.471 L135.575 288.772 Q137.658 289.906 139.881 290.461 Q142.103 291.017 144.58 291.017 Q148.584 291.017 150.922 288.91 Q153.26 286.804 153.26 283.193 Q153.26 279.582 150.922 277.475 Q148.584 275.369 144.58 275.369 Q142.705 275.369 140.83 275.786 Q138.978 276.202 137.033 277.082 L137.033 259.721 Z" fill="#000000" fill-rule="nonzero" fill-opacity="1" /><circle clip-path="url(#clip812)" cx="1003.49" cy="679.907" r="14.4" fill="#009af9" fill-rule="evenodd" fill-opacity="1" stroke="#000000" stroke-opacity="1" stroke-width="3.2"/>
<circle clip-path="url(#clip812)" cx="2082.9" cy="650.946" r="14.4" fill="#009af9" fill-rule="evenodd" fill-opacity="1" stroke="#000000" stroke-opacity="1" stroke-width="3.2"/>
<circle clip-path="url(#clip812)" cx="1543.2" cy="715.737" r="14.4" fill="#009af9" fill-rule="evenodd" fill-opacity="1" stroke="#000000" stroke-opacity="1" stroke-width="3.2"/>
<circle clip-path="url(#clip812)" cx="463.788" cy="1084.4" r="14.4" fill="#009af9" fill-rule="evenodd" fill-opacity="1" stroke="#000000" stroke-opacity="1" stroke-width="3.2"/>
<circle clip-path="url(#clip812)" cx="598.715" cy="997.389" r="14.4" fill="#009af9" fill-rule="evenodd" fill-opacity="1" stroke="#000000" stroke-opacity="1" stroke-width="3.2"/>
<polyline clip-path="url(#clip812)" style="stroke:#e26f46; stroke-linecap:round; stroke-linejoin:round; stroke-width:4; stroke-opacity:1; fill:none" points="193.936,111.649 200.964,141.929 207.991,172.74 240.481,320.141 272.971,470.626 289.216,544.856 305.461,617.273 321.706,687.055 337.951,753.419 347.713,791.35 357.476,827.632 367.238,862.127 377.001,894.704 386.763,925.243 396.526,953.634 406.289,979.779 416.051,1003.59 424.305,1021.85 432.559,1038.35 440.813,1053.06 449.068,1065.96 457.322,1077.02 465.576,1086.24 473.83,1093.61 482.084,1099.13 491.05,1103.05 500.016,1104.82 508.983,1104.48 517.949,1102.06 526.915,1097.61 535.882,1091.19 544.848,1082.87 553.814,1072.71 562.08,1061.79 570.346,1049.45 578.612,1035.77 586.879,1020.82 595.145,1004.7 603.411,987.478 611.677,969.258 619.943,950.132 637.667,906.535 655.392,860.245 673.116,812.315 690.84,763.817 711.375,708.334 731.911,655.179 742.178,629.971 752.446,605.929 762.714,583.233 772.981,562.055 782.106,544.639 791.231,528.657 800.355,514.207 809.48,501.382 818.605,490.265 827.73,480.932 836.854,473.448 845.979,467.87 853.98,464.587 861.982,462.833 869.984,462.628 877.985,463.987 885.987,466.919 893.988,471.426 901.99,477.505 909.991,485.146 918.715,495.239 927.439,507.143 936.163,520.822 944.886,536.231 953.61,553.319 962.334,572.027 971.058,592.286 979.782,614.023 988.557,637.299 997.333,661.898 1006.11,687.726 1014.88,714.682 1023.66,742.658 1032.44,771.542 1041.21,801.219 1049.99,831.567 1088.8,970.594 1127.61,1109.03 1136.84,1140.6 1146.07,1171.34 1155.3,1201.1 1164.54,1229.73 1173.77,1257.1 1183,1283.06 1192.23,1307.49 1201.46,1330.27 1211.06,1352.08 1220.66,1371.85 1230.26,1389.48 1239.86,1404.86 1249.46,1417.9 1259.06,1428.52 1268.65,1436.64 1278.25,1442.21 1286.33,1444.9 1294.41,1445.72 1302.49,1444.66 1310.57,1441.72 1318.65,1436.89 1326.74,1430.19 1334.82,1421.61 1342.9,1411.17 1352.76,1395.95 1362.63,1378.05 1372.49,1357.55 1382.36,1334.51 1392.22,1309.04 1402.09,1281.24 1411.95,1251.22 1421.82,1219.12 1430.85,1187.99 1439.89,1155.35 1448.93,1121.3 1457.96,1085.97 1467,1049.5 1476.04,1012.01 1485.08,973.645 1494.11,934.548 1527.5,786.165 1560.88,637.238 1577.79,563.973 1594.7,493.398 1603.16,459.395 1611.61,426.388 1620.07,394.478 1628.52,363.759 1638,330.86 1647.47,299.691 1656.95,270.363 1666.42,242.976 1675.9,217.622 1685.37,194.383 1694.85,173.327 1704.32,154.516 1712.91,139.447 1721.5,126.288 1730.08,115.058 1738.67,105.769 1747.25,98.4243 1755.84,93.0201 1764.43,89.544 1773.01,87.9763 1782.84,88.4883 1792.67,91.4111 1802.5,96.6777 1812.33,104.209 1822.16,113.913 1831.99,125.688 1841.83,139.419 1851.66,154.983 1860.76,170.911 1869.86,188.182 1878.96,206.678 1888.06,226.273 1906.27,268.242 1924.47,313.007 1960.37,405.055 1996.26,494.704 2004.98,515.119 2013.69,534.762 2022.4,553.522 2031.11,571.287 2039.83,587.952 2048.54,603.417 2057.25,617.585 2065.96,630.368 2074.9,641.947 2083.83,651.899 2092.76,660.149 2101.69,666.631 2110.62,671.284 2119.55,674.059 2128.49,674.913 2137.42,673.813 2147.2,670.337 2156.99,664.468 2166.78,656.202 2176.56,645.545 2186.35,632.518 2196.13,617.158 2205.92,599.51 2215.7,579.636 2222.81,563.846 2229.92,546.952 2237.03,528.989 2244.13,509.995 2251.24,490.013 2258.35,469.087 2265.46,447.264 2272.56,424.595 2286.78,376.932 2300.99,326.55 2315.21,273.935 2329.43,219.603 2335.26,196.938 2341.09,174.113 2346.92,151.166 2352.76,128.136 "/>
<path clip-path="url(#clip810)" d="M983.867 250.738 L1562.83 250.738 L1562.83 95.2176 L983.867 95.2176  Z" fill="#ffffff" fill-rule="evenodd" fill-opacity="1"/>
<polyline clip-path="url(#clip810)" style="stroke:#000000; stroke-linecap:round; stroke-linejoin:round; stroke-width:4; stroke-opacity:1; fill:none" points="983.867,250.738 1562.83,250.738 1562.83,95.2176 983.867,95.2176 983.867,250.738 "/>
<circle clip-path="url(#clip810)" cx="1079.81" cy="147.058" r="20.48" fill="#009af9" fill-rule="evenodd" fill-opacity="1" stroke="#000000" stroke-opacity="1" stroke-width="4.55111"/>
<path clip-path="url(#clip810)" d="M1198.01 130.912 L1198.01 135.472 Q1195.34 134.199 1192.98 133.574 Q1190.62 132.949 1188.42 132.949 Q1184.6 132.949 1182.52 134.43 Q1180.46 135.912 1180.46 138.643 Q1180.46 140.935 1181.83 142.115 Q1183.22 143.273 1187.06 143.99 L1189.88 144.569 Q1195.11 145.565 1197.59 148.088 Q1200.09 150.588 1200.09 154.801 Q1200.09 159.824 1196.71 162.416 Q1193.35 165.009 1186.85 165.009 Q1184.4 165.009 1181.62 164.453 Q1178.86 163.898 1175.9 162.81 L1175.9 157.995 Q1178.75 159.592 1181.48 160.402 Q1184.21 161.213 1186.85 161.213 Q1190.85 161.213 1193.03 159.639 Q1195.21 158.064 1195.21 155.148 Q1195.21 152.602 1193.63 151.166 Q1192.08 149.731 1188.52 149.014 L1185.67 148.458 Q1180.44 147.416 1178.1 145.194 Q1175.76 142.972 1175.76 139.014 Q1175.76 134.43 1178.98 131.791 Q1182.22 129.153 1187.89 129.153 Q1190.32 129.153 1192.84 129.592 Q1195.37 130.032 1198.01 130.912 Z" fill="#000000" fill-rule="nonzero" fill-opacity="1" /><path clip-path="url(#clip810)" d="M1218.98 151.305 Q1213.82 151.305 1211.83 152.486 Q1209.84 153.666 1209.84 156.514 Q1209.84 158.782 1211.32 160.125 Q1212.82 161.444 1215.39 161.444 Q1218.93 161.444 1221.06 158.944 Q1223.22 156.421 1223.22 152.254 L1223.22 151.305 L1218.98 151.305 M1227.47 149.546 L1227.47 164.338 L1223.22 164.338 L1223.22 160.402 Q1221.76 162.763 1219.58 163.898 Q1217.4 165.009 1214.26 165.009 Q1210.28 165.009 1207.91 162.787 Q1205.58 160.541 1205.58 156.791 Q1205.58 152.416 1208.49 150.194 Q1211.43 147.972 1217.24 147.972 L1223.22 147.972 L1223.22 147.555 Q1223.22 144.615 1221.27 143.018 Q1219.35 141.398 1215.85 141.398 Q1213.63 141.398 1211.53 141.93 Q1209.42 142.463 1207.47 143.527 L1207.47 139.592 Q1209.81 138.69 1212.01 138.25 Q1214.21 137.787 1216.29 137.787 Q1221.92 137.787 1224.7 140.703 Q1227.47 143.62 1227.47 149.546 Z" fill="#000000" fill-rule="nonzero" fill-opacity="1" /><path clip-path="url(#clip810)" d="M1256.43 143.389 Q1258.03 140.518 1260.25 139.153 Q1262.47 137.787 1265.48 137.787 Q1269.53 137.787 1271.73 140.634 Q1273.93 143.458 1273.93 148.689 L1273.93 164.338 L1269.65 164.338 L1269.65 148.828 Q1269.65 145.102 1268.33 143.296 Q1267.01 141.49 1264.3 141.49 Q1260.99 141.49 1259.07 143.69 Q1257.15 145.889 1257.15 149.685 L1257.15 164.338 L1252.87 164.338 L1252.87 148.828 Q1252.87 145.078 1251.55 143.296 Q1250.23 141.49 1247.47 141.49 Q1244.21 141.49 1242.29 143.713 Q1240.37 145.912 1240.37 149.685 L1240.37 164.338 L1236.09 164.338 L1236.09 138.412 L1240.37 138.412 L1240.37 142.44 Q1241.83 140.055 1243.86 138.921 Q1245.9 137.787 1248.7 137.787 Q1251.53 137.787 1253.49 139.222 Q1255.48 140.657 1256.43 143.389 Z" fill="#000000" fill-rule="nonzero" fill-opacity="1" /><path clip-path="url(#clip810)" d="M1286.55 160.449 L1286.55 174.199 L1282.27 174.199 L1282.27 138.412 L1286.55 138.412 L1286.55 142.347 Q1287.89 140.032 1289.93 138.921 Q1291.99 137.787 1294.84 137.787 Q1299.56 137.787 1302.5 141.537 Q1305.46 145.287 1305.46 151.398 Q1305.46 157.509 1302.5 161.259 Q1299.56 165.009 1294.84 165.009 Q1291.99 165.009 1289.93 163.898 Q1287.89 162.763 1286.55 160.449 M1301.04 151.398 Q1301.04 146.699 1299.09 144.037 Q1297.17 141.352 1293.79 141.352 Q1290.41 141.352 1288.47 144.037 Q1286.55 146.699 1286.55 151.398 Q1286.55 156.097 1288.47 158.782 Q1290.41 161.444 1293.79 161.444 Q1297.17 161.444 1299.09 158.782 Q1301.04 156.097 1301.04 151.398 Z" fill="#000000" fill-rule="nonzero" fill-opacity="1" /><path clip-path="url(#clip810)" d="M1312.52 128.319 L1316.78 128.319 L1316.78 164.338 L1312.52 164.338 L1312.52 128.319 Z" fill="#000000" fill-rule="nonzero" fill-opacity="1" /><path clip-path="url(#clip810)" d="M1347.87 150.31 L1347.87 152.393 L1328.28 152.393 Q1328.56 156.791 1330.92 159.106 Q1333.31 161.398 1337.54 161.398 Q1340 161.398 1342.29 160.796 Q1344.6 160.194 1346.87 158.99 L1346.87 163.018 Q1344.58 163.99 1342.17 164.5 Q1339.77 165.009 1337.29 165.009 Q1331.08 165.009 1327.45 161.398 Q1323.84 157.787 1323.84 151.629 Q1323.84 145.264 1327.27 141.537 Q1330.71 137.787 1336.55 137.787 Q1341.78 137.787 1344.81 141.166 Q1347.87 144.523 1347.87 150.31 M1343.61 149.06 Q1343.56 145.565 1341.64 143.481 Q1339.74 141.398 1336.59 141.398 Q1333.03 141.398 1330.88 143.412 Q1328.75 145.426 1328.42 149.083 L1343.61 149.06 Z" fill="#000000" fill-rule="nonzero" fill-opacity="1" /><path clip-path="url(#clip810)" d="M1371.92 142.347 L1371.92 128.319 L1376.18 128.319 L1376.18 164.338 L1371.92 164.338 L1371.92 160.449 Q1370.58 162.763 1368.52 163.898 Q1366.48 165.009 1363.61 165.009 Q1358.91 165.009 1355.95 161.259 Q1353.01 157.509 1353.01 151.398 Q1353.01 145.287 1355.95 141.537 Q1358.91 137.787 1363.61 137.787 Q1366.48 137.787 1368.52 138.921 Q1370.58 140.032 1371.92 142.347 M1357.4 151.398 Q1357.4 156.097 1359.33 158.782 Q1361.27 161.444 1364.65 161.444 Q1368.03 161.444 1369.97 158.782 Q1371.92 156.097 1371.92 151.398 Q1371.92 146.699 1369.97 144.037 Q1368.03 141.352 1364.65 141.352 Q1361.27 141.352 1359.33 144.037 Q1357.4 146.699 1357.4 151.398 Z" fill="#000000" fill-rule="nonzero" fill-opacity="1" /><path clip-path="url(#clip810)" d="M1404.14 160.449 L1404.14 174.199 L1399.86 174.199 L1399.86 138.412 L1404.14 138.412 L1404.14 142.347 Q1405.48 140.032 1407.52 138.921 Q1409.58 137.787 1412.43 137.787 Q1417.15 137.787 1420.09 141.537 Q1423.05 145.287 1423.05 151.398 Q1423.05 157.509 1420.09 161.259 Q1417.15 165.009 1412.43 165.009 Q1409.58 165.009 1407.52 163.898 Q1405.48 162.763 1404.14 160.449 M1418.63 151.398 Q1418.63 146.699 1416.69 144.037 Q1414.77 141.352 1411.39 141.352 Q1408.01 141.352 1406.06 144.037 Q1404.14 146.699 1404.14 151.398 Q1404.14 156.097 1406.06 158.782 Q1408.01 161.444 1411.39 161.444 Q1414.77 161.444 1416.69 158.782 Q1418.63 156.097 1418.63 151.398 Z" fill="#000000" fill-rule="nonzero" fill-opacity="1" /><path clip-path="url(#clip810)" d="M1440.16 141.398 Q1436.73 141.398 1434.74 144.083 Q1432.75 146.745 1432.75 151.398 Q1432.75 156.051 1434.72 158.736 Q1436.71 161.398 1440.16 161.398 Q1443.56 161.398 1445.55 158.713 Q1447.54 156.027 1447.54 151.398 Q1447.54 146.791 1445.55 144.106 Q1443.56 141.398 1440.16 141.398 M1440.16 137.787 Q1445.71 137.787 1448.89 141.398 Q1452.06 145.009 1452.06 151.398 Q1452.06 157.764 1448.89 161.398 Q1445.71 165.009 1440.16 165.009 Q1434.58 165.009 1431.41 161.398 Q1428.26 157.764 1428.26 151.398 Q1428.26 145.009 1431.41 141.398 Q1434.58 137.787 1440.16 137.787 Z" fill="#000000" fill-rule="nonzero" fill-opacity="1" /><path clip-path="url(#clip810)" d="M1459.12 138.412 L1463.38 138.412 L1463.38 164.338 L1459.12 164.338 L1459.12 138.412 M1459.12 128.319 L1463.38 128.319 L1463.38 133.713 L1459.12 133.713 L1459.12 128.319 Z" fill="#000000" fill-rule="nonzero" fill-opacity="1" /><path clip-path="url(#clip810)" d="M1493.84 148.689 L1493.84 164.338 L1489.58 164.338 L1489.58 148.828 Q1489.58 145.148 1488.14 143.319 Q1486.71 141.49 1483.84 141.49 Q1480.39 141.49 1478.4 143.69 Q1476.41 145.889 1476.41 149.685 L1476.41 164.338 L1472.13 164.338 L1472.13 138.412 L1476.41 138.412 L1476.41 142.44 Q1477.94 140.102 1480 138.944 Q1482.08 137.787 1484.79 137.787 Q1489.26 137.787 1491.55 140.565 Q1493.84 143.319 1493.84 148.689 Z" fill="#000000" fill-rule="nonzero" fill-opacity="1" /><path clip-path="url(#clip810)" d="M1506.55 131.051 L1506.55 138.412 L1515.32 138.412 L1515.32 141.722 L1506.55 141.722 L1506.55 155.796 Q1506.55 158.967 1507.4 159.87 Q1508.28 160.773 1510.95 160.773 L1515.32 160.773 L1515.32 164.338 L1510.95 164.338 Q1506.01 164.338 1504.14 162.509 Q1502.26 160.657 1502.26 155.796 L1502.26 141.722 L1499.14 141.722 L1499.14 138.412 L1502.26 138.412 L1502.26 131.051 L1506.55 131.051 Z" fill="#000000" fill-rule="nonzero" fill-opacity="1" /><path clip-path="url(#clip810)" d="M1537.45 139.176 L1537.45 143.203 Q1535.64 142.277 1533.7 141.815 Q1531.76 141.352 1529.67 141.352 Q1526.5 141.352 1524.9 142.324 Q1523.33 143.296 1523.33 145.24 Q1523.33 146.722 1524.46 147.578 Q1525.6 148.412 1529.02 149.176 L1530.48 149.5 Q1535.02 150.472 1536.92 152.254 Q1538.84 154.014 1538.84 157.185 Q1538.84 160.796 1535.97 162.902 Q1533.12 165.009 1528.12 165.009 Q1526.04 165.009 1523.77 164.592 Q1521.52 164.199 1519.02 163.388 L1519.02 158.99 Q1521.38 160.217 1523.68 160.842 Q1525.97 161.444 1528.21 161.444 Q1531.22 161.444 1532.84 160.426 Q1534.46 159.384 1534.46 157.509 Q1534.46 155.773 1533.28 154.847 Q1532.13 153.921 1528.17 153.064 L1526.69 152.717 Q1522.73 151.884 1520.97 150.171 Q1519.21 148.435 1519.21 145.426 Q1519.21 141.768 1521.8 139.778 Q1524.39 137.787 1529.16 137.787 Q1531.52 137.787 1533.61 138.134 Q1535.69 138.481 1537.45 139.176 Z" fill="#000000" fill-rule="nonzero" fill-opacity="1" /><polyline clip-path="url(#clip810)" style="stroke:#e26f46; stroke-linecap:round; stroke-linejoin:round; stroke-width:4; stroke-opacity:1; fill:none" points="1007.85,198.898 1151.77,198.898 "/>
<path clip-path="url(#clip810)" d="M1175.76 181.618 L1205 181.618 L1205 185.553 L1192.73 185.553 L1192.73 216.178 L1188.03 216.178 L1188.03 185.553 L1175.76 185.553 L1175.76 181.618 Z" fill="#000000" fill-rule="nonzero" fill-opacity="1" /><path clip-path="url(#clip810)" d="M1217.38 194.233 Q1216.66 193.817 1215.81 193.631 Q1214.97 193.423 1213.96 193.423 Q1210.34 193.423 1208.4 195.784 Q1206.48 198.122 1206.48 202.52 L1206.48 216.178 L1202.2 216.178 L1202.2 190.252 L1206.48 190.252 L1206.48 194.28 Q1207.82 191.918 1209.97 190.784 Q1212.13 189.627 1215.21 189.627 Q1215.65 189.627 1216.18 189.696 Q1216.71 189.743 1217.36 189.858 L1217.38 194.233 Z" fill="#000000" fill-rule="nonzero" fill-opacity="1" /><path clip-path="url(#clip810)" d="M1221.41 205.946 L1221.41 190.252 L1225.67 190.252 L1225.67 205.784 Q1225.67 209.465 1227.1 211.316 Q1228.54 213.145 1231.41 213.145 Q1234.86 213.145 1236.85 210.946 Q1238.86 208.747 1238.86 204.951 L1238.86 190.252 L1243.12 190.252 L1243.12 216.178 L1238.86 216.178 L1238.86 212.196 Q1237.31 214.557 1235.25 215.715 Q1233.22 216.849 1230.51 216.849 Q1226.04 216.849 1223.72 214.071 Q1221.41 211.293 1221.41 205.946 M1232.13 189.627 L1232.13 189.627 Z" fill="#000000" fill-rule="nonzero" fill-opacity="1" /><path clip-path="url(#clip810)" d="M1274.07 202.15 L1274.07 204.233 L1254.49 204.233 Q1254.77 208.631 1257.13 210.946 Q1259.51 213.238 1263.75 213.238 Q1266.2 213.238 1268.49 212.636 Q1270.81 212.034 1273.08 210.83 L1273.08 214.858 Q1270.78 215.83 1268.38 216.34 Q1265.97 216.849 1263.49 216.849 Q1257.29 216.849 1253.65 213.238 Q1250.04 209.627 1250.04 203.469 Q1250.04 197.104 1253.47 193.377 Q1256.92 189.627 1262.75 189.627 Q1267.98 189.627 1271.02 193.006 Q1274.07 196.363 1274.07 202.15 M1269.81 200.9 Q1269.77 197.405 1267.84 195.321 Q1265.95 193.238 1262.8 193.238 Q1259.23 193.238 1257.08 195.252 Q1254.95 197.266 1254.63 200.923 L1269.81 200.9 Z" fill="#000000" fill-rule="nonzero" fill-opacity="1" /><path clip-path="url(#clip810)" d="M1309.26 180.159 L1309.26 183.701 L1305.18 183.701 Q1302.89 183.701 1301.99 184.627 Q1301.11 185.553 1301.11 187.96 L1301.11 190.252 L1308.12 190.252 L1308.12 193.562 L1301.11 193.562 L1301.11 216.178 L1296.83 216.178 L1296.83 193.562 L1292.75 193.562 L1292.75 190.252 L1296.83 190.252 L1296.83 188.446 Q1296.83 184.118 1298.84 182.15 Q1300.85 180.159 1305.23 180.159 L1309.26 180.159 Z" fill="#000000" fill-rule="nonzero" fill-opacity="1" /><path clip-path="url(#clip810)" d="M1312.38 205.946 L1312.38 190.252 L1316.64 190.252 L1316.64 205.784 Q1316.64 209.465 1318.08 211.316 Q1319.51 213.145 1322.38 213.145 Q1325.83 213.145 1327.82 210.946 Q1329.83 208.747 1329.83 204.951 L1329.83 190.252 L1334.09 190.252 L1334.09 216.178 L1329.83 216.178 L1329.83 212.196 Q1328.28 214.557 1326.22 215.715 Q1324.19 216.849 1321.48 216.849 Q1317.01 216.849 1314.7 214.071 Q1312.38 211.293 1312.38 205.946 M1323.1 189.627 L1323.1 189.627 Z" fill="#000000" fill-rule="nonzero" fill-opacity="1" /><path clip-path="url(#clip810)" d="M1364.42 200.529 L1364.42 216.178 L1360.16 216.178 L1360.16 200.668 Q1360.16 196.988 1358.72 195.159 Q1357.29 193.33 1354.42 193.33 Q1350.97 193.33 1348.98 195.53 Q1346.99 197.729 1346.99 201.525 L1346.99 216.178 L1342.71 216.178 L1342.71 190.252 L1346.99 190.252 L1346.99 194.28 Q1348.52 191.942 1350.58 190.784 Q1352.66 189.627 1355.37 189.627 Q1359.83 189.627 1362.13 192.405 Q1364.42 195.159 1364.42 200.529 Z" fill="#000000" fill-rule="nonzero" fill-opacity="1" /><path clip-path="url(#clip810)" d="M1391.57 191.247 L1391.57 195.229 Q1389.77 194.233 1387.94 193.747 Q1386.13 193.238 1384.28 193.238 Q1380.14 193.238 1377.84 195.877 Q1375.55 198.492 1375.55 203.238 Q1375.55 207.983 1377.84 210.622 Q1380.14 213.238 1384.28 213.238 Q1386.13 213.238 1387.94 212.752 Q1389.77 212.242 1391.57 211.247 L1391.57 215.182 Q1389.79 216.016 1387.87 216.432 Q1385.97 216.849 1383.82 216.849 Q1377.96 216.849 1374.51 213.168 Q1371.06 209.488 1371.06 203.238 Q1371.06 196.895 1374.53 193.261 Q1378.03 189.627 1384.09 189.627 Q1386.06 189.627 1387.94 190.043 Q1389.81 190.437 1391.57 191.247 Z" fill="#000000" fill-rule="nonzero" fill-opacity="1" /><path clip-path="url(#clip810)" d="M1403.19 182.891 L1403.19 190.252 L1411.96 190.252 L1411.96 193.562 L1403.19 193.562 L1403.19 207.636 Q1403.19 210.807 1404.05 211.71 Q1404.93 212.613 1407.59 212.613 L1411.96 212.613 L1411.96 216.178 L1407.59 216.178 Q1402.66 216.178 1400.78 214.349 Q1398.91 212.497 1398.91 207.636 L1398.91 193.562 L1395.78 193.562 L1395.78 190.252 L1398.91 190.252 L1398.91 182.891 L1403.19 182.891 Z" fill="#000000" fill-rule="nonzero" fill-opacity="1" /><path clip-path="url(#clip810)" d="M1417.57 190.252 L1421.83 190.252 L1421.83 216.178 L1417.57 216.178 L1417.57 190.252 M1417.57 180.159 L1421.83 180.159 L1421.83 185.553 L1417.57 185.553 L1417.57 180.159 Z" fill="#000000" fill-rule="nonzero" fill-opacity="1" /><path clip-path="url(#clip810)" d="M1440.78 193.238 Q1437.36 193.238 1435.37 195.923 Q1433.38 198.585 1433.38 203.238 Q1433.38 207.891 1435.34 210.576 Q1437.33 213.238 1440.78 213.238 Q1444.19 213.238 1446.18 210.553 Q1448.17 207.867 1448.17 203.238 Q1448.17 198.631 1446.18 195.946 Q1444.19 193.238 1440.78 193.238 M1440.78 189.627 Q1446.34 189.627 1449.51 193.238 Q1452.68 196.849 1452.68 203.238 Q1452.68 209.604 1449.51 213.238 Q1446.34 216.849 1440.78 216.849 Q1435.2 216.849 1432.03 213.238 Q1428.89 209.604 1428.89 203.238 Q1428.89 196.849 1432.03 193.238 Q1435.2 189.627 1440.78 189.627 Z" fill="#000000" fill-rule="nonzero" fill-opacity="1" /><path clip-path="url(#clip810)" d="M1481.29 200.529 L1481.29 216.178 L1477.03 216.178 L1477.03 200.668 Q1477.03 196.988 1475.6 195.159 Q1474.16 193.33 1471.29 193.33 Q1467.84 193.33 1465.85 195.53 Q1463.86 197.729 1463.86 201.525 L1463.86 216.178 L1459.58 216.178 L1459.58 190.252 L1463.86 190.252 L1463.86 194.28 Q1465.39 191.942 1467.45 190.784 Q1469.53 189.627 1472.24 189.627 Q1476.71 189.627 1479 192.405 Q1481.29 195.159 1481.29 200.529 Z" fill="#000000" fill-rule="nonzero" fill-opacity="1" /></svg>
