<?xml version="1.0" encoding="utf-8"?>
<svg xmlns="http://www.w3.org/2000/svg" xmlns:xlink="http://www.w3.org/1999/xlink" width="600" height="400" viewBox="0 0 2400 1600">
<defs>
  <clipPath id="clip360">
    <rect x="0" y="0" width="2400" height="1600"/>
  </clipPath>
</defs>
<path clip-path="url(#clip360)" d="M0 1600 L2400 1600 L2400 0 L0 0  Z" fill="#ffffff" fill-rule="evenodd" fill-opacity="1"/>
<defs>
  <clipPath id="clip361">
    <rect x="480" y="0" width="1681" height="1600"/>
  </clipPath>
</defs>
<path clip-path="url(#clip360)" d="M204.45 1423.18 L2352.76 1423.18 L2352.76 47.2441 L204.45 47.2441  Z" fill="#ffffff" fill-rule="evenodd" fill-opacity="1"/>
<defs>
  <clipPath id="clip362">
    <rect x="204" y="47" width="2149" height="1377"/>
  </clipPath>
</defs>
<polyline clip-path="url(#clip362)" style="stroke:#000000; stroke-linecap:round; stroke-linejoin:round; stroke-width:2; stroke-opacity:0.1; fill:none" points="439.881,1423.18 439.881,47.2441 "/>
<polyline clip-path="url(#clip362)" style="stroke:#000000; stroke-linecap:round; stroke-linejoin:round; stroke-width:2; stroke-opacity:0.1; fill:none" points="734.169,1423.18 734.169,47.2441 "/>
<polyline clip-path="url(#clip362)" style="stroke:#000000; stroke-linecap:round; stroke-linejoin:round; stroke-width:2; stroke-opacity:0.1; fill:none" points="1028.46,1423.18 1028.46,47.2441 "/>
<polyline clip-path="url(#clip362)" style="stroke:#000000; stroke-linecap:round; stroke-linejoin:round; stroke-width:2; stroke-opacity:0.1; fill:none" points="1322.75,1423.18 1322.75,47.2441 "/>
<polyline clip-path="url(#clip362)" style="stroke:#000000; stroke-linecap:round; stroke-linejoin:round; stroke-width:2; stroke-opacity:0.1; fill:none" points="1617.03,1423.18 1617.03,47.2441 "/>
<polyline clip-path="url(#clip362)" style="stroke:#000000; stroke-linecap:round; stroke-linejoin:round; stroke-width:2; stroke-opacity:0.1; fill:none" points="1911.32,1423.18 1911.32,47.2441 "/>
<polyline clip-path="url(#clip362)" style="stroke:#000000; stroke-linecap:round; stroke-linejoin:round; stroke-width:2; stroke-opacity:0.1; fill:none" points="2205.61,1423.18 2205.61,47.2441 "/>
<polyline clip-path="url(#clip362)" style="stroke:#000000; stroke-linecap:round; stroke-linejoin:round; stroke-width:2; stroke-opacity:0.1; fill:none" points="204.45,1330.89 2352.76,1330.89 "/>
<polyline clip-path="url(#clip362)" style="stroke:#000000; stroke-linecap:round; stroke-linejoin:round; stroke-width:2; stroke-opacity:0.1; fill:none" points="204.45,1064.17 2352.76,1064.17 "/>
<polyline clip-path="url(#clip362)" style="stroke:#000000; stroke-linecap:round; stroke-linejoin:round; stroke-width:2; stroke-opacity:0.1; fill:none" points="204.45,797.447 2352.76,797.447 "/>
<polyline clip-path="url(#clip362)" style="stroke:#000000; stroke-linecap:round; stroke-linejoin:round; stroke-width:2; stroke-opacity:0.1; fill:none" points="204.45,530.724 2352.76,530.724 "/>
<polyline clip-path="url(#clip362)" style="stroke:#000000; stroke-linecap:round; stroke-linejoin:round; stroke-width:2; stroke-opacity:0.1; fill:none" points="204.45,264.001 2352.76,264.001 "/>
<polyline clip-path="url(#clip360)" style="stroke:#000000; stroke-linecap:round; stroke-linejoin:round; stroke-width:4; stroke-opacity:1; fill:none" points="204.45,1423.18 2352.76,1423.18 "/>
<polyline clip-path="url(#clip360)" style="stroke:#000000; stroke-linecap:round; stroke-linejoin:round; stroke-width:4; stroke-opacity:1; fill:none" points="439.881,1423.18 439.881,1404.28 "/>
<polyline clip-path="url(#clip360)" style="stroke:#000000; stroke-linecap:round; stroke-linejoin:round; stroke-width:4; stroke-opacity:1; fill:none" points="734.169,1423.18 734.169,1404.28 "/>
<polyline clip-path="url(#clip360)" style="stroke:#000000; stroke-linecap:round; stroke-linejoin:round; stroke-width:4; stroke-opacity:1; fill:none" points="1028.46,1423.18 1028.46,1404.28 "/>
<polyline clip-path="url(#clip360)" style="stroke:#000000; stroke-linecap:round; stroke-linejoin:round; stroke-width:4; stroke-opacity:1; fill:none" points="1322.75,1423.18 1322.75,1404.28 "/>
<polyline clip-path="url(#clip360)" style="stroke:#000000; stroke-linecap:round; stroke-linejoin:round; stroke-width:4; stroke-opacity:1; fill:none" points="1617.03,1423.18 1617.03,1404.28 "/>
<polyline clip-path="url(#clip360)" style="stroke:#000000; stroke-linecap:round; stroke-linejoin:round; stroke-width:4; stroke-opacity:1; fill:none" points="1911.32,1423.18 1911.32,1404.28 "/>
<polyline clip-path="url(#clip360)" style="stroke:#000000; stroke-linecap:round; stroke-linejoin:round; stroke-width:4; stroke-opacity:1; fill:none" points="2205.61,1423.18 2205.61,1404.28 "/>
<path clip-path="url(#clip360)" d="M440.286 1466.44 Q437.137 1466.44 435.286 1468.59 Q433.457 1470.74 433.457 1474.49 Q433.457 1478.22 435.286 1480.39 Q437.137 1482.55 440.286 1482.55 Q443.434 1482.55 445.262 1480.39 Q447.114 1478.22 447.114 1474.49 Q447.114 1470.74 445.262 1468.59 Q443.434 1466.44 440.286 1466.44 M449.568 1451.78 L449.568 1456.04 Q447.809 1455.21 446.003 1454.77 Q444.221 1454.33 442.462 1454.33 Q437.832 1454.33 435.378 1457.45 Q432.948 1460.58 432.6 1466.9 Q433.966 1464.89 436.026 1463.82 Q438.087 1462.73 440.563 1462.73 Q445.772 1462.73 448.781 1465.9 Q451.813 1469.05 451.813 1474.49 Q451.813 1479.82 448.665 1483.03 Q445.517 1486.25 440.286 1486.25 Q434.29 1486.25 431.119 1481.67 Q427.948 1477.06 427.948 1468.33 Q427.948 1460.14 431.837 1455.28 Q435.725 1450.39 442.276 1450.39 Q444.036 1450.39 445.818 1450.74 Q447.624 1451.09 449.568 1451.78 Z" fill="#000000" fill-rule="nonzero" fill-opacity="1" /><path clip-path="url(#clip360)" d="M723.058 1451.02 L745.28 1451.02 L745.28 1453.01 L732.734 1485.58 L727.85 1485.58 L739.655 1454.96 L723.058 1454.96 L723.058 1451.02 Z" fill="#000000" fill-rule="nonzero" fill-opacity="1" /><path clip-path="url(#clip360)" d="M1028.46 1469.17 Q1025.12 1469.17 1023.2 1470.95 Q1021.3 1472.73 1021.3 1475.86 Q1021.3 1478.98 1023.2 1480.77 Q1025.12 1482.55 1028.46 1482.55 Q1031.79 1482.55 1033.71 1480.77 Q1035.63 1478.96 1035.63 1475.86 Q1035.63 1472.73 1033.71 1470.95 Q1031.81 1469.17 1028.46 1469.17 M1023.78 1467.18 Q1020.77 1466.44 1019.08 1464.38 Q1017.42 1462.32 1017.42 1459.35 Q1017.42 1455.21 1020.36 1452.8 Q1023.32 1450.39 1028.46 1450.39 Q1033.62 1450.39 1036.56 1452.8 Q1039.5 1455.21 1039.5 1459.35 Q1039.5 1462.32 1037.81 1464.38 Q1036.14 1466.44 1033.16 1467.18 Q1036.54 1467.96 1038.41 1470.26 Q1040.31 1472.55 1040.31 1475.86 Q1040.31 1480.88 1037.23 1483.57 Q1034.18 1486.25 1028.46 1486.25 Q1022.74 1486.25 1019.66 1483.57 Q1016.61 1480.88 1016.61 1475.86 Q1016.61 1472.55 1018.5 1470.26 Q1020.4 1467.96 1023.78 1467.18 M1022.07 1459.79 Q1022.07 1462.48 1023.74 1463.98 Q1025.43 1465.49 1028.46 1465.49 Q1031.47 1465.49 1033.16 1463.98 Q1034.87 1462.48 1034.87 1459.79 Q1034.87 1457.11 1033.16 1455.6 Q1031.47 1454.1 1028.46 1454.1 Q1025.43 1454.1 1023.74 1455.6 Q1022.07 1457.11 1022.07 1459.79 Z" fill="#000000" fill-rule="nonzero" fill-opacity="1" /><path clip-path="url(#clip360)" d="M1313.05 1484.86 L1313.05 1480.6 Q1314.81 1481.44 1316.61 1481.88 Q1318.42 1482.32 1320.15 1482.32 Q1324.78 1482.32 1327.21 1479.21 Q1329.67 1476.09 1330.01 1469.75 Q1328.67 1471.74 1326.61 1472.8 Q1324.55 1473.87 1322.05 1473.87 Q1316.87 1473.87 1313.83 1470.74 Q1310.82 1467.59 1310.82 1462.15 Q1310.82 1456.83 1313.97 1453.61 Q1317.12 1450.39 1322.35 1450.39 Q1328.35 1450.39 1331.5 1455 Q1334.67 1459.58 1334.67 1468.33 Q1334.67 1476.51 1330.78 1481.39 Q1326.91 1486.25 1320.36 1486.25 Q1318.6 1486.25 1316.8 1485.9 Q1314.99 1485.56 1313.05 1484.86 M1322.35 1470.21 Q1325.5 1470.21 1327.33 1468.06 Q1329.18 1465.9 1329.18 1462.15 Q1329.18 1458.43 1327.33 1456.27 Q1325.5 1454.1 1322.35 1454.1 Q1319.2 1454.1 1317.35 1456.27 Q1315.52 1458.43 1315.52 1462.15 Q1315.52 1465.9 1317.35 1468.06 Q1319.2 1470.21 1322.35 1470.21 Z" fill="#000000" fill-rule="nonzero" fill-opacity="1" /><path clip-path="url(#clip360)" d="M1591.72 1481.64 L1599.36 1481.64 L1599.36 1455.28 L1591.05 1456.95 L1591.05 1452.69 L1599.31 1451.02 L1603.99 1451.02 L1603.99 1481.64 L1611.63 1481.64 L1611.63 1485.58 L1591.72 1485.58 L1591.72 1481.64 Z" fill="#000000" fill-rule="nonzero" fill-opacity="1" /><path clip-path="url(#clip360)" d="M1631.07 1454.1 Q1627.46 1454.1 1625.63 1457.66 Q1623.83 1461.2 1623.83 1468.33 Q1623.83 1475.44 1625.63 1479.01 Q1627.46 1482.55 1631.07 1482.55 Q1634.71 1482.55 1636.51 1479.01 Q1638.34 1475.44 1638.34 1468.33 Q1638.34 1461.2 1636.51 1457.66 Q1634.71 1454.1 1631.07 1454.1 M1631.07 1450.39 Q1636.88 1450.39 1639.94 1455 Q1643.02 1459.58 1643.02 1468.33 Q1643.02 1477.06 1639.94 1481.67 Q1636.88 1486.25 1631.07 1486.25 Q1625.26 1486.25 1622.19 1481.67 Q1619.13 1477.06 1619.13 1468.33 Q1619.13 1459.58 1622.19 1455 Q1625.26 1450.39 1631.07 1450.39 Z" fill="#000000" fill-rule="nonzero" fill-opacity="1" /><path clip-path="url(#clip360)" d="M1886.62 1481.64 L1894.26 1481.64 L1894.26 1455.28 L1885.95 1456.95 L1885.95 1452.69 L1894.22 1451.02 L1898.89 1451.02 L1898.89 1481.64 L1906.53 1481.64 L1906.53 1485.58 L1886.62 1485.58 L1886.62 1481.64 Z" fill="#000000" fill-rule="nonzero" fill-opacity="1" /><path clip-path="url(#clip360)" d="M1916.79 1481.64 L1924.42 1481.64 L1924.42 1455.28 L1916.11 1456.95 L1916.11 1452.69 L1924.38 1451.02 L1929.05 1451.02 L1929.05 1481.64 L1936.69 1481.64 L1936.69 1485.58 L1916.79 1485.58 L1916.79 1481.64 Z" fill="#000000" fill-rule="nonzero" fill-opacity="1" /><path clip-path="url(#clip360)" d="M2181.1 1481.64 L2188.74 1481.64 L2188.74 1455.28 L2180.43 1456.95 L2180.43 1452.69 L2188.69 1451.02 L2193.37 1451.02 L2193.37 1481.64 L2201.01 1481.64 L2201.01 1485.58 L2181.1 1485.58 L2181.1 1481.64 Z" fill="#000000" fill-rule="nonzero" fill-opacity="1" /><path clip-path="url(#clip360)" d="M2214.48 1481.64 L2230.8 1481.64 L2230.8 1485.58 L2208.85 1485.58 L2208.85 1481.64 Q2211.51 1478.89 2216.1 1474.26 Q2220.7 1469.61 2221.88 1468.27 Q2224.13 1465.74 2225.01 1464.01 Q2225.91 1462.25 2225.91 1460.56 Q2225.91 1457.8 2223.97 1456.07 Q2222.05 1454.33 2218.94 1454.33 Q2216.75 1454.33 2214.29 1455.09 Q2211.86 1455.86 2209.08 1457.41 L2209.08 1452.69 Q2211.91 1451.55 2214.36 1450.97 Q2216.82 1450.39 2218.85 1450.39 Q2224.22 1450.39 2227.42 1453.08 Q2230.61 1455.77 2230.61 1460.26 Q2230.61 1462.39 2229.8 1464.31 Q2229.01 1466.2 2226.91 1468.8 Q2226.33 1469.47 2223.23 1472.69 Q2220.13 1475.88 2214.48 1481.64 Z" fill="#000000" fill-rule="nonzero" fill-opacity="1" /><path clip-path="url(#clip360)" d="M1295.22 1532.4 L1282.33 1549.74 L1295.89 1568.04 L1288.98 1568.04 L1278.6 1554.04 L1268.23 1568.04 L1261.32 1568.04 L1275.17 1549.39 L1262.5 1532.4 L1269.4 1532.4 L1278.86 1545.1 L1288.31 1532.4 L1295.22 1532.4 Z" fill="#000000" fill-rule="nonzero" fill-opacity="1" /><polyline clip-path="url(#clip360)" style="stroke:#000000; stroke-linecap:round; stroke-linejoin:round; stroke-width:4; stroke-opacity:1; fill:none" points="204.45,1423.18 204.45,47.2441 "/>
<polyline clip-path="url(#clip360)" style="stroke:#000000; stroke-linecap:round; stroke-linejoin:round; stroke-width:4; stroke-opacity:1; fill:none" points="204.45,1330.89 223.347,1330.89 "/>
<polyline clip-path="url(#clip360)" style="stroke:#000000; stroke-linecap:round; stroke-linejoin:round; stroke-width:4; stroke-opacity:1; fill:none" points="204.45,1064.17 223.347,1064.17 "/>
<polyline clip-path="url(#clip360)" style="stroke:#000000; stroke-linecap:round; stroke-linejoin:round; stroke-width:4; stroke-opacity:1; fill:none" points="204.45,797.447 223.347,797.447 "/>
<polyline clip-path="url(#clip360)" style="stroke:#000000; stroke-linecap:round; stroke-linejoin:round; stroke-width:4; stroke-opacity:1; fill:none" points="204.45,530.724 223.347,530.724 "/>
<polyline clip-path="url(#clip360)" style="stroke:#000000; stroke-linecap:round; stroke-linejoin:round; stroke-width:4; stroke-opacity:1; fill:none" points="204.45,264.001 223.347,264.001 "/>
<path clip-path="url(#clip360)" d="M121.598 1344.24 L137.917 1344.24 L137.917 1348.17 L115.973 1348.17 L115.973 1344.24 Q118.635 1341.48 123.218 1336.85 Q127.825 1332.2 129.005 1330.86 Q131.251 1328.34 132.13 1326.6 Q133.033 1324.84 133.033 1323.15 Q133.033 1320.4 131.089 1318.66 Q129.167 1316.92 126.066 1316.92 Q123.867 1316.92 121.413 1317.69 Q118.982 1318.45 116.205 1320 L116.205 1315.28 Q119.029 1314.15 121.482 1313.57 Q123.936 1312.99 125.973 1312.99 Q131.343 1312.99 134.538 1315.67 Q137.732 1318.36 137.732 1322.85 Q137.732 1324.98 136.922 1326.9 Q136.135 1328.8 134.029 1331.39 Q133.45 1332.06 130.348 1335.28 Q127.246 1338.47 121.598 1344.24 Z" fill="#000000" fill-rule="nonzero" fill-opacity="1" /><path clip-path="url(#clip360)" d="M148.542 1344.24 L156.181 1344.24 L156.181 1317.87 L147.871 1319.54 L147.871 1315.28 L156.135 1313.61 L160.811 1313.61 L160.811 1344.24 L168.45 1344.24 L168.45 1348.17 L148.542 1348.17 L148.542 1344.24 Z" fill="#000000" fill-rule="nonzero" fill-opacity="1" /><path clip-path="url(#clip360)" d="M119.885 1077.52 L136.204 1077.52 L136.204 1081.45 L114.26 1081.45 L114.26 1077.52 Q116.922 1074.76 121.505 1070.13 Q126.112 1065.48 127.292 1064.14 Q129.538 1061.61 130.417 1059.88 Q131.32 1058.12 131.32 1056.43 Q131.32 1053.67 129.376 1051.94 Q127.455 1050.2 124.353 1050.2 Q122.154 1050.2 119.7 1050.96 Q117.269 1051.73 114.492 1053.28 L114.492 1048.56 Q117.316 1047.42 119.769 1046.84 Q122.223 1046.27 124.26 1046.27 Q129.63 1046.27 132.825 1048.95 Q136.019 1051.64 136.019 1056.13 Q136.019 1058.26 135.209 1060.18 Q134.422 1062.08 132.316 1064.67 Q131.737 1065.34 128.635 1068.56 Q125.533 1071.75 119.885 1077.52 Z" fill="#000000" fill-rule="nonzero" fill-opacity="1" /><path clip-path="url(#clip360)" d="M158.866 1050.96 L147.061 1069.41 L158.866 1069.41 L158.866 1050.96 M157.64 1046.89 L163.519 1046.89 L163.519 1069.41 L168.45 1069.41 L168.45 1073.3 L163.519 1073.3 L163.519 1081.45 L158.866 1081.45 L158.866 1073.3 L143.265 1073.3 L143.265 1068.79 L157.64 1046.89 Z" fill="#000000" fill-rule="nonzero" fill-opacity="1" /><path clip-path="url(#clip360)" d="M121.274 810.792 L137.593 810.792 L137.593 814.727 L115.649 814.727 L115.649 810.792 Q118.311 808.038 122.894 803.408 Q127.501 798.755 128.681 797.413 Q130.927 794.89 131.806 793.153 Q132.709 791.394 132.709 789.704 Q132.709 786.95 130.765 785.214 Q128.843 783.478 125.742 783.478 Q123.543 783.478 121.089 784.241 Q118.658 785.005 115.881 786.556 L115.881 781.834 Q118.705 780.7 121.158 780.121 Q123.612 779.542 125.649 779.542 Q131.019 779.542 134.214 782.228 Q137.408 784.913 137.408 789.403 Q137.408 791.533 136.598 793.454 Q135.811 795.352 133.704 797.945 Q133.126 798.616 130.024 801.834 Q126.922 805.028 121.274 810.792 Z" fill="#000000" fill-rule="nonzero" fill-opacity="1" /><path clip-path="url(#clip360)" d="M146.228 780.167 L168.45 780.167 L168.45 782.158 L155.903 814.727 L151.019 814.727 L162.825 784.103 L146.228 784.103 L146.228 780.167 Z" fill="#000000" fill-rule="nonzero" fill-opacity="1" /><path clip-path="url(#clip360)" d="M130.51 529.37 Q133.867 530.088 135.742 532.356 Q137.64 534.625 137.64 537.958 Q137.64 543.074 134.121 545.875 Q130.603 548.676 124.121 548.676 Q121.945 548.676 119.63 548.236 Q117.339 547.819 114.885 546.963 L114.885 542.449 Q116.83 543.583 119.144 544.162 Q121.459 544.74 123.982 544.74 Q128.38 544.74 130.672 543.004 Q132.987 541.268 132.987 537.958 Q132.987 534.902 130.834 533.189 Q128.705 531.453 124.885 531.453 L120.857 531.453 L120.857 527.611 L125.07 527.611 Q128.519 527.611 130.348 526.245 Q132.177 524.856 132.177 522.264 Q132.177 519.602 130.279 518.19 Q128.404 516.754 124.885 516.754 Q122.964 516.754 120.765 517.171 Q118.566 517.588 115.927 518.467 L115.927 514.301 Q118.589 513.56 120.904 513.19 Q123.242 512.819 125.302 512.819 Q130.626 512.819 133.728 515.25 Q136.829 517.657 136.829 521.778 Q136.829 524.648 135.186 526.639 Q133.542 528.606 130.51 529.37 Z" fill="#000000" fill-rule="nonzero" fill-opacity="1" /><path clip-path="url(#clip360)" d="M156.505 516.523 Q152.894 516.523 151.066 520.088 Q149.26 523.629 149.26 530.759 Q149.26 537.865 151.066 541.43 Q152.894 544.972 156.505 544.972 Q160.14 544.972 161.945 541.43 Q163.774 537.865 163.774 530.759 Q163.774 523.629 161.945 520.088 Q160.14 516.523 156.505 516.523 M156.505 512.819 Q162.315 512.819 165.371 517.426 Q168.45 522.009 168.45 530.759 Q168.45 539.486 165.371 544.092 Q162.315 548.676 156.505 548.676 Q150.695 548.676 147.616 544.092 Q144.561 539.486 144.561 530.759 Q144.561 522.009 147.616 517.426 Q150.695 512.819 156.505 512.819 Z" fill="#000000" fill-rule="nonzero" fill-opacity="1" /><path clip-path="url(#clip360)" d="M131.158 262.647 Q134.515 263.365 136.39 265.633 Q138.288 267.902 138.288 271.235 Q138.288 276.351 134.769 279.151 Q131.251 281.952 124.769 281.952 Q122.593 281.952 120.279 281.513 Q117.987 281.096 115.533 280.239 L115.533 275.726 Q117.478 276.86 119.793 277.439 Q122.107 278.017 124.63 278.017 Q129.029 278.017 131.32 276.281 Q133.635 274.545 133.635 271.235 Q133.635 268.179 131.482 266.466 Q129.353 264.73 125.533 264.73 L121.505 264.73 L121.505 260.888 L125.718 260.888 Q129.167 260.888 130.996 259.522 Q132.825 258.133 132.825 255.54 Q132.825 252.878 130.927 251.466 Q129.052 250.031 125.533 250.031 Q123.612 250.031 121.413 250.448 Q119.214 250.865 116.575 251.744 L116.575 247.578 Q119.237 246.837 121.552 246.466 Q123.89 246.096 125.95 246.096 Q131.274 246.096 134.376 248.527 Q137.478 250.934 137.478 255.054 Q137.478 257.925 135.834 259.915 Q134.191 261.883 131.158 262.647 Z" fill="#000000" fill-rule="nonzero" fill-opacity="1" /><path clip-path="url(#clip360)" d="M161.32 262.647 Q164.677 263.365 166.552 265.633 Q168.45 267.902 168.45 271.235 Q168.45 276.351 164.931 279.151 Q161.413 281.952 154.931 281.952 Q152.755 281.952 150.441 281.513 Q148.149 281.096 145.695 280.239 L145.695 275.726 Q147.64 276.86 149.954 277.439 Q152.269 278.017 154.792 278.017 Q159.19 278.017 161.482 276.281 Q163.797 274.545 163.797 271.235 Q163.797 268.179 161.644 266.466 Q159.515 264.73 155.695 264.73 L151.667 264.73 L151.667 260.888 L155.88 260.888 Q159.329 260.888 161.158 259.522 Q162.987 258.133 162.987 255.54 Q162.987 252.878 161.089 251.466 Q159.214 250.031 155.695 250.031 Q153.774 250.031 151.575 250.448 Q149.376 250.865 146.737 251.744 L146.737 247.578 Q149.399 246.837 151.714 246.466 Q154.052 246.096 156.112 246.096 Q161.436 246.096 164.538 248.527 Q167.64 250.934 167.64 255.054 Q167.64 257.925 165.996 259.915 Q164.352 261.883 161.32 262.647 Z" fill="#000000" fill-rule="nonzero" fill-opacity="1" /><path clip-path="url(#clip360)" d="M67.3143 733.525 Q73.68 736.008 75.6216 738.363 Q77.5631 740.718 77.5631 744.665 L77.5631 749.344 L72.6615 749.344 L72.6615 745.906 Q72.6615 743.487 71.5157 742.151 Q70.3699 740.814 66.1048 739.191 L63.4312 738.14 L28.3562 752.559 L28.3562 746.352 L56.238 735.212 L28.3562 724.072 L28.3562 717.865 L67.3143 733.525 Z" fill="#000000" fill-rule="nonzero" fill-opacity="1" /><circle clip-path="url(#clip362)" cx="254.801" cy="1353.82" r="14.4" fill="#fdedb0" fill-rule="evenodd" fill-opacity="1" stroke="#000000" stroke-opacity="1" stroke-width="3.2"/>
<circle clip-path="url(#clip362)" cx="1328.95" cy="704.789" r="14.4" fill="#fdedb0" fill-rule="evenodd" fill-opacity="1" stroke="#000000" stroke-opacity="1" stroke-width="3.2"/>
<circle clip-path="url(#clip362)" cx="1866.03" cy="380.276" r="14.4" fill="#fdedb0" fill-rule="evenodd" fill-opacity="1" stroke="#000000" stroke-opacity="1" stroke-width="3.2"/>
<circle clip-path="url(#clip362)" cx="791.877" cy="1029.3" r="14.4" fill="#fdedb0" fill-rule="evenodd" fill-opacity="1" stroke="#000000" stroke-opacity="1" stroke-width="3.2"/>
<circle clip-path="url(#clip362)" cx="1060.42" cy="867.045" r="14.4" fill="#fdedb0" fill-rule="evenodd" fill-opacity="1" stroke="#000000" stroke-opacity="1" stroke-width="3.2"/>
<circle clip-path="url(#clip362)" cx="2134.57" cy="218.019" r="14.4" fill="#fdedb0" fill-rule="evenodd" fill-opacity="1" stroke="#000000" stroke-opacity="1" stroke-width="3.2"/>
<circle clip-path="url(#clip362)" cx="1597.49" cy="542.532" r="14.4" fill="#fdedb0" fill-rule="evenodd" fill-opacity="1" stroke="#000000" stroke-opacity="1" stroke-width="3.2"/>
<circle clip-path="url(#clip362)" cx="523.339" cy="1191.56" r="14.4" fill="#fdedb0" fill-rule="evenodd" fill-opacity="1" stroke="#000000" stroke-opacity="1" stroke-width="3.2"/>
<circle clip-path="url(#clip362)" cx="657.608" cy="1110.43" r="14.4" fill="#fdedb0" fill-rule="evenodd" fill-opacity="1" stroke="#000000" stroke-opacity="1" stroke-width="3.2"/>
<circle clip-path="url(#clip362)" cx="1731.76" cy="461.404" r="14.4" fill="#fdedb0" fill-rule="evenodd" fill-opacity="1" stroke="#000000" stroke-opacity="1" stroke-width="3.2"/>
<circle clip-path="url(#clip362)" cx="2268.84" cy="136.891" r="14.4" fill="#fdedb0" fill-rule="evenodd" fill-opacity="1" stroke="#000000" stroke-opacity="1" stroke-width="3.2"/>
<circle clip-path="url(#clip362)" cx="1194.68" cy="785.917" r="14.4" fill="#fdedb0" fill-rule="evenodd" fill-opacity="1" stroke="#000000" stroke-opacity="1" stroke-width="3.2"/>
<circle clip-path="url(#clip362)" cx="926.146" cy="948.174" r="14.4" fill="#fdedb0" fill-rule="evenodd" fill-opacity="1" stroke="#000000" stroke-opacity="1" stroke-width="3.2"/>
<circle clip-path="url(#clip362)" cx="2000.3" cy="299.147" r="14.4" fill="#fdedb0" fill-rule="evenodd" fill-opacity="1" stroke="#000000" stroke-opacity="1" stroke-width="3.2"/>
<circle clip-path="url(#clip362)" cx="1463.22" cy="623.661" r="14.4" fill="#fdedb0" fill-rule="evenodd" fill-opacity="1" stroke="#000000" stroke-opacity="1" stroke-width="3.2"/>
<circle clip-path="url(#clip362)" cx="389.07" cy="1272.69" r="14.4" fill="#fdedb0" fill-rule="evenodd" fill-opacity="1" stroke="#000000" stroke-opacity="1" stroke-width="3.2"/>
<circle clip-path="url(#clip362)" cx="456.204" cy="1232.12" r="14.4" fill="#fdedb0" fill-rule="evenodd" fill-opacity="1" stroke="#000000" stroke-opacity="1" stroke-width="3.2"/>
<circle clip-path="url(#clip362)" cx="1530.36" cy="583.096" r="14.4" fill="#fdedb0" fill-rule="evenodd" fill-opacity="1" stroke="#000000" stroke-opacity="1" stroke-width="3.2"/>
<circle clip-path="url(#clip362)" cx="2067.43" cy="258.583" r="14.4" fill="#fdedb0" fill-rule="evenodd" fill-opacity="1" stroke="#000000" stroke-opacity="1" stroke-width="3.2"/>
<circle clip-path="url(#clip362)" cx="993.281" cy="907.61" r="14.4" fill="#fdedb0" fill-rule="evenodd" fill-opacity="1" stroke="#000000" stroke-opacity="1" stroke-width="3.2"/>
<circle clip-path="url(#clip362)" cx="1261.82" cy="745.353" r="14.4" fill="#fdedb0" fill-rule="evenodd" fill-opacity="1" stroke="#000000" stroke-opacity="1" stroke-width="3.2"/>
<circle clip-path="url(#clip362)" cx="2335.97" cy="96.3267" r="14.4" fill="#fdedb0" fill-rule="evenodd" fill-opacity="1" stroke="#000000" stroke-opacity="1" stroke-width="3.2"/>
<circle clip-path="url(#clip362)" cx="1798.9" cy="420.84" r="14.4" fill="#fdedb0" fill-rule="evenodd" fill-opacity="1" stroke="#000000" stroke-opacity="1" stroke-width="3.2"/>
<circle clip-path="url(#clip362)" cx="724.743" cy="1069.87" r="14.4" fill="#fdedb0" fill-rule="evenodd" fill-opacity="1" stroke="#000000" stroke-opacity="1" stroke-width="3.2"/>
<circle clip-path="url(#clip362)" cx="590.473" cy="1150.99" r="14.4" fill="#fdedb0" fill-rule="evenodd" fill-opacity="1" stroke="#000000" stroke-opacity="1" stroke-width="3.2"/>
<circle clip-path="url(#clip362)" cx="1664.63" cy="501.968" r="14.4" fill="#fdedb0" fill-rule="evenodd" fill-opacity="1" stroke="#000000" stroke-opacity="1" stroke-width="3.2"/>
<circle clip-path="url(#clip362)" cx="2201.7" cy="177.455" r="14.4" fill="#fdedb0" fill-rule="evenodd" fill-opacity="1" stroke="#000000" stroke-opacity="1" stroke-width="3.2"/>
<circle clip-path="url(#clip362)" cx="1127.55" cy="826.481" r="14.4" fill="#fdedb0" fill-rule="evenodd" fill-opacity="1" stroke="#000000" stroke-opacity="1" stroke-width="3.2"/>
<circle clip-path="url(#clip362)" cx="859.012" cy="988.738" r="14.4" fill="#fdedb0" fill-rule="evenodd" fill-opacity="1" stroke="#000000" stroke-opacity="1" stroke-width="3.2"/>
<circle clip-path="url(#clip362)" cx="1933.16" cy="339.712" r="14.4" fill="#fdedb0" fill-rule="evenodd" fill-opacity="1" stroke="#000000" stroke-opacity="1" stroke-width="3.2"/>
<circle clip-path="url(#clip362)" cx="1396.09" cy="664.225" r="14.4" fill="#fdedb0" fill-rule="evenodd" fill-opacity="1" stroke="#000000" stroke-opacity="1" stroke-width="3.2"/>
<circle clip-path="url(#clip362)" cx="321.935" cy="1313.25" r="14.4" fill="#fdedb0" fill-rule="evenodd" fill-opacity="1" stroke="#000000" stroke-opacity="1" stroke-width="3.2"/>
<circle clip-path="url(#clip362)" cx="288.368" cy="1333.53" r="14.4" fill="#fdedb0" fill-rule="evenodd" fill-opacity="1" stroke="#000000" stroke-opacity="1" stroke-width="3.2"/>
<circle clip-path="url(#clip362)" cx="1362.52" cy="684.507" r="14.4" fill="#fdedb0" fill-rule="evenodd" fill-opacity="1" stroke="#000000" stroke-opacity="1" stroke-width="3.2"/>
<circle clip-path="url(#clip362)" cx="1899.6" cy="359.994" r="14.4" fill="#fdedb0" fill-rule="evenodd" fill-opacity="1" stroke="#000000" stroke-opacity="1" stroke-width="3.2"/>
<circle clip-path="url(#clip362)" cx="825.444" cy="1009.02" r="14.4" fill="#fdedb0" fill-rule="evenodd" fill-opacity="1" stroke="#000000" stroke-opacity="1" stroke-width="3.2"/>
<circle clip-path="url(#clip362)" cx="1093.98" cy="846.763" r="14.4" fill="#fdedb0" fill-rule="evenodd" fill-opacity="1" stroke="#000000" stroke-opacity="1" stroke-width="3.2"/>
<circle clip-path="url(#clip362)" cx="2168.14" cy="197.737" r="14.4" fill="#fdedb0" fill-rule="evenodd" fill-opacity="1" stroke="#000000" stroke-opacity="1" stroke-width="3.2"/>
<circle clip-path="url(#clip362)" cx="1631.06" cy="522.25" r="14.4" fill="#fdedb0" fill-rule="evenodd" fill-opacity="1" stroke="#000000" stroke-opacity="1" stroke-width="3.2"/>
<circle clip-path="url(#clip362)" cx="556.906" cy="1171.28" r="14.4" fill="#fdedb0" fill-rule="evenodd" fill-opacity="1" stroke="#000000" stroke-opacity="1" stroke-width="3.2"/>
<circle clip-path="url(#clip362)" cx="691.175" cy="1090.15" r="14.4" fill="#fdedb0" fill-rule="evenodd" fill-opacity="1" stroke="#000000" stroke-opacity="1" stroke-width="3.2"/>
<circle clip-path="url(#clip362)" cx="1765.33" cy="441.122" r="14.4" fill="#fdedb0" fill-rule="evenodd" fill-opacity="1" stroke="#000000" stroke-opacity="1" stroke-width="3.2"/>
<circle clip-path="url(#clip362)" cx="2302.4" cy="116.609" r="14.4" fill="#fdedb0" fill-rule="evenodd" fill-opacity="1" stroke="#000000" stroke-opacity="1" stroke-width="3.2"/>
<circle clip-path="url(#clip362)" cx="1228.25" cy="765.635" r="14.4" fill="#fdedb0" fill-rule="evenodd" fill-opacity="1" stroke="#000000" stroke-opacity="1" stroke-width="3.2"/>
<circle clip-path="url(#clip362)" cx="959.714" cy="927.892" r="14.4" fill="#fdedb0" fill-rule="evenodd" fill-opacity="1" stroke="#000000" stroke-opacity="1" stroke-width="3.2"/>
<circle clip-path="url(#clip362)" cx="2033.87" cy="278.865" r="14.4" fill="#fdedb0" fill-rule="evenodd" fill-opacity="1" stroke="#000000" stroke-opacity="1" stroke-width="3.2"/>
<circle clip-path="url(#clip362)" cx="1496.79" cy="603.379" r="14.4" fill="#fdedb0" fill-rule="evenodd" fill-opacity="1" stroke="#000000" stroke-opacity="1" stroke-width="3.2"/>
<circle clip-path="url(#clip362)" cx="422.637" cy="1252.4" r="14.4" fill="#fdedb0" fill-rule="evenodd" fill-opacity="1" stroke="#000000" stroke-opacity="1" stroke-width="3.2"/>
<circle clip-path="url(#clip362)" cx="355.502" cy="1292.97" r="14.4" fill="#fdedb0" fill-rule="evenodd" fill-opacity="1" stroke="#000000" stroke-opacity="1" stroke-width="3.2"/>
<circle clip-path="url(#clip362)" cx="1429.66" cy="643.943" r="14.4" fill="#fdedb0" fill-rule="evenodd" fill-opacity="1" stroke="#000000" stroke-opacity="1" stroke-width="3.2"/>
<circle clip-path="url(#clip362)" cx="1966.73" cy="319.429" r="14.4" fill="#fdedb0" fill-rule="evenodd" fill-opacity="1" stroke="#000000" stroke-opacity="1" stroke-width="3.2"/>
<circle clip-path="url(#clip362)" cx="892.579" cy="968.456" r="14.4" fill="#fdedb0" fill-rule="evenodd" fill-opacity="1" stroke="#000000" stroke-opacity="1" stroke-width="3.2"/>
<circle clip-path="url(#clip362)" cx="1161.12" cy="806.199" r="14.4" fill="#fdedb0" fill-rule="evenodd" fill-opacity="1" stroke="#000000" stroke-opacity="1" stroke-width="3.2"/>
<circle clip-path="url(#clip362)" cx="2235.27" cy="157.173" r="14.4" fill="#fdedb0" fill-rule="evenodd" fill-opacity="1" stroke="#000000" stroke-opacity="1" stroke-width="3.2"/>
<circle clip-path="url(#clip362)" cx="1698.19" cy="481.686" r="14.4" fill="#fdedb0" fill-rule="evenodd" fill-opacity="1" stroke="#000000" stroke-opacity="1" stroke-width="3.2"/>
<circle clip-path="url(#clip362)" cx="624.041" cy="1130.71" r="14.4" fill="#fdedb0" fill-rule="evenodd" fill-opacity="1" stroke="#000000" stroke-opacity="1" stroke-width="3.2"/>
<circle clip-path="url(#clip362)" cx="489.772" cy="1211.84" r="14.4" fill="#fdedb0" fill-rule="evenodd" fill-opacity="1" stroke="#000000" stroke-opacity="1" stroke-width="3.2"/>
<circle clip-path="url(#clip362)" cx="1563.92" cy="562.814" r="14.4" fill="#fdedb0" fill-rule="evenodd" fill-opacity="1" stroke="#000000" stroke-opacity="1" stroke-width="3.2"/>
<circle clip-path="url(#clip362)" cx="2101" cy="238.301" r="14.4" fill="#fdedb0" fill-rule="evenodd" fill-opacity="1" stroke="#000000" stroke-opacity="1" stroke-width="3.2"/>
<circle clip-path="url(#clip362)" cx="1026.85" cy="887.328" r="14.4" fill="#fdedb0" fill-rule="evenodd" fill-opacity="1" stroke="#000000" stroke-opacity="1" stroke-width="3.2"/>
<circle clip-path="url(#clip362)" cx="758.31" cy="1049.58" r="14.4" fill="#fdedb0" fill-rule="evenodd" fill-opacity="1" stroke="#000000" stroke-opacity="1" stroke-width="3.2"/>
<circle clip-path="url(#clip362)" cx="1832.46" cy="400.558" r="14.4" fill="#fdedb0" fill-rule="evenodd" fill-opacity="1" stroke="#000000" stroke-opacity="1" stroke-width="3.2"/>
<circle clip-path="url(#clip362)" cx="1295.39" cy="725.071" r="14.4" fill="#fdedb0" fill-rule="evenodd" fill-opacity="1" stroke="#000000" stroke-opacity="1" stroke-width="3.2"/>
<circle clip-path="url(#clip362)" cx="221.233" cy="1374.1" r="14.4" fill="#fdedb0" fill-rule="evenodd" fill-opacity="1" stroke="#000000" stroke-opacity="1" stroke-width="3.2"/>
<circle clip-path="url(#clip362)" cx="229.625" cy="1369.03" r="14.4" fill="#fdedb0" fill-rule="evenodd" fill-opacity="1" stroke="#000000" stroke-opacity="1" stroke-width="3.2"/>
<circle clip-path="url(#clip362)" cx="1303.78" cy="720" r="14.4" fill="#fdedb0" fill-rule="evenodd" fill-opacity="1" stroke="#000000" stroke-opacity="1" stroke-width="3.2"/>
<circle clip-path="url(#clip362)" cx="1840.85" cy="395.487" r="14.4" fill="#fdedb0" fill-rule="evenodd" fill-opacity="1" stroke="#000000" stroke-opacity="1" stroke-width="3.2"/>
<circle clip-path="url(#clip362)" cx="766.702" cy="1044.51" r="14.4" fill="#fdedb0" fill-rule="evenodd" fill-opacity="1" stroke="#000000" stroke-opacity="1" stroke-width="3.2"/>
<circle clip-path="url(#clip362)" cx="1035.24" cy="882.257" r="14.4" fill="#fdedb0" fill-rule="evenodd" fill-opacity="1" stroke="#000000" stroke-opacity="1" stroke-width="3.2"/>
<circle clip-path="url(#clip362)" cx="2109.39" cy="233.231" r="14.4" fill="#fdedb0" fill-rule="evenodd" fill-opacity="1" stroke="#000000" stroke-opacity="1" stroke-width="3.2"/>
<circle clip-path="url(#clip362)" cx="1572.32" cy="557.744" r="14.4" fill="#fdedb0" fill-rule="evenodd" fill-opacity="1" stroke="#000000" stroke-opacity="1" stroke-width="3.2"/>
<circle clip-path="url(#clip362)" cx="498.163" cy="1206.77" r="14.4" fill="#fdedb0" fill-rule="evenodd" fill-opacity="1" stroke="#000000" stroke-opacity="1" stroke-width="3.2"/>
<circle clip-path="url(#clip362)" cx="632.433" cy="1125.64" r="14.4" fill="#fdedb0" fill-rule="evenodd" fill-opacity="1" stroke="#000000" stroke-opacity="1" stroke-width="3.2"/>
<circle clip-path="url(#clip362)" cx="1706.59" cy="476.616" r="14.4" fill="#fdedb0" fill-rule="evenodd" fill-opacity="1" stroke="#000000" stroke-opacity="1" stroke-width="3.2"/>
<circle clip-path="url(#clip362)" cx="2243.66" cy="152.102" r="14.4" fill="#fdedb0" fill-rule="evenodd" fill-opacity="1" stroke="#000000" stroke-opacity="1" stroke-width="3.2"/>
<circle clip-path="url(#clip362)" cx="1169.51" cy="801.129" r="14.4" fill="#fdedb0" fill-rule="evenodd" fill-opacity="1" stroke="#000000" stroke-opacity="1" stroke-width="3.2"/>
<circle clip-path="url(#clip362)" cx="900.971" cy="963.385" r="14.4" fill="#fdedb0" fill-rule="evenodd" fill-opacity="1" stroke="#000000" stroke-opacity="1" stroke-width="3.2"/>
<circle clip-path="url(#clip362)" cx="1975.12" cy="314.359" r="14.4" fill="#fdedb0" fill-rule="evenodd" fill-opacity="1" stroke="#000000" stroke-opacity="1" stroke-width="3.2"/>
<circle clip-path="url(#clip362)" cx="1438.05" cy="638.872" r="14.4" fill="#fdedb0" fill-rule="evenodd" fill-opacity="1" stroke="#000000" stroke-opacity="1" stroke-width="3.2"/>
<circle clip-path="url(#clip362)" cx="363.894" cy="1287.9" r="14.4" fill="#fdedb0" fill-rule="evenodd" fill-opacity="1" stroke="#000000" stroke-opacity="1" stroke-width="3.2"/>
<circle clip-path="url(#clip362)" cx="431.029" cy="1247.33" r="14.4" fill="#fdedb0" fill-rule="evenodd" fill-opacity="1" stroke="#000000" stroke-opacity="1" stroke-width="3.2"/>
<circle clip-path="url(#clip362)" cx="1505.18" cy="598.308" r="14.4" fill="#fdedb0" fill-rule="evenodd" fill-opacity="1" stroke="#000000" stroke-opacity="1" stroke-width="3.2"/>
<circle clip-path="url(#clip362)" cx="2042.26" cy="273.795" r="14.4" fill="#fdedb0" fill-rule="evenodd" fill-opacity="1" stroke="#000000" stroke-opacity="1" stroke-width="3.2"/>
<circle clip-path="url(#clip362)" cx="968.105" cy="922.821" r="14.4" fill="#fdedb0" fill-rule="evenodd" fill-opacity="1" stroke="#000000" stroke-opacity="1" stroke-width="3.2"/>
<circle clip-path="url(#clip362)" cx="1236.64" cy="760.565" r="14.4" fill="#fdedb0" fill-rule="evenodd" fill-opacity="1" stroke="#000000" stroke-opacity="1" stroke-width="3.2"/>
<circle clip-path="url(#clip362)" cx="2310.8" cy="111.538" r="14.4" fill="#fdedb0" fill-rule="evenodd" fill-opacity="1" stroke="#000000" stroke-opacity="1" stroke-width="3.2"/>
<circle clip-path="url(#clip362)" cx="1773.72" cy="436.051" r="14.4" fill="#fdedb0" fill-rule="evenodd" fill-opacity="1" stroke="#000000" stroke-opacity="1" stroke-width="3.2"/>
<circle clip-path="url(#clip362)" cx="699.567" cy="1085.08" r="14.4" fill="#fdedb0" fill-rule="evenodd" fill-opacity="1" stroke="#000000" stroke-opacity="1" stroke-width="3.2"/>
<circle clip-path="url(#clip362)" cx="565.298" cy="1166.21" r="14.4" fill="#fdedb0" fill-rule="evenodd" fill-opacity="1" stroke="#000000" stroke-opacity="1" stroke-width="3.2"/>
<circle clip-path="url(#clip362)" cx="1639.45" cy="517.18" r="14.4" fill="#fdedb0" fill-rule="evenodd" fill-opacity="1" stroke="#000000" stroke-opacity="1" stroke-width="3.2"/>
<circle clip-path="url(#clip362)" cx="2176.53" cy="192.667" r="14.4" fill="#fdedb0" fill-rule="evenodd" fill-opacity="1" stroke="#000000" stroke-opacity="1" stroke-width="3.2"/>
<circle clip-path="url(#clip362)" cx="1102.37" cy="841.693" r="14.4" fill="#fdedb0" fill-rule="evenodd" fill-opacity="1" stroke="#000000" stroke-opacity="1" stroke-width="3.2"/>
<circle clip-path="url(#clip362)" cx="833.836" cy="1003.95" r="14.4" fill="#fdedb0" fill-rule="evenodd" fill-opacity="1" stroke="#000000" stroke-opacity="1" stroke-width="3.2"/>
<circle clip-path="url(#clip362)" cx="1907.99" cy="354.923" r="14.4" fill="#fdedb0" fill-rule="evenodd" fill-opacity="1" stroke="#000000" stroke-opacity="1" stroke-width="3.2"/>
<circle clip-path="url(#clip362)" cx="1370.91" cy="679.436" r="14.4" fill="#fdedb0" fill-rule="evenodd" fill-opacity="1" stroke="#000000" stroke-opacity="1" stroke-width="3.2"/>
<circle clip-path="url(#clip362)" cx="296.76" cy="1328.46" r="14.4" fill="#fdedb0" fill-rule="evenodd" fill-opacity="1" stroke="#000000" stroke-opacity="1" stroke-width="3.2"/>
<circle clip-path="url(#clip362)" cx="330.327" cy="1308.18" r="14.4" fill="#fdedb0" fill-rule="evenodd" fill-opacity="1" stroke="#000000" stroke-opacity="1" stroke-width="3.2"/>
<circle clip-path="url(#clip362)" cx="1404.48" cy="659.154" r="14.4" fill="#fdedb0" fill-rule="evenodd" fill-opacity="1" stroke="#000000" stroke-opacity="1" stroke-width="3.2"/>
<circle clip-path="url(#clip362)" cx="1941.56" cy="334.641" r="14.4" fill="#fdedb0" fill-rule="evenodd" fill-opacity="1" stroke="#000000" stroke-opacity="1" stroke-width="3.2"/>
<circle clip-path="url(#clip362)" cx="867.404" cy="983.667" r="14.4" fill="#fdedb0" fill-rule="evenodd" fill-opacity="1" stroke="#000000" stroke-opacity="1" stroke-width="3.2"/>
<polyline clip-path="url(#clip362)" style="stroke:#fdedb0; stroke-linecap:round; stroke-linejoin:round; stroke-width:4; stroke-opacity:1; fill:none" points="204.45,1384.24 226.628,1370.84 356.526,1292.35 416.954,1255.84 497.95,1206.9 564.878,1166.46 627.114,1128.86 705.242,1081.65 775.324,1039.3 855.541,990.835 915.504,954.604 992.197,908.264 1062.2,865.97 1141.86,817.834 1205.02,779.675 1283.48,732.268 1343.56,695.961 1428.28,644.775 1491.58,606.524 1563.58,563.024 1634.88,519.944 1713.32,472.548 1773.23,436.346 1848.84,390.662 1918.77,348.409 1990.89,304.833 2063.99,260.663 2140.32,214.541 2200.46,178.209 2337.39,95.4688 2352.76,86.1857 "/>
</svg>
