<?xml version="1.0" encoding="utf-8"?>
<svg xmlns="http://www.w3.org/2000/svg" xmlns:xlink="http://www.w3.org/1999/xlink" width="600" height="400" viewBox="0 0 2400 1600">
<defs>
  <clipPath id="clip450">
    <rect x="0" y="0" width="2400" height="1600"/>
  </clipPath>
</defs>
<path clip-path="url(#clip450)" d="M0 1600 L2400 1600 L2400 0 L0 0  Z" fill="#ffffff" fill-rule="evenodd" fill-opacity="1"/>
<defs>
  <clipPath id="clip451">
    <rect x="480" y="0" width="1681" height="1600"/>
  </clipPath>
</defs>
<path clip-path="url(#clip450)" d="M147.478 1486.45 L2352.76 1486.45 L2352.76 47.2441 L147.478 47.2441  Z" fill="#ffffff" fill-rule="evenodd" fill-opacity="1"/>
<defs>
  <clipPath id="clip452">
    <rect x="147" y="47" width="2206" height="1440"/>
  </clipPath>
</defs>
<polyline clip-path="url(#clip452)" style="stroke:#000000; stroke-linecap:round; stroke-linejoin:round; stroke-width:2; stroke-opacity:0.1; fill:none" points="147.478,1486.45 147.478,47.2441 "/>
<polyline clip-path="url(#clip452)" style="stroke:#000000; stroke-linecap:round; stroke-linejoin:round; stroke-width:2; stroke-opacity:0.1; fill:none" points="588.534,1486.45 588.534,47.2441 "/>
<polyline clip-path="url(#clip452)" style="stroke:#000000; stroke-linecap:round; stroke-linejoin:round; stroke-width:2; stroke-opacity:0.1; fill:none" points="1029.59,1486.45 1029.59,47.2441 "/>
<polyline clip-path="url(#clip452)" style="stroke:#000000; stroke-linecap:round; stroke-linejoin:round; stroke-width:2; stroke-opacity:0.1; fill:none" points="1470.64,1486.45 1470.64,47.2441 "/>
<polyline clip-path="url(#clip452)" style="stroke:#000000; stroke-linecap:round; stroke-linejoin:round; stroke-width:2; stroke-opacity:0.1; fill:none" points="1911.7,1486.45 1911.7,47.2441 "/>
<polyline clip-path="url(#clip452)" style="stroke:#000000; stroke-linecap:round; stroke-linejoin:round; stroke-width:2; stroke-opacity:0.1; fill:none" points="2352.76,1486.45 2352.76,47.2441 "/>
<polyline clip-path="url(#clip450)" style="stroke:#000000; stroke-linecap:round; stroke-linejoin:round; stroke-width:4; stroke-opacity:1; fill:none" points="147.478,1486.45 2352.76,1486.45 "/>
<polyline clip-path="url(#clip450)" style="stroke:#000000; stroke-linecap:round; stroke-linejoin:round; stroke-width:4; stroke-opacity:1; fill:none" points="147.478,1486.45 147.478,1467.55 "/>
<polyline clip-path="url(#clip450)" style="stroke:#000000; stroke-linecap:round; stroke-linejoin:round; stroke-width:4; stroke-opacity:1; fill:none" points="588.534,1486.45 588.534,1467.55 "/>
<polyline clip-path="url(#clip450)" style="stroke:#000000; stroke-linecap:round; stroke-linejoin:round; stroke-width:4; stroke-opacity:1; fill:none" points="1029.59,1486.45 1029.59,1467.55 "/>
<polyline clip-path="url(#clip450)" style="stroke:#000000; stroke-linecap:round; stroke-linejoin:round; stroke-width:4; stroke-opacity:1; fill:none" points="1470.64,1486.45 1470.64,1467.55 "/>
<polyline clip-path="url(#clip450)" style="stroke:#000000; stroke-linecap:round; stroke-linejoin:round; stroke-width:4; stroke-opacity:1; fill:none" points="1911.7,1486.45 1911.7,1467.55 "/>
<polyline clip-path="url(#clip450)" style="stroke:#000000; stroke-linecap:round; stroke-linejoin:round; stroke-width:4; stroke-opacity:1; fill:none" points="2352.76,1486.45 2352.76,1467.55 "/>
<path clip-path="url(#clip450)" d="M147.478 1517.37 Q143.867 1517.37 142.038 1520.93 Q140.233 1524.47 140.233 1531.6 Q140.233 1538.71 142.038 1542.27 Q143.867 1545.82 147.478 1545.82 Q151.112 1545.82 152.918 1542.27 Q154.746 1538.71 154.746 1531.6 Q154.746 1524.47 152.918 1520.93 Q151.112 1517.37 147.478 1517.37 M147.478 1513.66 Q153.288 1513.66 156.344 1518.27 Q159.422 1522.85 159.422 1531.6 Q159.422 1540.33 156.344 1544.94 Q153.288 1549.52 147.478 1549.52 Q141.668 1549.52 138.589 1544.94 Q135.534 1540.33 135.534 1531.6 Q135.534 1522.85 138.589 1518.27 Q141.668 1513.66 147.478 1513.66 Z" fill="#000000" fill-rule="nonzero" fill-opacity="1" /><path clip-path="url(#clip450)" d="M583.186 1544.91 L599.506 1544.91 L599.506 1548.85 L577.561 1548.85 L577.561 1544.91 Q580.223 1542.16 584.807 1537.53 Q589.413 1532.88 590.594 1531.53 Q592.839 1529.01 593.719 1527.27 Q594.621 1525.51 594.621 1523.82 Q594.621 1521.07 592.677 1519.33 Q590.756 1517.6 587.654 1517.6 Q585.455 1517.6 583.001 1518.36 Q580.571 1519.13 577.793 1520.68 L577.793 1515.95 Q580.617 1514.82 583.071 1514.24 Q585.524 1513.66 587.561 1513.66 Q592.932 1513.66 596.126 1516.35 Q599.32 1519.03 599.32 1523.52 Q599.32 1525.65 598.51 1527.57 Q597.723 1529.47 595.617 1532.07 Q595.038 1532.74 591.936 1535.95 Q588.834 1539.15 583.186 1544.91 Z" fill="#000000" fill-rule="nonzero" fill-opacity="1" /><path clip-path="url(#clip450)" d="M1032.6 1518.36 L1020.79 1536.81 L1032.6 1536.81 L1032.6 1518.36 M1031.37 1514.29 L1037.25 1514.29 L1037.25 1536.81 L1042.18 1536.81 L1042.18 1540.7 L1037.25 1540.7 L1037.25 1548.85 L1032.6 1548.85 L1032.6 1540.7 L1017 1540.7 L1017 1536.19 L1031.37 1514.29 Z" fill="#000000" fill-rule="nonzero" fill-opacity="1" /><path clip-path="url(#clip450)" d="M1471.05 1529.7 Q1467.9 1529.7 1466.05 1531.86 Q1464.22 1534.01 1464.22 1537.76 Q1464.22 1541.49 1466.05 1543.66 Q1467.9 1545.82 1471.05 1545.82 Q1474.2 1545.82 1476.03 1543.66 Q1477.88 1541.49 1477.88 1537.76 Q1477.88 1534.01 1476.03 1531.86 Q1474.2 1529.7 1471.05 1529.7 M1480.33 1515.05 L1480.33 1519.31 Q1478.57 1518.48 1476.77 1518.04 Q1474.98 1517.6 1473.23 1517.6 Q1468.6 1517.6 1466.14 1520.72 Q1463.71 1523.85 1463.36 1530.17 Q1464.73 1528.15 1466.79 1527.09 Q1468.85 1526 1471.33 1526 Q1476.54 1526 1479.55 1529.17 Q1482.58 1532.32 1482.58 1537.76 Q1482.58 1543.08 1479.43 1546.3 Q1476.28 1549.52 1471.05 1549.52 Q1465.05 1549.52 1461.88 1544.94 Q1458.71 1540.33 1458.71 1531.6 Q1458.71 1523.41 1462.6 1518.55 Q1466.49 1513.66 1473.04 1513.66 Q1474.8 1513.66 1476.58 1514.01 Q1478.39 1514.36 1480.33 1515.05 Z" fill="#000000" fill-rule="nonzero" fill-opacity="1" /><path clip-path="url(#clip450)" d="M1911.7 1532.44 Q1908.37 1532.44 1906.45 1534.22 Q1904.55 1536 1904.55 1539.13 Q1904.55 1542.25 1906.45 1544.03 Q1908.37 1545.82 1911.7 1545.82 Q1915.03 1545.82 1916.95 1544.03 Q1918.88 1542.23 1918.88 1539.13 Q1918.88 1536 1916.95 1534.22 Q1915.06 1532.44 1911.7 1532.44 M1907.02 1530.45 Q1904.02 1529.7 1902.33 1527.64 Q1900.66 1525.58 1900.66 1522.62 Q1900.66 1518.48 1903.6 1516.07 Q1906.56 1513.66 1911.7 1513.66 Q1916.86 1513.66 1919.8 1516.07 Q1922.74 1518.48 1922.74 1522.62 Q1922.74 1525.58 1921.05 1527.64 Q1919.39 1529.7 1916.4 1530.45 Q1919.78 1531.23 1921.65 1533.52 Q1923.55 1535.82 1923.55 1539.13 Q1923.55 1544.15 1920.47 1546.83 Q1917.42 1549.52 1911.7 1549.52 Q1905.98 1549.52 1902.9 1546.83 Q1899.85 1544.15 1899.85 1539.13 Q1899.85 1535.82 1901.75 1533.52 Q1903.64 1531.23 1907.02 1530.45 M1905.31 1523.06 Q1905.31 1525.75 1906.98 1527.25 Q1908.67 1528.76 1911.7 1528.76 Q1914.71 1528.76 1916.4 1527.25 Q1918.11 1525.75 1918.11 1523.06 Q1918.11 1520.38 1916.4 1518.87 Q1914.71 1517.37 1911.7 1517.37 Q1908.67 1517.37 1906.98 1518.87 Q1905.31 1520.38 1905.31 1523.06 Z" fill="#000000" fill-rule="nonzero" fill-opacity="1" /><path clip-path="url(#clip450)" d="M2327.44 1544.91 L2335.08 1544.91 L2335.08 1518.55 L2326.77 1520.21 L2326.77 1515.95 L2335.04 1514.29 L2339.71 1514.29 L2339.71 1544.91 L2347.35 1544.91 L2347.35 1548.85 L2327.44 1548.85 L2327.44 1544.91 Z" fill="#000000" fill-rule="nonzero" fill-opacity="1" /><path clip-path="url(#clip450)" d="M2366.8 1517.37 Q2363.18 1517.37 2361.36 1520.93 Q2359.55 1524.47 2359.55 1531.6 Q2359.55 1538.71 2361.36 1542.27 Q2363.18 1545.82 2366.8 1545.82 Q2370.43 1545.82 2372.23 1542.27 Q2374.06 1538.71 2374.06 1531.6 Q2374.06 1524.47 2372.23 1520.93 Q2370.43 1517.37 2366.8 1517.37 M2366.8 1513.66 Q2372.61 1513.66 2375.66 1518.27 Q2378.74 1522.85 2378.74 1531.6 Q2378.74 1540.33 2375.66 1544.94 Q2372.61 1549.52 2366.8 1549.52 Q2360.99 1549.52 2357.91 1544.94 Q2354.85 1540.33 2354.85 1531.6 Q2354.85 1522.85 2357.91 1518.27 Q2360.99 1513.66 2366.8 1513.66 Z" fill="#000000" fill-rule="nonzero" fill-opacity="1" /><polyline clip-path="url(#clip452)" style="stroke:#000000; stroke-linecap:round; stroke-linejoin:round; stroke-width:2; stroke-opacity:0.1; fill:none" points="147.478,1445.72 2352.76,1445.72 "/>
<polyline clip-path="url(#clip452)" style="stroke:#000000; stroke-linecap:round; stroke-linejoin:round; stroke-width:2; stroke-opacity:0.1; fill:none" points="147.478,1106.27 2352.76,1106.27 "/>
<polyline clip-path="url(#clip452)" style="stroke:#000000; stroke-linecap:round; stroke-linejoin:round; stroke-width:2; stroke-opacity:0.1; fill:none" points="147.478,766.825 2352.76,766.825 "/>
<polyline clip-path="url(#clip452)" style="stroke:#000000; stroke-linecap:round; stroke-linejoin:round; stroke-width:2; stroke-opacity:0.1; fill:none" points="147.478,427.379 2352.76,427.379 "/>
<polyline clip-path="url(#clip452)" style="stroke:#000000; stroke-linecap:round; stroke-linejoin:round; stroke-width:2; stroke-opacity:0.1; fill:none" points="147.478,87.9332 2352.76,87.9332 "/>
<polyline clip-path="url(#clip450)" style="stroke:#000000; stroke-linecap:round; stroke-linejoin:round; stroke-width:4; stroke-opacity:1; fill:none" points="147.478,1486.45 147.478,47.2441 "/>
<polyline clip-path="url(#clip450)" style="stroke:#000000; stroke-linecap:round; stroke-linejoin:round; stroke-width:4; stroke-opacity:1; fill:none" points="147.478,1445.72 166.376,1445.72 "/>
<polyline clip-path="url(#clip450)" style="stroke:#000000; stroke-linecap:round; stroke-linejoin:round; stroke-width:4; stroke-opacity:1; fill:none" points="147.478,1106.27 166.376,1106.27 "/>
<polyline clip-path="url(#clip450)" style="stroke:#000000; stroke-linecap:round; stroke-linejoin:round; stroke-width:4; stroke-opacity:1; fill:none" points="147.478,766.825 166.376,766.825 "/>
<polyline clip-path="url(#clip450)" style="stroke:#000000; stroke-linecap:round; stroke-linejoin:round; stroke-width:4; stroke-opacity:1; fill:none" points="147.478,427.379 166.376,427.379 "/>
<polyline clip-path="url(#clip450)" style="stroke:#000000; stroke-linecap:round; stroke-linejoin:round; stroke-width:4; stroke-opacity:1; fill:none" points="147.478,87.9332 166.376,87.9332 "/>
<path clip-path="url(#clip450)" d="M50.9921 1446.17 L80.6679 1446.17 L80.6679 1450.1 L50.9921 1450.1 L50.9921 1446.17 Z" fill="#000000" fill-rule="nonzero" fill-opacity="1" /><path clip-path="url(#clip450)" d="M91.5706 1459.06 L99.2095 1459.06 L99.2095 1432.7 L90.8993 1434.36 L90.8993 1430.1 L99.1632 1428.44 L103.839 1428.44 L103.839 1459.06 L111.478 1459.06 L111.478 1463 L91.5706 1463 L91.5706 1459.06 Z" fill="#000000" fill-rule="nonzero" fill-opacity="1" /><path clip-path="url(#clip450)" d="M99.5335 1092.07 Q95.9224 1092.07 94.0937 1095.63 Q92.2882 1099.18 92.2882 1106.3 Q92.2882 1113.41 94.0937 1116.98 Q95.9224 1120.52 99.5335 1120.52 Q103.168 1120.52 104.973 1116.98 Q106.802 1113.41 106.802 1106.3 Q106.802 1099.18 104.973 1095.63 Q103.168 1092.07 99.5335 1092.07 M99.5335 1088.37 Q105.344 1088.37 108.399 1092.97 Q111.478 1097.56 111.478 1106.3 Q111.478 1115.03 108.399 1119.64 Q105.344 1124.22 99.5335 1124.22 Q93.7234 1124.22 90.6447 1119.64 Q87.5892 1115.03 87.5892 1106.3 Q87.5892 1097.56 90.6447 1092.97 Q93.7234 1088.37 99.5335 1088.37 Z" fill="#000000" fill-rule="nonzero" fill-opacity="1" /><path clip-path="url(#clip450)" d="M91.5706 780.169 L99.2095 780.169 L99.2095 753.804 L90.8993 755.47 L90.8993 751.211 L99.1632 749.545 L103.839 749.545 L103.839 780.169 L111.478 780.169 L111.478 784.105 L91.5706 784.105 L91.5706 780.169 Z" fill="#000000" fill-rule="nonzero" fill-opacity="1" /><path clip-path="url(#clip450)" d="M95.1586 440.724 L111.478 440.724 L111.478 444.659 L89.5336 444.659 L89.5336 440.724 Q92.1956 437.969 96.7789 433.339 Q101.385 428.687 102.566 427.344 Q104.811 424.821 105.691 423.085 Q106.594 421.326 106.594 419.636 Q106.594 416.881 104.649 415.145 Q102.728 413.409 99.6261 413.409 Q97.4271 413.409 94.9734 414.173 Q92.5428 414.937 89.7651 416.488 L89.7651 411.766 Q92.5891 410.631 95.0428 410.053 Q97.4965 409.474 99.5335 409.474 Q104.904 409.474 108.098 412.159 Q111.293 414.844 111.293 419.335 Q111.293 421.465 110.483 423.386 Q109.696 425.284 107.589 427.877 Q107.01 428.548 103.909 431.765 Q100.807 434.96 95.1586 440.724 Z" fill="#000000" fill-rule="nonzero" fill-opacity="1" /><path clip-path="url(#clip450)" d="M104.348 86.579 Q107.705 87.2966 109.58 89.5651 Q111.478 91.8336 111.478 95.1669 Q111.478 100.283 107.959 103.084 Q104.441 105.884 97.9595 105.884 Q95.7836 105.884 93.4688 105.445 Q91.1771 105.028 88.7234 104.172 L88.7234 99.6577 Q90.6678 100.792 92.9826 101.371 Q95.2974 101.949 97.8206 101.949 Q102.219 101.949 104.51 100.213 Q106.825 98.4771 106.825 95.1669 Q106.825 92.1114 104.672 90.3984 Q102.543 88.6623 98.7234 88.6623 L94.6956 88.6623 L94.6956 84.8198 L98.9085 84.8198 Q102.358 84.8198 104.186 83.454 Q106.015 82.0652 106.015 79.4726 Q106.015 76.8106 104.117 75.3985 Q102.242 73.9633 98.7234 73.9633 Q96.8021 73.9633 94.603 74.38 Q92.4039 74.7967 89.7651 75.6763 L89.7651 71.5097 Q92.4271 70.7689 94.7419 70.3986 Q97.0798 70.0282 99.14 70.0282 Q104.464 70.0282 107.566 72.4587 Q110.668 74.8661 110.668 78.9865 Q110.668 81.8568 109.024 83.8476 Q107.381 85.8151 104.348 86.579 Z" fill="#000000" fill-rule="nonzero" fill-opacity="1" /><circle clip-path="url(#clip452)" cx="191.583" cy="1022.77" r="14.4" fill="#009af9" fill-rule="evenodd" fill-opacity="1" stroke="#000000" stroke-opacity="1" stroke-width="3.2"/>
<circle clip-path="url(#clip452)" cx="1294.22" cy="1375.28" r="14.4" fill="#009af9" fill-rule="evenodd" fill-opacity="1" stroke="#000000" stroke-opacity="1" stroke-width="3.2"/>
<circle clip-path="url(#clip452)" cx="742.903" cy="872.699" r="14.4" fill="#009af9" fill-rule="evenodd" fill-opacity="1" stroke="#000000" stroke-opacity="1" stroke-width="3.2"/>
<circle clip-path="url(#clip452)" cx="1845.54" cy="111.841" r="14.4" fill="#009af9" fill-rule="evenodd" fill-opacity="1" stroke="#000000" stroke-opacity="1" stroke-width="3.2"/>
<circle clip-path="url(#clip452)" cx="467.243" cy="102.702" r="14.4" fill="#009af9" fill-rule="evenodd" fill-opacity="1" stroke="#000000" stroke-opacity="1" stroke-width="3.2"/>
<circle clip-path="url(#clip452)" cx="1569.88" cy="1039" r="14.4" fill="#009af9" fill-rule="evenodd" fill-opacity="1" stroke="#000000" stroke-opacity="1" stroke-width="3.2"/>
<circle clip-path="url(#clip452)" cx="1018.56" cy="1302.61" r="14.4" fill="#009af9" fill-rule="evenodd" fill-opacity="1" stroke="#000000" stroke-opacity="1" stroke-width="3.2"/>
<circle clip-path="url(#clip452)" cx="2121.2" cy="847.731" r="14.4" fill="#009af9" fill-rule="evenodd" fill-opacity="1" stroke="#000000" stroke-opacity="1" stroke-width="3.2"/>
<circle clip-path="url(#clip452)" cx="329.413" cy="539.246" r="14.4" fill="#009af9" fill-rule="evenodd" fill-opacity="1" stroke="#000000" stroke-opacity="1" stroke-width="3.2"/>
<circle clip-path="url(#clip452)" cx="1432.05" cy="1219.38" r="14.4" fill="#009af9" fill-rule="evenodd" fill-opacity="1" stroke="#000000" stroke-opacity="1" stroke-width="3.2"/>
<circle clip-path="url(#clip452)" cx="880.733" cy="1158.95" r="14.4" fill="#009af9" fill-rule="evenodd" fill-opacity="1" stroke="#000000" stroke-opacity="1" stroke-width="3.2"/>
<circle clip-path="url(#clip452)" cx="1983.37" cy="294.052" r="14.4" fill="#009af9" fill-rule="evenodd" fill-opacity="1" stroke="#000000" stroke-opacity="1" stroke-width="3.2"/>
<circle clip-path="url(#clip452)" cx="605.073" cy="321.006" r="14.4" fill="#009af9" fill-rule="evenodd" fill-opacity="1" stroke="#000000" stroke-opacity="1" stroke-width="3.2"/>
<circle clip-path="url(#clip452)" cx="1707.71" cy="570.48" r="14.4" fill="#009af9" fill-rule="evenodd" fill-opacity="1" stroke="#000000" stroke-opacity="1" stroke-width="3.2"/>
<circle clip-path="url(#clip452)" cx="1156.39" cy="1439.38" r="14.4" fill="#009af9" fill-rule="evenodd" fill-opacity="1" stroke="#000000" stroke-opacity="1" stroke-width="3.2"/>
<circle clip-path="url(#clip452)" cx="2259.03" cy="1150.61" r="14.4" fill="#009af9" fill-rule="evenodd" fill-opacity="1" stroke="#000000" stroke-opacity="1" stroke-width="3.2"/>
<circle clip-path="url(#clip452)" cx="260.498" cy="818.178" r="14.4" fill="#009af9" fill-rule="evenodd" fill-opacity="1" stroke="#000000" stroke-opacity="1" stroke-width="3.2"/>
<circle clip-path="url(#clip452)" cx="1363.14" cy="1292.76" r="14.4" fill="#009af9" fill-rule="evenodd" fill-opacity="1" stroke="#000000" stroke-opacity="1" stroke-width="3.2"/>
<circle clip-path="url(#clip452)" cx="811.818" cy="1056.22" r="14.4" fill="#009af9" fill-rule="evenodd" fill-opacity="1" stroke="#000000" stroke-opacity="1" stroke-width="3.2"/>
<circle clip-path="url(#clip452)" cx="1914.46" cy="113.256" r="14.4" fill="#009af9" fill-rule="evenodd" fill-opacity="1" stroke="#000000" stroke-opacity="1" stroke-width="3.2"/>
<circle clip-path="url(#clip452)" cx="536.158" cy="124.789" r="14.4" fill="#009af9" fill-rule="evenodd" fill-opacity="1" stroke="#000000" stroke-opacity="1" stroke-width="3.2"/>
<circle clip-path="url(#clip452)" cx="1638.8" cy="844.241" r="14.4" fill="#009af9" fill-rule="evenodd" fill-opacity="1" stroke="#000000" stroke-opacity="1" stroke-width="3.2"/>
<circle clip-path="url(#clip452)" cx="1087.48" cy="1384.55" r="14.4" fill="#009af9" fill-rule="evenodd" fill-opacity="1" stroke="#000000" stroke-opacity="1" stroke-width="3.2"/>
<circle clip-path="url(#clip452)" cx="2190.12" cy="1041.13" r="14.4" fill="#009af9" fill-rule="evenodd" fill-opacity="1" stroke="#000000" stroke-opacity="1" stroke-width="3.2"/>
<circle clip-path="url(#clip452)" cx="398.328" cy="264.821" r="14.4" fill="#009af9" fill-rule="evenodd" fill-opacity="1" stroke="#000000" stroke-opacity="1" stroke-width="3.2"/>
<polyline clip-path="url(#clip452)" style="stroke:#e26f46; stroke-linecap:round; stroke-linejoin:round; stroke-width:4; stroke-opacity:1; fill:none" points="147.478,1106.27 151.067,1100.65 154.657,1094.85 158.246,1088.85 161.835,1082.66 170.133,1067.52 178.43,1051.21 186.727,1033.65 195.025,1014.79 203.322,994.585 211.619,973.007 219.916,950.041 228.214,925.684 236.511,899.953 244.808,872.877 253.106,844.502 261.403,814.893 269.7,784.126 277.997,752.299 286.295,719.52 294.592,685.916 314.537,602.623 334.482,517.616 354.428,433.448 374.373,352.875 382.805,320.58 391.236,289.642 399.668,260.266 408.1,232.649 416.532,206.98 424.963,183.437 433.395,162.185 441.827,143.374 450.986,125.861 460.145,111.535 464.725,105.606 469.305,100.517 473.884,96.2787 478.464,92.9009 483.043,90.3907 487.623,88.7533 492.203,87.9923 496.782,88.1093 501.362,89.1041 505.941,90.9745 510.521,93.7166 515.101,97.3243 523.545,106.219 531.989,117.964 540.433,132.474 548.877,149.646 557.321,169.354 565.765,191.46 574.209,215.806 582.653,242.223 591.705,272.636 600.758,304.982 609.811,339.01 618.864,374.464 636.97,448.594 655.075,525.265 676.053,614.582 697.03,701.633 707.519,743.505 718.007,783.911 728.496,822.623 738.984,859.453 748.306,890.485 757.627,919.839 766.948,947.465 776.269,973.339 785.59,997.46 794.911,1019.85 804.232,1040.56 813.553,1059.66 821.727,1075.14 829.9,1089.5 838.074,1102.83 846.248,1115.2 862.595,1137.44 878.943,1156.94 914.589,1193.65 950.235,1228.08 986.093,1265.31 1021.95,1306.67 1041.77,1330.71 1061.6,1354.74 1081.42,1377.83 1101.24,1398.98 1110.67,1408.06 1120.1,1416.36 1129.53,1423.79 1138.96,1430.24 1148.39,1435.66 1157.83,1439.96 1167.26,1443.09 1176.69,1445.02 1186.49,1445.72 1196.3,1445.07 1206.1,1443.1 1215.91,1439.82 1225.71,1435.28 1235.52,1429.54 1245.32,1422.68 1255.13,1414.8 1271.64,1399.48 1288.15,1382.09 1304.65,1363.2 1321.16,1343.43 1361.47,1294.72 1401.78,1249.77 1438.71,1212.95 1475.63,1176.99 1492.69,1158.91 1509.74,1138.76 1518.26,1127.65 1526.79,1115.7 1535.32,1102.82 1543.84,1088.89 1552.48,1073.63 1561.12,1057.11 1569.75,1039.28 1578.39,1020.04 1587.03,999.366 1595.66,977.208 1604.3,953.548 1612.93,928.381 1622.61,898.403 1632.29,866.6 1641.97,833.048 1651.65,797.855 1661.33,761.158 1671.01,723.124 1680.69,683.948 1690.37,643.85 1707.91,569.636 1725.45,494.834 1742.99,421.24 1760.54,350.748 1770.58,312.532 1780.62,276.315 1790.66,242.44 1800.7,211.232 1810.75,182.997 1820.79,158.015 1825.81,146.824 1830.83,136.537 1835.85,127.181 1840.87,118.779 1845.52,111.87 1850.17,105.813 1854.82,100.621 1859.47,96.3059 1864.12,92.8774 1868.77,90.3428 1873.42,88.7079 1878.06,87.9763 1882.71,88.1495 1887.36,89.2273 1892.01,91.2071 1896.66,94.0847 1901.31,97.8536 1905.96,102.505 1910.61,108.03 1915.26,114.415 1924.42,129.47 1933.59,147.685 1942.76,168.908 1951.92,192.958 1961.09,219.637 1970.26,248.724 1979.42,279.984 1988.59,313.166 1997.49,346.975 2006.39,382.104 2015.29,418.303 2024.19,455.321 2041.99,530.813 2059.79,606.643 2078.04,682.848 2096.29,755.817 2105.41,790.636 2114.54,824.147 2123.66,856.229 2132.78,886.783 2142.78,918.42 2152.78,948.072 2162.77,975.709 2172.77,1001.33 2182.77,1024.98 2192.76,1046.7 2202.76,1066.59 2212.75,1084.76 2227.28,1108.37 2241.8,1129.08 2256.32,1147.4 2270.84,1163.87 2299.88,1193.34 2328.92,1221.3 2334.88,1227.13 2340.84,1233.03 2346.8,1239.03 2352.76,1245.13 "/>
<path clip-path="url(#clip450)" d="M958.315 250.738 L1541.92 250.738 L1541.92 95.2176 L958.315 95.2176  Z" fill="#ffffff" fill-rule="evenodd" fill-opacity="1"/>
<polyline clip-path="url(#clip450)" style="stroke:#000000; stroke-linecap:round; stroke-linejoin:round; stroke-width:4; stroke-opacity:1; fill:none" points="958.315,250.738 1541.92,250.738 1541.92,95.2176 958.315,95.2176 958.315,250.738 "/>
<circle clip-path="url(#clip450)" cx="1056.33" cy="147.058" r="20.48" fill="#009af9" fill-rule="evenodd" fill-opacity="1" stroke="#000000" stroke-opacity="1" stroke-width="4.55111"/>
<path clip-path="url(#clip450)" d="M1176.58 130.912 L1176.58 135.472 Q1173.92 134.199 1171.56 133.574 Q1169.2 132.949 1167 132.949 Q1163.18 132.949 1161.1 134.43 Q1159.04 135.912 1159.04 138.643 Q1159.04 140.935 1160.4 142.115 Q1161.79 143.273 1165.64 143.99 L1168.46 144.569 Q1173.69 145.565 1176.17 148.088 Q1178.67 150.588 1178.67 154.801 Q1178.67 159.824 1175.29 162.416 Q1171.93 165.009 1165.43 165.009 Q1162.97 165.009 1160.2 164.453 Q1157.44 163.898 1154.48 162.81 L1154.48 157.995 Q1157.33 159.592 1160.06 160.402 Q1162.79 161.213 1165.43 161.213 Q1169.43 161.213 1171.61 159.639 Q1173.78 158.064 1173.78 155.148 Q1173.78 152.602 1172.21 151.166 Q1170.66 149.731 1167.09 149.014 L1164.25 148.458 Q1159.02 147.416 1156.68 145.194 Q1154.34 142.972 1154.34 139.014 Q1154.34 134.43 1157.56 131.791 Q1160.8 129.153 1166.47 129.153 Q1168.9 129.153 1171.42 129.592 Q1173.95 130.032 1176.58 130.912 Z" fill="#000000" fill-rule="nonzero" fill-opacity="1" /><path clip-path="url(#clip450)" d="M1197.56 151.305 Q1192.39 151.305 1190.4 152.486 Q1188.41 153.666 1188.41 156.514 Q1188.41 158.782 1189.89 160.125 Q1191.4 161.444 1193.97 161.444 Q1197.51 161.444 1199.64 158.944 Q1201.79 156.421 1201.79 152.254 L1201.79 151.305 L1197.56 151.305 M1206.05 149.546 L1206.05 164.338 L1201.79 164.338 L1201.79 160.402 Q1200.33 162.763 1198.16 163.898 Q1195.98 165.009 1192.83 165.009 Q1188.85 165.009 1186.49 162.787 Q1184.15 160.541 1184.15 156.791 Q1184.15 152.416 1187.07 150.194 Q1190.01 147.972 1195.82 147.972 L1201.79 147.972 L1201.79 147.555 Q1201.79 144.615 1199.85 143.018 Q1197.93 141.398 1194.43 141.398 Q1192.21 141.398 1190.1 141.93 Q1188 142.463 1186.05 143.527 L1186.05 139.592 Q1188.39 138.69 1190.59 138.25 Q1192.79 137.787 1194.87 137.787 Q1200.5 137.787 1203.27 140.703 Q1206.05 143.62 1206.05 149.546 Z" fill="#000000" fill-rule="nonzero" fill-opacity="1" /><path clip-path="url(#clip450)" d="M1235.01 143.389 Q1236.61 140.518 1238.83 139.153 Q1241.05 137.787 1244.06 137.787 Q1248.11 137.787 1250.31 140.634 Q1252.51 143.458 1252.51 148.689 L1252.51 164.338 L1248.23 164.338 L1248.23 148.828 Q1248.23 145.102 1246.91 143.296 Q1245.59 141.49 1242.88 141.49 Q1239.57 141.49 1237.65 143.69 Q1235.73 145.889 1235.73 149.685 L1235.73 164.338 L1231.45 164.338 L1231.45 148.828 Q1231.45 145.078 1230.13 143.296 Q1228.81 141.49 1226.05 141.49 Q1222.79 141.49 1220.87 143.713 Q1218.95 145.912 1218.95 149.685 L1218.95 164.338 L1214.66 164.338 L1214.66 138.412 L1218.95 138.412 L1218.95 142.44 Q1220.4 140.055 1222.44 138.921 Q1224.48 137.787 1227.28 137.787 Q1230.1 137.787 1232.07 139.222 Q1234.06 140.657 1235.01 143.389 Z" fill="#000000" fill-rule="nonzero" fill-opacity="1" /><path clip-path="url(#clip450)" d="M1265.13 160.449 L1265.13 174.199 L1260.84 174.199 L1260.84 138.412 L1265.13 138.412 L1265.13 142.347 Q1266.47 140.032 1268.51 138.921 Q1270.57 137.787 1273.41 137.787 Q1278.13 137.787 1281.07 141.537 Q1284.04 145.287 1284.04 151.398 Q1284.04 157.509 1281.07 161.259 Q1278.13 165.009 1273.41 165.009 Q1270.57 165.009 1268.51 163.898 Q1266.47 162.763 1265.13 160.449 M1279.62 151.398 Q1279.62 146.699 1277.67 144.037 Q1275.75 141.352 1272.37 141.352 Q1268.99 141.352 1267.05 144.037 Q1265.13 146.699 1265.13 151.398 Q1265.13 156.097 1267.05 158.782 Q1268.99 161.444 1272.37 161.444 Q1275.75 161.444 1277.67 158.782 Q1279.62 156.097 1279.62 151.398 Z" fill="#000000" fill-rule="nonzero" fill-opacity="1" /><path clip-path="url(#clip450)" d="M1291.1 128.319 L1295.36 128.319 L1295.36 164.338 L1291.1 164.338 L1291.1 128.319 Z" fill="#000000" fill-rule="nonzero" fill-opacity="1" /><path clip-path="url(#clip450)" d="M1326.44 150.31 L1326.44 152.393 L1306.86 152.393 Q1307.14 156.791 1309.5 159.106 Q1311.88 161.398 1316.12 161.398 Q1318.57 161.398 1320.87 160.796 Q1323.18 160.194 1325.45 158.99 L1325.45 163.018 Q1323.16 163.99 1320.75 164.5 Q1318.34 165.009 1315.87 165.009 Q1309.66 165.009 1306.03 161.398 Q1302.42 157.787 1302.42 151.629 Q1302.42 145.264 1305.84 141.537 Q1309.29 137.787 1315.13 137.787 Q1320.36 137.787 1323.39 141.166 Q1326.44 144.523 1326.44 150.31 M1322.19 149.06 Q1322.14 145.565 1320.22 143.481 Q1318.32 141.398 1315.17 141.398 Q1311.61 141.398 1309.45 143.412 Q1307.32 145.426 1307 149.083 L1322.19 149.06 Z" fill="#000000" fill-rule="nonzero" fill-opacity="1" /><path clip-path="url(#clip450)" d="M1350.5 142.347 L1350.5 128.319 L1354.75 128.319 L1354.75 164.338 L1350.5 164.338 L1350.5 160.449 Q1349.15 162.763 1347.09 163.898 Q1345.06 165.009 1342.19 165.009 Q1337.49 165.009 1334.52 161.259 Q1331.58 157.509 1331.58 151.398 Q1331.58 145.287 1334.52 141.537 Q1337.49 137.787 1342.19 137.787 Q1345.06 137.787 1347.09 138.921 Q1349.15 140.032 1350.5 142.347 M1335.98 151.398 Q1335.98 156.097 1337.9 158.782 Q1339.85 161.444 1343.23 161.444 Q1346.61 161.444 1348.55 158.782 Q1350.5 156.097 1350.5 151.398 Q1350.5 146.699 1348.55 144.037 Q1346.61 141.352 1343.23 141.352 Q1339.85 141.352 1337.9 144.037 Q1335.98 146.699 1335.98 151.398 Z" fill="#000000" fill-rule="nonzero" fill-opacity="1" /><path clip-path="url(#clip450)" d="M1382.72 160.449 L1382.72 174.199 L1378.44 174.199 L1378.44 138.412 L1382.72 138.412 L1382.72 142.347 Q1384.06 140.032 1386.1 138.921 Q1388.16 137.787 1391 137.787 Q1395.73 137.787 1398.67 141.537 Q1401.63 145.287 1401.63 151.398 Q1401.63 157.509 1398.67 161.259 Q1395.73 165.009 1391 165.009 Q1388.16 165.009 1386.1 163.898 Q1384.06 162.763 1382.72 160.449 M1397.21 151.398 Q1397.21 146.699 1395.26 144.037 Q1393.34 141.352 1389.96 141.352 Q1386.58 141.352 1384.64 144.037 Q1382.72 146.699 1382.72 151.398 Q1382.72 156.097 1384.64 158.782 Q1386.58 161.444 1389.96 161.444 Q1393.34 161.444 1395.26 158.782 Q1397.21 156.097 1397.21 151.398 Z" fill="#000000" fill-rule="nonzero" fill-opacity="1" /><path clip-path="url(#clip450)" d="M1418.74 141.398 Q1415.31 141.398 1413.32 144.083 Q1411.33 146.745 1411.33 151.398 Q1411.33 156.051 1413.3 158.736 Q1415.29 161.398 1418.74 161.398 Q1422.14 161.398 1424.13 158.713 Q1426.12 156.027 1426.12 151.398 Q1426.12 146.791 1424.13 144.106 Q1422.14 141.398 1418.74 141.398 M1418.74 137.787 Q1424.29 137.787 1427.46 141.398 Q1430.63 145.009 1430.63 151.398 Q1430.63 157.764 1427.46 161.398 Q1424.29 165.009 1418.74 165.009 Q1413.16 165.009 1409.99 161.398 Q1406.84 157.764 1406.84 151.398 Q1406.84 145.009 1409.99 141.398 Q1413.16 137.787 1418.74 137.787 Z" fill="#000000" fill-rule="nonzero" fill-opacity="1" /><path clip-path="url(#clip450)" d="M1437.69 138.412 L1441.95 138.412 L1441.95 164.338 L1437.69 164.338 L1437.69 138.412 M1437.69 128.319 L1441.95 128.319 L1441.95 133.713 L1437.69 133.713 L1437.69 128.319 Z" fill="#000000" fill-rule="nonzero" fill-opacity="1" /><path clip-path="url(#clip450)" d="M1472.42 148.689 L1472.42 164.338 L1468.16 164.338 L1468.16 148.828 Q1468.16 145.148 1466.72 143.319 Q1465.29 141.49 1462.42 141.49 Q1458.97 141.49 1456.98 143.69 Q1454.99 145.889 1454.99 149.685 L1454.99 164.338 L1450.7 164.338 L1450.7 138.412 L1454.99 138.412 L1454.99 142.44 Q1456.51 140.102 1458.57 138.944 Q1460.66 137.787 1463.37 137.787 Q1467.83 137.787 1470.12 140.565 Q1472.42 143.319 1472.42 148.689 Z" fill="#000000" fill-rule="nonzero" fill-opacity="1" /><path clip-path="url(#clip450)" d="M1485.12 131.051 L1485.12 138.412 L1493.9 138.412 L1493.9 141.722 L1485.12 141.722 L1485.12 155.796 Q1485.12 158.967 1485.98 159.87 Q1486.86 160.773 1489.52 160.773 L1493.9 160.773 L1493.9 164.338 L1489.52 164.338 Q1484.59 164.338 1482.72 162.509 Q1480.84 160.657 1480.84 155.796 L1480.84 141.722 L1477.72 141.722 L1477.72 138.412 L1480.84 138.412 L1480.84 131.051 L1485.12 131.051 Z" fill="#000000" fill-rule="nonzero" fill-opacity="1" /><path clip-path="url(#clip450)" d="M1516.03 139.176 L1516.03 143.203 Q1514.22 142.277 1512.28 141.815 Q1510.33 141.352 1508.25 141.352 Q1505.08 141.352 1503.48 142.324 Q1501.91 143.296 1501.91 145.24 Q1501.91 146.722 1503.04 147.578 Q1504.18 148.412 1507.6 149.176 L1509.06 149.5 Q1513.6 150.472 1515.49 152.254 Q1517.42 154.014 1517.42 157.185 Q1517.42 160.796 1514.55 162.902 Q1511.7 165.009 1506.7 165.009 Q1504.62 165.009 1502.35 164.592 Q1500.1 164.199 1497.6 163.388 L1497.6 158.99 Q1499.96 160.217 1502.25 160.842 Q1504.55 161.444 1506.79 161.444 Q1509.8 161.444 1511.42 160.426 Q1513.04 159.384 1513.04 157.509 Q1513.04 155.773 1511.86 154.847 Q1510.7 153.921 1506.74 153.064 L1505.26 152.717 Q1501.31 151.884 1499.55 150.171 Q1497.79 148.435 1497.79 145.426 Q1497.79 141.768 1500.38 139.778 Q1502.97 137.787 1507.74 137.787 Q1510.1 137.787 1512.18 138.134 Q1514.27 138.481 1516.03 139.176 Z" fill="#000000" fill-rule="nonzero" fill-opacity="1" /><polyline clip-path="url(#clip450)" style="stroke:#e26f46; stroke-linecap:round; stroke-linejoin:round; stroke-width:4; stroke-opacity:1; fill:none" points="982.818,198.898 1129.84,198.898 "/>
<path clip-path="url(#clip450)" d="M1154.34 181.618 L1183.58 181.618 L1183.58 185.553 L1171.31 185.553 L1171.31 216.178 L1166.61 216.178 L1166.61 185.553 L1154.34 185.553 L1154.34 181.618 Z" fill="#000000" fill-rule="nonzero" fill-opacity="1" /><path clip-path="url(#clip450)" d="M1195.96 194.233 Q1195.24 193.817 1194.39 193.631 Q1193.55 193.423 1192.53 193.423 Q1188.92 193.423 1186.98 195.784 Q1185.06 198.122 1185.06 202.52 L1185.06 216.178 L1180.77 216.178 L1180.77 190.252 L1185.06 190.252 L1185.06 194.28 Q1186.4 191.918 1188.55 190.784 Q1190.7 189.627 1193.78 189.627 Q1194.22 189.627 1194.76 189.696 Q1195.29 189.743 1195.94 189.858 L1195.96 194.233 Z" fill="#000000" fill-rule="nonzero" fill-opacity="1" /><path clip-path="url(#clip450)" d="M1199.99 205.946 L1199.99 190.252 L1204.25 190.252 L1204.25 205.784 Q1204.25 209.465 1205.68 211.316 Q1207.12 213.145 1209.99 213.145 Q1213.44 213.145 1215.43 210.946 Q1217.44 208.747 1217.44 204.951 L1217.44 190.252 L1221.7 190.252 L1221.7 216.178 L1217.44 216.178 L1217.44 212.196 Q1215.89 214.557 1213.83 215.715 Q1211.79 216.849 1209.08 216.849 Q1204.62 216.849 1202.3 214.071 Q1199.99 211.293 1199.99 205.946 M1210.7 189.627 L1210.7 189.627 Z" fill="#000000" fill-rule="nonzero" fill-opacity="1" /><path clip-path="url(#clip450)" d="M1252.65 202.15 L1252.65 204.233 L1233.07 204.233 Q1233.34 208.631 1235.7 210.946 Q1238.09 213.238 1242.32 213.238 Q1244.78 213.238 1247.07 212.636 Q1249.39 212.034 1251.65 210.83 L1251.65 214.858 Q1249.36 215.83 1246.95 216.34 Q1244.55 216.849 1242.07 216.849 Q1235.87 216.849 1232.23 213.238 Q1228.62 209.627 1228.62 203.469 Q1228.62 197.104 1232.05 193.377 Q1235.5 189.627 1241.33 189.627 Q1246.56 189.627 1249.59 193.006 Q1252.65 196.363 1252.65 202.15 M1248.39 200.9 Q1248.34 197.405 1246.42 195.321 Q1244.52 193.238 1241.38 193.238 Q1237.81 193.238 1235.66 195.252 Q1233.53 197.266 1233.2 200.923 L1248.39 200.9 Z" fill="#000000" fill-rule="nonzero" fill-opacity="1" /><path clip-path="url(#clip450)" d="M1287.83 180.159 L1287.83 183.701 L1283.76 183.701 Q1281.47 183.701 1280.57 184.627 Q1279.69 185.553 1279.69 187.96 L1279.69 190.252 L1286.7 190.252 L1286.7 193.562 L1279.69 193.562 L1279.69 216.178 L1275.4 216.178 L1275.4 193.562 L1271.33 193.562 L1271.33 190.252 L1275.4 190.252 L1275.4 188.446 Q1275.4 184.118 1277.42 182.15 Q1279.43 180.159 1283.81 180.159 L1287.83 180.159 Z" fill="#000000" fill-rule="nonzero" fill-opacity="1" /><path clip-path="url(#clip450)" d="M1290.96 205.946 L1290.96 190.252 L1295.22 190.252 L1295.22 205.784 Q1295.22 209.465 1296.65 211.316 Q1298.09 213.145 1300.96 213.145 Q1304.41 213.145 1306.4 210.946 Q1308.41 208.747 1308.41 204.951 L1308.41 190.252 L1312.67 190.252 L1312.67 216.178 L1308.41 216.178 L1308.41 212.196 Q1306.86 214.557 1304.8 215.715 Q1302.76 216.849 1300.06 216.849 Q1295.59 216.849 1293.27 214.071 Q1290.96 211.293 1290.96 205.946 M1301.68 189.627 L1301.68 189.627 Z" fill="#000000" fill-rule="nonzero" fill-opacity="1" /><path clip-path="url(#clip450)" d="M1343 200.529 L1343 216.178 L1338.74 216.178 L1338.74 200.668 Q1338.74 196.988 1337.3 195.159 Q1335.87 193.33 1333 193.33 Q1329.55 193.33 1327.56 195.53 Q1325.57 197.729 1325.57 201.525 L1325.57 216.178 L1321.28 216.178 L1321.28 190.252 L1325.57 190.252 L1325.57 194.28 Q1327.09 191.942 1329.15 190.784 Q1331.24 189.627 1333.94 189.627 Q1338.41 189.627 1340.7 192.405 Q1343 195.159 1343 200.529 Z" fill="#000000" fill-rule="nonzero" fill-opacity="1" /><path clip-path="url(#clip450)" d="M1370.15 191.247 L1370.15 195.229 Q1368.34 194.233 1366.51 193.747 Q1364.71 193.238 1362.86 193.238 Q1358.71 193.238 1356.42 195.877 Q1354.13 198.492 1354.13 203.238 Q1354.13 207.983 1356.42 210.622 Q1358.71 213.238 1362.86 213.238 Q1364.71 213.238 1366.51 212.752 Q1368.34 212.242 1370.15 211.247 L1370.15 215.182 Q1368.37 216.016 1366.44 216.432 Q1364.55 216.849 1362.39 216.849 Q1356.54 216.849 1353.09 213.168 Q1349.64 209.488 1349.64 203.238 Q1349.64 196.895 1353.11 193.261 Q1356.61 189.627 1362.67 189.627 Q1364.64 189.627 1366.51 190.043 Q1368.39 190.437 1370.15 191.247 Z" fill="#000000" fill-rule="nonzero" fill-opacity="1" /><path clip-path="url(#clip450)" d="M1381.77 182.891 L1381.77 190.252 L1390.54 190.252 L1390.54 193.562 L1381.77 193.562 L1381.77 207.636 Q1381.77 210.807 1382.63 211.71 Q1383.5 212.613 1386.17 212.613 L1390.54 212.613 L1390.54 216.178 L1386.17 216.178 Q1381.24 216.178 1379.36 214.349 Q1377.49 212.497 1377.49 207.636 L1377.49 193.562 L1374.36 193.562 L1374.36 190.252 L1377.49 190.252 L1377.49 182.891 L1381.77 182.891 Z" fill="#000000" fill-rule="nonzero" fill-opacity="1" /><path clip-path="url(#clip450)" d="M1396.14 190.252 L1400.4 190.252 L1400.4 216.178 L1396.14 216.178 L1396.14 190.252 M1396.14 180.159 L1400.4 180.159 L1400.4 185.553 L1396.14 185.553 L1396.14 180.159 Z" fill="#000000" fill-rule="nonzero" fill-opacity="1" /><path clip-path="url(#clip450)" d="M1419.36 193.238 Q1415.94 193.238 1413.94 195.923 Q1411.95 198.585 1411.95 203.238 Q1411.95 207.891 1413.92 210.576 Q1415.91 213.238 1419.36 213.238 Q1422.76 213.238 1424.75 210.553 Q1426.75 207.867 1426.75 203.238 Q1426.75 198.631 1424.75 195.946 Q1422.76 193.238 1419.36 193.238 M1419.36 189.627 Q1424.92 189.627 1428.09 193.238 Q1431.26 196.849 1431.26 203.238 Q1431.26 209.604 1428.09 213.238 Q1424.92 216.849 1419.36 216.849 Q1413.78 216.849 1410.61 213.238 Q1407.46 209.604 1407.46 203.238 Q1407.46 196.849 1410.61 193.238 Q1413.78 189.627 1419.36 189.627 Z" fill="#000000" fill-rule="nonzero" fill-opacity="1" /><path clip-path="url(#clip450)" d="M1459.87 200.529 L1459.87 216.178 L1455.61 216.178 L1455.61 200.668 Q1455.61 196.988 1454.18 195.159 Q1452.74 193.33 1449.87 193.33 Q1446.42 193.33 1444.43 195.53 Q1442.44 197.729 1442.44 201.525 L1442.44 216.178 L1438.16 216.178 L1438.16 190.252 L1442.44 190.252 L1442.44 194.28 Q1443.97 191.942 1446.03 190.784 Q1448.11 189.627 1450.82 189.627 Q1455.29 189.627 1457.58 192.405 Q1459.87 195.159 1459.87 200.529 Z" fill="#000000" fill-rule="nonzero" fill-opacity="1" /></svg>
