<?xml version="1.0" encoding="utf-8"?>
<svg xmlns="http://www.w3.org/2000/svg" xmlns:xlink="http://www.w3.org/1999/xlink" width="600" height="400" viewBox="0 0 2400 1600">
<defs>
  <clipPath id="clip790">
    <rect x="0" y="0" width="2400" height="1600"/>
  </clipPath>
</defs>
<path clip-path="url(#clip790)" d="M0 1600 L2400 1600 L2400 0 L0 0  Z" fill="#ffffff" fill-rule="evenodd" fill-opacity="1"/>
<defs>
  <clipPath id="clip791">
    <rect x="480" y="0" width="1681" height="1600"/>
  </clipPath>
</defs>
<path clip-path="url(#clip790)" d="M193.936 1486.45 L2352.76 1486.45 L2352.76 47.2441 L193.936 47.2441  Z" fill="#ffffff" fill-rule="evenodd" fill-opacity="1"/>
<defs>
  <clipPath id="clip792">
    <rect x="193" y="47" width="2160" height="1440"/>
  </clipPath>
</defs>
<polyline clip-path="url(#clip792)" style="stroke:#000000; stroke-linecap:round; stroke-linejoin:round; stroke-width:2; stroke-opacity:0.1; fill:none" points="193.936,1486.45 193.936,47.2441 "/>
<polyline clip-path="url(#clip792)" style="stroke:#000000; stroke-linecap:round; stroke-linejoin:round; stroke-width:2; stroke-opacity:0.1; fill:none" points="913.543,1486.45 913.543,47.2441 "/>
<polyline clip-path="url(#clip792)" style="stroke:#000000; stroke-linecap:round; stroke-linejoin:round; stroke-width:2; stroke-opacity:0.1; fill:none" points="1633.15,1486.45 1633.15,47.2441 "/>
<polyline clip-path="url(#clip792)" style="stroke:#000000; stroke-linecap:round; stroke-linejoin:round; stroke-width:2; stroke-opacity:0.1; fill:none" points="2352.76,1486.45 2352.76,47.2441 "/>
<polyline clip-path="url(#clip790)" style="stroke:#000000; stroke-linecap:round; stroke-linejoin:round; stroke-width:4; stroke-opacity:1; fill:none" points="193.936,1486.45 2352.76,1486.45 "/>
<polyline clip-path="url(#clip790)" style="stroke:#000000; stroke-linecap:round; stroke-linejoin:round; stroke-width:4; stroke-opacity:1; fill:none" points="193.936,1486.45 193.936,1467.55 "/>
<polyline clip-path="url(#clip790)" style="stroke:#000000; stroke-linecap:round; stroke-linejoin:round; stroke-width:4; stroke-opacity:1; fill:none" points="913.543,1486.45 913.543,1467.55 "/>
<polyline clip-path="url(#clip790)" style="stroke:#000000; stroke-linecap:round; stroke-linejoin:round; stroke-width:4; stroke-opacity:1; fill:none" points="1633.15,1486.45 1633.15,1467.55 "/>
<polyline clip-path="url(#clip790)" style="stroke:#000000; stroke-linecap:round; stroke-linejoin:round; stroke-width:4; stroke-opacity:1; fill:none" points="2352.76,1486.45 2352.76,1467.55 "/>
<path clip-path="url(#clip790)" d="M184.318 1544.91 L191.957 1544.91 L191.957 1518.55 L183.647 1520.21 L183.647 1515.95 L191.911 1514.29 L196.586 1514.29 L196.586 1544.91 L204.225 1544.91 L204.225 1548.85 L184.318 1548.85 L184.318 1544.91 Z" fill="#000000" fill-rule="nonzero" fill-opacity="1" /><path clip-path="url(#clip790)" d="M908.195 1544.91 L924.515 1544.91 L924.515 1548.85 L902.57 1548.85 L902.57 1544.91 Q905.232 1542.16 909.816 1537.53 Q914.422 1532.88 915.603 1531.53 Q917.848 1529.01 918.728 1527.27 Q919.631 1525.51 919.631 1523.82 Q919.631 1521.07 917.686 1519.33 Q915.765 1517.6 912.663 1517.6 Q910.464 1517.6 908.01 1518.36 Q905.58 1519.13 902.802 1520.68 L902.802 1515.95 Q905.626 1514.82 908.08 1514.24 Q910.533 1513.66 912.57 1513.66 Q917.941 1513.66 921.135 1516.35 Q924.33 1519.03 924.33 1523.52 Q924.33 1525.65 923.519 1527.57 Q922.732 1529.47 920.626 1532.07 Q920.047 1532.74 916.945 1535.95 Q913.844 1539.15 908.195 1544.91 Z" fill="#000000" fill-rule="nonzero" fill-opacity="1" /><path clip-path="url(#clip790)" d="M1637.4 1530.21 Q1640.75 1530.93 1642.63 1533.2 Q1644.53 1535.47 1644.53 1538.8 Q1644.53 1543.92 1641.01 1546.72 Q1637.49 1549.52 1631.01 1549.52 Q1628.83 1549.52 1626.52 1549.08 Q1624.23 1548.66 1621.77 1547.81 L1621.77 1543.29 Q1623.72 1544.43 1626.03 1545.01 Q1628.35 1545.58 1630.87 1545.58 Q1635.27 1545.58 1637.56 1543.85 Q1639.87 1542.11 1639.87 1538.8 Q1639.87 1535.75 1637.72 1534.03 Q1635.59 1532.3 1631.77 1532.3 L1627.74 1532.3 L1627.74 1528.45 L1631.96 1528.45 Q1635.41 1528.45 1637.23 1527.09 Q1639.06 1525.7 1639.06 1523.11 Q1639.06 1520.45 1637.17 1519.03 Q1635.29 1517.6 1631.77 1517.6 Q1629.85 1517.6 1627.65 1518.01 Q1625.45 1518.43 1622.81 1519.31 L1622.81 1515.14 Q1625.48 1514.4 1627.79 1514.03 Q1630.13 1513.66 1632.19 1513.66 Q1637.51 1513.66 1640.61 1516.09 Q1643.72 1518.5 1643.72 1522.62 Q1643.72 1525.49 1642.07 1527.48 Q1640.43 1529.45 1637.4 1530.21 Z" fill="#000000" fill-rule="nonzero" fill-opacity="1" /><path clip-path="url(#clip790)" d="M2355.77 1518.36 L2343.96 1536.81 L2355.77 1536.81 L2355.77 1518.36 M2354.54 1514.29 L2360.42 1514.29 L2360.42 1536.81 L2365.35 1536.81 L2365.35 1540.7 L2360.42 1540.7 L2360.42 1548.85 L2355.77 1548.85 L2355.77 1540.7 L2340.16 1540.7 L2340.16 1536.19 L2354.54 1514.29 Z" fill="#000000" fill-rule="nonzero" fill-opacity="1" /><polyline clip-path="url(#clip792)" style="stroke:#000000; stroke-linecap:round; stroke-linejoin:round; stroke-width:2; stroke-opacity:0.1; fill:none" points="193.936,1353.16 2352.76,1353.16 "/>
<polyline clip-path="url(#clip792)" style="stroke:#000000; stroke-linecap:round; stroke-linejoin:round; stroke-width:2; stroke-opacity:0.1; fill:none" points="193.936,1121.29 2352.76,1121.29 "/>
<polyline clip-path="url(#clip792)" style="stroke:#000000; stroke-linecap:round; stroke-linejoin:round; stroke-width:2; stroke-opacity:0.1; fill:none" points="193.936,889.431 2352.76,889.431 "/>
<polyline clip-path="url(#clip792)" style="stroke:#000000; stroke-linecap:round; stroke-linejoin:round; stroke-width:2; stroke-opacity:0.1; fill:none" points="193.936,657.567 2352.76,657.567 "/>
<polyline clip-path="url(#clip792)" style="stroke:#000000; stroke-linecap:round; stroke-linejoin:round; stroke-width:2; stroke-opacity:0.1; fill:none" points="193.936,425.704 2352.76,425.704 "/>
<polyline clip-path="url(#clip792)" style="stroke:#000000; stroke-linecap:round; stroke-linejoin:round; stroke-width:2; stroke-opacity:0.1; fill:none" points="193.936,193.841 2352.76,193.841 "/>
<polyline clip-path="url(#clip790)" style="stroke:#000000; stroke-linecap:round; stroke-linejoin:round; stroke-width:4; stroke-opacity:1; fill:none" points="193.936,1486.45 193.936,47.2441 "/>
<polyline clip-path="url(#clip790)" style="stroke:#000000; stroke-linecap:round; stroke-linejoin:round; stroke-width:4; stroke-opacity:1; fill:none" points="193.936,1353.16 212.834,1353.16 "/>
<polyline clip-path="url(#clip790)" style="stroke:#000000; stroke-linecap:round; stroke-linejoin:round; stroke-width:4; stroke-opacity:1; fill:none" points="193.936,1121.29 212.834,1121.29 "/>
<polyline clip-path="url(#clip790)" style="stroke:#000000; stroke-linecap:round; stroke-linejoin:round; stroke-width:4; stroke-opacity:1; fill:none" points="193.936,889.431 212.834,889.431 "/>
<polyline clip-path="url(#clip790)" style="stroke:#000000; stroke-linecap:round; stroke-linejoin:round; stroke-width:4; stroke-opacity:1; fill:none" points="193.936,657.567 212.834,657.567 "/>
<polyline clip-path="url(#clip790)" style="stroke:#000000; stroke-linecap:round; stroke-linejoin:round; stroke-width:4; stroke-opacity:1; fill:none" points="193.936,425.704 212.834,425.704 "/>
<polyline clip-path="url(#clip790)" style="stroke:#000000; stroke-linecap:round; stroke-linejoin:round; stroke-width:4; stroke-opacity:1; fill:none" points="193.936,193.841 212.834,193.841 "/>
<path clip-path="url(#clip790)" d="M50.9921 1353.61 L80.6679 1353.61 L80.6679 1357.54 L50.9921 1357.54 L50.9921 1353.61 Z" fill="#000000" fill-rule="nonzero" fill-opacity="1" /><path clip-path="url(#clip790)" d="M91.5706 1366.5 L99.2095 1366.5 L99.2095 1340.14 L90.8993 1341.8 L90.8993 1337.54 L99.1632 1335.88 L103.839 1335.88 L103.839 1366.5 L111.478 1366.5 L111.478 1370.44 L91.5706 1370.44 L91.5706 1366.5 Z" fill="#000000" fill-rule="nonzero" fill-opacity="1" /><path clip-path="url(#clip790)" d="M120.922 1364.56 L125.807 1364.56 L125.807 1370.44 L120.922 1370.44 L120.922 1364.56 Z" fill="#000000" fill-rule="nonzero" fill-opacity="1" /><path clip-path="url(#clip790)" d="M145.992 1338.96 Q142.381 1338.96 140.552 1342.52 Q138.746 1346.06 138.746 1353.19 Q138.746 1360.3 140.552 1363.86 Q142.381 1367.4 145.992 1367.4 Q149.626 1367.4 151.431 1363.86 Q153.26 1360.3 153.26 1353.19 Q153.26 1346.06 151.431 1342.52 Q149.626 1338.96 145.992 1338.96 M145.992 1335.25 Q151.802 1335.25 154.857 1339.86 Q157.936 1344.44 157.936 1353.19 Q157.936 1361.92 154.857 1366.53 Q151.802 1371.11 145.992 1371.11 Q140.181 1371.11 137.103 1366.53 Q134.047 1361.92 134.047 1353.19 Q134.047 1344.44 137.103 1339.86 Q140.181 1335.25 145.992 1335.25 Z" fill="#000000" fill-rule="nonzero" fill-opacity="1" /><path clip-path="url(#clip790)" d="M51.9875 1121.75 L81.6633 1121.75 L81.6633 1125.68 L51.9875 1125.68 L51.9875 1121.75 Z" fill="#000000" fill-rule="nonzero" fill-opacity="1" /><path clip-path="url(#clip790)" d="M101.756 1107.09 Q98.1447 1107.09 96.316 1110.66 Q94.5104 1114.2 94.5104 1121.33 Q94.5104 1128.44 96.316 1132 Q98.1447 1135.54 101.756 1135.54 Q105.39 1135.54 107.196 1132 Q109.024 1128.44 109.024 1121.33 Q109.024 1114.2 107.196 1110.66 Q105.39 1107.09 101.756 1107.09 M101.756 1103.39 Q107.566 1103.39 110.621 1108 Q113.7 1112.58 113.7 1121.33 Q113.7 1130.06 110.621 1134.66 Q107.566 1139.25 101.756 1139.25 Q95.9456 1139.25 92.8669 1134.66 Q89.8114 1130.06 89.8114 1121.33 Q89.8114 1112.58 92.8669 1108 Q95.9456 1103.39 101.756 1103.39 Z" fill="#000000" fill-rule="nonzero" fill-opacity="1" /><path clip-path="url(#clip790)" d="M121.918 1132.69 L126.802 1132.69 L126.802 1138.57 L121.918 1138.57 L121.918 1132.69 Z" fill="#000000" fill-rule="nonzero" fill-opacity="1" /><path clip-path="url(#clip790)" d="M137.033 1104.01 L155.39 1104.01 L155.39 1107.95 L141.316 1107.95 L141.316 1116.42 Q142.334 1116.07 143.353 1115.91 Q144.371 1115.73 145.39 1115.73 Q151.177 1115.73 154.556 1118.9 Q157.936 1122.07 157.936 1127.49 Q157.936 1133.06 154.464 1136.17 Q150.992 1139.25 144.672 1139.25 Q142.496 1139.25 140.228 1138.87 Q137.982 1138.5 135.575 1137.76 L135.575 1133.06 Q137.658 1134.2 139.881 1134.75 Q142.103 1135.31 144.58 1135.31 Q148.584 1135.31 150.922 1133.2 Q153.26 1131.1 153.26 1127.49 Q153.26 1123.88 150.922 1121.77 Q148.584 1119.66 144.58 1119.66 Q142.705 1119.66 140.83 1120.08 Q138.978 1120.5 137.033 1121.38 L137.033 1104.01 Z" fill="#000000" fill-rule="nonzero" fill-opacity="1" /><path clip-path="url(#clip790)" d="M100.76 875.229 Q97.1493 875.229 95.3206 878.794 Q93.515 882.336 93.515 889.465 Q93.515 896.572 95.3206 900.137 Q97.1493 903.678 100.76 903.678 Q104.395 903.678 106.2 900.137 Q108.029 896.572 108.029 889.465 Q108.029 882.336 106.2 878.794 Q104.395 875.229 100.76 875.229 M100.76 871.526 Q106.571 871.526 109.626 876.132 Q112.705 880.716 112.705 889.465 Q112.705 898.192 109.626 902.799 Q106.571 907.382 100.76 907.382 Q94.9502 907.382 91.8715 902.799 Q88.816 898.192 88.816 889.465 Q88.816 880.716 91.8715 876.132 Q94.9502 871.526 100.76 871.526 Z" fill="#000000" fill-rule="nonzero" fill-opacity="1" /><path clip-path="url(#clip790)" d="M120.922 900.831 L125.807 900.831 L125.807 906.711 L120.922 906.711 L120.922 900.831 Z" fill="#000000" fill-rule="nonzero" fill-opacity="1" /><path clip-path="url(#clip790)" d="M145.992 875.229 Q142.381 875.229 140.552 878.794 Q138.746 882.336 138.746 889.465 Q138.746 896.572 140.552 900.137 Q142.381 903.678 145.992 903.678 Q149.626 903.678 151.431 900.137 Q153.26 896.572 153.26 889.465 Q153.26 882.336 151.431 878.794 Q149.626 875.229 145.992 875.229 M145.992 871.526 Q151.802 871.526 154.857 876.132 Q157.936 880.716 157.936 889.465 Q157.936 898.192 154.857 902.799 Q151.802 907.382 145.992 907.382 Q140.181 907.382 137.103 902.799 Q134.047 898.192 134.047 889.465 Q134.047 880.716 137.103 876.132 Q140.181 871.526 145.992 871.526 Z" fill="#000000" fill-rule="nonzero" fill-opacity="1" /><path clip-path="url(#clip790)" d="M101.756 643.366 Q98.1447 643.366 96.316 646.931 Q94.5104 650.473 94.5104 657.602 Q94.5104 664.709 96.316 668.273 Q98.1447 671.815 101.756 671.815 Q105.39 671.815 107.196 668.273 Q109.024 664.709 109.024 657.602 Q109.024 650.473 107.196 646.931 Q105.39 643.366 101.756 643.366 M101.756 639.662 Q107.566 639.662 110.621 644.269 Q113.7 648.852 113.7 657.602 Q113.7 666.329 110.621 670.935 Q107.566 675.519 101.756 675.519 Q95.9456 675.519 92.8669 670.935 Q89.8114 666.329 89.8114 657.602 Q89.8114 648.852 92.8669 644.269 Q95.9456 639.662 101.756 639.662 Z" fill="#000000" fill-rule="nonzero" fill-opacity="1" /><path clip-path="url(#clip790)" d="M121.918 668.968 L126.802 668.968 L126.802 674.847 L121.918 674.847 L121.918 668.968 Z" fill="#000000" fill-rule="nonzero" fill-opacity="1" /><path clip-path="url(#clip790)" d="M137.033 640.287 L155.39 640.287 L155.39 644.223 L141.316 644.223 L141.316 652.695 Q142.334 652.348 143.353 652.186 Q144.371 652 145.39 652 Q151.177 652 154.556 655.172 Q157.936 658.343 157.936 663.76 Q157.936 669.338 154.464 672.44 Q150.992 675.519 144.672 675.519 Q142.496 675.519 140.228 675.148 Q137.982 674.778 135.575 674.037 L135.575 669.338 Q137.658 670.472 139.881 671.028 Q142.103 671.584 144.58 671.584 Q148.584 671.584 150.922 669.477 Q153.26 667.371 153.26 663.76 Q153.26 660.148 150.922 658.042 Q148.584 655.935 144.58 655.935 Q142.705 655.935 140.83 656.352 Q138.978 656.769 137.033 657.648 L137.033 640.287 Z" fill="#000000" fill-rule="nonzero" fill-opacity="1" /><path clip-path="url(#clip790)" d="M91.5706 439.049 L99.2095 439.049 L99.2095 412.683 L90.8993 414.35 L90.8993 410.091 L99.1632 408.424 L103.839 408.424 L103.839 439.049 L111.478 439.049 L111.478 442.984 L91.5706 442.984 L91.5706 439.049 Z" fill="#000000" fill-rule="nonzero" fill-opacity="1" /><path clip-path="url(#clip790)" d="M120.922 437.105 L125.807 437.105 L125.807 442.984 L120.922 442.984 L120.922 437.105 Z" fill="#000000" fill-rule="nonzero" fill-opacity="1" /><path clip-path="url(#clip790)" d="M145.992 411.503 Q142.381 411.503 140.552 415.068 Q138.746 418.609 138.746 425.739 Q138.746 432.845 140.552 436.41 Q142.381 439.952 145.992 439.952 Q149.626 439.952 151.431 436.41 Q153.26 432.845 153.26 425.739 Q153.26 418.609 151.431 415.068 Q149.626 411.503 145.992 411.503 M145.992 407.799 Q151.802 407.799 154.857 412.406 Q157.936 416.989 157.936 425.739 Q157.936 434.466 154.857 439.072 Q151.802 443.655 145.992 443.655 Q140.181 443.655 137.103 439.072 Q134.047 434.466 134.047 425.739 Q134.047 416.989 137.103 412.406 Q140.181 407.799 145.992 407.799 Z" fill="#000000" fill-rule="nonzero" fill-opacity="1" /><path clip-path="url(#clip790)" d="M92.566 207.186 L100.205 207.186 L100.205 180.82 L91.8947 182.487 L91.8947 178.227 L100.159 176.561 L104.834 176.561 L104.834 207.186 L112.473 207.186 L112.473 211.121 L92.566 211.121 L92.566 207.186 Z" fill="#000000" fill-rule="nonzero" fill-opacity="1" /><path clip-path="url(#clip790)" d="M121.918 205.241 L126.802 205.241 L126.802 211.121 L121.918 211.121 L121.918 205.241 Z" fill="#000000" fill-rule="nonzero" fill-opacity="1" /><path clip-path="url(#clip790)" d="M137.033 176.561 L155.39 176.561 L155.39 180.496 L141.316 180.496 L141.316 188.968 Q142.334 188.621 143.353 188.459 Q144.371 188.274 145.39 188.274 Q151.177 188.274 154.556 191.445 Q157.936 194.616 157.936 200.033 Q157.936 205.612 154.464 208.713 Q150.992 211.792 144.672 211.792 Q142.496 211.792 140.228 211.422 Q137.982 211.051 135.575 210.311 L135.575 205.612 Q137.658 206.746 139.881 207.301 Q142.103 207.857 144.58 207.857 Q148.584 207.857 150.922 205.75 Q153.26 203.644 153.26 200.033 Q153.26 196.422 150.922 194.315 Q148.584 192.209 144.58 192.209 Q142.705 192.209 140.83 192.626 Q138.978 193.042 137.033 193.922 L137.033 176.561 Z" fill="#000000" fill-rule="nonzero" fill-opacity="1" /><circle clip-path="url(#clip792)" cx="1003.49" cy="162.41" r="14.4" fill="#009af9" fill-rule="evenodd" fill-opacity="1" stroke="#000000" stroke-opacity="1" stroke-width="3.2"/>
<circle clip-path="url(#clip792)" cx="2082.9" cy="1320.36" r="14.4" fill="#009af9" fill-rule="evenodd" fill-opacity="1" stroke="#000000" stroke-opacity="1" stroke-width="3.2"/>
<circle clip-path="url(#clip792)" cx="1543.2" cy="840.482" r="14.4" fill="#009af9" fill-rule="evenodd" fill-opacity="1" stroke="#000000" stroke-opacity="1" stroke-width="3.2"/>
<circle clip-path="url(#clip792)" cx="463.788" cy="894.435" r="14.4" fill="#009af9" fill-rule="evenodd" fill-opacity="1" stroke="#000000" stroke-opacity="1" stroke-width="3.2"/>
<circle clip-path="url(#clip792)" cx="598.715" cy="833.577" r="14.4" fill="#009af9" fill-rule="evenodd" fill-opacity="1" stroke="#000000" stroke-opacity="1" stroke-width="3.2"/>
<polyline clip-path="url(#clip792)" style="stroke:#e26f46; stroke-linecap:round; stroke-linejoin:round; stroke-width:4; stroke-opacity:1; fill:none" points="193.936,587.59 197.45,593.768 200.964,599.931 204.477,606.076 207.991,612.2 240.481,667.555 272.971,719.584 289.216,743.916 305.461,766.909 321.706,788.411 337.951,808.278 357.476,829.809 377.001,848.578 396.526,864.404 416.051,877.129 432.559,885.37 449.068,891.24 465.576,894.69 482.084,895.69 500.016,893.979 517.949,889.358 535.882,881.849 553.814,871.495 570.346,859.487 586.879,845.183 603.411,828.665 619.943,810.031 637.667,787.826 655.392,763.466 673.116,737.118 690.84,708.967 711.375,674.356 731.911,637.916 752.446,599.995 772.981,560.955 809.48,489.985 845.979,418.858 877.985,358.105 909.991,300.412 927.439,270.763 944.886,242.671 962.334,216.348 979.782,191.998 997.333,169.687 1014.88,149.749 1032.44,132.349 1049.99,117.642 1059.69,110.717 1069.39,104.678 1079.09,99.5425 1088.8,95.3289 1098.5,92.0526 1108.2,89.7273 1117.91,88.3651 1127.61,87.9763 1136.84,88.5176 1146.07,89.9532 1155.3,92.2874 1164.54,95.5225 1173.77,99.6596 1183,104.698 1192.23,110.636 1201.46,117.469 1211.06,125.519 1220.66,134.523 1230.26,144.472 1239.86,155.356 1249.46,167.161 1259.06,179.873 1268.65,193.475 1278.25,207.949 1294.41,234.232 1310.57,262.827 1326.74,293.616 1342.9,326.472 1362.63,369.186 1382.36,414.499 1402.09,462.118 1421.82,511.732 1457.96,606.712 1494.11,705.169 1527.5,797.285 1560.88,888.737 1577.79,934.248 1594.7,978.923 1611.61,1022.55 1628.52,1064.92 1647.47,1110.66 1666.42,1154.3 1685.37,1195.59 1704.32,1234.3 1721.5,1266.97 1738.67,1297.21 1755.84,1324.87 1773.01,1349.86 1782.84,1362.93 1792.67,1375.07 1802.5,1386.27 1812.33,1396.53 1822.16,1405.83 1831.99,1414.16 1841.83,1421.52 1851.66,1427.91 1860.76,1432.96 1869.86,1437.17 1878.96,1440.55 1888.06,1443.09 1906.27,1445.72 1924.47,1445.09 1942.42,1441.37 1960.37,1434.67 1978.32,1425.1 1996.26,1412.79 2013.69,1398.38 2031.11,1381.68 2048.54,1362.88 2065.96,1342.16 2083.83,1319.12 2101.69,1294.49 2119.55,1268.5 2137.42,1241.38 2176.56,1179.24 2215.7,1115.57 2244.13,1069.89 2272.56,1025.83 2300.99,984.382 2329.43,946.458 2335.26,939.193 2341.09,932.12 2346.92,925.245 2352.76,918.576 "/>
<polyline clip-path="url(#clip792)" style="stroke:#3da44d; stroke-linecap:round; stroke-linejoin:round; stroke-width:4; stroke-opacity:1; fill:none" points="193.936,760.53 200.964,764.75 207.991,769.053 272.971,811.157 337.951,851.848 357.476,862.516 377.001,872.038 396.526,880.175 416.051,886.695 432.559,890.778 449.068,893.411 465.576,894.47 482.084,893.835 500.016,891.099 517.949,886.113 535.882,878.772 553.814,868.997 570.346,857.785 586.879,844.439 603.411,828.966 619.943,811.394 637.667,790.285 655.392,766.924 673.116,741.436 690.84,713.976 711.375,679.929 731.911,643.788 752.446,605.9 772.981,566.646 809.48,494.766 845.979,422.256 877.985,360.136 909.991,301.176 927.439,270.969 944.886,242.464 962.334,215.916 979.782,191.567 997.333,169.524 1014.88,150.153 1023.66,141.532 1032.44,133.649 1041.21,126.526 1049.99,120.181 1059.69,114.091 1069.39,108.993 1079.09,104.905 1088.8,101.841 1098.5,99.8142 1108.2,98.8327 1117.91,98.9029 1127.61,100.028 1136.84,102.077 1146.07,105.079 1155.3,109.029 1164.54,113.921 1173.77,119.744 1183,126.488 1192.23,134.14 1201.46,142.686 1211.06,152.501 1220.66,163.243 1230.26,174.89 1239.86,187.417 1259.06,215.006 1278.25,245.783 1294.41,273.978 1310.57,304.095 1326.74,335.965 1342.9,369.412 1362.63,412.121 1382.36,456.571 1402.09,502.415 1421.82,549.304 1457.96,636.77 1494.11,724.482 1527.5,804.001 1560.88,880.647 1577.79,917.98 1594.7,954.127 1611.61,988.967 1628.52,1022.39 1647.47,1058.06 1666.42,1091.73 1685.37,1123.32 1704.32,1152.75 1721.5,1177.53 1738.67,1200.49 1755.84,1221.6 1773.01,1240.89 1792.67,1260.74 1812.33,1278.23 1831.99,1293.41 1851.66,1306.34 1869.86,1316.37 1888.06,1324.59 1906.27,1331.08 1924.47,1335.91 1942.42,1339.12 1960.37,1340.87 1978.32,1341.25 1996.26,1340.34 2013.69,1338.29 2031.11,1335.18 2048.54,1331.08 2065.96,1326.06 2101.69,1313.17 2137.42,1297.28 2176.56,1277.06 2215.7,1254.54 2272.56,1218.94 2329.43,1181.41 2341.09,1173.6 2352.76,1165.79 "/>
<path clip-path="url(#clip790)" d="M1630.19 302.578 L2280.8 302.578 L2280.8 95.2176 L1630.19 95.2176  Z" fill="#ffffff" fill-rule="evenodd" fill-opacity="1"/>
<polyline clip-path="url(#clip790)" style="stroke:#000000; stroke-linecap:round; stroke-linejoin:round; stroke-width:4; stroke-opacity:1; fill:none" points="1630.19,302.578 2280.8,302.578 2280.8,95.2176 1630.19,95.2176 1630.19,302.578 "/>
<circle clip-path="url(#clip790)" cx="1726.14" cy="147.058" r="20.48" fill="#009af9" fill-rule="evenodd" fill-opacity="1" stroke="#000000" stroke-opacity="1" stroke-width="4.55111"/>
<path clip-path="url(#clip790)" d="M1844.33 130.912 L1844.33 135.472 Q1841.67 134.199 1839.31 133.574 Q1836.95 132.949 1834.75 132.949 Q1830.93 132.949 1828.85 134.43 Q1826.79 135.912 1826.79 138.643 Q1826.79 140.935 1828.15 142.115 Q1829.54 143.273 1833.38 143.99 L1836.21 144.569 Q1841.44 145.565 1843.92 148.088 Q1846.42 150.588 1846.42 154.801 Q1846.42 159.824 1843.04 162.416 Q1839.68 165.009 1833.18 165.009 Q1830.72 165.009 1827.94 164.453 Q1825.19 163.898 1822.23 162.81 L1822.23 157.995 Q1825.07 159.592 1827.81 160.402 Q1830.54 161.213 1833.18 161.213 Q1837.18 161.213 1839.36 159.639 Q1841.53 158.064 1841.53 155.148 Q1841.53 152.602 1839.96 151.166 Q1838.41 149.731 1834.84 149.014 L1832 148.458 Q1826.76 147.416 1824.43 145.194 Q1822.09 142.972 1822.09 139.014 Q1822.09 134.43 1825.31 131.791 Q1828.55 129.153 1834.22 129.153 Q1836.65 129.153 1839.17 129.592 Q1841.69 130.032 1844.33 130.912 Z" fill="#000000" fill-rule="nonzero" fill-opacity="1" /><path clip-path="url(#clip790)" d="M1865.31 151.305 Q1860.14 151.305 1858.15 152.486 Q1856.16 153.666 1856.16 156.514 Q1856.16 158.782 1857.64 160.125 Q1859.15 161.444 1861.72 161.444 Q1865.26 161.444 1867.39 158.944 Q1869.54 156.421 1869.54 152.254 L1869.54 151.305 L1865.31 151.305 M1873.8 149.546 L1873.8 164.338 L1869.54 164.338 L1869.54 160.402 Q1868.08 162.763 1865.91 163.898 Q1863.73 165.009 1860.58 165.009 Q1856.6 165.009 1854.24 162.787 Q1851.9 160.541 1851.9 156.791 Q1851.9 152.416 1854.82 150.194 Q1857.76 147.972 1863.57 147.972 L1869.54 147.972 L1869.54 147.555 Q1869.54 144.615 1867.6 143.018 Q1865.68 141.398 1862.18 141.398 Q1859.96 141.398 1857.85 141.93 Q1855.75 142.463 1853.8 143.527 L1853.8 139.592 Q1856.14 138.69 1858.34 138.25 Q1860.54 137.787 1862.62 137.787 Q1868.25 137.787 1871.02 140.703 Q1873.8 143.62 1873.8 149.546 Z" fill="#000000" fill-rule="nonzero" fill-opacity="1" /><path clip-path="url(#clip790)" d="M1902.76 143.389 Q1904.36 140.518 1906.58 139.153 Q1908.8 137.787 1911.81 137.787 Q1915.86 137.787 1918.06 140.634 Q1920.26 143.458 1920.26 148.689 L1920.26 164.338 L1915.98 164.338 L1915.98 148.828 Q1915.98 145.102 1914.66 143.296 Q1913.34 141.49 1910.63 141.49 Q1907.32 141.49 1905.4 143.69 Q1903.48 145.889 1903.48 149.685 L1903.48 164.338 L1899.19 164.338 L1899.19 148.828 Q1899.19 145.078 1897.88 143.296 Q1896.56 141.49 1893.8 141.49 Q1890.54 141.49 1888.62 143.713 Q1886.69 145.912 1886.69 149.685 L1886.69 164.338 L1882.41 164.338 L1882.41 138.412 L1886.69 138.412 L1886.69 142.44 Q1888.15 140.055 1890.19 138.921 Q1892.23 137.787 1895.03 137.787 Q1897.85 137.787 1899.82 139.222 Q1901.81 140.657 1902.76 143.389 Z" fill="#000000" fill-rule="nonzero" fill-opacity="1" /><path clip-path="url(#clip790)" d="M1932.87 160.449 L1932.87 174.199 L1928.59 174.199 L1928.59 138.412 L1932.87 138.412 L1932.87 142.347 Q1934.22 140.032 1936.25 138.921 Q1938.31 137.787 1941.16 137.787 Q1945.88 137.787 1948.82 141.537 Q1951.79 145.287 1951.79 151.398 Q1951.79 157.509 1948.82 161.259 Q1945.88 165.009 1941.16 165.009 Q1938.31 165.009 1936.25 163.898 Q1934.22 162.763 1932.87 160.449 M1947.37 151.398 Q1947.37 146.699 1945.42 144.037 Q1943.5 141.352 1940.12 141.352 Q1936.74 141.352 1934.8 144.037 Q1932.87 146.699 1932.87 151.398 Q1932.87 156.097 1934.8 158.782 Q1936.74 161.444 1940.12 161.444 Q1943.5 161.444 1945.42 158.782 Q1947.37 156.097 1947.37 151.398 Z" fill="#000000" fill-rule="nonzero" fill-opacity="1" /><path clip-path="url(#clip790)" d="M1958.85 128.319 L1963.11 128.319 L1963.11 164.338 L1958.85 164.338 L1958.85 128.319 Z" fill="#000000" fill-rule="nonzero" fill-opacity="1" /><path clip-path="url(#clip790)" d="M1994.19 150.31 L1994.19 152.393 L1974.61 152.393 Q1974.89 156.791 1977.25 159.106 Q1979.63 161.398 1983.87 161.398 Q1986.32 161.398 1988.62 160.796 Q1990.93 160.194 1993.2 158.99 L1993.2 163.018 Q1990.91 163.99 1988.5 164.5 Q1986.09 165.009 1983.62 165.009 Q1977.41 165.009 1973.78 161.398 Q1970.17 157.787 1970.17 151.629 Q1970.17 145.264 1973.59 141.537 Q1977.04 137.787 1982.87 137.787 Q1988.11 137.787 1991.14 141.166 Q1994.19 144.523 1994.19 150.31 M1989.93 149.06 Q1989.89 145.565 1987.97 143.481 Q1986.07 141.398 1982.92 141.398 Q1979.36 141.398 1977.2 143.412 Q1975.07 145.426 1974.75 149.083 L1989.93 149.06 Z" fill="#000000" fill-rule="nonzero" fill-opacity="1" /><path clip-path="url(#clip790)" d="M2018.24 142.347 L2018.24 128.319 L2022.5 128.319 L2022.5 164.338 L2018.24 164.338 L2018.24 160.449 Q2016.9 162.763 2014.84 163.898 Q2012.81 165.009 2009.93 165.009 Q2005.24 165.009 2002.27 161.259 Q1999.33 157.509 1999.33 151.398 Q1999.33 145.287 2002.27 141.537 Q2005.24 137.787 2009.93 137.787 Q2012.81 137.787 2014.84 138.921 Q2016.9 140.032 2018.24 142.347 M2003.73 151.398 Q2003.73 156.097 2005.65 158.782 Q2007.6 161.444 2010.98 161.444 Q2014.36 161.444 2016.3 158.782 Q2018.24 156.097 2018.24 151.398 Q2018.24 146.699 2016.3 144.037 Q2014.36 141.352 2010.98 141.352 Q2007.6 141.352 2005.65 144.037 Q2003.73 146.699 2003.73 151.398 Z" fill="#000000" fill-rule="nonzero" fill-opacity="1" /><path clip-path="url(#clip790)" d="M2050.47 160.449 L2050.47 174.199 L2046.18 174.199 L2046.18 138.412 L2050.47 138.412 L2050.47 142.347 Q2051.81 140.032 2053.85 138.921 Q2055.91 137.787 2058.75 137.787 Q2063.48 137.787 2066.42 141.537 Q2069.38 145.287 2069.38 151.398 Q2069.38 157.509 2066.42 161.259 Q2063.48 165.009 2058.75 165.009 Q2055.91 165.009 2053.85 163.898 Q2051.81 162.763 2050.47 160.449 M2064.96 151.398 Q2064.96 146.699 2063.01 144.037 Q2061.09 141.352 2057.71 141.352 Q2054.33 141.352 2052.39 144.037 Q2050.47 146.699 2050.47 151.398 Q2050.47 156.097 2052.39 158.782 Q2054.33 161.444 2057.71 161.444 Q2061.09 161.444 2063.01 158.782 Q2064.96 156.097 2064.96 151.398 Z" fill="#000000" fill-rule="nonzero" fill-opacity="1" /><path clip-path="url(#clip790)" d="M2086.49 141.398 Q2083.06 141.398 2081.07 144.083 Q2079.08 146.745 2079.08 151.398 Q2079.08 156.051 2081.05 158.736 Q2083.04 161.398 2086.49 161.398 Q2089.89 161.398 2091.88 158.713 Q2093.87 156.027 2093.87 151.398 Q2093.87 146.791 2091.88 144.106 Q2089.89 141.398 2086.49 141.398 M2086.49 137.787 Q2092.04 137.787 2095.21 141.398 Q2098.38 145.009 2098.38 151.398 Q2098.38 157.764 2095.21 161.398 Q2092.04 165.009 2086.49 165.009 Q2080.91 165.009 2077.74 161.398 Q2074.59 157.764 2074.59 151.398 Q2074.59 145.009 2077.74 141.398 Q2080.91 137.787 2086.49 137.787 Z" fill="#000000" fill-rule="nonzero" fill-opacity="1" /><path clip-path="url(#clip790)" d="M2105.44 138.412 L2109.7 138.412 L2109.7 164.338 L2105.44 164.338 L2105.44 138.412 M2105.44 128.319 L2109.7 128.319 L2109.7 133.713 L2105.44 133.713 L2105.44 128.319 Z" fill="#000000" fill-rule="nonzero" fill-opacity="1" /><path clip-path="url(#clip790)" d="M2140.17 148.689 L2140.17 164.338 L2135.91 164.338 L2135.91 148.828 Q2135.91 145.148 2134.47 143.319 Q2133.04 141.49 2130.17 141.49 Q2126.72 141.49 2124.73 143.69 Q2122.73 145.889 2122.73 149.685 L2122.73 164.338 L2118.45 164.338 L2118.45 138.412 L2122.73 138.412 L2122.73 142.44 Q2124.26 140.102 2126.32 138.944 Q2128.41 137.787 2131.11 137.787 Q2135.58 137.787 2137.87 140.565 Q2140.17 143.319 2140.17 148.689 Z" fill="#000000" fill-rule="nonzero" fill-opacity="1" /><path clip-path="url(#clip790)" d="M2152.87 131.051 L2152.87 138.412 L2161.65 138.412 L2161.65 141.722 L2152.87 141.722 L2152.87 155.796 Q2152.87 158.967 2153.73 159.87 Q2154.61 160.773 2157.27 160.773 L2161.65 160.773 L2161.65 164.338 L2157.27 164.338 Q2152.34 164.338 2150.47 162.509 Q2148.59 160.657 2148.59 155.796 L2148.59 141.722 L2145.47 141.722 L2145.47 138.412 L2148.59 138.412 L2148.59 131.051 L2152.87 131.051 Z" fill="#000000" fill-rule="nonzero" fill-opacity="1" /><path clip-path="url(#clip790)" d="M2183.78 139.176 L2183.78 143.203 Q2181.97 142.277 2180.03 141.815 Q2178.08 141.352 2176 141.352 Q2172.83 141.352 2171.23 142.324 Q2169.66 143.296 2169.66 145.24 Q2169.66 146.722 2170.79 147.578 Q2171.92 148.412 2175.35 149.176 L2176.81 149.5 Q2181.35 150.472 2183.24 152.254 Q2185.17 154.014 2185.17 157.185 Q2185.17 160.796 2182.29 162.902 Q2179.45 165.009 2174.45 165.009 Q2172.36 165.009 2170.1 164.592 Q2167.85 164.199 2165.35 163.388 L2165.35 158.99 Q2167.71 160.217 2170 160.842 Q2172.29 161.444 2174.54 161.444 Q2177.55 161.444 2179.17 160.426 Q2180.79 159.384 2180.79 157.509 Q2180.79 155.773 2179.61 154.847 Q2178.45 153.921 2174.49 153.064 L2173.01 152.717 Q2169.05 151.884 2167.29 150.171 Q2165.54 148.435 2165.54 145.426 Q2165.54 141.768 2168.13 139.778 Q2170.72 137.787 2175.49 137.787 Q2177.85 137.787 2179.93 138.134 Q2182.02 138.481 2183.78 139.176 Z" fill="#000000" fill-rule="nonzero" fill-opacity="1" /><polyline clip-path="url(#clip790)" style="stroke:#e26f46; stroke-linecap:round; stroke-linejoin:round; stroke-width:4; stroke-opacity:1; fill:none" points="1654.18,198.898 1798.1,198.898 "/>
<path clip-path="url(#clip790)" d="M1822.09 181.618 L1851.32 181.618 L1851.32 185.553 L1839.06 185.553 L1839.06 216.178 L1834.36 216.178 L1834.36 185.553 L1822.09 185.553 L1822.09 181.618 Z" fill="#000000" fill-rule="nonzero" fill-opacity="1" /><path clip-path="url(#clip790)" d="M1863.71 194.233 Q1862.99 193.817 1862.13 193.631 Q1861.3 193.423 1860.28 193.423 Q1856.67 193.423 1854.73 195.784 Q1852.81 198.122 1852.81 202.52 L1852.81 216.178 L1848.52 216.178 L1848.52 190.252 L1852.81 190.252 L1852.81 194.28 Q1854.15 191.918 1856.3 190.784 Q1858.45 189.627 1861.53 189.627 Q1861.97 189.627 1862.5 189.696 Q1863.04 189.743 1863.69 189.858 L1863.71 194.233 Z" fill="#000000" fill-rule="nonzero" fill-opacity="1" /><path clip-path="url(#clip790)" d="M1867.74 205.946 L1867.74 190.252 L1872 190.252 L1872 205.784 Q1872 209.465 1873.43 211.316 Q1874.87 213.145 1877.74 213.145 Q1881.19 213.145 1883.18 210.946 Q1885.19 208.747 1885.19 204.951 L1885.19 190.252 L1889.45 190.252 L1889.45 216.178 L1885.19 216.178 L1885.19 212.196 Q1883.64 214.557 1881.58 215.715 Q1879.54 216.849 1876.83 216.849 Q1872.37 216.849 1870.05 214.071 Q1867.74 211.293 1867.74 205.946 M1878.45 189.627 L1878.45 189.627 Z" fill="#000000" fill-rule="nonzero" fill-opacity="1" /><path clip-path="url(#clip790)" d="M1920.4 202.15 L1920.4 204.233 L1900.81 204.233 Q1901.09 208.631 1903.45 210.946 Q1905.84 213.238 1910.07 213.238 Q1912.53 213.238 1914.82 212.636 Q1917.13 212.034 1919.4 210.83 L1919.4 214.858 Q1917.11 215.83 1914.7 216.34 Q1912.3 216.849 1909.82 216.849 Q1903.62 216.849 1899.98 213.238 Q1896.37 209.627 1896.37 203.469 Q1896.37 197.104 1899.8 193.377 Q1903.25 189.627 1909.08 189.627 Q1914.31 189.627 1917.34 193.006 Q1920.4 196.363 1920.4 202.15 M1916.14 200.9 Q1916.09 197.405 1914.17 195.321 Q1912.27 193.238 1909.13 193.238 Q1905.56 193.238 1903.41 195.252 Q1901.28 197.266 1900.95 200.923 L1916.14 200.9 Z" fill="#000000" fill-rule="nonzero" fill-opacity="1" /><path clip-path="url(#clip790)" d="M1955.58 180.159 L1955.58 183.701 L1951.51 183.701 Q1949.22 183.701 1948.31 184.627 Q1947.44 185.553 1947.44 187.96 L1947.44 190.252 L1954.45 190.252 L1954.45 193.562 L1947.44 193.562 L1947.44 216.178 L1943.15 216.178 L1943.15 193.562 L1939.08 193.562 L1939.08 190.252 L1943.15 190.252 L1943.15 188.446 Q1943.15 184.118 1945.17 182.15 Q1947.18 180.159 1951.56 180.159 L1955.58 180.159 Z" fill="#000000" fill-rule="nonzero" fill-opacity="1" /><path clip-path="url(#clip790)" d="M1958.71 205.946 L1958.71 190.252 L1962.97 190.252 L1962.97 205.784 Q1962.97 209.465 1964.4 211.316 Q1965.84 213.145 1968.71 213.145 Q1972.16 213.145 1974.15 210.946 Q1976.16 208.747 1976.16 204.951 L1976.16 190.252 L1980.42 190.252 L1980.42 216.178 L1976.16 216.178 L1976.16 212.196 Q1974.61 214.557 1972.55 215.715 Q1970.51 216.849 1967.81 216.849 Q1963.34 216.849 1961.02 214.071 Q1958.71 211.293 1958.71 205.946 M1969.43 189.627 L1969.43 189.627 Z" fill="#000000" fill-rule="nonzero" fill-opacity="1" /><path clip-path="url(#clip790)" d="M2010.74 200.529 L2010.74 216.178 L2006.49 216.178 L2006.49 200.668 Q2006.49 196.988 2005.05 195.159 Q2003.62 193.33 2000.74 193.33 Q1997.3 193.33 1995.31 195.53 Q1993.31 197.729 1993.31 201.525 L1993.31 216.178 L1989.03 216.178 L1989.03 190.252 L1993.31 190.252 L1993.31 194.28 Q1994.84 191.942 1996.9 190.784 Q1998.99 189.627 2001.69 189.627 Q2006.16 189.627 2008.45 192.405 Q2010.74 195.159 2010.74 200.529 Z" fill="#000000" fill-rule="nonzero" fill-opacity="1" /><path clip-path="url(#clip790)" d="M2037.9 191.247 L2037.9 195.229 Q2036.09 194.233 2034.26 193.747 Q2032.46 193.238 2030.61 193.238 Q2026.46 193.238 2024.17 195.877 Q2021.88 198.492 2021.88 203.238 Q2021.88 207.983 2024.17 210.622 Q2026.46 213.238 2030.61 213.238 Q2032.46 213.238 2034.26 212.752 Q2036.09 212.242 2037.9 211.247 L2037.9 215.182 Q2036.12 216.016 2034.19 216.432 Q2032.3 216.849 2030.14 216.849 Q2024.29 216.849 2020.84 213.168 Q2017.39 209.488 2017.39 203.238 Q2017.39 196.895 2020.86 193.261 Q2024.36 189.627 2030.42 189.627 Q2032.39 189.627 2034.26 190.043 Q2036.14 190.437 2037.9 191.247 Z" fill="#000000" fill-rule="nonzero" fill-opacity="1" /><path clip-path="url(#clip790)" d="M2049.52 182.891 L2049.52 190.252 L2058.29 190.252 L2058.29 193.562 L2049.52 193.562 L2049.52 207.636 Q2049.52 210.807 2050.37 211.71 Q2051.25 212.613 2053.92 212.613 L2058.29 212.613 L2058.29 216.178 L2053.92 216.178 Q2048.99 216.178 2047.11 214.349 Q2045.24 212.497 2045.24 207.636 L2045.24 193.562 L2042.11 193.562 L2042.11 190.252 L2045.24 190.252 L2045.24 182.891 L2049.52 182.891 Z" fill="#000000" fill-rule="nonzero" fill-opacity="1" /><path clip-path="url(#clip790)" d="M2063.89 190.252 L2068.15 190.252 L2068.15 216.178 L2063.89 216.178 L2063.89 190.252 M2063.89 180.159 L2068.15 180.159 L2068.15 185.553 L2063.89 185.553 L2063.89 180.159 Z" fill="#000000" fill-rule="nonzero" fill-opacity="1" /><path clip-path="url(#clip790)" d="M2087.11 193.238 Q2083.68 193.238 2081.69 195.923 Q2079.7 198.585 2079.7 203.238 Q2079.7 207.891 2081.67 210.576 Q2083.66 213.238 2087.11 213.238 Q2090.51 213.238 2092.5 210.553 Q2094.49 207.867 2094.49 203.238 Q2094.49 198.631 2092.5 195.946 Q2090.51 193.238 2087.11 193.238 M2087.11 189.627 Q2092.67 189.627 2095.84 193.238 Q2099.01 196.849 2099.01 203.238 Q2099.01 209.604 2095.84 213.238 Q2092.67 216.849 2087.11 216.849 Q2081.53 216.849 2078.36 213.238 Q2075.21 209.604 2075.21 203.238 Q2075.21 196.849 2078.36 193.238 Q2081.53 189.627 2087.11 189.627 Z" fill="#000000" fill-rule="nonzero" fill-opacity="1" /><path clip-path="url(#clip790)" d="M2127.62 200.529 L2127.62 216.178 L2123.36 216.178 L2123.36 200.668 Q2123.36 196.988 2121.92 195.159 Q2120.49 193.33 2117.62 193.33 Q2114.17 193.33 2112.18 195.53 Q2110.19 197.729 2110.19 201.525 L2110.19 216.178 L2105.91 216.178 L2105.91 190.252 L2110.19 190.252 L2110.19 194.28 Q2111.72 191.942 2113.78 190.784 Q2115.86 189.627 2118.57 189.627 Q2123.04 189.627 2125.33 192.405 Q2127.62 195.159 2127.62 200.529 Z" fill="#000000" fill-rule="nonzero" fill-opacity="1" /><polyline clip-path="url(#clip790)" style="stroke:#3da44d; stroke-linecap:round; stroke-linejoin:round; stroke-width:4; stroke-opacity:1; fill:none" points="1654.18,250.738 1798.1,250.738 "/>
<path clip-path="url(#clip790)" d="M1844.33 234.592 L1844.33 239.152 Q1841.67 237.879 1839.31 237.254 Q1836.95 236.629 1834.75 236.629 Q1830.93 236.629 1828.85 238.11 Q1826.79 239.592 1826.79 242.323 Q1826.79 244.615 1828.15 245.795 Q1829.54 246.953 1833.38 247.67 L1836.21 248.249 Q1841.44 249.245 1843.92 251.768 Q1846.42 254.268 1846.42 258.481 Q1846.42 263.504 1843.04 266.096 Q1839.68 268.689 1833.18 268.689 Q1830.72 268.689 1827.94 268.133 Q1825.19 267.578 1822.23 266.49 L1822.23 261.675 Q1825.07 263.272 1827.81 264.082 Q1830.54 264.893 1833.18 264.893 Q1837.18 264.893 1839.36 263.319 Q1841.53 261.744 1841.53 258.828 Q1841.53 256.282 1839.96 254.846 Q1838.41 253.411 1834.84 252.694 L1832 252.138 Q1826.76 251.096 1824.43 248.874 Q1822.09 246.652 1822.09 242.694 Q1822.09 238.11 1825.31 235.471 Q1828.55 232.833 1834.22 232.833 Q1836.65 232.833 1839.17 233.272 Q1841.69 233.712 1844.33 234.592 Z" fill="#000000" fill-rule="nonzero" fill-opacity="1" /><path clip-path="url(#clip790)" d="M1853.08 257.786 L1853.08 242.092 L1857.34 242.092 L1857.34 257.624 Q1857.34 261.305 1858.78 263.156 Q1860.21 264.985 1863.08 264.985 Q1866.53 264.985 1868.52 262.786 Q1870.54 260.587 1870.54 256.791 L1870.54 242.092 L1874.8 242.092 L1874.8 268.018 L1870.54 268.018 L1870.54 264.036 Q1868.99 266.397 1866.93 267.555 Q1864.89 268.689 1862.18 268.689 Q1857.71 268.689 1855.4 265.911 Q1853.08 263.133 1853.08 257.786 M1863.8 241.467 L1863.8 241.467 Z" fill="#000000" fill-rule="nonzero" fill-opacity="1" /><path clip-path="url(#clip790)" d="M1898.59 246.073 Q1897.88 245.657 1897.02 245.471 Q1896.19 245.263 1895.17 245.263 Q1891.56 245.263 1889.61 247.624 Q1887.69 249.962 1887.69 254.36 L1887.69 268.018 L1883.41 268.018 L1883.41 242.092 L1887.69 242.092 L1887.69 246.12 Q1889.03 243.758 1891.19 242.624 Q1893.34 241.467 1896.42 241.467 Q1896.86 241.467 1897.39 241.536 Q1897.92 241.583 1898.57 241.698 L1898.59 246.073 Z" fill="#000000" fill-rule="nonzero" fill-opacity="1" /><path clip-path="url(#clip790)" d="M1917.25 246.073 Q1916.53 245.657 1915.68 245.471 Q1914.84 245.263 1913.82 245.263 Q1910.21 245.263 1908.27 247.624 Q1906.35 249.962 1906.35 254.36 L1906.35 268.018 L1902.06 268.018 L1902.06 242.092 L1906.35 242.092 L1906.35 246.12 Q1907.69 243.758 1909.84 242.624 Q1912 241.467 1915.07 241.467 Q1915.51 241.467 1916.05 241.536 Q1916.58 241.583 1917.23 241.698 L1917.25 246.073 Z" fill="#000000" fill-rule="nonzero" fill-opacity="1" /><path clip-path="url(#clip790)" d="M1930.72 245.078 Q1927.3 245.078 1925.31 247.763 Q1923.31 250.425 1923.31 255.078 Q1923.31 259.731 1925.28 262.416 Q1927.27 265.078 1930.72 265.078 Q1934.12 265.078 1936.12 262.393 Q1938.11 259.707 1938.11 255.078 Q1938.11 250.471 1936.12 247.786 Q1934.12 245.078 1930.72 245.078 M1930.72 241.467 Q1936.28 241.467 1939.45 245.078 Q1942.62 248.689 1942.62 255.078 Q1942.62 261.444 1939.45 265.078 Q1936.28 268.689 1930.72 268.689 Q1925.14 268.689 1921.97 265.078 Q1918.82 261.444 1918.82 255.078 Q1918.82 248.689 1921.97 245.078 Q1925.14 241.467 1930.72 241.467 Z" fill="#000000" fill-rule="nonzero" fill-opacity="1" /><path clip-path="url(#clip790)" d="M1966.74 254.754 Q1966.74 250.124 1964.82 247.578 Q1962.92 245.032 1959.47 245.032 Q1956.05 245.032 1954.12 247.578 Q1952.23 250.124 1952.23 254.754 Q1952.23 259.36 1954.12 261.906 Q1956.05 264.453 1959.47 264.453 Q1962.92 264.453 1964.82 261.906 Q1966.74 259.36 1966.74 254.754 M1971 264.8 Q1971 271.42 1968.06 274.638 Q1965.12 277.879 1959.06 277.879 Q1956.81 277.879 1954.82 277.531 Q1952.83 277.207 1950.95 276.513 L1950.95 272.369 Q1952.83 273.388 1954.66 273.874 Q1956.49 274.36 1958.38 274.36 Q1962.57 274.36 1964.66 272.161 Q1966.74 269.985 1966.74 265.564 L1966.74 263.457 Q1965.42 265.749 1963.36 266.883 Q1961.3 268.018 1958.43 268.018 Q1953.66 268.018 1950.75 264.383 Q1947.83 260.749 1947.83 254.754 Q1947.83 248.735 1950.75 245.101 Q1953.66 241.467 1958.43 241.467 Q1961.3 241.467 1963.36 242.601 Q1965.42 243.735 1966.74 246.027 L1966.74 242.092 L1971 242.092 L1971 264.8 Z" fill="#000000" fill-rule="nonzero" fill-opacity="1" /><path clip-path="url(#clip790)" d="M1991.56 254.985 Q1986.39 254.985 1984.4 256.166 Q1982.41 257.346 1982.41 260.194 Q1982.41 262.462 1983.89 263.805 Q1985.4 265.124 1987.97 265.124 Q1991.51 265.124 1993.64 262.624 Q1995.79 260.101 1995.79 255.934 L1995.79 254.985 L1991.56 254.985 M2000.05 253.226 L2000.05 268.018 L1995.79 268.018 L1995.79 264.082 Q1994.33 266.443 1992.16 267.578 Q1989.98 268.689 1986.83 268.689 Q1982.85 268.689 1980.49 266.467 Q1978.15 264.221 1978.15 260.471 Q1978.15 256.096 1981.07 253.874 Q1984.01 251.652 1989.82 251.652 L1995.79 251.652 L1995.79 251.235 Q1995.79 248.295 1993.85 246.698 Q1991.93 245.078 1988.43 245.078 Q1986.21 245.078 1984.1 245.61 Q1982 246.143 1980.05 247.207 L1980.05 243.272 Q1982.39 242.37 1984.59 241.93 Q1986.79 241.467 1988.87 241.467 Q1994.49 241.467 1997.27 244.383 Q2000.05 247.3 2000.05 253.226 Z" fill="#000000" fill-rule="nonzero" fill-opacity="1" /><path clip-path="url(#clip790)" d="M2013.04 234.731 L2013.04 242.092 L2021.81 242.092 L2021.81 245.402 L2013.04 245.402 L2013.04 259.476 Q2013.04 262.647 2013.89 263.55 Q2014.77 264.453 2017.43 264.453 L2021.81 264.453 L2021.81 268.018 L2017.43 268.018 Q2012.5 268.018 2010.63 266.189 Q2008.75 264.337 2008.75 259.476 L2008.75 245.402 L2005.63 245.402 L2005.63 242.092 L2008.75 242.092 L2008.75 234.731 L2013.04 234.731 Z" fill="#000000" fill-rule="nonzero" fill-opacity="1" /><path clip-path="url(#clip790)" d="M2049.59 253.99 L2049.59 256.073 L2030 256.073 Q2030.28 260.471 2032.64 262.786 Q2035.03 265.078 2039.26 265.078 Q2041.72 265.078 2044.01 264.476 Q2046.32 263.874 2048.59 262.67 L2048.59 266.698 Q2046.3 267.67 2043.89 268.18 Q2041.49 268.689 2039.01 268.689 Q2032.8 268.689 2029.17 265.078 Q2025.56 261.467 2025.56 255.309 Q2025.56 248.944 2028.99 245.217 Q2032.43 241.467 2038.27 241.467 Q2043.5 241.467 2046.53 244.846 Q2049.59 248.203 2049.59 253.99 M2045.33 252.74 Q2045.28 249.245 2043.36 247.161 Q2041.46 245.078 2038.31 245.078 Q2034.75 245.078 2032.6 247.092 Q2030.47 249.106 2030.14 252.763 L2045.33 252.74 Z" fill="#000000" fill-rule="nonzero" fill-opacity="1" /><path clip-path="url(#clip790)" d="M2084.77 231.999 L2084.77 235.541 L2080.7 235.541 Q2078.41 235.541 2077.5 236.467 Q2076.62 237.393 2076.62 239.8 L2076.62 242.092 L2083.64 242.092 L2083.64 245.402 L2076.62 245.402 L2076.62 268.018 L2072.34 268.018 L2072.34 245.402 L2068.27 245.402 L2068.27 242.092 L2072.34 242.092 L2072.34 240.286 Q2072.34 235.958 2074.36 233.99 Q2076.37 231.999 2080.74 231.999 L2084.77 231.999 Z" fill="#000000" fill-rule="nonzero" fill-opacity="1" /><path clip-path="url(#clip790)" d="M2087.9 257.786 L2087.9 242.092 L2092.16 242.092 L2092.16 257.624 Q2092.16 261.305 2093.59 263.156 Q2095.03 264.985 2097.9 264.985 Q2101.35 264.985 2103.34 262.786 Q2105.35 260.587 2105.35 256.791 L2105.35 242.092 L2109.61 242.092 L2109.61 268.018 L2105.35 268.018 L2105.35 264.036 Q2103.8 266.397 2101.74 267.555 Q2099.7 268.689 2096.99 268.689 Q2092.53 268.689 2090.21 265.911 Q2087.9 263.133 2087.9 257.786 M2098.61 241.467 L2098.61 241.467 Z" fill="#000000" fill-rule="nonzero" fill-opacity="1" /><path clip-path="url(#clip790)" d="M2139.93 252.369 L2139.93 268.018 L2135.67 268.018 L2135.67 252.508 Q2135.67 248.828 2134.24 246.999 Q2132.8 245.17 2129.93 245.17 Q2126.48 245.17 2124.49 247.37 Q2122.5 249.569 2122.5 253.365 L2122.5 268.018 L2118.22 268.018 L2118.22 242.092 L2122.5 242.092 L2122.5 246.12 Q2124.03 243.782 2126.09 242.624 Q2128.17 241.467 2130.88 241.467 Q2135.35 241.467 2137.64 244.245 Q2139.93 246.999 2139.93 252.369 Z" fill="#000000" fill-rule="nonzero" fill-opacity="1" /><path clip-path="url(#clip790)" d="M2167.09 243.087 L2167.09 247.069 Q2165.28 246.073 2163.45 245.587 Q2161.65 245.078 2159.79 245.078 Q2155.65 245.078 2153.36 247.717 Q2151.07 250.332 2151.07 255.078 Q2151.07 259.823 2153.36 262.462 Q2155.65 265.078 2159.79 265.078 Q2161.65 265.078 2163.45 264.592 Q2165.28 264.082 2167.09 263.087 L2167.09 267.022 Q2165.3 267.856 2163.38 268.272 Q2161.48 268.689 2159.33 268.689 Q2153.48 268.689 2150.03 265.008 Q2146.58 261.328 2146.58 255.078 Q2146.58 248.735 2150.05 245.101 Q2153.55 241.467 2159.61 241.467 Q2161.58 241.467 2163.45 241.883 Q2165.33 242.277 2167.09 243.087 Z" fill="#000000" fill-rule="nonzero" fill-opacity="1" /><path clip-path="url(#clip790)" d="M2178.71 234.731 L2178.71 242.092 L2187.48 242.092 L2187.48 245.402 L2178.71 245.402 L2178.71 259.476 Q2178.71 262.647 2179.56 263.55 Q2180.44 264.453 2183.11 264.453 L2187.48 264.453 L2187.48 268.018 L2183.11 268.018 Q2178.17 268.018 2176.3 266.189 Q2174.42 264.337 2174.42 259.476 L2174.42 245.402 L2171.3 245.402 L2171.3 242.092 L2174.42 242.092 L2174.42 234.731 L2178.71 234.731 Z" fill="#000000" fill-rule="nonzero" fill-opacity="1" /><path clip-path="url(#clip790)" d="M2193.08 242.092 L2197.34 242.092 L2197.34 268.018 L2193.08 268.018 L2193.08 242.092 M2193.08 231.999 L2197.34 231.999 L2197.34 237.393 L2193.08 237.393 L2193.08 231.999 Z" fill="#000000" fill-rule="nonzero" fill-opacity="1" /><path clip-path="url(#clip790)" d="M2216.3 245.078 Q2212.87 245.078 2210.88 247.763 Q2208.89 250.425 2208.89 255.078 Q2208.89 259.731 2210.86 262.416 Q2212.85 265.078 2216.3 265.078 Q2219.7 265.078 2221.69 262.393 Q2223.68 259.707 2223.68 255.078 Q2223.68 250.471 2221.69 247.786 Q2219.7 245.078 2216.3 245.078 M2216.3 241.467 Q2221.85 241.467 2225.03 245.078 Q2228.2 248.689 2228.2 255.078 Q2228.2 261.444 2225.03 265.078 Q2221.85 268.689 2216.3 268.689 Q2210.72 268.689 2207.55 265.078 Q2204.4 261.444 2204.4 255.078 Q2204.4 248.689 2207.55 245.078 Q2210.72 241.467 2216.3 241.467 Z" fill="#000000" fill-rule="nonzero" fill-opacity="1" /><path clip-path="url(#clip790)" d="M2256.81 252.369 L2256.81 268.018 L2252.55 268.018 L2252.55 252.508 Q2252.55 248.828 2251.11 246.999 Q2249.68 245.17 2246.81 245.17 Q2243.36 245.17 2241.37 247.37 Q2239.38 249.569 2239.38 253.365 L2239.38 268.018 L2235.1 268.018 L2235.1 242.092 L2239.38 242.092 L2239.38 246.12 Q2240.91 243.782 2242.97 242.624 Q2245.05 241.467 2247.76 241.467 Q2252.23 241.467 2254.52 244.245 Q2256.81 246.999 2256.81 252.369 Z" fill="#000000" fill-rule="nonzero" fill-opacity="1" /></svg>
