<?xml version="1.0" encoding="utf-8"?>
<svg xmlns="http://www.w3.org/2000/svg" xmlns:xlink="http://www.w3.org/1999/xlink" width="600" height="400" viewBox="0 0 2400 1600">
<defs>
  <clipPath id="clip290">
    <rect x="0" y="0" width="2400" height="1600"/>
  </clipPath>
</defs>
<path clip-path="url(#clip290)" d="M0 1600 L2400 1600 L2400 0 L0 0  Z" fill="#ffffff" fill-rule="evenodd" fill-opacity="1"/>
<defs>
  <clipPath id="clip291">
    <rect x="480" y="0" width="1681" height="1600"/>
  </clipPath>
</defs>
<path clip-path="url(#clip290)" d="M257.204 1423.18 L2352.76 1423.18 L2352.76 47.2441 L257.204 47.2441  Z" fill="#ffffff" fill-rule="evenodd" fill-opacity="1"/>
<defs>
  <clipPath id="clip292">
    <rect x="257" y="47" width="2097" height="1377"/>
  </clipPath>
</defs>
<polyline clip-path="url(#clip292)" style="stroke:#000000; stroke-linecap:round; stroke-linejoin:round; stroke-width:2; stroke-opacity:0.1; fill:none" points="388.176,1423.18 388.176,47.2441 "/>
<polyline clip-path="url(#clip292)" style="stroke:#000000; stroke-linecap:round; stroke-linejoin:round; stroke-width:2; stroke-opacity:0.1; fill:none" points="824.749,1423.18 824.749,47.2441 "/>
<polyline clip-path="url(#clip292)" style="stroke:#000000; stroke-linecap:round; stroke-linejoin:round; stroke-width:2; stroke-opacity:0.1; fill:none" points="1261.32,1423.18 1261.32,47.2441 "/>
<polyline clip-path="url(#clip292)" style="stroke:#000000; stroke-linecap:round; stroke-linejoin:round; stroke-width:2; stroke-opacity:0.1; fill:none" points="1697.9,1423.18 1697.9,47.2441 "/>
<polyline clip-path="url(#clip292)" style="stroke:#000000; stroke-linecap:round; stroke-linejoin:round; stroke-width:2; stroke-opacity:0.1; fill:none" points="2134.47,1423.18 2134.47,47.2441 "/>
<polyline clip-path="url(#clip292)" style="stroke:#000000; stroke-linecap:round; stroke-linejoin:round; stroke-width:2; stroke-opacity:0.1; fill:none" points="257.204,1198.16 2352.76,1198.16 "/>
<polyline clip-path="url(#clip292)" style="stroke:#000000; stroke-linecap:round; stroke-linejoin:round; stroke-width:2; stroke-opacity:0.1; fill:none" points="257.204,965.325 2352.76,965.325 "/>
<polyline clip-path="url(#clip292)" style="stroke:#000000; stroke-linecap:round; stroke-linejoin:round; stroke-width:2; stroke-opacity:0.1; fill:none" points="257.204,732.488 2352.76,732.488 "/>
<polyline clip-path="url(#clip292)" style="stroke:#000000; stroke-linecap:round; stroke-linejoin:round; stroke-width:2; stroke-opacity:0.1; fill:none" points="257.204,499.652 2352.76,499.652 "/>
<polyline clip-path="url(#clip292)" style="stroke:#000000; stroke-linecap:round; stroke-linejoin:round; stroke-width:2; stroke-opacity:0.1; fill:none" points="257.204,266.816 2352.76,266.816 "/>
<polyline clip-path="url(#clip290)" style="stroke:#000000; stroke-linecap:round; stroke-linejoin:round; stroke-width:4; stroke-opacity:1; fill:none" points="257.204,1423.18 2352.76,1423.18 "/>
<polyline clip-path="url(#clip290)" style="stroke:#000000; stroke-linecap:round; stroke-linejoin:round; stroke-width:4; stroke-opacity:1; fill:none" points="388.176,1423.18 388.176,1404.28 "/>
<polyline clip-path="url(#clip290)" style="stroke:#000000; stroke-linecap:round; stroke-linejoin:round; stroke-width:4; stroke-opacity:1; fill:none" points="824.749,1423.18 824.749,1404.28 "/>
<polyline clip-path="url(#clip290)" style="stroke:#000000; stroke-linecap:round; stroke-linejoin:round; stroke-width:4; stroke-opacity:1; fill:none" points="1261.32,1423.18 1261.32,1404.28 "/>
<polyline clip-path="url(#clip290)" style="stroke:#000000; stroke-linecap:round; stroke-linejoin:round; stroke-width:4; stroke-opacity:1; fill:none" points="1697.9,1423.18 1697.9,1404.28 "/>
<polyline clip-path="url(#clip290)" style="stroke:#000000; stroke-linecap:round; stroke-linejoin:round; stroke-width:4; stroke-opacity:1; fill:none" points="2134.47,1423.18 2134.47,1404.28 "/>
<path clip-path="url(#clip290)" d="M392.424 1466.95 Q395.78 1467.66 397.655 1469.93 Q399.553 1472.2 399.553 1475.53 Q399.553 1480.65 396.035 1483.45 Q392.516 1486.25 386.035 1486.25 Q383.859 1486.25 381.544 1485.81 Q379.252 1485.39 376.799 1484.54 L376.799 1480.02 Q378.743 1481.16 381.058 1481.74 Q383.373 1482.32 385.896 1482.32 Q390.294 1482.32 392.586 1480.58 Q394.901 1478.84 394.901 1475.53 Q394.901 1472.48 392.748 1470.77 Q390.618 1469.03 386.799 1469.03 L382.771 1469.03 L382.771 1465.19 L386.984 1465.19 Q390.433 1465.19 392.262 1463.82 Q394.09 1462.43 394.09 1459.84 Q394.09 1457.18 392.192 1455.77 Q390.317 1454.33 386.799 1454.33 Q384.877 1454.33 382.678 1454.75 Q380.479 1455.16 377.84 1456.04 L377.84 1451.88 Q380.502 1451.14 382.817 1450.77 Q385.155 1450.39 387.215 1450.39 Q392.539 1450.39 395.641 1452.83 Q398.743 1455.23 398.743 1459.35 Q398.743 1462.22 397.1 1464.21 Q395.456 1466.18 392.424 1466.95 Z" fill="#000000" fill-rule="nonzero" fill-opacity="1" /><path clip-path="url(#clip290)" d="M827.759 1455.09 L815.953 1473.54 L827.759 1473.54 L827.759 1455.09 M826.532 1451.02 L832.411 1451.02 L832.411 1473.54 L837.342 1473.54 L837.342 1477.43 L832.411 1477.43 L832.411 1485.58 L827.759 1485.58 L827.759 1477.43 L812.157 1477.43 L812.157 1472.92 L826.532 1451.02 Z" fill="#000000" fill-rule="nonzero" fill-opacity="1" /><path clip-path="url(#clip290)" d="M1251.6 1451.02 L1269.96 1451.02 L1269.96 1454.96 L1255.88 1454.96 L1255.88 1463.43 Q1256.9 1463.08 1257.92 1462.92 Q1258.94 1462.73 1259.96 1462.73 Q1265.74 1462.73 1269.12 1465.9 Q1272.5 1469.08 1272.5 1474.49 Q1272.5 1480.07 1269.03 1483.17 Q1265.56 1486.25 1259.24 1486.25 Q1257.06 1486.25 1254.79 1485.88 Q1252.55 1485.51 1250.14 1484.77 L1250.14 1480.07 Q1252.23 1481.2 1254.45 1481.76 Q1256.67 1482.32 1259.15 1482.32 Q1263.15 1482.32 1265.49 1480.21 Q1267.83 1478.1 1267.83 1474.49 Q1267.83 1470.88 1265.49 1468.77 Q1263.15 1466.67 1259.15 1466.67 Q1257.27 1466.67 1255.4 1467.08 Q1253.54 1467.5 1251.6 1468.38 L1251.6 1451.02 Z" fill="#000000" fill-rule="nonzero" fill-opacity="1" /><path clip-path="url(#clip290)" d="M1698.3 1466.44 Q1695.15 1466.44 1693.3 1468.59 Q1691.47 1470.74 1691.47 1474.49 Q1691.47 1478.22 1693.3 1480.39 Q1695.15 1482.55 1698.3 1482.55 Q1701.45 1482.55 1703.28 1480.39 Q1705.13 1478.22 1705.13 1474.49 Q1705.13 1470.74 1703.28 1468.59 Q1701.45 1466.44 1698.3 1466.44 M1707.58 1451.78 L1707.58 1456.04 Q1705.82 1455.21 1704.02 1454.77 Q1702.24 1454.33 1700.48 1454.33 Q1695.85 1454.33 1693.39 1457.45 Q1690.96 1460.58 1690.62 1466.9 Q1691.98 1464.89 1694.04 1463.82 Q1696.1 1462.73 1698.58 1462.73 Q1703.79 1462.73 1706.8 1465.9 Q1709.83 1469.05 1709.83 1474.49 Q1709.83 1479.82 1706.68 1483.03 Q1703.53 1486.25 1698.3 1486.25 Q1692.31 1486.25 1689.13 1481.67 Q1685.96 1477.06 1685.96 1468.33 Q1685.96 1460.14 1689.85 1455.28 Q1693.74 1450.39 1700.29 1450.39 Q1702.05 1450.39 1703.83 1450.74 Q1705.64 1451.09 1707.58 1451.78 Z" fill="#000000" fill-rule="nonzero" fill-opacity="1" /><path clip-path="url(#clip290)" d="M2123.36 1451.02 L2145.58 1451.02 L2145.58 1453.01 L2133.03 1485.58 L2128.15 1485.58 L2139.96 1454.96 L2123.36 1454.96 L2123.36 1451.02 Z" fill="#000000" fill-rule="nonzero" fill-opacity="1" /><path clip-path="url(#clip290)" d="M1321.59 1532.4 L1308.7 1549.74 L1322.26 1568.04 L1315.36 1568.04 L1304.98 1554.04 L1294.6 1568.04 L1287.7 1568.04 L1301.54 1549.39 L1288.87 1532.4 L1295.78 1532.4 L1305.23 1545.1 L1314.69 1532.4 L1321.59 1532.4 Z" fill="#000000" fill-rule="nonzero" fill-opacity="1" /><polyline clip-path="url(#clip290)" style="stroke:#000000; stroke-linecap:round; stroke-linejoin:round; stroke-width:4; stroke-opacity:1; fill:none" points="257.204,1423.18 257.204,47.2441 "/>
<polyline clip-path="url(#clip290)" style="stroke:#000000; stroke-linecap:round; stroke-linejoin:round; stroke-width:4; stroke-opacity:1; fill:none" points="257.204,1198.16 276.102,1198.16 "/>
<polyline clip-path="url(#clip290)" style="stroke:#000000; stroke-linecap:round; stroke-linejoin:round; stroke-width:4; stroke-opacity:1; fill:none" points="257.204,965.325 276.102,965.325 "/>
<polyline clip-path="url(#clip290)" style="stroke:#000000; stroke-linecap:round; stroke-linejoin:round; stroke-width:4; stroke-opacity:1; fill:none" points="257.204,732.488 276.102,732.488 "/>
<polyline clip-path="url(#clip290)" style="stroke:#000000; stroke-linecap:round; stroke-linejoin:round; stroke-width:4; stroke-opacity:1; fill:none" points="257.204,499.652 276.102,499.652 "/>
<polyline clip-path="url(#clip290)" style="stroke:#000000; stroke-linecap:round; stroke-linejoin:round; stroke-width:4; stroke-opacity:1; fill:none" points="257.204,266.816 276.102,266.816 "/>
<path clip-path="url(#clip290)" d="M115.256 1198.61 L144.931 1198.61 L144.931 1202.55 L115.256 1202.55 L115.256 1198.61 Z" fill="#000000" fill-rule="nonzero" fill-opacity="1" /><path clip-path="url(#clip290)" d="M155.834 1211.51 L163.473 1211.51 L163.473 1185.14 L155.163 1186.81 L155.163 1182.55 L163.427 1180.88 L168.102 1180.88 L168.102 1211.51 L175.741 1211.51 L175.741 1215.44 L155.834 1215.44 L155.834 1211.51 Z" fill="#000000" fill-rule="nonzero" fill-opacity="1" /><path clip-path="url(#clip290)" d="M185.186 1209.56 L190.07 1209.56 L190.07 1215.44 L185.186 1215.44 L185.186 1209.56 Z" fill="#000000" fill-rule="nonzero" fill-opacity="1" /><path clip-path="url(#clip290)" d="M200.301 1180.88 L218.658 1180.88 L218.658 1184.82 L204.584 1184.82 L204.584 1193.29 Q205.602 1192.94 206.621 1192.78 Q207.639 1192.59 208.658 1192.59 Q214.445 1192.59 217.824 1195.76 Q221.204 1198.94 221.204 1204.35 Q221.204 1209.93 217.732 1213.03 Q214.26 1216.11 207.94 1216.11 Q205.764 1216.11 203.496 1215.74 Q201.25 1215.37 198.843 1214.63 L198.843 1209.93 Q200.926 1211.07 203.149 1211.62 Q205.371 1212.18 207.848 1212.18 Q211.852 1212.18 214.19 1210.07 Q216.528 1207.96 216.528 1204.35 Q216.528 1200.74 214.19 1198.64 Q211.852 1196.53 207.848 1196.53 Q205.973 1196.53 204.098 1196.95 Q202.246 1197.36 200.301 1198.24 L200.301 1180.88 Z" fill="#000000" fill-rule="nonzero" fill-opacity="1" /><path clip-path="url(#clip290)" d="M114.26 965.776 L143.936 965.776 L143.936 969.711 L114.26 969.711 L114.26 965.776 Z" fill="#000000" fill-rule="nonzero" fill-opacity="1" /><path clip-path="url(#clip290)" d="M154.839 978.669 L162.477 978.669 L162.477 952.304 L154.167 953.97 L154.167 949.711 L162.431 948.045 L167.107 948.045 L167.107 978.669 L174.746 978.669 L174.746 982.605 L154.839 982.605 L154.839 978.669 Z" fill="#000000" fill-rule="nonzero" fill-opacity="1" /><path clip-path="url(#clip290)" d="M184.19 976.725 L189.075 976.725 L189.075 982.605 L184.19 982.605 L184.19 976.725 Z" fill="#000000" fill-rule="nonzero" fill-opacity="1" /><path clip-path="url(#clip290)" d="M209.26 951.123 Q205.649 951.123 203.82 954.688 Q202.014 958.23 202.014 965.359 Q202.014 972.466 203.82 976.03 Q205.649 979.572 209.26 979.572 Q212.894 979.572 214.699 976.03 Q216.528 972.466 216.528 965.359 Q216.528 958.23 214.699 954.688 Q212.894 951.123 209.26 951.123 M209.26 947.42 Q215.07 947.42 218.125 952.026 Q221.204 956.609 221.204 965.359 Q221.204 974.086 218.125 978.692 Q215.07 983.276 209.26 983.276 Q203.449 983.276 200.371 978.692 Q197.315 974.086 197.315 965.359 Q197.315 956.609 200.371 952.026 Q203.449 947.42 209.26 947.42 Z" fill="#000000" fill-rule="nonzero" fill-opacity="1" /><path clip-path="url(#clip290)" d="M115.256 732.94 L144.931 732.94 L144.931 736.875 L115.256 736.875 L115.256 732.94 Z" fill="#000000" fill-rule="nonzero" fill-opacity="1" /><path clip-path="url(#clip290)" d="M165.024 718.287 Q161.413 718.287 159.584 721.852 Q157.778 725.394 157.778 732.523 Q157.778 739.63 159.584 743.194 Q161.413 746.736 165.024 746.736 Q168.658 746.736 170.464 743.194 Q172.292 739.63 172.292 732.523 Q172.292 725.394 170.464 721.852 Q168.658 718.287 165.024 718.287 M165.024 714.583 Q170.834 714.583 173.889 719.19 Q176.968 723.773 176.968 732.523 Q176.968 741.25 173.889 745.856 Q170.834 750.44 165.024 750.44 Q159.214 750.44 156.135 745.856 Q153.079 741.25 153.079 732.523 Q153.079 723.773 156.135 719.19 Q159.214 714.583 165.024 714.583 Z" fill="#000000" fill-rule="nonzero" fill-opacity="1" /><path clip-path="url(#clip290)" d="M185.186 743.889 L190.07 743.889 L190.07 749.768 L185.186 749.768 L185.186 743.889 Z" fill="#000000" fill-rule="nonzero" fill-opacity="1" /><path clip-path="url(#clip290)" d="M200.301 715.208 L218.658 715.208 L218.658 719.144 L204.584 719.144 L204.584 727.616 Q205.602 727.269 206.621 727.107 Q207.639 726.921 208.658 726.921 Q214.445 726.921 217.824 730.093 Q221.204 733.264 221.204 738.681 Q221.204 744.259 217.732 747.361 Q214.26 750.44 207.94 750.44 Q205.764 750.44 203.496 750.069 Q201.25 749.699 198.843 748.958 L198.843 744.259 Q200.926 745.393 203.149 745.949 Q205.371 746.505 207.848 746.505 Q211.852 746.505 214.19 744.398 Q216.528 742.292 216.528 738.681 Q216.528 735.069 214.19 732.963 Q211.852 730.857 207.848 730.857 Q205.973 730.857 204.098 731.273 Q202.246 731.69 200.301 732.569 L200.301 715.208 Z" fill="#000000" fill-rule="nonzero" fill-opacity="1" /><path clip-path="url(#clip290)" d="M164.028 485.451 Q160.417 485.451 158.589 489.016 Q156.783 492.558 156.783 499.687 Q156.783 506.794 158.589 510.358 Q160.417 513.9 164.028 513.9 Q167.663 513.9 169.468 510.358 Q171.297 506.794 171.297 499.687 Q171.297 492.558 169.468 489.016 Q167.663 485.451 164.028 485.451 M164.028 481.747 Q169.839 481.747 172.894 486.354 Q175.973 490.937 175.973 499.687 Q175.973 508.414 172.894 513.02 Q169.839 517.604 164.028 517.604 Q158.218 517.604 155.14 513.02 Q152.084 508.414 152.084 499.687 Q152.084 490.937 155.14 486.354 Q158.218 481.747 164.028 481.747 Z" fill="#000000" fill-rule="nonzero" fill-opacity="1" /><path clip-path="url(#clip290)" d="M184.19 511.053 L189.075 511.053 L189.075 516.932 L184.19 516.932 L184.19 511.053 Z" fill="#000000" fill-rule="nonzero" fill-opacity="1" /><path clip-path="url(#clip290)" d="M209.26 485.451 Q205.649 485.451 203.82 489.016 Q202.014 492.558 202.014 499.687 Q202.014 506.794 203.82 510.358 Q205.649 513.9 209.26 513.9 Q212.894 513.9 214.699 510.358 Q216.528 506.794 216.528 499.687 Q216.528 492.558 214.699 489.016 Q212.894 485.451 209.26 485.451 M209.26 481.747 Q215.07 481.747 218.125 486.354 Q221.204 490.937 221.204 499.687 Q221.204 508.414 218.125 513.02 Q215.07 517.604 209.26 517.604 Q203.449 517.604 200.371 513.02 Q197.315 508.414 197.315 499.687 Q197.315 490.937 200.371 486.354 Q203.449 481.747 209.26 481.747 Z" fill="#000000" fill-rule="nonzero" fill-opacity="1" /><path clip-path="url(#clip290)" d="M165.024 252.615 Q161.413 252.615 159.584 256.18 Q157.778 259.721 157.778 266.851 Q157.778 273.957 159.584 277.522 Q161.413 281.064 165.024 281.064 Q168.658 281.064 170.464 277.522 Q172.292 273.957 172.292 266.851 Q172.292 259.721 170.464 256.18 Q168.658 252.615 165.024 252.615 M165.024 248.911 Q170.834 248.911 173.889 253.518 Q176.968 258.101 176.968 266.851 Q176.968 275.578 173.889 280.184 Q170.834 284.768 165.024 284.768 Q159.214 284.768 156.135 280.184 Q153.079 275.578 153.079 266.851 Q153.079 258.101 156.135 253.518 Q159.214 248.911 165.024 248.911 Z" fill="#000000" fill-rule="nonzero" fill-opacity="1" /><path clip-path="url(#clip290)" d="M185.186 278.217 L190.07 278.217 L190.07 284.096 L185.186 284.096 L185.186 278.217 Z" fill="#000000" fill-rule="nonzero" fill-opacity="1" /><path clip-path="url(#clip290)" d="M200.301 249.536 L218.658 249.536 L218.658 253.471 L204.584 253.471 L204.584 261.944 Q205.602 261.596 206.621 261.434 Q207.639 261.249 208.658 261.249 Q214.445 261.249 217.824 264.421 Q221.204 267.592 221.204 273.008 Q221.204 278.587 217.732 281.689 Q214.26 284.768 207.94 284.768 Q205.764 284.768 203.496 284.397 Q201.25 284.027 198.843 283.286 L198.843 278.587 Q200.926 279.721 203.149 280.277 Q205.371 280.832 207.848 280.832 Q211.852 280.832 214.19 278.726 Q216.528 276.62 216.528 273.008 Q216.528 269.397 214.19 267.291 Q211.852 265.184 207.848 265.184 Q205.973 265.184 204.098 265.601 Q202.246 266.018 200.301 266.897 L200.301 249.536 Z" fill="#000000" fill-rule="nonzero" fill-opacity="1" /><path clip-path="url(#clip290)" d="M67.3143 733.525 Q73.68 736.008 75.6216 738.363 Q77.5631 740.718 77.5631 744.665 L77.5631 749.344 L72.6615 749.344 L72.6615 745.906 Q72.6615 743.487 71.5157 742.151 Q70.3699 740.814 66.1048 739.191 L63.4312 738.14 L28.3562 752.559 L28.3562 746.352 L56.238 735.212 L28.3562 724.072 L28.3562 717.865 L67.3143 733.525 Z" fill="#000000" fill-rule="nonzero" fill-opacity="1" /><circle clip-path="url(#clip292)" cx="306.319" cy="325.984" r="14.4" fill="#fdedb0" fill-rule="evenodd" fill-opacity="1" stroke="#000000" stroke-opacity="1" stroke-width="3.2"/>
<circle clip-path="url(#clip292)" cx="1354.09" cy="1371.81" r="14.4" fill="#fdedb0" fill-rule="evenodd" fill-opacity="1" stroke="#000000" stroke-opacity="1" stroke-width="3.2"/>
<circle clip-path="url(#clip292)" cx="1877.98" cy="170.492" r="14.4" fill="#fdedb0" fill-rule="evenodd" fill-opacity="1" stroke="#000000" stroke-opacity="1" stroke-width="3.2"/>
<circle clip-path="url(#clip292)" cx="830.206" cy="519.011" r="14.4" fill="#fdedb0" fill-rule="evenodd" fill-opacity="1" stroke="#000000" stroke-opacity="1" stroke-width="3.2"/>
<circle clip-path="url(#clip292)" cx="1092.15" cy="810.801" r="14.4" fill="#fdedb0" fill-rule="evenodd" fill-opacity="1" stroke="#000000" stroke-opacity="1" stroke-width="3.2"/>
<circle clip-path="url(#clip292)" cx="2139.93" cy="646.906" r="14.4" fill="#fdedb0" fill-rule="evenodd" fill-opacity="1" stroke="#000000" stroke-opacity="1" stroke-width="3.2"/>
<circle clip-path="url(#clip292)" cx="1616.04" cy="477.254" r="14.4" fill="#fdedb0" fill-rule="evenodd" fill-opacity="1" stroke="#000000" stroke-opacity="1" stroke-width="3.2"/>
<circle clip-path="url(#clip292)" cx="568.263" cy="1056.82" r="14.4" fill="#fdedb0" fill-rule="evenodd" fill-opacity="1" stroke="#000000" stroke-opacity="1" stroke-width="3.2"/>
<circle clip-path="url(#clip292)" cx="699.235" cy="839.873" r="14.4" fill="#fdedb0" fill-rule="evenodd" fill-opacity="1" stroke="#000000" stroke-opacity="1" stroke-width="3.2"/>
<circle clip-path="url(#clip292)" cx="1747.01" cy="113.557" r="14.4" fill="#fdedb0" fill-rule="evenodd" fill-opacity="1" stroke="#000000" stroke-opacity="1" stroke-width="3.2"/>
<circle clip-path="url(#clip292)" cx="2270.9" cy="420.645" r="14.4" fill="#fdedb0" fill-rule="evenodd" fill-opacity="1" stroke="#000000" stroke-opacity="1" stroke-width="3.2"/>
<circle clip-path="url(#clip292)" cx="1223.12" cy="1244.12" r="14.4" fill="#fdedb0" fill-rule="evenodd" fill-opacity="1" stroke="#000000" stroke-opacity="1" stroke-width="3.2"/>
<circle clip-path="url(#clip292)" cx="961.178" cy="476.021" r="14.4" fill="#fdedb0" fill-rule="evenodd" fill-opacity="1" stroke="#000000" stroke-opacity="1" stroke-width="3.2"/>
<circle clip-path="url(#clip292)" cx="2008.95" cy="480.209" r="14.4" fill="#fdedb0" fill-rule="evenodd" fill-opacity="1" stroke="#000000" stroke-opacity="1" stroke-width="3.2"/>
<circle clip-path="url(#clip292)" cx="1485.07" cy="1036.84" r="14.4" fill="#fdedb0" fill-rule="evenodd" fill-opacity="1" stroke="#000000" stroke-opacity="1" stroke-width="3.2"/>
<circle clip-path="url(#clip292)" cx="437.291" cy="864.952" r="14.4" fill="#fdedb0" fill-rule="evenodd" fill-opacity="1" stroke="#000000" stroke-opacity="1" stroke-width="3.2"/>
<circle clip-path="url(#clip292)" cx="502.777" cy="1018.11" r="14.4" fill="#fdedb0" fill-rule="evenodd" fill-opacity="1" stroke="#000000" stroke-opacity="1" stroke-width="3.2"/>
<circle clip-path="url(#clip292)" cx="1550.55" cy="758.637" r="14.4" fill="#fdedb0" fill-rule="evenodd" fill-opacity="1" stroke="#000000" stroke-opacity="1" stroke-width="3.2"/>
<circle clip-path="url(#clip292)" cx="2074.44" cy="604.772" r="14.4" fill="#fdedb0" fill-rule="evenodd" fill-opacity="1" stroke="#000000" stroke-opacity="1" stroke-width="3.2"/>
<circle clip-path="url(#clip292)" cx="1026.66" cy="606.297" r="14.4" fill="#fdedb0" fill-rule="evenodd" fill-opacity="1" stroke="#000000" stroke-opacity="1" stroke-width="3.2"/>
<circle clip-path="url(#clip292)" cx="1288.61" cy="1365.3" r="14.4" fill="#fdedb0" fill-rule="evenodd" fill-opacity="1" stroke="#000000" stroke-opacity="1" stroke-width="3.2"/>
<circle clip-path="url(#clip292)" cx="2336.38" cy="187.909" r="14.4" fill="#fdedb0" fill-rule="evenodd" fill-opacity="1" stroke="#000000" stroke-opacity="1" stroke-width="3.2"/>
<circle clip-path="url(#clip292)" cx="1812.5" cy="90.9171" r="14.4" fill="#fdedb0" fill-rule="evenodd" fill-opacity="1" stroke="#000000" stroke-opacity="1" stroke-width="3.2"/>
<circle clip-path="url(#clip292)" cx="764.72" cy="665.578" r="14.4" fill="#fdedb0" fill-rule="evenodd" fill-opacity="1" stroke="#000000" stroke-opacity="1" stroke-width="3.2"/>
<circle clip-path="url(#clip292)" cx="633.749" cy="986.83" r="14.4" fill="#fdedb0" fill-rule="evenodd" fill-opacity="1" stroke="#000000" stroke-opacity="1" stroke-width="3.2"/>
<circle clip-path="url(#clip292)" cx="1681.52" cy="248.316" r="14.4" fill="#fdedb0" fill-rule="evenodd" fill-opacity="1" stroke="#000000" stroke-opacity="1" stroke-width="3.2"/>
<circle clip-path="url(#clip292)" cx="2205.41" cy="583.983" r="14.4" fill="#fdedb0" fill-rule="evenodd" fill-opacity="1" stroke="#000000" stroke-opacity="1" stroke-width="3.2"/>
<circle clip-path="url(#clip292)" cx="1157.64" cy="1042.16" r="14.4" fill="#fdedb0" fill-rule="evenodd" fill-opacity="1" stroke="#000000" stroke-opacity="1" stroke-width="3.2"/>
<circle clip-path="url(#clip292)" cx="895.692" cy="446.916" r="14.4" fill="#fdedb0" fill-rule="evenodd" fill-opacity="1" stroke="#000000" stroke-opacity="1" stroke-width="3.2"/>
<circle clip-path="url(#clip292)" cx="1943.47" cy="317.302" r="14.4" fill="#fdedb0" fill-rule="evenodd" fill-opacity="1" stroke="#000000" stroke-opacity="1" stroke-width="3.2"/>
<circle clip-path="url(#clip292)" cx="1419.58" cy="1255.66" r="14.4" fill="#fdedb0" fill-rule="evenodd" fill-opacity="1" stroke="#000000" stroke-opacity="1" stroke-width="3.2"/>
<circle clip-path="url(#clip292)" cx="371.805" cy="619.343" r="14.4" fill="#fdedb0" fill-rule="evenodd" fill-opacity="1" stroke="#000000" stroke-opacity="1" stroke-width="3.2"/>
<circle clip-path="url(#clip292)" cx="339.062" cy="475.214" r="14.4" fill="#fdedb0" fill-rule="evenodd" fill-opacity="1" stroke="#000000" stroke-opacity="1" stroke-width="3.2"/>
<circle clip-path="url(#clip292)" cx="1386.84" cy="1328.45" r="14.4" fill="#fdedb0" fill-rule="evenodd" fill-opacity="1" stroke="#000000" stroke-opacity="1" stroke-width="3.2"/>
<circle clip-path="url(#clip292)" cx="1910.73" cy="238.448" r="14.4" fill="#fdedb0" fill-rule="evenodd" fill-opacity="1" stroke="#000000" stroke-opacity="1" stroke-width="3.2"/>
<circle clip-path="url(#clip292)" cx="862.949" cy="471.406" r="14.4" fill="#fdedb0" fill-rule="evenodd" fill-opacity="1" stroke="#000000" stroke-opacity="1" stroke-width="3.2"/>
<circle clip-path="url(#clip292)" cx="1124.89" cy="926.591" r="14.4" fill="#fdedb0" fill-rule="evenodd" fill-opacity="1" stroke="#000000" stroke-opacity="1" stroke-width="3.2"/>
<circle clip-path="url(#clip292)" cx="2172.67" cy="628.95" r="14.4" fill="#fdedb0" fill-rule="evenodd" fill-opacity="1" stroke="#000000" stroke-opacity="1" stroke-width="3.2"/>
<circle clip-path="url(#clip292)" cx="1648.78" cy="353.155" r="14.4" fill="#fdedb0" fill-rule="evenodd" fill-opacity="1" stroke="#000000" stroke-opacity="1" stroke-width="3.2"/>
<circle clip-path="url(#clip292)" cx="601.006" cy="1033.97" r="14.4" fill="#fdedb0" fill-rule="evenodd" fill-opacity="1" stroke="#000000" stroke-opacity="1" stroke-width="3.2"/>
<circle clip-path="url(#clip292)" cx="731.978" cy="752.665" r="14.4" fill="#fdedb0" fill-rule="evenodd" fill-opacity="1" stroke="#000000" stroke-opacity="1" stroke-width="3.2"/>
<circle clip-path="url(#clip292)" cx="1779.75" cy="88.1876" r="14.4" fill="#fdedb0" fill-rule="evenodd" fill-opacity="1" stroke="#000000" stroke-opacity="1" stroke-width="3.2"/>
<circle clip-path="url(#clip292)" cx="2303.64" cy="310.146" r="14.4" fill="#fdedb0" fill-rule="evenodd" fill-opacity="1" stroke="#000000" stroke-opacity="1" stroke-width="3.2"/>
<circle clip-path="url(#clip292)" cx="1255.87" cy="1317.46" r="14.4" fill="#fdedb0" fill-rule="evenodd" fill-opacity="1" stroke="#000000" stroke-opacity="1" stroke-width="3.2"/>
<circle clip-path="url(#clip292)" cx="993.921" cy="529.612" r="14.4" fill="#fdedb0" fill-rule="evenodd" fill-opacity="1" stroke="#000000" stroke-opacity="1" stroke-width="3.2"/>
<circle clip-path="url(#clip292)" cx="2041.7" cy="550.432" r="14.4" fill="#fdedb0" fill-rule="evenodd" fill-opacity="1" stroke="#000000" stroke-opacity="1" stroke-width="3.2"/>
<circle clip-path="url(#clip292)" cx="1517.81" cy="901.8" r="14.4" fill="#fdedb0" fill-rule="evenodd" fill-opacity="1" stroke="#000000" stroke-opacity="1" stroke-width="3.2"/>
<circle clip-path="url(#clip292)" cx="470.034" cy="955.085" r="14.4" fill="#fdedb0" fill-rule="evenodd" fill-opacity="1" stroke="#000000" stroke-opacity="1" stroke-width="3.2"/>
<circle clip-path="url(#clip292)" cx="404.548" cy="751.34" r="14.4" fill="#fdedb0" fill-rule="evenodd" fill-opacity="1" stroke="#000000" stroke-opacity="1" stroke-width="3.2"/>
<circle clip-path="url(#clip292)" cx="1452.32" cy="1156.82" r="14.4" fill="#fdedb0" fill-rule="evenodd" fill-opacity="1" stroke="#000000" stroke-opacity="1" stroke-width="3.2"/>
<circle clip-path="url(#clip292)" cx="1976.21" cy="400.233" r="14.4" fill="#fdedb0" fill-rule="evenodd" fill-opacity="1" stroke="#000000" stroke-opacity="1" stroke-width="3.2"/>
<circle clip-path="url(#clip292)" cx="928.435" cy="448.157" r="14.4" fill="#fdedb0" fill-rule="evenodd" fill-opacity="1" stroke="#000000" stroke-opacity="1" stroke-width="3.2"/>
<circle clip-path="url(#clip292)" cx="1190.38" cy="1150.31" r="14.4" fill="#fdedb0" fill-rule="evenodd" fill-opacity="1" stroke="#000000" stroke-opacity="1" stroke-width="3.2"/>
<circle clip-path="url(#clip292)" cx="2238.16" cy="513.488" r="14.4" fill="#fdedb0" fill-rule="evenodd" fill-opacity="1" stroke="#000000" stroke-opacity="1" stroke-width="3.2"/>
<circle clip-path="url(#clip292)" cx="1714.27" cy="167.405" r="14.4" fill="#fdedb0" fill-rule="evenodd" fill-opacity="1" stroke="#000000" stroke-opacity="1" stroke-width="3.2"/>
<circle clip-path="url(#clip292)" cx="666.492" cy="920.159" r="14.4" fill="#fdedb0" fill-rule="evenodd" fill-opacity="1" stroke="#000000" stroke-opacity="1" stroke-width="3.2"/>
<circle clip-path="url(#clip292)" cx="535.52" cy="1052.08" r="14.4" fill="#fdedb0" fill-rule="evenodd" fill-opacity="1" stroke="#000000" stroke-opacity="1" stroke-width="3.2"/>
<circle clip-path="url(#clip292)" cx="1583.3" cy="614.687" r="14.4" fill="#fdedb0" fill-rule="evenodd" fill-opacity="1" stroke="#000000" stroke-opacity="1" stroke-width="3.2"/>
<circle clip-path="url(#clip292)" cx="2107.18" cy="638.159" r="14.4" fill="#fdedb0" fill-rule="evenodd" fill-opacity="1" stroke="#000000" stroke-opacity="1" stroke-width="3.2"/>
<circle clip-path="url(#clip292)" cx="1059.41" cy="701.868" r="14.4" fill="#fdedb0" fill-rule="evenodd" fill-opacity="1" stroke="#000000" stroke-opacity="1" stroke-width="3.2"/>
<circle clip-path="url(#clip292)" cx="797.463" cy="585.557" r="14.4" fill="#fdedb0" fill-rule="evenodd" fill-opacity="1" stroke="#000000" stroke-opacity="1" stroke-width="3.2"/>
<circle clip-path="url(#clip292)" cx="1845.24" cy="119.604" r="14.4" fill="#fdedb0" fill-rule="evenodd" fill-opacity="1" stroke="#000000" stroke-opacity="1" stroke-width="3.2"/>
<circle clip-path="url(#clip292)" cx="1321.35" cy="1384.05" r="14.4" fill="#fdedb0" fill-rule="evenodd" fill-opacity="1" stroke="#000000" stroke-opacity="1" stroke-width="3.2"/>
<circle clip-path="url(#clip292)" cx="273.576" cy="179.041" r="14.4" fill="#fdedb0" fill-rule="evenodd" fill-opacity="1" stroke="#000000" stroke-opacity="1" stroke-width="3.2"/>
<circle clip-path="url(#clip292)" cx="281.761" cy="215.157" r="14.4" fill="#fdedb0" fill-rule="evenodd" fill-opacity="1" stroke="#000000" stroke-opacity="1" stroke-width="3.2"/>
<circle clip-path="url(#clip292)" cx="1329.54" cy="1383.94" r="14.4" fill="#fdedb0" fill-rule="evenodd" fill-opacity="1" stroke="#000000" stroke-opacity="1" stroke-width="3.2"/>
<circle clip-path="url(#clip292)" cx="1853.43" cy="130.424" r="14.4" fill="#fdedb0" fill-rule="evenodd" fill-opacity="1" stroke="#000000" stroke-opacity="1" stroke-width="3.2"/>
<circle clip-path="url(#clip292)" cx="805.649" cy="567.425" r="14.4" fill="#fdedb0" fill-rule="evenodd" fill-opacity="1" stroke="#000000" stroke-opacity="1" stroke-width="3.2"/>
<circle clip-path="url(#clip292)" cx="1067.59" cy="728.089" r="14.4" fill="#fdedb0" fill-rule="evenodd" fill-opacity="1" stroke="#000000" stroke-opacity="1" stroke-width="3.2"/>
<circle clip-path="url(#clip292)" cx="2115.37" cy="642.765" r="14.4" fill="#fdedb0" fill-rule="evenodd" fill-opacity="1" stroke="#000000" stroke-opacity="1" stroke-width="3.2"/>
<circle clip-path="url(#clip292)" cx="1591.48" cy="579.44" r="14.4" fill="#fdedb0" fill-rule="evenodd" fill-opacity="1" stroke="#000000" stroke-opacity="1" stroke-width="3.2"/>
<circle clip-path="url(#clip292)" cx="543.705" cy="1055.97" r="14.4" fill="#fdedb0" fill-rule="evenodd" fill-opacity="1" stroke="#000000" stroke-opacity="1" stroke-width="3.2"/>
<circle clip-path="url(#clip292)" cx="674.677" cy="901.112" r="14.4" fill="#fdedb0" fill-rule="evenodd" fill-opacity="1" stroke="#000000" stroke-opacity="1" stroke-width="3.2"/>
<circle clip-path="url(#clip292)" cx="1722.45" cy="151.32" r="14.4" fill="#fdedb0" fill-rule="evenodd" fill-opacity="1" stroke="#000000" stroke-opacity="1" stroke-width="3.2"/>
<circle clip-path="url(#clip292)" cx="2246.34" cy="492.213" r="14.4" fill="#fdedb0" fill-rule="evenodd" fill-opacity="1" stroke="#000000" stroke-opacity="1" stroke-width="3.2"/>
<circle clip-path="url(#clip292)" cx="1198.57" cy="1175.36" r="14.4" fill="#fdedb0" fill-rule="evenodd" fill-opacity="1" stroke="#000000" stroke-opacity="1" stroke-width="3.2"/>
<circle clip-path="url(#clip292)" cx="936.621" cy="452.632" r="14.4" fill="#fdedb0" fill-rule="evenodd" fill-opacity="1" stroke="#000000" stroke-opacity="1" stroke-width="3.2"/>
<circle clip-path="url(#clip292)" cx="1984.4" cy="420.777" r="14.4" fill="#fdedb0" fill-rule="evenodd" fill-opacity="1" stroke="#000000" stroke-opacity="1" stroke-width="3.2"/>
<circle clip-path="url(#clip292)" cx="1460.51" cy="1128.59" r="14.4" fill="#fdedb0" fill-rule="evenodd" fill-opacity="1" stroke="#000000" stroke-opacity="1" stroke-width="3.2"/>
<circle clip-path="url(#clip292)" cx="412.733" cy="781.688" r="14.4" fill="#fdedb0" fill-rule="evenodd" fill-opacity="1" stroke="#000000" stroke-opacity="1" stroke-width="3.2"/>
<circle clip-path="url(#clip292)" cx="478.219" cy="973.488" r="14.4" fill="#fdedb0" fill-rule="evenodd" fill-opacity="1" stroke="#000000" stroke-opacity="1" stroke-width="3.2"/>
<circle clip-path="url(#clip292)" cx="1526" cy="866.488" r="14.4" fill="#fdedb0" fill-rule="evenodd" fill-opacity="1" stroke="#000000" stroke-opacity="1" stroke-width="3.2"/>
<circle clip-path="url(#clip292)" cx="2049.88" cy="565.724" r="14.4" fill="#fdedb0" fill-rule="evenodd" fill-opacity="1" stroke="#000000" stroke-opacity="1" stroke-width="3.2"/>
<circle clip-path="url(#clip292)" cx="1002.11" cy="546.757" r="14.4" fill="#fdedb0" fill-rule="evenodd" fill-opacity="1" stroke="#000000" stroke-opacity="1" stroke-width="3.2"/>
<circle clip-path="url(#clip292)" cx="1264.05" cy="1331.98" r="14.4" fill="#fdedb0" fill-rule="evenodd" fill-opacity="1" stroke="#000000" stroke-opacity="1" stroke-width="3.2"/>
<circle clip-path="url(#clip292)" cx="2311.83" cy="280.435" r="14.4" fill="#fdedb0" fill-rule="evenodd" fill-opacity="1" stroke="#000000" stroke-opacity="1" stroke-width="3.2"/>
<circle clip-path="url(#clip292)" cx="1787.94" cy="86.29" r="14.4" fill="#fdedb0" fill-rule="evenodd" fill-opacity="1" stroke="#000000" stroke-opacity="1" stroke-width="3.2"/>
<circle clip-path="url(#clip292)" cx="740.163" cy="730.605" r="14.4" fill="#fdedb0" fill-rule="evenodd" fill-opacity="1" stroke="#000000" stroke-opacity="1" stroke-width="3.2"/>
<circle clip-path="url(#clip292)" cx="609.191" cy="1024.3" r="14.4" fill="#fdedb0" fill-rule="evenodd" fill-opacity="1" stroke="#000000" stroke-opacity="1" stroke-width="3.2"/>
<circle clip-path="url(#clip292)" cx="1656.97" cy="324.934" r="14.4" fill="#fdedb0" fill-rule="evenodd" fill-opacity="1" stroke="#000000" stroke-opacity="1" stroke-width="3.2"/>
<circle clip-path="url(#clip292)" cx="2180.86" cy="620.213" r="14.4" fill="#fdedb0" fill-rule="evenodd" fill-opacity="1" stroke="#000000" stroke-opacity="1" stroke-width="3.2"/>
<circle clip-path="url(#clip292)" cx="1133.08" cy="955.787" r="14.4" fill="#fdedb0" fill-rule="evenodd" fill-opacity="1" stroke="#000000" stroke-opacity="1" stroke-width="3.2"/>
<circle clip-path="url(#clip292)" cx="871.135" cy="462.986" r="14.4" fill="#fdedb0" fill-rule="evenodd" fill-opacity="1" stroke="#000000" stroke-opacity="1" stroke-width="3.2"/>
<circle clip-path="url(#clip292)" cx="1918.91" cy="257.399" r="14.4" fill="#fdedb0" fill-rule="evenodd" fill-opacity="1" stroke="#000000" stroke-opacity="1" stroke-width="3.2"/>
<circle clip-path="url(#clip292)" cx="1395.02" cy="1312.91" r="14.4" fill="#fdedb0" fill-rule="evenodd" fill-opacity="1" stroke="#000000" stroke-opacity="1" stroke-width="3.2"/>
<circle clip-path="url(#clip292)" cx="347.247" cy="512.009" r="14.4" fill="#fdedb0" fill-rule="evenodd" fill-opacity="1" stroke="#000000" stroke-opacity="1" stroke-width="3.2"/>
<circle clip-path="url(#clip292)" cx="379.99" cy="653.741" r="14.4" fill="#fdedb0" fill-rule="evenodd" fill-opacity="1" stroke="#000000" stroke-opacity="1" stroke-width="3.2"/>
<circle clip-path="url(#clip292)" cx="1427.77" cy="1233.22" r="14.4" fill="#fdedb0" fill-rule="evenodd" fill-opacity="1" stroke="#000000" stroke-opacity="1" stroke-width="3.2"/>
<circle clip-path="url(#clip292)" cx="1951.65" cy="337.927" r="14.4" fill="#fdedb0" fill-rule="evenodd" fill-opacity="1" stroke="#000000" stroke-opacity="1" stroke-width="3.2"/>
<circle clip-path="url(#clip292)" cx="903.878" cy="444.749" r="14.4" fill="#fdedb0" fill-rule="evenodd" fill-opacity="1" stroke="#000000" stroke-opacity="1" stroke-width="3.2"/>
<polyline clip-path="url(#clip292)" style="stroke:#fdedb0; stroke-linecap:round; stroke-linejoin:round; stroke-width:4; stroke-opacity:1; fill:none" points="257.204,108.721 262.612,131.632 268.021,154.869 273.429,178.401 278.838,202.197 310.515,345.137 342.192,489.328 358.03,559.797 373.869,628.093 381.788,661.182 389.707,693.439 397.626,724.775 405.545,755.103 412.913,782.343 420.282,808.573 427.65,833.736 435.018,857.772 442.386,880.63 449.754,902.259 457.122,922.613 464.49,941.651 474.366,965.039 484.242,985.917 494.118,1004.22 503.993,1019.9 513.869,1032.92 523.745,1043.26 533.621,1050.91 543.497,1055.89 551.658,1058.01 559.818,1058.33 567.979,1056.9 576.139,1053.75 584.3,1048.91 592.461,1042.44 600.621,1034.39 608.782,1024.82 616.37,1014.62 623.959,1003.21 631.547,990.672 639.136,977.058 646.724,962.438 654.313,946.884 661.901,930.471 669.49,913.276 688.542,867.188 707.594,817.987 726.647,767.041 745.699,715.747 762.789,670.584 779.879,627.246 796.969,586.679 814.06,549.774 823.841,530.62 833.621,513.078 843.402,497.28 853.183,483.347 862.964,471.39 872.745,461.505 882.526,453.78 892.307,448.286 899.618,445.673 906.93,444.36 914.241,444.361 921.552,445.689 928.864,448.35 936.175,452.345 943.486,457.672 950.797,464.323 960.149,474.744 969.5,487.278 978.851,501.879 988.202,518.491 997.554,537.043 1006.9,557.457 1016.26,579.643 1025.61,603.499 1034.14,626.64 1042.68,650.991 1051.21,676.458 1059.75,702.94 1076.82,758.519 1093.89,816.829 1113.31,885.295 1132.74,954.585 1152.17,1023.19 1171.6,1089.59 1179.3,1114.97 1187,1139.69 1194.7,1163.64 1202.4,1186.75 1210.1,1208.94 1217.8,1230.11 1225.5,1250.21 1233.2,1269.14 1242.77,1290.93 1252.33,1310.7 1261.9,1328.33 1271.47,1343.7 1281.03,1356.72 1290.6,1367.3 1300.17,1375.38 1309.73,1380.89 1317.06,1383.34 1324.39,1384.24 1331.71,1383.57 1339.04,1381.34 1346.37,1377.53 1353.69,1372.15 1361.02,1365.21 1368.35,1356.7 1373.51,1349.79 1378.67,1342.11 1383.84,1333.68 1389,1324.51 1399.33,1303.99 1409.66,1280.64 1419.99,1254.57 1430.32,1225.89 1440.65,1194.76 1450.98,1161.33 1458.7,1134.94 1466.42,1107.43 1474.14,1078.88 1481.86,1049.37 1489.58,1018.99 1497.29,987.813 1505.01,955.938 1512.73,923.455 1547.84,770.607 1582.96,616.153 1600.34,541.867 1617.73,470.457 1626.42,436.143 1635.12,402.915 1643.81,370.887 1652.5,340.164 1662.07,307.993 1671.63,277.65 1681.2,249.251 1690.76,222.9 1700.33,198.691 1709.89,176.705 1719.46,157.012 1729.02,139.669 1736.32,128.032 1743.63,117.807 1750.94,109.004 1758.24,101.628 1765.55,95.6803 1772.85,91.1578 1780.16,88.0526 1787.46,86.3524 1796.68,86.1857 1805.9,88.186 1815.12,92.2993 1824.34,98.4607 1833.56,106.596 1842.78,116.619 1852,128.438 1861.21,141.948 1869.74,155.854 1878.27,171.019 1886.79,187.343 1895.32,204.723 1903.85,223.05 1912.37,242.213 1920.9,262.096 1929.43,282.58 1964.6,370.804 1999.78,458.491 2008.69,479.593 2017.6,499.971 2026.52,519.497 2035.43,538.043 2044.34,555.488 2053.26,571.716 2062.17,586.617 2071.08,600.089 2080.39,612.525 2089.7,623.196 2099.01,632.01 2108.31,638.887 2117.62,643.755 2126.93,646.553 2136.23,647.232 2145.54,645.755 2152.87,643.055 2160.2,638.992 2167.54,633.563 2174.87,626.769 2182.2,618.616 2189.53,609.114 2196.86,598.277 2204.2,586.126 2212.54,570.72 2220.89,553.681 2229.24,535.059 2237.59,514.909 2245.94,493.295 2254.29,470.284 2262.63,445.953 2270.98,420.382 2279.33,393.658 2287.68,365.872 2296.03,337.122 2304.38,307.509 2321.07,246.117 2337.77,182.579 2341.52,168.121 2345.26,153.612 2349.01,139.063 2352.76,124.484 "/>
<polyline clip-path="url(#clip292)" style="stroke:#fdedb0; stroke-linecap:round; stroke-linejoin:round; stroke-width:4; stroke-opacity:1; fill:none" points="257.204,251.86 262.612,251.86 268.021,251.86 273.429,251.86 278.838,251.86 286.757,251.86 294.676,251.86 296.656,251.86 298.636,251.86 300.616,251.86 302.596,251.86 303.585,251.86 304.575,251.86 305.565,251.86 306.555,339.76 307.545,339.76 308.535,339.76 309.525,339.76 310.515,339.76 318.434,339.76 326.353,339.76 330.313,339.76 334.272,339.76 335.262,339.76 336.252,339.76 337.242,339.76 338.232,339.76 339.222,480.296 340.212,480.296 341.202,480.296 342.192,480.296 343.182,480.296 344.171,480.296 345.161,480.296 346.151,480.296 347.141,480.296 348.131,531.859 349.121,531.859 350.111,531.859 352.091,531.859 354.071,531.859 356.05,531.859 358.03,531.859 361.99,531.859 365.949,531.859 366.939,531.859 367.929,531.859 368.919,531.859 369.909,531.859 370.899,531.859 371.889,629.065 372.879,629.065 373.869,629.065 375.848,629.065 377.828,629.065 378.818,629.065 379.808,629.065 380.798,655.019 381.788,655.019 382.778,655.019 383.768,655.019 384.757,655.019 385.747,655.019 387.727,655.019 389.707,655.019 393.667,655.019 397.626,655.019 399.606,655.019 401.586,655.019 402.576,655.019 403.566,655.019 404.556,743.149 405.545,743.149 406.006,743.149 406.466,743.149 406.927,743.149 407.387,743.149 408.308,743.149 409.229,743.149 410.15,743.149 411.071,743.149 411.532,743.149 411.992,743.149 412.453,743.149 412.913,784.403 413.374,784.403 413.834,784.403 414.295,784.403 414.755,784.403 415.677,784.403 416.598,784.403 418.44,784.403 420.282,784.403 423.966,784.403 427.65,784.403 431.334,784.403 435.018,784.403 435.478,784.403 435.939,784.403 436.399,784.403 436.86,784.403 437.32,857.762 437.781,857.762 438.241,857.762 438.702,857.762 439.623,857.762 440.544,857.762 441.465,857.762 442.386,857.762 446.07,857.762 449.754,857.762 457.122,857.762 464.49,857.762 465.724,857.762 466.959,857.762 467.576,857.762 468.193,857.762 468.81,857.762 469.428,857.762 470.045,957.024 470.662,957.024 471.279,957.024 471.897,957.024 473.131,957.024 474.366,957.024 475.6,957.024 476.835,957.024 477.452,957.024 478.069,957.024 478.686,972.415 479.304,972.415 479.921,972.415 480.538,972.415 481.155,972.415 481.773,972.415 483.007,972.415 484.242,972.415 489.18,972.415 494.118,972.415 496.587,972.415 499.056,972.415 500.29,972.415 501.524,972.415 502.142,972.415 502.759,972.415 503.376,1014.17 503.993,1014.17 506.462,1014.17 508.931,1014.17 511.4,1014.17 513.869,1014.17 518.807,1014.17 523.745,1014.17 533.621,1014.17 543.497,1014.17 576.139,1014.17 608.782,1014.17 616.37,1014.17 623.959,1014.17 625.856,1014.17 627.753,1014.17 629.65,1014.17 631.547,1014.17 632.021,1014.17 632.496,1014.17 632.97,1014.17 633.444,1014.17 633.919,977.013 634.393,977.013 634.867,977.013 635.341,977.013 636.29,977.013 637.239,977.013 638.187,977.013 639.136,977.013 642.93,977.013 646.724,977.013 650.518,977.013 654.313,977.013 658.107,977.013 661.901,977.013 662.85,977.013 663.798,977.013 664.273,977.013 664.747,977.013 665.221,977.013 665.695,977.013 666.17,977.013 666.644,914.231 667.118,914.231 667.593,914.231 668.541,914.231 669.49,914.231 670.681,914.231 671.871,914.231 672.467,914.231 673.062,914.231 673.657,914.231 674.253,914.231 674.848,894.118 675.444,894.118 676.039,894.118 676.634,894.118 677.825,894.118 679.016,894.118 681.397,894.118 683.779,894.118 686.161,894.118 688.542,894.118 690.924,894.118 693.305,894.118 694.496,894.118 695.687,894.118 696.282,894.118 696.878,894.118 697.473,894.118 698.068,894.118 698.664,894.118 699.259,830.171 699.854,830.171 700.45,830.171 701.641,830.171 702.831,830.171 705.213,830.171 707.594,830.171 712.358,830.171 717.121,830.171 721.884,830.171 726.647,830.171 727.838,830.171 729.028,830.171 729.624,830.171 730.219,830.171 730.815,830.171 731.41,830.171 732.005,751.168 732.601,751.168 733.196,751.168 733.792,751.168 734.982,751.168 736.173,751.168 737.364,751.168 738.555,751.168 739.15,751.168 739.745,751.168 740.341,728.296 740.936,728.296 741.532,728.296 742.127,728.296 742.722,728.296 743.318,728.296 744.508,728.296 745.699,728.296 749.972,728.296 754.244,728.296 756.381,728.296 758.517,728.296 759.585,728.296 760.653,728.296 761.721,728.296 762.789,728.296 763.323,728.296 763.857,728.296 764.392,728.296 764.926,662.346 765.46,662.346 765.994,662.346 766.528,662.346 767.062,662.346 769.198,662.346 771.334,662.346 775.607,662.346 779.879,662.346 784.152,662.346 788.424,662.346 790.561,662.346 792.697,662.346 793.765,662.346 794.833,662.346 795.367,662.346 795.901,662.346 796.435,662.346 796.969,662.346 797.504,598.277 798.038,598.277 798.572,598.277 799.106,598.277 800.174,598.277 801.242,598.277 802.31,598.277 803.378,598.277 803.912,598.277 804.446,598.277 804.98,598.277 805.515,598.277 806.049,558.958 806.583,558.958 807.117,558.958 807.651,558.958 808.719,558.958 809.787,558.958 811.923,558.958 814.06,558.958 815.282,558.958 816.505,558.958 817.727,558.958 818.95,558.958 821.395,558.958 823.841,558.958 825.063,558.958 826.286,558.958 827.508,558.958 828.731,558.958 829.342,558.958 829.954,558.958 830.565,525.876 831.176,525.876 831.788,525.876 832.399,525.876 833.01,525.876 833.621,525.876 843.402,525.876 853.183,525.876 855.629,525.876 858.074,525.876 859.296,525.876 860.519,525.876 861.13,525.876 861.742,525.876 862.353,525.876 862.964,480.163 863.576,480.163 864.187,480.163 864.798,480.163 865.41,480.163 866.632,480.163 867.855,480.163 869.077,480.163 870.3,480.163 870.911,480.163 871.523,473.945 872.134,473.945 872.745,473.945 877.636,473.945 882.526,473.945 887.417,473.945 892.307,473.945 893.221,473.945 894.135,473.945 894.592,473.945 895.049,473.945 895.506,473.945 895.963,469.307 897.791,469.307 899.618,469.307 903.274,469.307 906.93,469.307 914.241,469.307 921.552,469.307 936.175,469.307 950.797,469.307 953.135,469.307 955.473,469.307 957.811,469.307 960.149,469.307 960.733,469.307 961.317,476.063 961.902,476.063 962.486,476.063 963.655,476.063 964.824,476.063 967.162,476.063 969.5,476.063 978.851,476.063 988.202,476.063 989.371,476.063 990.54,476.063 991.709,476.063 992.878,476.063 993.462,476.063 994.047,523.57 994.631,523.57 995.216,523.57 996.385,523.57 997.554,523.57 998.722,523.57 999.891,523.57 1000.48,523.57 1001.06,523.57 1001.64,523.57 1002.23,546.667 1002.81,546.667 1003.4,546.667 1003.98,546.667 1004.57,546.667 1005.74,546.667 1006.9,546.667 1011.58,546.667 1016.26,546.667 1018.59,546.667 1020.93,546.667 1022.1,546.667 1023.27,546.667 1023.85,546.667 1024.44,546.667 1025.02,546.667 1025.61,546.667 1026.14,546.667 1026.67,611.586 1027.21,611.586 1027.74,611.586 1028.81,611.586 1029.87,611.586 1032.01,611.586 1034.14,611.586 1038.41,611.586 1042.68,611.586 1046.94,611.586 1051.21,611.586 1053.35,611.586 1055.48,611.586 1056.55,611.586 1057.61,611.586 1058.15,611.586 1058.68,611.586 1059.21,611.586 1059.75,698.553 1060.28,698.553 1060.81,698.553 1061.35,698.553 1061.88,698.553 1062.95,698.553 1064.01,698.553 1065.08,698.553 1066.15,698.553 1066.68,698.553 1067.21,698.553 1067.75,725.8 1068.28,725.8 1068.82,725.8 1069.35,725.8 1069.88,725.8 1070.42,725.8 1071.48,725.8 1072.55,725.8 1074.68,725.8 1076.82,725.8 1081.08,725.8 1085.35,725.8 1087.49,725.8 1089.62,725.8 1090.15,725.8 1090.69,725.8 1091.22,725.8 1091.75,725.8 1092.29,794.896 1092.82,794.896 1093.35,794.896 1093.89,794.896 1103.6,794.896 1113.31,794.896 1115.74,794.896 1118.17,794.896 1119.39,794.896 1120.6,794.896 1121.81,794.896 1123.03,794.896 1123.64,794.896 1124.24,794.896 1124.85,794.896 1125.46,919.094 1126.06,919.094 1126.67,919.094 1127.28,919.094 1127.88,919.094 1129.1,919.094 1130.31,919.094 1130.92,919.094 1131.53,919.094 1132.13,919.094 1132.74,919.094 1133.35,943.364 1133.96,943.364 1134.56,943.364 1135.17,943.364 1136.38,943.364 1137.6,943.364 1140.03,943.364 1142.46,943.364 1147.31,943.364 1152.17,943.364 1153.38,943.364 1154.6,943.364 1155.2,943.364 1155.81,943.364 1156.42,943.364 1157.03,943.364 1157.63,943.364 1158.24,1028.21 1158.85,1028.21 1159.45,1028.21 1160.67,1028.21 1161.88,1028.21 1164.31,1028.21 1166.74,1028.21 1169.17,1028.21 1171.6,1028.21 1175.45,1028.21 1179.3,1028.21 1181.22,1028.21 1183.15,1028.21 1185.07,1028.21 1187,1028.21 1187.96,1028.21 1188.92,1028.21 1189.4,1028.21 1189.89,1028.21 1190.37,1028.21 1190.85,1126.14 1191.33,1126.14 1191.81,1126.14 1192.29,1126.14 1192.77,1126.14 1193.74,1126.14 1194.7,1126.14 1195.66,1126.14 1196.62,1126.14 1197.1,1126.14 1197.59,1126.14 1198.07,1126.14 1198.55,1126.14 1199.03,1164.24 1199.51,1164.24 1199.99,1164.24 1200.47,1164.24 1201.44,1164.24 1202.4,1164.24 1204.32,1164.24 1206.25,1164.24 1208.17,1164.24 1210.1,1164.24 1213.95,1164.24 1217.8,1164.24 1218.76,1164.24 1219.72,1164.24 1220.69,1164.24 1221.65,1164.24 1222.13,1164.24 1222.61,1164.24 1223.09,1164.24 1223.57,1218.14 1224.06,1218.14 1224.54,1218.14 1225.02,1218.14 1225.5,1218.14 1227.42,1218.14 1229.35,1218.14 1231.27,1218.14 1233.2,1218.14 1237.98,1218.14 1242.77,1218.14 1247.55,1218.14 1252.33,1218.14 1252.93,1218.14 1253.53,1218.14 1254.13,1218.14 1254.72,1218.14 1255.32,1218.14 1255.92,1290.97 1256.52,1290.97 1257.12,1290.97 1258.31,1290.97 1259.51,1290.97 1260.7,1290.97 1261.9,1290.97 1262.5,1290.97 1263.1,1290.97 1263.69,1290.97 1264.29,1302.97 1264.89,1302.97 1265.49,1302.97 1266.09,1302.97 1266.68,1302.97 1269.07,1302.97 1271.47,1302.97 1276.25,1302.97 1281.03,1302.97 1283.42,1302.97 1285.82,1302.97 1286.41,1302.97 1287.01,1302.97 1287.61,1302.97 1288.21,1302.97 1288.81,1322.82 1289.4,1322.82 1290,1322.82 1290.6,1322.82 1291.8,1322.82 1292.99,1322.82 1294.19,1322.82 1295.38,1322.82 1297.77,1322.82 1300.17,1322.82 1304.95,1322.82 1309.73,1322.82 1324.39,1322.82 1339.04,1322.82 1353.69,1322.82 1368.35,1322.82 1373.51,1322.82 1378.67,1322.82 1381.26,1322.82 1383.84,1322.82 1384.49,1322.82 1385.13,1322.82 1385.78,1322.82 1386.42,1322.82 1387.07,1311.95 1387.71,1311.95 1388.36,1311.95 1389,1311.95 1390.3,1311.95 1391.59,1311.95 1392.23,1311.95 1392.88,1311.95 1393.52,1311.95 1394.17,1311.95 1394.81,1311.95 1395.46,1299.3 1396.11,1299.3 1396.75,1299.3 1398.04,1299.3 1399.33,1299.3 1401.92,1299.3 1404.5,1299.3 1407.08,1299.3 1409.66,1299.3 1412.25,1299.3 1414.83,1299.3 1416.12,1299.3 1417.41,1299.3 1418.06,1299.3 1418.7,1299.3 1419.35,1299.3 1419.99,1241.29 1420.64,1241.29 1421.28,1241.29 1421.93,1241.29 1422.57,1241.29 1423.87,1241.29 1425.16,1241.29 1425.8,1241.29 1426.45,1241.29 1427.09,1241.29 1427.74,1241.29 1428.38,1206.67 1429.03,1206.67 1429.68,1206.67 1430.32,1206.67 1435.49,1206.67 1440.65,1206.67 1443.23,1206.67 1445.82,1206.67 1448.4,1206.67 1450.98,1206.67 1451.46,1206.67 1451.95,1206.67 1452.43,1146.81 1452.91,1146.81 1453.39,1146.81 1453.87,1146.81 1454.36,1146.81 1454.84,1146.81 1456.77,1146.81 1458.7,1146.81 1459.18,1146.81 1459.66,1146.81 1460.15,1146.81 1460.63,1104.1 1461.11,1104.1 1461.59,1104.1 1462.08,1104.1 1462.56,1104.1 1464.49,1104.1 1466.42,1104.1 1470.28,1104.1 1474.14,1104.1 1478,1104.1 1481.86,1104.1 1482.82,1104.1 1483.79,1104.1 1484.27,1104.1 1484.75,1104.1 1485.23,1024.02 1485.72,1024.02 1486.2,1024.02 1486.68,1024.02 1487.16,1024.02 1487.65,1024.02 1488.61,1024.02 1489.58,1024.02 1493.43,1024.02 1497.29,1024.02 1505.01,1024.02 1512.73,1024.02 1513.83,1024.02 1514.93,1024.02 1515.48,1024.02 1516.02,1024.02 1516.57,1024.02 1517.12,1024.02 1517.67,1024.02 1518.22,892.628 1518.77,892.628 1519.32,892.628 1520.41,892.628 1521.51,892.628 1522.61,892.628 1523.7,892.628 1524.25,892.628 1524.8,892.628 1525.35,892.628 1525.9,892.628 1526.45,857.517 1527,857.517 1527.55,857.517 1528.09,857.517 1529.19,857.517 1530.29,857.517 1534.68,857.517 1539.07,857.517 1543.46,857.517 1547.84,857.517 1548.39,857.517 1548.94,857.517 1549.49,857.517 1550.04,857.517 1550.59,752.124 1551.14,752.124 1551.69,752.124 1552.23,752.124 1553.33,752.124 1554.43,752.124 1555.53,752.124 1556.62,752.124 1561.01,752.124 1565.4,752.124 1569.79,752.124 1574.18,752.124 1576.37,752.124 1578.57,752.124 1579.67,752.124 1580.76,752.124 1581.31,752.124 1581.86,752.124 1582.41,752.124 1582.96,752.124 1583.5,619.49 1584.04,619.49 1584.59,619.49 1585.13,619.49 1586.22,619.49 1587.3,619.49 1588.39,619.49 1589.48,619.49 1590.02,619.49 1590.56,619.49 1591.11,619.49 1591.65,588.071 1592.19,588.071 1592.74,588.071 1593.28,588.071 1593.82,588.071 1594.91,588.071 1596,588.071 1598.17,588.071 1600.34,588.071 1604.69,588.071 1609.04,588.071 1611.21,588.071 1613.38,588.071 1613.93,588.071 1614.47,588.071 1615.01,588.071 1615.56,588.071 1616.1,491.063 1616.64,491.063 1617.19,491.063 1617.73,491.063 1619.9,491.063 1622.08,491.063 1624.25,491.063 1626.42,491.063 1630.77,491.063 1635.12,491.063 1639.46,491.063 1643.81,491.063 1644.9,491.063 1645.98,491.063 1646.53,491.063 1647.07,491.063 1647.61,491.063 1648.16,491.063 1648.7,491.063 1649.24,386.096 1649.79,386.096 1650.33,386.096 1651.42,386.096 1652.5,386.096 1653.7,386.096 1654.9,386.096 1655.49,386.096 1656.09,386.096 1656.69,386.096 1657.29,317.859 1657.88,317.859 1658.48,317.859 1659.08,317.859 1659.68,317.859 1660.87,317.859 1662.07,317.859 1666.85,317.859 1671.63,317.859 1674.02,317.859 1676.42,317.859 1677.61,317.859 1678.81,317.859 1679.4,317.859 1680,317.859 1680.6,317.859 1681.2,317.859 1681.8,265.696 1682.39,265.696 1682.99,265.696 1683.59,265.696 1684.78,265.696 1685.98,265.696 1688.37,265.696 1690.76,265.696 1695.54,265.696 1700.33,265.696 1705.11,265.696 1709.89,265.696 1711.09,265.696 1712.28,265.696 1712.88,265.696 1713.48,265.696 1714.08,265.696 1714.67,181.47 1715.27,181.47 1715.87,181.47 1716.47,181.47 1717.06,181.47 1718.26,181.47 1719.46,181.47 1720.05,181.47 1720.65,181.47 1721.25,181.47 1721.85,181.47 1722.44,181.47 1723.04,166.248 1723.64,166.248 1724.24,166.248 1725.43,166.248 1726.63,166.248 1727.82,166.248 1729.02,166.248 1732.67,166.248 1736.32,166.248 1738.15,166.248 1739.98,166.248 1741.8,166.248 1743.63,166.248 1744.54,166.248 1745.46,166.248 1745.91,166.248 1746.37,166.248 1746.83,166.248 1747.28,136.182 1747.74,136.182 1748.2,136.182 1748.65,136.182 1749.11,136.182 1750.02,136.182 1750.94,136.182 1754.59,136.182 1758.24,136.182 1772.85,136.182 1787.46,136.182 1805.9,136.182 1824.34,136.182 1833.56,136.182 1842.78,136.182 1843.93,136.182 1845.08,136.182 1845.66,142.985 1846.23,142.985 1846.81,142.985 1847.39,142.985 1848.54,142.985 1849.69,142.985 1850.84,142.985 1852,142.985 1852.57,142.985 1853.15,142.985 1853.72,151.255 1854.3,151.255 1855.45,151.255 1856.61,151.255 1858.91,151.255 1861.21,151.255 1865.48,151.255 1869.74,151.255 1871.87,151.255 1874,151.255 1875.07,151.255 1876.14,151.255 1876.67,151.255 1877.2,151.255 1877.73,151.255 1878.27,190.571 1878.8,190.571 1879.33,190.571 1879.87,190.571 1880.4,190.571 1881.47,190.571 1882.53,190.571 1884.66,190.571 1886.79,190.571 1891.06,190.571 1895.32,190.571 1899.58,190.571 1903.85,190.571 1905.98,190.571 1908.11,190.571 1908.64,190.571 1909.18,190.571 1909.71,190.571 1910.24,190.571 1910.78,256.555 1911.31,256.555 1911.84,256.555 1912.37,256.555 1913.44,256.555 1914.51,256.555 1915.57,256.555 1916.64,256.555 1917.17,256.555 1917.7,256.555 1918.24,256.555 1918.77,256.555 1919.3,278.304 1919.83,278.304 1920.37,278.304 1920.9,278.304 1921.97,278.304 1923.03,278.304 1924.1,278.304 1925.16,278.304 1927.3,278.304 1929.43,278.304 1933.82,278.304 1938.22,278.304 1939.32,278.304 1940.42,278.304 1940.97,278.304 1941.52,278.304 1942.07,278.304 1942.62,278.304 1943.17,278.304 1943.72,333.614 1944.27,333.614 1944.82,333.614 1945.92,333.614 1947.01,333.614 1948.11,333.614 1949.21,333.614 1950.31,333.614 1951.41,333.614 1951.96,338.631 1952.51,338.631 1953.06,338.631 1953.61,338.631 1954.71,338.631 1955.81,338.631 1960.2,338.631 1964.6,338.631 1966.8,338.631 1969,338.631 1971.2,338.631 1973.4,338.631 1973.94,338.631 1974.49,338.631 1975.04,338.631 1975.59,338.631 1976.14,338.631 1976.69,418.614 1977.24,418.614 1977.79,418.614 1978.89,418.614 1979.99,418.614 1981.09,418.614 1982.19,418.614 1982.74,418.614 1983.29,418.614 1983.84,418.614 1984.39,418.614 1984.94,435.382 1985.49,435.382 1986.04,435.382 1986.59,435.382 1987.68,435.382 1988.78,435.382 1989.88,435.382 1990.98,435.382 1995.38,435.382 1999.78,435.382 2002,435.382 2004.23,435.382 2005.35,435.382 2006.46,435.382 2007.02,435.382 2007.58,435.382 2008.13,435.382 2008.69,435.382 2009.25,494.486 2009.8,494.486 2010.36,494.486 2010.92,494.486 2012.03,494.486 2013.15,494.486 2015.37,494.486 2017.6,494.486 2022.06,494.486 2026.52,494.486 2030.97,494.486 2035.43,494.486 2036.54,494.486 2037.66,494.486 2038.77,494.486 2039.89,494.486 2040.44,494.486 2041,494.486 2041.56,494.486 2042.11,562.587 2042.67,562.587 2043.23,562.587 2043.79,562.587 2044.34,562.587 2046.57,562.587 2048.8,562.587 2049.36,562.587 2049.91,570.419 2050.47,570.419 2051.03,570.419 2052.14,570.419 2053.26,570.419 2057.71,570.419 2062.17,570.419 2064.4,570.419 2066.63,570.419 2068.85,570.419 2071.08,570.419 2071.66,570.419 2072.25,570.419 2072.83,570.419 2073.41,570.419 2073.99,570.419 2074.57,608.599 2075.16,608.599 2075.74,608.599 2076.9,608.599 2078.06,608.599 2079.23,608.599 2080.39,608.599 2085.04,608.599 2089.7,608.599 2094.35,608.599 2099.01,608.599 2101.33,608.599 2103.66,608.599 2104.82,608.599 2105.99,608.599 2106.57,608.599 2107.15,608.599 2107.73,640.797 2108.31,640.797 2108.89,640.797 2109.48,640.797 2110.06,640.797 2110.64,640.797 2111.8,640.797 2112.97,640.797 2115.29,640.797 2117.62,640.797 2122.27,640.797 2126.93,640.797 2136.23,640.797 2145.54,640.797 2152.87,640.797 2160.2,640.797 2163.87,640.797 2167.54,640.797 2169.37,640.797 2171.2,640.797 2171.66,640.797 2172.12,640.797 2172.58,640.797 2173.04,634.557 2173.95,634.557 2174.87,634.557 2176.7,634.557 2178.53,634.557 2179.45,634.557 2180.37,634.557 2180.83,634.557 2181.28,624.721 2181.74,624.721 2182.2,624.721 2184.03,624.721 2185.87,624.721 2187.7,624.721 2189.53,624.721 2196.86,624.721 2204.2,624.721 2205.24,624.721 2206.28,588.893 2207.33,588.893 2208.37,588.893 2210.46,588.893 2212.54,588.893 2216.72,588.893 2220.89,588.893 2225.07,588.893 2229.24,588.893 2231.33,588.893 2233.41,588.893 2234.46,588.893 2235.5,588.893 2236.55,588.893 2237.59,588.893 2238.63,536.2 2239.68,536.2 2240.72,536.2 2241.76,536.2 2242.81,536.2 2243.85,536.2 2244.89,536.2 2245.94,536.2 2246.98,489.046 2248.02,489.046 2249.07,489.046 2250.11,489.046 2252.2,489.046 2254.29,489.046 2258.46,489.046 2262.63,489.046 2264.72,489.046 2266.81,489.046 2267.85,489.046 2268.9,489.046 2269.94,489.046 2270.98,431.624 2272.03,431.624 2273.07,431.624 2274.11,431.624 2275.16,431.624 2277.24,431.624 2279.33,431.624 2283.5,431.624 2287.68,431.624 2291.85,431.624 2296.03,431.624 2298.11,431.624 2300.2,431.624 2301.25,431.624 2302.29,431.624 2303.33,431.624 2304.38,327.591 2305.42,327.591 2306.46,327.591 2307.51,327.591 2308.55,327.591 2309.59,327.591 2310.64,327.591 2311.68,327.591 2312.72,300.243 2313.77,300.243 2314.81,300.243 2315.85,300.243 2316.9,300.243 2318.99,300.243 2321.07,300.243 2325.25,300.243 2329.42,300.243 2331.51,300.243 2333.6,300.243 2334.64,300.243 2335.68,300.243 2336.73,276.687 2337.77,276.687 2338.71,276.687 2339.64,276.687 2340.58,276.687 2341.52,276.687 2343.39,276.687 2345.26,276.687 2347.14,276.687 2349.01,276.687 2350.88,276.687 2352.76,276.687 "/>
<path clip-path="url(#clip290)" d="M982.842 300.469 L1627.12 300.469 L1627.12 93.1086 L982.842 93.1086  Z" fill="#ffffff" fill-rule="evenodd" fill-opacity="1"/>
<polyline clip-path="url(#clip290)" style="stroke:#000000; stroke-linecap:round; stroke-linejoin:round; stroke-width:4; stroke-opacity:1; fill:none" points="982.842,300.469 1627.12,300.469 1627.12,93.1086 982.842,93.1086 982.842,300.469 "/>
<circle clip-path="url(#clip290)" cx="1075.98" cy="144.949" r="20.48" fill="#fdedb0" fill-rule="evenodd" fill-opacity="1" stroke="#000000" stroke-opacity="1" stroke-width="4.55111"/>
<path clip-path="url(#clip290)" d="M1191.36 128.803 L1191.36 133.363 Q1188.7 132.09 1186.34 131.465 Q1183.97 130.84 1181.78 130.84 Q1177.96 130.84 1175.87 132.321 Q1173.81 133.803 1173.81 136.534 Q1173.81 138.826 1175.18 140.007 Q1176.57 141.164 1180.41 141.882 L1183.23 142.46 Q1188.47 143.456 1190.94 145.979 Q1193.44 148.479 1193.44 152.692 Q1193.44 157.715 1190.06 160.307 Q1186.71 162.9 1180.2 162.9 Q1177.75 162.9 1174.97 162.344 Q1172.22 161.789 1169.25 160.701 L1169.25 155.886 Q1172.1 157.483 1174.83 158.293 Q1177.56 159.104 1180.2 159.104 Q1184.21 159.104 1186.38 157.53 Q1188.56 155.956 1188.56 153.039 Q1188.56 150.493 1186.98 149.057 Q1185.43 147.622 1181.87 146.905 L1179.02 146.349 Q1173.79 145.307 1171.45 143.085 Q1169.11 140.863 1169.11 136.905 Q1169.11 132.321 1172.33 129.682 Q1175.57 127.044 1181.24 127.044 Q1183.67 127.044 1186.2 127.483 Q1188.72 127.923 1191.36 128.803 Z" fill="#000000" fill-rule="nonzero" fill-opacity="1" /><path clip-path="url(#clip290)" d="M1212.33 149.196 Q1207.17 149.196 1205.18 150.377 Q1203.19 151.557 1203.19 154.405 Q1203.19 156.673 1204.67 158.016 Q1206.17 159.335 1208.74 159.335 Q1212.28 159.335 1214.41 156.835 Q1216.57 154.312 1216.57 150.145 L1216.57 149.196 L1212.33 149.196 M1220.83 147.437 L1220.83 162.229 L1216.57 162.229 L1216.57 158.293 Q1215.11 160.655 1212.93 161.789 Q1210.76 162.9 1207.61 162.9 Q1203.63 162.9 1201.27 160.678 Q1198.93 158.432 1198.93 154.682 Q1198.93 150.307 1201.85 148.085 Q1204.78 145.863 1210.59 145.863 L1216.57 145.863 L1216.57 145.446 Q1216.57 142.507 1214.62 140.909 Q1212.7 139.289 1209.21 139.289 Q1206.98 139.289 1204.88 139.821 Q1202.77 140.354 1200.83 141.419 L1200.83 137.483 Q1203.16 136.581 1205.36 136.141 Q1207.56 135.678 1209.65 135.678 Q1215.27 135.678 1218.05 138.594 Q1220.83 141.511 1220.83 147.437 Z" fill="#000000" fill-rule="nonzero" fill-opacity="1" /><path clip-path="url(#clip290)" d="M1249.78 141.28 Q1251.38 138.409 1253.6 137.044 Q1255.83 135.678 1258.84 135.678 Q1262.89 135.678 1265.09 138.525 Q1267.28 141.349 1267.28 146.581 L1267.28 162.229 L1263 162.229 L1263 146.719 Q1263 142.993 1261.68 141.187 Q1260.36 139.382 1257.65 139.382 Q1254.34 139.382 1252.42 141.581 Q1250.5 143.78 1250.5 147.576 L1250.5 162.229 L1246.22 162.229 L1246.22 146.719 Q1246.22 142.969 1244.9 141.187 Q1243.58 139.382 1240.83 139.382 Q1237.56 139.382 1235.64 141.604 Q1233.72 143.803 1233.72 147.576 L1233.72 162.229 L1229.44 162.229 L1229.44 136.303 L1233.72 136.303 L1233.72 140.331 Q1235.18 137.946 1237.22 136.812 Q1239.25 135.678 1242.05 135.678 Q1244.88 135.678 1246.84 137.113 Q1248.84 138.548 1249.78 141.28 Z" fill="#000000" fill-rule="nonzero" fill-opacity="1" /><path clip-path="url(#clip290)" d="M1279.9 158.34 L1279.9 172.09 L1275.62 172.09 L1275.62 136.303 L1279.9 136.303 L1279.9 140.238 Q1281.24 137.923 1283.28 136.812 Q1285.34 135.678 1288.19 135.678 Q1292.91 135.678 1295.85 139.428 Q1298.81 143.178 1298.81 149.289 Q1298.81 155.4 1295.85 159.15 Q1292.91 162.9 1288.19 162.9 Q1285.34 162.9 1283.28 161.789 Q1281.24 160.655 1279.9 158.34 M1294.39 149.289 Q1294.39 144.59 1292.45 141.928 Q1290.53 139.243 1287.15 139.243 Q1283.77 139.243 1281.82 141.928 Q1279.9 144.59 1279.9 149.289 Q1279.9 153.988 1281.82 156.673 Q1283.77 159.335 1287.15 159.335 Q1290.53 159.335 1292.45 156.673 Q1294.39 153.988 1294.39 149.289 Z" fill="#000000" fill-rule="nonzero" fill-opacity="1" /><path clip-path="url(#clip290)" d="M1305.87 126.21 L1310.13 126.21 L1310.13 162.229 L1305.87 162.229 L1305.87 126.21 Z" fill="#000000" fill-rule="nonzero" fill-opacity="1" /><path clip-path="url(#clip290)" d="M1341.22 148.201 L1341.22 150.284 L1321.64 150.284 Q1321.91 154.682 1324.27 156.997 Q1326.66 159.289 1330.9 159.289 Q1333.35 159.289 1335.64 158.687 Q1337.96 158.085 1340.22 156.881 L1340.22 160.909 Q1337.93 161.881 1335.52 162.391 Q1333.12 162.9 1330.64 162.9 Q1324.44 162.9 1320.8 159.289 Q1317.19 155.678 1317.19 149.52 Q1317.19 143.155 1320.62 139.428 Q1324.07 135.678 1329.9 135.678 Q1335.13 135.678 1338.16 139.057 Q1341.22 142.414 1341.22 148.201 M1336.96 146.951 Q1336.91 143.456 1334.99 141.372 Q1333.09 139.289 1329.95 139.289 Q1326.38 139.289 1324.23 141.303 Q1322.1 143.317 1321.77 146.974 L1336.96 146.951 Z" fill="#000000" fill-rule="nonzero" fill-opacity="1" /><path clip-path="url(#clip290)" d="M1365.27 140.238 L1365.27 126.21 L1369.53 126.21 L1369.53 162.229 L1365.27 162.229 L1365.27 158.34 Q1363.93 160.655 1361.87 161.789 Q1359.83 162.9 1356.96 162.9 Q1352.26 162.9 1349.3 159.15 Q1346.36 155.4 1346.36 149.289 Q1346.36 143.178 1349.3 139.428 Q1352.26 135.678 1356.96 135.678 Q1359.83 135.678 1361.87 136.812 Q1363.93 137.923 1365.27 140.238 M1350.76 149.289 Q1350.76 153.988 1352.68 156.673 Q1354.62 159.335 1358 159.335 Q1361.38 159.335 1363.33 156.673 Q1365.27 153.988 1365.27 149.289 Q1365.27 144.59 1363.33 141.928 Q1361.38 139.243 1358 139.243 Q1354.62 139.243 1352.68 141.928 Q1350.76 144.59 1350.76 149.289 Z" fill="#000000" fill-rule="nonzero" fill-opacity="1" /><path clip-path="url(#clip290)" d="M1397.49 158.34 L1397.49 172.09 L1393.21 172.09 L1393.21 136.303 L1397.49 136.303 L1397.49 140.238 Q1398.83 137.923 1400.87 136.812 Q1402.93 135.678 1405.78 135.678 Q1410.5 135.678 1413.44 139.428 Q1416.4 143.178 1416.4 149.289 Q1416.4 155.4 1413.44 159.15 Q1410.5 162.9 1405.78 162.9 Q1402.93 162.9 1400.87 161.789 Q1398.83 160.655 1397.49 158.34 M1411.98 149.289 Q1411.98 144.59 1410.04 141.928 Q1408.12 139.243 1404.74 139.243 Q1401.36 139.243 1399.41 141.928 Q1397.49 144.59 1397.49 149.289 Q1397.49 153.988 1399.41 156.673 Q1401.36 159.335 1404.74 159.335 Q1408.12 159.335 1410.04 156.673 Q1411.98 153.988 1411.98 149.289 Z" fill="#000000" fill-rule="nonzero" fill-opacity="1" /><path clip-path="url(#clip290)" d="M1433.51 139.289 Q1430.08 139.289 1428.09 141.974 Q1426.1 144.636 1426.1 149.289 Q1426.1 153.942 1428.07 156.627 Q1430.06 159.289 1433.51 159.289 Q1436.91 159.289 1438.9 156.604 Q1440.89 153.918 1440.89 149.289 Q1440.89 144.682 1438.9 141.997 Q1436.91 139.289 1433.51 139.289 M1433.51 135.678 Q1439.07 135.678 1442.24 139.289 Q1445.41 142.9 1445.41 149.289 Q1445.41 155.655 1442.24 159.289 Q1439.07 162.9 1433.51 162.9 Q1427.93 162.9 1424.76 159.289 Q1421.61 155.655 1421.61 149.289 Q1421.61 142.9 1424.76 139.289 Q1427.93 135.678 1433.51 135.678 Z" fill="#000000" fill-rule="nonzero" fill-opacity="1" /><path clip-path="url(#clip290)" d="M1452.47 136.303 L1456.73 136.303 L1456.73 162.229 L1452.47 162.229 L1452.47 136.303 M1452.47 126.21 L1456.73 126.21 L1456.73 131.604 L1452.47 131.604 L1452.47 126.21 Z" fill="#000000" fill-rule="nonzero" fill-opacity="1" /><path clip-path="url(#clip290)" d="M1487.19 146.581 L1487.19 162.229 L1482.93 162.229 L1482.93 146.719 Q1482.93 143.039 1481.5 141.21 Q1480.06 139.382 1477.19 139.382 Q1473.74 139.382 1471.75 141.581 Q1469.76 143.78 1469.76 147.576 L1469.76 162.229 L1465.48 162.229 L1465.48 136.303 L1469.76 136.303 L1469.76 140.331 Q1471.29 137.993 1473.35 136.835 Q1475.43 135.678 1478.14 135.678 Q1482.61 135.678 1484.9 138.456 Q1487.19 141.21 1487.19 146.581 Z" fill="#000000" fill-rule="nonzero" fill-opacity="1" /><path clip-path="url(#clip290)" d="M1499.9 128.942 L1499.9 136.303 L1508.67 136.303 L1508.67 139.613 L1499.9 139.613 L1499.9 153.687 Q1499.9 156.858 1500.76 157.761 Q1501.64 158.664 1504.3 158.664 L1508.67 158.664 L1508.67 162.229 L1504.3 162.229 Q1499.37 162.229 1497.49 160.4 Q1495.62 158.548 1495.62 153.687 L1495.62 139.613 L1492.49 139.613 L1492.49 136.303 L1495.62 136.303 L1495.62 128.942 L1499.9 128.942 Z" fill="#000000" fill-rule="nonzero" fill-opacity="1" /><path clip-path="url(#clip290)" d="M1530.8 137.067 L1530.8 141.094 Q1529 140.169 1527.05 139.706 Q1525.11 139.243 1523.02 139.243 Q1519.85 139.243 1518.26 140.215 Q1516.68 141.187 1516.68 143.131 Q1516.68 144.613 1517.82 145.469 Q1518.95 146.303 1522.38 147.067 L1523.83 147.391 Q1528.37 148.363 1530.27 150.145 Q1532.19 151.905 1532.19 155.076 Q1532.19 158.687 1529.32 160.793 Q1526.47 162.9 1521.47 162.9 Q1519.39 162.9 1517.12 162.483 Q1514.88 162.09 1512.38 161.28 L1512.38 156.881 Q1514.74 158.108 1517.03 158.733 Q1519.32 159.335 1521.57 159.335 Q1524.57 159.335 1526.2 158.317 Q1527.82 157.275 1527.82 155.4 Q1527.82 153.664 1526.63 152.738 Q1525.48 151.812 1521.52 150.956 L1520.04 150.608 Q1516.08 149.775 1514.32 148.062 Q1512.56 146.326 1512.56 143.317 Q1512.56 139.659 1515.15 137.669 Q1517.75 135.678 1522.51 135.678 Q1524.88 135.678 1526.96 136.025 Q1529.04 136.372 1530.8 137.067 Z" fill="#000000" fill-rule="nonzero" fill-opacity="1" /><polyline clip-path="url(#clip290)" style="stroke:#fdedb0; stroke-linecap:round; stroke-linejoin:round; stroke-width:4; stroke-opacity:1; fill:none" points="1006.13,196.789 1145.83,196.789 "/>
<path clip-path="url(#clip290)" d="M1169.11 179.509 L1198.35 179.509 L1198.35 183.444 L1186.08 183.444 L1186.08 214.069 L1181.38 214.069 L1181.38 183.444 L1169.11 183.444 L1169.11 179.509 Z" fill="#000000" fill-rule="nonzero" fill-opacity="1" /><path clip-path="url(#clip290)" d="M1210.73 192.124 Q1210.02 191.708 1209.16 191.522 Q1208.33 191.314 1207.31 191.314 Q1203.7 191.314 1201.75 193.675 Q1199.83 196.013 1199.83 200.411 L1199.83 214.069 L1195.55 214.069 L1195.55 188.143 L1199.83 188.143 L1199.83 192.171 Q1201.17 189.809 1203.33 188.675 Q1205.48 187.518 1208.56 187.518 Q1209 187.518 1209.53 187.587 Q1210.06 187.634 1210.71 187.749 L1210.73 192.124 Z" fill="#000000" fill-rule="nonzero" fill-opacity="1" /><path clip-path="url(#clip290)" d="M1214.76 203.837 L1214.76 188.143 L1219.02 188.143 L1219.02 203.675 Q1219.02 207.356 1220.46 209.208 Q1221.89 211.036 1224.76 211.036 Q1228.21 211.036 1230.2 208.837 Q1232.22 206.638 1232.22 202.842 L1232.22 188.143 L1236.47 188.143 L1236.47 214.069 L1232.22 214.069 L1232.22 210.087 Q1230.66 212.448 1228.6 213.606 Q1226.57 214.74 1223.86 214.74 Q1219.39 214.74 1217.08 211.962 Q1214.76 209.184 1214.76 203.837 M1225.48 187.518 L1225.48 187.518 Z" fill="#000000" fill-rule="nonzero" fill-opacity="1" /><path clip-path="url(#clip290)" d="M1267.42 200.041 L1267.42 202.124 L1247.84 202.124 Q1248.12 206.522 1250.48 208.837 Q1252.86 211.129 1257.1 211.129 Q1259.55 211.129 1261.84 210.527 Q1264.16 209.925 1266.43 208.721 L1266.43 212.749 Q1264.14 213.721 1261.73 214.231 Q1259.32 214.74 1256.84 214.74 Q1250.64 214.74 1247.01 211.129 Q1243.4 207.518 1243.4 201.36 Q1243.4 194.995 1246.82 191.268 Q1250.27 187.518 1256.1 187.518 Q1261.34 187.518 1264.37 190.897 Q1267.42 194.254 1267.42 200.041 M1263.16 198.791 Q1263.12 195.296 1261.2 193.212 Q1259.3 191.129 1256.15 191.129 Q1252.59 191.129 1250.43 193.143 Q1248.3 195.157 1247.98 198.814 L1263.16 198.791 Z" fill="#000000" fill-rule="nonzero" fill-opacity="1" /><path clip-path="url(#clip290)" d="M1302.61 178.05 L1302.61 181.592 L1298.53 181.592 Q1296.24 181.592 1295.34 182.518 Q1294.46 183.444 1294.46 185.851 L1294.46 188.143 L1301.47 188.143 L1301.47 191.453 L1294.46 191.453 L1294.46 214.069 L1290.18 214.069 L1290.18 191.453 L1286.1 191.453 L1286.1 188.143 L1290.18 188.143 L1290.18 186.337 Q1290.18 182.009 1292.19 180.041 Q1294.21 178.05 1298.58 178.05 L1302.61 178.05 Z" fill="#000000" fill-rule="nonzero" fill-opacity="1" /><path clip-path="url(#clip290)" d="M1305.73 203.837 L1305.73 188.143 L1309.99 188.143 L1309.99 203.675 Q1309.99 207.356 1311.43 209.208 Q1312.86 211.036 1315.73 211.036 Q1319.18 211.036 1321.17 208.837 Q1323.19 206.638 1323.19 202.842 L1323.19 188.143 L1327.45 188.143 L1327.45 214.069 L1323.19 214.069 L1323.19 210.087 Q1321.64 212.448 1319.58 213.606 Q1317.54 214.74 1314.83 214.74 Q1310.36 214.74 1308.05 211.962 Q1305.73 209.184 1305.73 203.837 M1316.45 187.518 L1316.45 187.518 Z" fill="#000000" fill-rule="nonzero" fill-opacity="1" /><path clip-path="url(#clip290)" d="M1357.77 198.421 L1357.77 214.069 L1353.51 214.069 L1353.51 198.559 Q1353.51 194.879 1352.08 193.05 Q1350.64 191.222 1347.77 191.222 Q1344.32 191.222 1342.33 193.421 Q1340.34 195.62 1340.34 199.416 L1340.34 214.069 L1336.06 214.069 L1336.06 188.143 L1340.34 188.143 L1340.34 192.171 Q1341.87 189.833 1343.93 188.675 Q1346.01 187.518 1348.72 187.518 Q1353.19 187.518 1355.48 190.296 Q1357.77 193.05 1357.77 198.421 Z" fill="#000000" fill-rule="nonzero" fill-opacity="1" /><path clip-path="url(#clip290)" d="M1384.92 189.138 L1384.92 193.12 Q1383.12 192.124 1381.29 191.638 Q1379.48 191.129 1377.63 191.129 Q1373.49 191.129 1371.2 193.768 Q1368.9 196.384 1368.9 201.129 Q1368.9 205.874 1371.2 208.513 Q1373.49 211.129 1377.63 211.129 Q1379.48 211.129 1381.29 210.643 Q1383.12 210.133 1384.92 209.138 L1384.92 213.073 Q1383.14 213.907 1381.22 214.323 Q1379.32 214.74 1377.17 214.74 Q1371.31 214.74 1367.86 211.059 Q1364.41 207.379 1364.41 201.129 Q1364.41 194.786 1367.89 191.152 Q1371.38 187.518 1377.45 187.518 Q1379.41 187.518 1381.29 187.935 Q1383.16 188.328 1384.92 189.138 Z" fill="#000000" fill-rule="nonzero" fill-opacity="1" /><path clip-path="url(#clip290)" d="M1396.54 180.782 L1396.54 188.143 L1405.32 188.143 L1405.32 191.453 L1396.54 191.453 L1396.54 205.527 Q1396.54 208.698 1397.4 209.601 Q1398.28 210.504 1400.94 210.504 L1405.32 210.504 L1405.32 214.069 L1400.94 214.069 Q1396.01 214.069 1394.14 212.24 Q1392.26 210.388 1392.26 205.527 L1392.26 191.453 L1389.14 191.453 L1389.14 188.143 L1392.26 188.143 L1392.26 180.782 L1396.54 180.782 Z" fill="#000000" fill-rule="nonzero" fill-opacity="1" /><path clip-path="url(#clip290)" d="M1410.92 188.143 L1415.18 188.143 L1415.18 214.069 L1410.92 214.069 L1410.92 188.143 M1410.92 178.05 L1415.18 178.05 L1415.18 183.444 L1410.92 183.444 L1410.92 178.05 Z" fill="#000000" fill-rule="nonzero" fill-opacity="1" /><path clip-path="url(#clip290)" d="M1434.14 191.129 Q1430.71 191.129 1428.72 193.814 Q1426.73 196.476 1426.73 201.129 Q1426.73 205.782 1428.7 208.467 Q1430.69 211.129 1434.14 211.129 Q1437.54 211.129 1439.53 208.444 Q1441.52 205.758 1441.52 201.129 Q1441.52 196.522 1439.53 193.837 Q1437.54 191.129 1434.14 191.129 M1434.14 187.518 Q1439.69 187.518 1442.86 191.129 Q1446.03 194.74 1446.03 201.129 Q1446.03 207.495 1442.86 211.129 Q1439.69 214.74 1434.14 214.74 Q1428.56 214.74 1425.39 211.129 Q1422.24 207.495 1422.24 201.129 Q1422.24 194.74 1425.39 191.129 Q1428.56 187.518 1434.14 187.518 Z" fill="#000000" fill-rule="nonzero" fill-opacity="1" /><path clip-path="url(#clip290)" d="M1474.64 198.421 L1474.64 214.069 L1470.39 214.069 L1470.39 198.559 Q1470.39 194.879 1468.95 193.05 Q1467.51 191.222 1464.64 191.222 Q1461.2 191.222 1459.2 193.421 Q1457.21 195.62 1457.21 199.416 L1457.21 214.069 L1452.93 214.069 L1452.93 188.143 L1457.21 188.143 L1457.21 192.171 Q1458.74 189.833 1460.8 188.675 Q1462.89 187.518 1465.59 187.518 Q1470.06 187.518 1472.35 190.296 Q1474.64 193.05 1474.64 198.421 Z" fill="#000000" fill-rule="nonzero" fill-opacity="1" /><polyline clip-path="url(#clip290)" style="stroke:#fdedb0; stroke-linecap:round; stroke-linejoin:round; stroke-width:4; stroke-opacity:1; fill:none" points="1006.13,248.629 1145.83,248.629 "/>
<path clip-path="url(#clip290)" d="M1191.36 232.483 L1191.36 237.043 Q1188.7 235.77 1186.34 235.145 Q1183.97 234.52 1181.78 234.52 Q1177.96 234.52 1175.87 236.001 Q1173.81 237.483 1173.81 240.214 Q1173.81 242.506 1175.18 243.687 Q1176.57 244.844 1180.41 245.562 L1183.23 246.14 Q1188.47 247.136 1190.94 249.659 Q1193.44 252.159 1193.44 256.372 Q1193.44 261.395 1190.06 263.987 Q1186.71 266.58 1180.2 266.58 Q1177.75 266.58 1174.97 266.024 Q1172.22 265.469 1169.25 264.381 L1169.25 259.566 Q1172.1 261.163 1174.83 261.973 Q1177.56 262.784 1180.2 262.784 Q1184.21 262.784 1186.38 261.21 Q1188.56 259.636 1188.56 256.719 Q1188.56 254.173 1186.98 252.737 Q1185.43 251.302 1181.87 250.585 L1179.02 250.029 Q1173.79 248.987 1171.45 246.765 Q1169.11 244.543 1169.11 240.585 Q1169.11 236.001 1172.33 233.362 Q1175.57 230.724 1181.24 230.724 Q1183.67 230.724 1186.2 231.163 Q1188.72 231.603 1191.36 232.483 Z" fill="#000000" fill-rule="nonzero" fill-opacity="1" /><path clip-path="url(#clip290)" d="M1200.11 255.677 L1200.11 239.983 L1204.37 239.983 L1204.37 255.515 Q1204.37 259.196 1205.8 261.048 Q1207.24 262.876 1210.11 262.876 Q1213.56 262.876 1215.55 260.677 Q1217.56 258.478 1217.56 254.682 L1217.56 239.983 L1221.82 239.983 L1221.82 265.909 L1217.56 265.909 L1217.56 261.927 Q1216.01 264.288 1213.95 265.446 Q1211.91 266.58 1209.21 266.58 Q1204.74 266.58 1202.42 263.802 Q1200.11 261.024 1200.11 255.677 M1210.83 239.358 L1210.83 239.358 Z" fill="#000000" fill-rule="nonzero" fill-opacity="1" /><path clip-path="url(#clip290)" d="M1245.62 243.964 Q1244.9 243.548 1244.04 243.362 Q1243.21 243.154 1242.19 243.154 Q1238.58 243.154 1236.64 245.515 Q1234.72 247.853 1234.72 252.251 L1234.72 265.909 L1230.43 265.909 L1230.43 239.983 L1234.72 239.983 L1234.72 244.011 Q1236.06 241.649 1238.21 240.515 Q1240.36 239.358 1243.44 239.358 Q1243.88 239.358 1244.41 239.427 Q1244.95 239.474 1245.59 239.589 L1245.62 243.964 Z" fill="#000000" fill-rule="nonzero" fill-opacity="1" /><path clip-path="url(#clip290)" d="M1264.28 243.964 Q1263.56 243.548 1262.7 243.362 Q1261.87 243.154 1260.85 243.154 Q1257.24 243.154 1255.29 245.515 Q1253.37 247.853 1253.37 252.251 L1253.37 265.909 L1249.09 265.909 L1249.09 239.983 L1253.37 239.983 L1253.37 244.011 Q1254.72 241.649 1256.87 240.515 Q1259.02 239.358 1262.1 239.358 Q1262.54 239.358 1263.07 239.427 Q1263.6 239.474 1264.25 239.589 L1264.28 243.964 Z" fill="#000000" fill-rule="nonzero" fill-opacity="1" /><path clip-path="url(#clip290)" d="M1277.75 242.969 Q1274.32 242.969 1272.33 245.654 Q1270.34 248.316 1270.34 252.969 Q1270.34 257.622 1272.31 260.307 Q1274.3 262.969 1277.75 262.969 Q1281.15 262.969 1283.14 260.284 Q1285.13 257.598 1285.13 252.969 Q1285.13 248.362 1283.14 245.677 Q1281.15 242.969 1277.75 242.969 M1277.75 239.358 Q1283.3 239.358 1286.47 242.969 Q1289.65 246.58 1289.65 252.969 Q1289.65 259.335 1286.47 262.969 Q1283.3 266.58 1277.75 266.58 Q1272.17 266.58 1269 262.969 Q1265.85 259.335 1265.85 252.969 Q1265.85 246.58 1269 242.969 Q1272.17 239.358 1277.75 239.358 Z" fill="#000000" fill-rule="nonzero" fill-opacity="1" /><path clip-path="url(#clip290)" d="M1313.77 252.645 Q1313.77 248.015 1311.84 245.469 Q1309.95 242.923 1306.5 242.923 Q1303.07 242.923 1301.15 245.469 Q1299.25 248.015 1299.25 252.645 Q1299.25 257.251 1301.15 259.798 Q1303.07 262.344 1306.5 262.344 Q1309.95 262.344 1311.84 259.798 Q1313.77 257.251 1313.77 252.645 M1318.02 262.691 Q1318.02 269.311 1315.09 272.529 Q1312.15 275.77 1306.08 275.77 Q1303.84 275.77 1301.84 275.422 Q1299.85 275.098 1297.98 274.404 L1297.98 270.26 Q1299.85 271.279 1301.68 271.765 Q1303.51 272.251 1305.41 272.251 Q1309.6 272.251 1311.68 270.052 Q1313.77 267.876 1313.77 263.455 L1313.77 261.348 Q1312.45 263.64 1310.39 264.774 Q1308.33 265.909 1305.46 265.909 Q1300.69 265.909 1297.77 262.274 Q1294.85 258.64 1294.85 252.645 Q1294.85 246.626 1297.77 242.992 Q1300.69 239.358 1305.46 239.358 Q1308.33 239.358 1310.39 240.492 Q1312.45 241.626 1313.77 243.918 L1313.77 239.983 L1318.02 239.983 L1318.02 262.691 Z" fill="#000000" fill-rule="nonzero" fill-opacity="1" /><path clip-path="url(#clip290)" d="M1338.58 252.876 Q1333.42 252.876 1331.43 254.057 Q1329.44 255.237 1329.44 258.085 Q1329.44 260.353 1330.92 261.696 Q1332.42 263.015 1334.99 263.015 Q1338.53 263.015 1340.66 260.515 Q1342.82 257.992 1342.82 253.825 L1342.82 252.876 L1338.58 252.876 M1347.08 251.117 L1347.08 265.909 L1342.82 265.909 L1342.82 261.973 Q1341.36 264.335 1339.18 265.469 Q1337.01 266.58 1333.86 266.58 Q1329.88 266.58 1327.52 264.358 Q1325.18 262.112 1325.18 258.362 Q1325.18 253.987 1328.09 251.765 Q1331.03 249.543 1336.84 249.543 L1342.82 249.543 L1342.82 249.126 Q1342.82 246.187 1340.87 244.589 Q1338.95 242.969 1335.46 242.969 Q1333.23 242.969 1331.13 243.501 Q1329.02 244.034 1327.08 245.099 L1327.08 241.163 Q1329.41 240.261 1331.61 239.821 Q1333.81 239.358 1335.9 239.358 Q1341.52 239.358 1344.3 242.274 Q1347.08 245.191 1347.08 251.117 Z" fill="#000000" fill-rule="nonzero" fill-opacity="1" /><path clip-path="url(#clip290)" d="M1360.06 232.622 L1360.06 239.983 L1368.83 239.983 L1368.83 243.293 L1360.06 243.293 L1360.06 257.367 Q1360.06 260.538 1360.92 261.441 Q1361.8 262.344 1364.46 262.344 L1368.83 262.344 L1368.83 265.909 L1364.46 265.909 Q1359.53 265.909 1357.65 264.08 Q1355.78 262.228 1355.78 257.367 L1355.78 243.293 L1352.65 243.293 L1352.65 239.983 L1355.78 239.983 L1355.78 232.622 L1360.06 232.622 Z" fill="#000000" fill-rule="nonzero" fill-opacity="1" /><path clip-path="url(#clip290)" d="M1396.61 251.881 L1396.61 253.964 L1377.03 253.964 Q1377.31 258.362 1379.67 260.677 Q1382.05 262.969 1386.29 262.969 Q1388.74 262.969 1391.03 262.367 Q1393.35 261.765 1395.62 260.561 L1395.62 264.589 Q1393.33 265.561 1390.92 266.071 Q1388.51 266.58 1386.03 266.58 Q1379.83 266.58 1376.2 262.969 Q1372.58 259.358 1372.58 253.2 Q1372.58 246.835 1376.01 243.108 Q1379.46 239.358 1385.29 239.358 Q1390.52 239.358 1393.56 242.737 Q1396.61 246.094 1396.61 251.881 M1392.35 250.631 Q1392.31 247.136 1390.39 245.052 Q1388.49 242.969 1385.34 242.969 Q1381.77 242.969 1379.62 244.983 Q1377.49 246.997 1377.17 250.654 L1392.35 250.631 Z" fill="#000000" fill-rule="nonzero" fill-opacity="1" /><path clip-path="url(#clip290)" d="M1431.8 229.89 L1431.8 233.432 L1427.72 233.432 Q1425.43 233.432 1424.53 234.358 Q1423.65 235.284 1423.65 237.691 L1423.65 239.983 L1430.66 239.983 L1430.66 243.293 L1423.65 243.293 L1423.65 265.909 L1419.37 265.909 L1419.37 243.293 L1415.29 243.293 L1415.29 239.983 L1419.37 239.983 L1419.37 238.177 Q1419.37 233.849 1421.38 231.881 Q1423.39 229.89 1427.77 229.89 L1431.8 229.89 Z" fill="#000000" fill-rule="nonzero" fill-opacity="1" /><path clip-path="url(#clip290)" d="M1434.92 255.677 L1434.92 239.983 L1439.18 239.983 L1439.18 255.515 Q1439.18 259.196 1440.62 261.048 Q1442.05 262.876 1444.92 262.876 Q1448.37 262.876 1450.36 260.677 Q1452.38 258.478 1452.38 254.682 L1452.38 239.983 L1456.64 239.983 L1456.64 265.909 L1452.38 265.909 L1452.38 261.927 Q1450.83 264.288 1448.76 265.446 Q1446.73 266.58 1444.02 266.58 Q1439.55 266.58 1437.24 263.802 Q1434.92 261.024 1434.92 255.677 M1445.64 239.358 L1445.64 239.358 Z" fill="#000000" fill-rule="nonzero" fill-opacity="1" /><path clip-path="url(#clip290)" d="M1486.96 250.261 L1486.96 265.909 L1482.7 265.909 L1482.7 250.399 Q1482.7 246.719 1481.26 244.89 Q1479.83 243.062 1476.96 243.062 Q1473.51 243.062 1471.52 245.261 Q1469.53 247.46 1469.53 251.256 L1469.53 265.909 L1465.25 265.909 L1465.25 239.983 L1469.53 239.983 L1469.53 244.011 Q1471.06 241.673 1473.12 240.515 Q1475.2 239.358 1477.91 239.358 Q1482.38 239.358 1484.67 242.136 Q1486.96 244.89 1486.96 250.261 Z" fill="#000000" fill-rule="nonzero" fill-opacity="1" /><path clip-path="url(#clip290)" d="M1514.11 240.978 L1514.11 244.96 Q1512.31 243.964 1510.48 243.478 Q1508.67 242.969 1506.82 242.969 Q1502.68 242.969 1500.39 245.608 Q1498.09 248.224 1498.09 252.969 Q1498.09 257.714 1500.39 260.353 Q1502.68 262.969 1506.82 262.969 Q1508.67 262.969 1510.48 262.483 Q1512.31 261.973 1514.11 260.978 L1514.11 264.913 Q1512.33 265.747 1510.41 266.163 Q1508.51 266.58 1506.36 266.58 Q1500.5 266.58 1497.05 262.899 Q1493.6 259.219 1493.6 252.969 Q1493.6 246.626 1497.07 242.992 Q1500.57 239.358 1506.64 239.358 Q1508.6 239.358 1510.48 239.775 Q1512.35 240.168 1514.11 240.978 Z" fill="#000000" fill-rule="nonzero" fill-opacity="1" /><path clip-path="url(#clip290)" d="M1525.73 232.622 L1525.73 239.983 L1534.51 239.983 L1534.51 243.293 L1525.73 243.293 L1525.73 257.367 Q1525.73 260.538 1526.59 261.441 Q1527.47 262.344 1530.13 262.344 L1534.51 262.344 L1534.51 265.909 L1530.13 265.909 Q1525.2 265.909 1523.32 264.08 Q1521.45 262.228 1521.45 257.367 L1521.45 243.293 L1518.32 243.293 L1518.32 239.983 L1521.45 239.983 L1521.45 232.622 L1525.73 232.622 Z" fill="#000000" fill-rule="nonzero" fill-opacity="1" /><path clip-path="url(#clip290)" d="M1540.11 239.983 L1544.37 239.983 L1544.37 265.909 L1540.11 265.909 L1540.11 239.983 M1540.11 229.89 L1544.37 229.89 L1544.37 235.284 L1540.11 235.284 L1540.11 229.89 Z" fill="#000000" fill-rule="nonzero" fill-opacity="1" /><path clip-path="url(#clip290)" d="M1563.32 242.969 Q1559.9 242.969 1557.91 245.654 Q1555.92 248.316 1555.92 252.969 Q1555.92 257.622 1557.88 260.307 Q1559.88 262.969 1563.32 262.969 Q1566.73 262.969 1568.72 260.284 Q1570.71 257.598 1570.71 252.969 Q1570.71 248.362 1568.72 245.677 Q1566.73 242.969 1563.32 242.969 M1563.32 239.358 Q1568.88 239.358 1572.05 242.969 Q1575.22 246.58 1575.22 252.969 Q1575.22 259.335 1572.05 262.969 Q1568.88 266.58 1563.32 266.58 Q1557.75 266.58 1554.57 262.969 Q1551.43 259.335 1551.43 252.969 Q1551.43 246.58 1554.57 242.969 Q1557.75 239.358 1563.32 239.358 Z" fill="#000000" fill-rule="nonzero" fill-opacity="1" /><path clip-path="url(#clip290)" d="M1603.83 250.261 L1603.83 265.909 L1599.57 265.909 L1599.57 250.399 Q1599.57 246.719 1598.14 244.89 Q1596.7 243.062 1593.83 243.062 Q1590.38 243.062 1588.39 245.261 Q1586.4 247.46 1586.4 251.256 L1586.4 265.909 L1582.12 265.909 L1582.12 239.983 L1586.4 239.983 L1586.4 244.011 Q1587.93 241.673 1589.99 240.515 Q1592.07 239.358 1594.78 239.358 Q1599.25 239.358 1601.54 242.136 Q1603.83 244.89 1603.83 250.261 Z" fill="#000000" fill-rule="nonzero" fill-opacity="1" /></svg>
