<?xml version="1.0" encoding="utf-8"?>
<svg xmlns="http://www.w3.org/2000/svg" xmlns:xlink="http://www.w3.org/1999/xlink" width="600" height="400" viewBox="0 0 2400 1600">
<defs>
  <clipPath id="clip380">
    <rect x="0" y="0" width="2400" height="1600"/>
  </clipPath>
</defs>
<path clip-path="url(#clip380)" d="M0 1600 L2400 1600 L2400 0 L0 0  Z" fill="#ffffff" fill-rule="evenodd" fill-opacity="1"/>
<defs>
  <clipPath id="clip381">
    <rect x="480" y="0" width="1681" height="1600"/>
  </clipPath>
</defs>
<path clip-path="url(#clip380)" d="M257.204 1423.18 L2352.76 1423.18 L2352.76 47.2441 L257.204 47.2441  Z" fill="#ffffff" fill-rule="evenodd" fill-opacity="1"/>
<defs>
  <clipPath id="clip382">
    <rect x="257" y="47" width="2097" height="1377"/>
  </clipPath>
</defs>
<polyline clip-path="url(#clip382)" style="stroke:#000000; stroke-linecap:round; stroke-linejoin:round; stroke-width:2; stroke-opacity:0.1; fill:none" points="257.204,1423.18 257.204,47.2441 "/>
<polyline clip-path="url(#clip382)" style="stroke:#000000; stroke-linecap:round; stroke-linejoin:round; stroke-width:2; stroke-opacity:0.1; fill:none" points="955.721,1423.18 955.721,47.2441 "/>
<polyline clip-path="url(#clip382)" style="stroke:#000000; stroke-linecap:round; stroke-linejoin:round; stroke-width:2; stroke-opacity:0.1; fill:none" points="1654.24,1423.18 1654.24,47.2441 "/>
<polyline clip-path="url(#clip382)" style="stroke:#000000; stroke-linecap:round; stroke-linejoin:round; stroke-width:2; stroke-opacity:0.1; fill:none" points="2352.76,1423.18 2352.76,47.2441 "/>
<polyline clip-path="url(#clip382)" style="stroke:#000000; stroke-linecap:round; stroke-linejoin:round; stroke-width:2; stroke-opacity:0.1; fill:none" points="257.204,1295.62 2352.76,1295.62 "/>
<polyline clip-path="url(#clip382)" style="stroke:#000000; stroke-linecap:round; stroke-linejoin:round; stroke-width:2; stroke-opacity:0.1; fill:none" points="257.204,1073.97 2352.76,1073.97 "/>
<polyline clip-path="url(#clip382)" style="stroke:#000000; stroke-linecap:round; stroke-linejoin:round; stroke-width:2; stroke-opacity:0.1; fill:none" points="257.204,852.326 2352.76,852.326 "/>
<polyline clip-path="url(#clip382)" style="stroke:#000000; stroke-linecap:round; stroke-linejoin:round; stroke-width:2; stroke-opacity:0.1; fill:none" points="257.204,630.68 2352.76,630.68 "/>
<polyline clip-path="url(#clip382)" style="stroke:#000000; stroke-linecap:round; stroke-linejoin:round; stroke-width:2; stroke-opacity:0.1; fill:none" points="257.204,409.034 2352.76,409.034 "/>
<polyline clip-path="url(#clip382)" style="stroke:#000000; stroke-linecap:round; stroke-linejoin:round; stroke-width:2; stroke-opacity:0.1; fill:none" points="257.204,187.388 2352.76,187.388 "/>
<polyline clip-path="url(#clip380)" style="stroke:#000000; stroke-linecap:round; stroke-linejoin:round; stroke-width:4; stroke-opacity:1; fill:none" points="257.204,1423.18 2352.76,1423.18 "/>
<polyline clip-path="url(#clip380)" style="stroke:#000000; stroke-linecap:round; stroke-linejoin:round; stroke-width:4; stroke-opacity:1; fill:none" points="257.204,1423.18 257.204,1404.28 "/>
<polyline clip-path="url(#clip380)" style="stroke:#000000; stroke-linecap:round; stroke-linejoin:round; stroke-width:4; stroke-opacity:1; fill:none" points="955.721,1423.18 955.721,1404.28 "/>
<polyline clip-path="url(#clip380)" style="stroke:#000000; stroke-linecap:round; stroke-linejoin:round; stroke-width:4; stroke-opacity:1; fill:none" points="1654.24,1423.18 1654.24,1404.28 "/>
<polyline clip-path="url(#clip380)" style="stroke:#000000; stroke-linecap:round; stroke-linejoin:round; stroke-width:4; stroke-opacity:1; fill:none" points="2352.76,1423.18 2352.76,1404.28 "/>
<path clip-path="url(#clip380)" d="M247.586 1481.64 L255.225 1481.64 L255.225 1455.28 L246.915 1456.95 L246.915 1452.69 L255.179 1451.02 L259.854 1451.02 L259.854 1481.64 L267.493 1481.64 L267.493 1485.58 L247.586 1485.58 L247.586 1481.64 Z" fill="#000000" fill-rule="nonzero" fill-opacity="1" /><path clip-path="url(#clip380)" d="M950.374 1481.64 L966.693 1481.64 L966.693 1485.58 L944.749 1485.58 L944.749 1481.64 Q947.411 1478.89 951.994 1474.26 Q956.601 1469.61 957.781 1468.27 Q960.027 1465.74 960.906 1464.01 Q961.809 1462.25 961.809 1460.56 Q961.809 1457.8 959.865 1456.07 Q957.944 1454.33 954.842 1454.33 Q952.643 1454.33 950.189 1455.09 Q947.758 1455.86 944.981 1457.41 L944.981 1452.69 Q947.805 1451.55 950.258 1450.97 Q952.712 1450.39 954.749 1450.39 Q960.119 1450.39 963.314 1453.08 Q966.508 1455.77 966.508 1460.26 Q966.508 1462.39 965.698 1464.31 Q964.911 1466.2 962.805 1468.8 Q962.226 1469.47 959.124 1472.69 Q956.022 1475.88 950.374 1481.64 Z" fill="#000000" fill-rule="nonzero" fill-opacity="1" /><path clip-path="url(#clip380)" d="M1658.49 1466.95 Q1661.84 1467.66 1663.72 1469.93 Q1665.62 1472.2 1665.62 1475.53 Q1665.62 1480.65 1662.1 1483.45 Q1658.58 1486.25 1652.1 1486.25 Q1649.92 1486.25 1647.61 1485.81 Q1645.32 1485.39 1642.86 1484.54 L1642.86 1480.02 Q1644.81 1481.16 1647.12 1481.74 Q1649.44 1482.32 1651.96 1482.32 Q1656.36 1482.32 1658.65 1480.58 Q1660.96 1478.84 1660.96 1475.53 Q1660.96 1472.48 1658.81 1470.77 Q1656.68 1469.03 1652.86 1469.03 L1648.83 1469.03 L1648.83 1465.19 L1653.05 1465.19 Q1656.5 1465.19 1658.32 1463.82 Q1660.15 1462.43 1660.15 1459.84 Q1660.15 1457.18 1658.25 1455.77 Q1656.38 1454.33 1652.86 1454.33 Q1650.94 1454.33 1648.74 1454.75 Q1646.54 1455.16 1643.9 1456.04 L1643.9 1451.88 Q1646.57 1451.14 1648.88 1450.77 Q1651.22 1450.39 1653.28 1450.39 Q1658.6 1450.39 1661.7 1452.83 Q1664.81 1455.23 1664.81 1459.35 Q1664.81 1462.22 1663.16 1464.21 Q1661.52 1466.18 1658.49 1466.95 Z" fill="#000000" fill-rule="nonzero" fill-opacity="1" /><path clip-path="url(#clip380)" d="M2355.77 1455.09 L2343.96 1473.54 L2355.77 1473.54 L2355.77 1455.09 M2354.54 1451.02 L2360.42 1451.02 L2360.42 1473.54 L2365.35 1473.54 L2365.35 1477.43 L2360.42 1477.43 L2360.42 1485.58 L2355.77 1485.58 L2355.77 1477.43 L2340.16 1477.43 L2340.16 1472.92 L2354.54 1451.02 Z" fill="#000000" fill-rule="nonzero" fill-opacity="1" /><path clip-path="url(#clip380)" d="M1321.59 1532.4 L1308.7 1549.74 L1322.26 1568.04 L1315.36 1568.04 L1304.98 1554.04 L1294.6 1568.04 L1287.7 1568.04 L1301.54 1549.39 L1288.87 1532.4 L1295.78 1532.4 L1305.23 1545.1 L1314.69 1532.4 L1321.59 1532.4 Z" fill="#000000" fill-rule="nonzero" fill-opacity="1" /><polyline clip-path="url(#clip380)" style="stroke:#000000; stroke-linecap:round; stroke-linejoin:round; stroke-width:4; stroke-opacity:1; fill:none" points="257.204,1423.18 257.204,47.2441 "/>
<polyline clip-path="url(#clip380)" style="stroke:#000000; stroke-linecap:round; stroke-linejoin:round; stroke-width:4; stroke-opacity:1; fill:none" points="257.204,1295.62 276.102,1295.62 "/>
<polyline clip-path="url(#clip380)" style="stroke:#000000; stroke-linecap:round; stroke-linejoin:round; stroke-width:4; stroke-opacity:1; fill:none" points="257.204,1073.97 276.102,1073.97 "/>
<polyline clip-path="url(#clip380)" style="stroke:#000000; stroke-linecap:round; stroke-linejoin:round; stroke-width:4; stroke-opacity:1; fill:none" points="257.204,852.326 276.102,852.326 "/>
<polyline clip-path="url(#clip380)" style="stroke:#000000; stroke-linecap:round; stroke-linejoin:round; stroke-width:4; stroke-opacity:1; fill:none" points="257.204,630.68 276.102,630.68 "/>
<polyline clip-path="url(#clip380)" style="stroke:#000000; stroke-linecap:round; stroke-linejoin:round; stroke-width:4; stroke-opacity:1; fill:none" points="257.204,409.034 276.102,409.034 "/>
<polyline clip-path="url(#clip380)" style="stroke:#000000; stroke-linecap:round; stroke-linejoin:round; stroke-width:4; stroke-opacity:1; fill:none" points="257.204,187.388 276.102,187.388 "/>
<path clip-path="url(#clip380)" d="M114.26 1296.07 L143.936 1296.07 L143.936 1300 L114.26 1300 L114.26 1296.07 Z" fill="#000000" fill-rule="nonzero" fill-opacity="1" /><path clip-path="url(#clip380)" d="M154.839 1308.96 L162.477 1308.96 L162.477 1282.6 L154.167 1284.26 L154.167 1280 L162.431 1278.34 L167.107 1278.34 L167.107 1308.96 L174.746 1308.96 L174.746 1312.9 L154.839 1312.9 L154.839 1308.96 Z" fill="#000000" fill-rule="nonzero" fill-opacity="1" /><path clip-path="url(#clip380)" d="M184.19 1307.02 L189.075 1307.02 L189.075 1312.9 L184.19 1312.9 L184.19 1307.02 Z" fill="#000000" fill-rule="nonzero" fill-opacity="1" /><path clip-path="url(#clip380)" d="M209.26 1281.42 Q205.649 1281.42 203.82 1284.98 Q202.014 1288.52 202.014 1295.65 Q202.014 1302.76 203.82 1306.32 Q205.649 1309.87 209.26 1309.87 Q212.894 1309.87 214.699 1306.32 Q216.528 1302.76 216.528 1295.65 Q216.528 1288.52 214.699 1284.98 Q212.894 1281.42 209.26 1281.42 M209.26 1277.71 Q215.07 1277.71 218.125 1282.32 Q221.204 1286.9 221.204 1295.65 Q221.204 1304.38 218.125 1308.99 Q215.07 1313.57 209.26 1313.57 Q203.449 1313.57 200.371 1308.99 Q197.315 1304.38 197.315 1295.65 Q197.315 1286.9 200.371 1282.32 Q203.449 1277.71 209.26 1277.71 Z" fill="#000000" fill-rule="nonzero" fill-opacity="1" /><path clip-path="url(#clip380)" d="M115.256 1074.42 L144.931 1074.42 L144.931 1078.36 L115.256 1078.36 L115.256 1074.42 Z" fill="#000000" fill-rule="nonzero" fill-opacity="1" /><path clip-path="url(#clip380)" d="M165.024 1059.77 Q161.413 1059.77 159.584 1063.34 Q157.778 1066.88 157.778 1074.01 Q157.778 1081.11 159.584 1084.68 Q161.413 1088.22 165.024 1088.22 Q168.658 1088.22 170.464 1084.68 Q172.292 1081.11 172.292 1074.01 Q172.292 1066.88 170.464 1063.34 Q168.658 1059.77 165.024 1059.77 M165.024 1056.07 Q170.834 1056.07 173.889 1060.67 Q176.968 1065.26 176.968 1074.01 Q176.968 1082.73 173.889 1087.34 Q170.834 1091.92 165.024 1091.92 Q159.214 1091.92 156.135 1087.34 Q153.079 1082.73 153.079 1074.01 Q153.079 1065.26 156.135 1060.67 Q159.214 1056.07 165.024 1056.07 Z" fill="#000000" fill-rule="nonzero" fill-opacity="1" /><path clip-path="url(#clip380)" d="M185.186 1085.37 L190.07 1085.37 L190.07 1091.25 L185.186 1091.25 L185.186 1085.37 Z" fill="#000000" fill-rule="nonzero" fill-opacity="1" /><path clip-path="url(#clip380)" d="M200.301 1056.69 L218.658 1056.69 L218.658 1060.63 L204.584 1060.63 L204.584 1069.1 Q205.602 1068.75 206.621 1068.59 Q207.639 1068.4 208.658 1068.4 Q214.445 1068.4 217.824 1071.58 Q221.204 1074.75 221.204 1080.16 Q221.204 1085.74 217.732 1088.84 Q214.26 1091.92 207.94 1091.92 Q205.764 1091.92 203.496 1091.55 Q201.25 1091.18 198.843 1090.44 L198.843 1085.74 Q200.926 1086.88 203.149 1087.43 Q205.371 1087.99 207.848 1087.99 Q211.852 1087.99 214.19 1085.88 Q216.528 1083.77 216.528 1080.16 Q216.528 1076.55 214.19 1074.45 Q211.852 1072.34 207.848 1072.34 Q205.973 1072.34 204.098 1072.76 Q202.246 1073.17 200.301 1074.05 L200.301 1056.69 Z" fill="#000000" fill-rule="nonzero" fill-opacity="1" /><path clip-path="url(#clip380)" d="M164.028 838.124 Q160.417 838.124 158.589 841.689 Q156.783 845.231 156.783 852.36 Q156.783 859.467 158.589 863.032 Q160.417 866.573 164.028 866.573 Q167.663 866.573 169.468 863.032 Q171.297 859.467 171.297 852.36 Q171.297 845.231 169.468 841.689 Q167.663 838.124 164.028 838.124 M164.028 834.421 Q169.839 834.421 172.894 839.027 Q175.973 843.61 175.973 852.36 Q175.973 861.087 172.894 865.694 Q169.839 870.277 164.028 870.277 Q158.218 870.277 155.14 865.694 Q152.084 861.087 152.084 852.36 Q152.084 843.61 155.14 839.027 Q158.218 834.421 164.028 834.421 Z" fill="#000000" fill-rule="nonzero" fill-opacity="1" /><path clip-path="url(#clip380)" d="M184.19 863.726 L189.075 863.726 L189.075 869.606 L184.19 869.606 L184.19 863.726 Z" fill="#000000" fill-rule="nonzero" fill-opacity="1" /><path clip-path="url(#clip380)" d="M209.26 838.124 Q205.649 838.124 203.82 841.689 Q202.014 845.231 202.014 852.36 Q202.014 859.467 203.82 863.032 Q205.649 866.573 209.26 866.573 Q212.894 866.573 214.699 863.032 Q216.528 859.467 216.528 852.36 Q216.528 845.231 214.699 841.689 Q212.894 838.124 209.26 838.124 M209.26 834.421 Q215.07 834.421 218.125 839.027 Q221.204 843.61 221.204 852.36 Q221.204 861.087 218.125 865.694 Q215.07 870.277 209.26 870.277 Q203.449 870.277 200.371 865.694 Q197.315 861.087 197.315 852.36 Q197.315 843.61 200.371 839.027 Q203.449 834.421 209.26 834.421 Z" fill="#000000" fill-rule="nonzero" fill-opacity="1" /><path clip-path="url(#clip380)" d="M165.024 616.478 Q161.413 616.478 159.584 620.043 Q157.778 623.585 157.778 630.714 Q157.778 637.821 159.584 641.386 Q161.413 644.927 165.024 644.927 Q168.658 644.927 170.464 641.386 Q172.292 637.821 172.292 630.714 Q172.292 623.585 170.464 620.043 Q168.658 616.478 165.024 616.478 M165.024 612.775 Q170.834 612.775 173.889 617.381 Q176.968 621.964 176.968 630.714 Q176.968 639.441 173.889 644.048 Q170.834 648.631 165.024 648.631 Q159.214 648.631 156.135 644.048 Q153.079 639.441 153.079 630.714 Q153.079 621.964 156.135 617.381 Q159.214 612.775 165.024 612.775 Z" fill="#000000" fill-rule="nonzero" fill-opacity="1" /><path clip-path="url(#clip380)" d="M185.186 642.08 L190.07 642.08 L190.07 647.96 L185.186 647.96 L185.186 642.08 Z" fill="#000000" fill-rule="nonzero" fill-opacity="1" /><path clip-path="url(#clip380)" d="M200.301 613.4 L218.658 613.4 L218.658 617.335 L204.584 617.335 L204.584 625.807 Q205.602 625.46 206.621 625.298 Q207.639 625.113 208.658 625.113 Q214.445 625.113 217.824 628.284 Q221.204 631.455 221.204 636.872 Q221.204 642.45 217.732 645.552 Q214.26 648.631 207.94 648.631 Q205.764 648.631 203.496 648.261 Q201.25 647.89 198.843 647.149 L198.843 642.45 Q200.926 643.585 203.149 644.14 Q205.371 644.696 207.848 644.696 Q211.852 644.696 214.19 642.589 Q216.528 640.483 216.528 636.872 Q216.528 633.261 214.19 631.154 Q211.852 629.048 207.848 629.048 Q205.973 629.048 204.098 629.464 Q202.246 629.881 200.301 630.761 L200.301 613.4 Z" fill="#000000" fill-rule="nonzero" fill-opacity="1" /><path clip-path="url(#clip380)" d="M154.839 422.379 L162.477 422.379 L162.477 396.013 L154.167 397.68 L154.167 393.42 L162.431 391.754 L167.107 391.754 L167.107 422.379 L174.746 422.379 L174.746 426.314 L154.839 426.314 L154.839 422.379 Z" fill="#000000" fill-rule="nonzero" fill-opacity="1" /><path clip-path="url(#clip380)" d="M184.19 420.434 L189.075 420.434 L189.075 426.314 L184.19 426.314 L184.19 420.434 Z" fill="#000000" fill-rule="nonzero" fill-opacity="1" /><path clip-path="url(#clip380)" d="M209.26 394.832 Q205.649 394.832 203.82 398.397 Q202.014 401.939 202.014 409.068 Q202.014 416.175 203.82 419.74 Q205.649 423.281 209.26 423.281 Q212.894 423.281 214.699 419.74 Q216.528 416.175 216.528 409.068 Q216.528 401.939 214.699 398.397 Q212.894 394.832 209.26 394.832 M209.26 391.129 Q215.07 391.129 218.125 395.735 Q221.204 400.318 221.204 409.068 Q221.204 417.795 218.125 422.402 Q215.07 426.985 209.26 426.985 Q203.449 426.985 200.371 422.402 Q197.315 417.795 197.315 409.068 Q197.315 400.318 200.371 395.735 Q203.449 391.129 209.26 391.129 Z" fill="#000000" fill-rule="nonzero" fill-opacity="1" /><path clip-path="url(#clip380)" d="M155.834 200.733 L163.473 200.733 L163.473 174.367 L155.163 176.034 L155.163 171.774 L163.427 170.108 L168.102 170.108 L168.102 200.733 L175.741 200.733 L175.741 204.668 L155.834 204.668 L155.834 200.733 Z" fill="#000000" fill-rule="nonzero" fill-opacity="1" /><path clip-path="url(#clip380)" d="M185.186 198.788 L190.07 198.788 L190.07 204.668 L185.186 204.668 L185.186 198.788 Z" fill="#000000" fill-rule="nonzero" fill-opacity="1" /><path clip-path="url(#clip380)" d="M200.301 170.108 L218.658 170.108 L218.658 174.043 L204.584 174.043 L204.584 182.515 Q205.602 182.168 206.621 182.006 Q207.639 181.821 208.658 181.821 Q214.445 181.821 217.824 184.992 Q221.204 188.163 221.204 193.58 Q221.204 199.159 217.732 202.26 Q214.26 205.339 207.94 205.339 Q205.764 205.339 203.496 204.969 Q201.25 204.598 198.843 203.858 L198.843 199.159 Q200.926 200.293 203.149 200.848 Q205.371 201.404 207.848 201.404 Q211.852 201.404 214.19 199.297 Q216.528 197.191 216.528 193.58 Q216.528 189.969 214.19 187.862 Q211.852 185.756 207.848 185.756 Q205.973 185.756 204.098 186.172 Q202.246 186.589 200.301 187.469 L200.301 170.108 Z" fill="#000000" fill-rule="nonzero" fill-opacity="1" /><path clip-path="url(#clip380)" d="M67.3143 733.525 Q73.68 736.008 75.6216 738.363 Q77.5631 740.718 77.5631 744.665 L77.5631 749.344 L72.6615 749.344 L72.6615 745.906 Q72.6615 743.487 71.5157 742.151 Q70.3699 740.814 66.1048 739.191 L63.4312 738.14 L28.3562 752.559 L28.3562 746.352 L56.238 735.212 L28.3562 724.072 L28.3562 717.865 L67.3143 733.525 Z" fill="#000000" fill-rule="nonzero" fill-opacity="1" /><circle clip-path="url(#clip382)" cx="306.319" cy="646.632" r="14.4" fill="#fdedb0" fill-rule="evenodd" fill-opacity="1" stroke="#000000" stroke-opacity="1" stroke-width="3.2"/>
<circle clip-path="url(#clip382)" cx="1354.09" cy="277.537" r="14.4" fill="#fdedb0" fill-rule="evenodd" fill-opacity="1" stroke="#000000" stroke-opacity="1" stroke-width="3.2"/>
<circle clip-path="url(#clip382)" cx="1877.98" cy="1373.27" r="14.4" fill="#fdedb0" fill-rule="evenodd" fill-opacity="1" stroke="#000000" stroke-opacity="1" stroke-width="3.2"/>
<circle clip-path="url(#clip382)" cx="830.206" cy="517.543" r="14.4" fill="#fdedb0" fill-rule="evenodd" fill-opacity="1" stroke="#000000" stroke-opacity="1" stroke-width="3.2"/>
<circle clip-path="url(#clip382)" cx="1092.15" cy="111.645" r="14.4" fill="#fdedb0" fill-rule="evenodd" fill-opacity="1" stroke="#000000" stroke-opacity="1" stroke-width="3.2"/>
<circle clip-path="url(#clip382)" cx="2139.93" cy="1194.53" r="14.4" fill="#fdedb0" fill-rule="evenodd" fill-opacity="1" stroke="#000000" stroke-opacity="1" stroke-width="3.2"/>
<circle clip-path="url(#clip382)" cx="1616.04" cy="935.609" r="14.4" fill="#fdedb0" fill-rule="evenodd" fill-opacity="1" stroke="#000000" stroke-opacity="1" stroke-width="3.2"/>
<circle clip-path="url(#clip382)" cx="568.263" cy="853.355" r="14.4" fill="#fdedb0" fill-rule="evenodd" fill-opacity="1" stroke="#000000" stroke-opacity="1" stroke-width="3.2"/>
<circle clip-path="url(#clip382)" cx="699.235" cy="740.121" r="14.4" fill="#fdedb0" fill-rule="evenodd" fill-opacity="1" stroke="#000000" stroke-opacity="1" stroke-width="3.2"/>
<circle clip-path="url(#clip382)" cx="1747.01" cy="1225.69" r="14.4" fill="#fdedb0" fill-rule="evenodd" fill-opacity="1" stroke="#000000" stroke-opacity="1" stroke-width="3.2"/>
<circle clip-path="url(#clip382)" cx="2270.9" cy="988.714" r="14.4" fill="#fdedb0" fill-rule="evenodd" fill-opacity="1" stroke="#000000" stroke-opacity="1" stroke-width="3.2"/>
<circle clip-path="url(#clip382)" cx="1223.12" cy="105.776" r="14.4" fill="#fdedb0" fill-rule="evenodd" fill-opacity="1" stroke="#000000" stroke-opacity="1" stroke-width="3.2"/>
<circle clip-path="url(#clip382)" cx="961.178" cy="274.189" r="14.4" fill="#fdedb0" fill-rule="evenodd" fill-opacity="1" stroke="#000000" stroke-opacity="1" stroke-width="3.2"/>
<circle clip-path="url(#clip382)" cx="2008.95" cy="1350.93" r="14.4" fill="#fdedb0" fill-rule="evenodd" fill-opacity="1" stroke="#000000" stroke-opacity="1" stroke-width="3.2"/>
<circle clip-path="url(#clip382)" cx="1485.07" cy="584.391" r="14.4" fill="#fdedb0" fill-rule="evenodd" fill-opacity="1" stroke="#000000" stroke-opacity="1" stroke-width="3.2"/>
<circle clip-path="url(#clip382)" cx="437.291" cy="815.337" r="14.4" fill="#fdedb0" fill-rule="evenodd" fill-opacity="1" stroke="#000000" stroke-opacity="1" stroke-width="3.2"/>
<circle clip-path="url(#clip382)" cx="502.777" cy="853.456" r="14.4" fill="#fdedb0" fill-rule="evenodd" fill-opacity="1" stroke="#000000" stroke-opacity="1" stroke-width="3.2"/>
<circle clip-path="url(#clip382)" cx="1550.55" cy="761.168" r="14.4" fill="#fdedb0" fill-rule="evenodd" fill-opacity="1" stroke="#000000" stroke-opacity="1" stroke-width="3.2"/>
<circle clip-path="url(#clip382)" cx="2074.44" cy="1285.02" r="14.4" fill="#fdedb0" fill-rule="evenodd" fill-opacity="1" stroke="#000000" stroke-opacity="1" stroke-width="3.2"/>
<circle clip-path="url(#clip382)" cx="1026.66" cy="177.049" r="14.4" fill="#fdedb0" fill-rule="evenodd" fill-opacity="1" stroke="#000000" stroke-opacity="1" stroke-width="3.2"/>
<circle clip-path="url(#clip382)" cx="1288.61" cy="170.691" r="14.4" fill="#fdedb0" fill-rule="evenodd" fill-opacity="1" stroke="#000000" stroke-opacity="1" stroke-width="3.2"/>
<circle clip-path="url(#clip382)" cx="2336.38" cy="899.153" r="14.4" fill="#fdedb0" fill-rule="evenodd" fill-opacity="1" stroke="#000000" stroke-opacity="1" stroke-width="3.2"/>
<circle clip-path="url(#clip382)" cx="1812.5" cy="1320.49" r="14.4" fill="#fdedb0" fill-rule="evenodd" fill-opacity="1" stroke="#000000" stroke-opacity="1" stroke-width="3.2"/>
<circle clip-path="url(#clip382)" cx="764.72" cy="637.725" r="14.4" fill="#fdedb0" fill-rule="evenodd" fill-opacity="1" stroke="#000000" stroke-opacity="1" stroke-width="3.2"/>
<circle clip-path="url(#clip382)" cx="633.749" cy="814.415" r="14.4" fill="#fdedb0" fill-rule="evenodd" fill-opacity="1" stroke="#000000" stroke-opacity="1" stroke-width="3.2"/>
<circle clip-path="url(#clip382)" cx="1681.52" cy="1094.37" r="14.4" fill="#fdedb0" fill-rule="evenodd" fill-opacity="1" stroke="#000000" stroke-opacity="1" stroke-width="3.2"/>
<circle clip-path="url(#clip382)" cx="2205.41" cy="1091.43" r="14.4" fill="#fdedb0" fill-rule="evenodd" fill-opacity="1" stroke="#000000" stroke-opacity="1" stroke-width="3.2"/>
<circle clip-path="url(#clip382)" cx="1157.64" cy="86.3106" r="14.4" fill="#fdedb0" fill-rule="evenodd" fill-opacity="1" stroke="#000000" stroke-opacity="1" stroke-width="3.2"/>
<circle clip-path="url(#clip382)" cx="895.692" cy="391.953" r="14.4" fill="#fdedb0" fill-rule="evenodd" fill-opacity="1" stroke="#000000" stroke-opacity="1" stroke-width="3.2"/>
<circle clip-path="url(#clip382)" cx="1943.47" cy="1382.52" r="14.4" fill="#fdedb0" fill-rule="evenodd" fill-opacity="1" stroke="#000000" stroke-opacity="1" stroke-width="3.2"/>
<circle clip-path="url(#clip382)" cx="1419.58" cy="418.947" r="14.4" fill="#fdedb0" fill-rule="evenodd" fill-opacity="1" stroke="#000000" stroke-opacity="1" stroke-width="3.2"/>
<circle clip-path="url(#clip382)" cx="371.805" cy="743.651" r="14.4" fill="#fdedb0" fill-rule="evenodd" fill-opacity="1" stroke="#000000" stroke-opacity="1" stroke-width="3.2"/>
<circle clip-path="url(#clip382)" cx="339.062" cy="697.674" r="14.4" fill="#fdedb0" fill-rule="evenodd" fill-opacity="1" stroke="#000000" stroke-opacity="1" stroke-width="3.2"/>
<circle clip-path="url(#clip382)" cx="1386.84" cy="344.516" r="14.4" fill="#fdedb0" fill-rule="evenodd" fill-opacity="1" stroke="#000000" stroke-opacity="1" stroke-width="3.2"/>
<circle clip-path="url(#clip382)" cx="1910.73" cy="1383.27" r="14.4" fill="#fdedb0" fill-rule="evenodd" fill-opacity="1" stroke="#000000" stroke-opacity="1" stroke-width="3.2"/>
<circle clip-path="url(#clip382)" cx="862.949" cy="454.602" r="14.4" fill="#fdedb0" fill-rule="evenodd" fill-opacity="1" stroke="#000000" stroke-opacity="1" stroke-width="3.2"/>
<circle clip-path="url(#clip382)" cx="1124.89" cy="93.5814" r="14.4" fill="#fdedb0" fill-rule="evenodd" fill-opacity="1" stroke="#000000" stroke-opacity="1" stroke-width="3.2"/>
<circle clip-path="url(#clip382)" cx="2172.67" cy="1143.75" r="14.4" fill="#fdedb0" fill-rule="evenodd" fill-opacity="1" stroke="#000000" stroke-opacity="1" stroke-width="3.2"/>
<circle clip-path="url(#clip382)" cx="1648.78" cy="1017.73" r="14.4" fill="#fdedb0" fill-rule="evenodd" fill-opacity="1" stroke="#000000" stroke-opacity="1" stroke-width="3.2"/>
<circle clip-path="url(#clip382)" cx="601.006" cy="838.616" r="14.4" fill="#fdedb0" fill-rule="evenodd" fill-opacity="1" stroke="#000000" stroke-opacity="1" stroke-width="3.2"/>
<circle clip-path="url(#clip382)" cx="731.978" cy="691.853" r="14.4" fill="#fdedb0" fill-rule="evenodd" fill-opacity="1" stroke="#000000" stroke-opacity="1" stroke-width="3.2"/>
<circle clip-path="url(#clip382)" cx="1779.75" cy="1278.09" r="14.4" fill="#fdedb0" fill-rule="evenodd" fill-opacity="1" stroke="#000000" stroke-opacity="1" stroke-width="3.2"/>
<circle clip-path="url(#clip382)" cx="2303.64" cy="941.537" r="14.4" fill="#fdedb0" fill-rule="evenodd" fill-opacity="1" stroke="#000000" stroke-opacity="1" stroke-width="3.2"/>
<circle clip-path="url(#clip382)" cx="1255.87" cy="132.677" r="14.4" fill="#fdedb0" fill-rule="evenodd" fill-opacity="1" stroke="#000000" stroke-opacity="1" stroke-width="3.2"/>
<circle clip-path="url(#clip382)" cx="993.921" cy="222.293" r="14.4" fill="#fdedb0" fill-rule="evenodd" fill-opacity="1" stroke="#000000" stroke-opacity="1" stroke-width="3.2"/>
<circle clip-path="url(#clip382)" cx="2041.7" cy="1321.72" r="14.4" fill="#fdedb0" fill-rule="evenodd" fill-opacity="1" stroke="#000000" stroke-opacity="1" stroke-width="3.2"/>
<circle clip-path="url(#clip382)" cx="1517.81" cy="672.21" r="14.4" fill="#fdedb0" fill-rule="evenodd" fill-opacity="1" stroke="#000000" stroke-opacity="1" stroke-width="3.2"/>
<circle clip-path="url(#clip382)" cx="470.034" cy="838.974" r="14.4" fill="#fdedb0" fill-rule="evenodd" fill-opacity="1" stroke="#000000" stroke-opacity="1" stroke-width="3.2"/>
<circle clip-path="url(#clip382)" cx="404.548" cy="783.251" r="14.4" fill="#fdedb0" fill-rule="evenodd" fill-opacity="1" stroke="#000000" stroke-opacity="1" stroke-width="3.2"/>
<circle clip-path="url(#clip382)" cx="1452.32" cy="499.421" r="14.4" fill="#fdedb0" fill-rule="evenodd" fill-opacity="1" stroke="#000000" stroke-opacity="1" stroke-width="3.2"/>
<circle clip-path="url(#clip382)" cx="1976.21" cy="1371.51" r="14.4" fill="#fdedb0" fill-rule="evenodd" fill-opacity="1" stroke="#000000" stroke-opacity="1" stroke-width="3.2"/>
<circle clip-path="url(#clip382)" cx="928.435" cy="331.267" r="14.4" fill="#fdedb0" fill-rule="evenodd" fill-opacity="1" stroke="#000000" stroke-opacity="1" stroke-width="3.2"/>
<circle clip-path="url(#clip382)" cx="1190.38" cy="90.3043" r="14.4" fill="#fdedb0" fill-rule="evenodd" fill-opacity="1" stroke="#000000" stroke-opacity="1" stroke-width="3.2"/>
<circle clip-path="url(#clip382)" cx="2238.16" cy="1039.2" r="14.4" fill="#fdedb0" fill-rule="evenodd" fill-opacity="1" stroke="#000000" stroke-opacity="1" stroke-width="3.2"/>
<circle clip-path="url(#clip382)" cx="1714.27" cy="1164.1" r="14.4" fill="#fdedb0" fill-rule="evenodd" fill-opacity="1" stroke="#000000" stroke-opacity="1" stroke-width="3.2"/>
<circle clip-path="url(#clip382)" cx="666.492" cy="781.316" r="14.4" fill="#fdedb0" fill-rule="evenodd" fill-opacity="1" stroke="#000000" stroke-opacity="1" stroke-width="3.2"/>
<circle clip-path="url(#clip382)" cx="535.52" cy="858.319" r="14.4" fill="#fdedb0" fill-rule="evenodd" fill-opacity="1" stroke="#000000" stroke-opacity="1" stroke-width="3.2"/>
<circle clip-path="url(#clip382)" cx="1583.3" cy="849.538" r="14.4" fill="#fdedb0" fill-rule="evenodd" fill-opacity="1" stroke="#000000" stroke-opacity="1" stroke-width="3.2"/>
<circle clip-path="url(#clip382)" cx="2107.18" cy="1242.14" r="14.4" fill="#fdedb0" fill-rule="evenodd" fill-opacity="1" stroke="#000000" stroke-opacity="1" stroke-width="3.2"/>
<circle clip-path="url(#clip382)" cx="1059.41" cy="139.782" r="14.4" fill="#fdedb0" fill-rule="evenodd" fill-opacity="1" stroke="#000000" stroke-opacity="1" stroke-width="3.2"/>
<circle clip-path="url(#clip382)" cx="797.463" cy="579.119" r="14.4" fill="#fdedb0" fill-rule="evenodd" fill-opacity="1" stroke="#000000" stroke-opacity="1" stroke-width="3.2"/>
<circle clip-path="url(#clip382)" cx="1845.24" cy="1352.33" r="14.4" fill="#fdedb0" fill-rule="evenodd" fill-opacity="1" stroke="#000000" stroke-opacity="1" stroke-width="3.2"/>
<circle clip-path="url(#clip382)" cx="1321.35" cy="219.249" r="14.4" fill="#fdedb0" fill-rule="evenodd" fill-opacity="1" stroke="#000000" stroke-opacity="1" stroke-width="3.2"/>
<circle clip-path="url(#clip382)" cx="273.576" cy="591.98" r="14.4" fill="#fdedb0" fill-rule="evenodd" fill-opacity="1" stroke="#000000" stroke-opacity="1" stroke-width="3.2"/>
<circle clip-path="url(#clip382)" cx="281.761" cy="605.898" r="14.4" fill="#fdedb0" fill-rule="evenodd" fill-opacity="1" stroke="#000000" stroke-opacity="1" stroke-width="3.2"/>
<circle clip-path="url(#clip382)" cx="1329.54" cy="232.946" r="14.4" fill="#fdedb0" fill-rule="evenodd" fill-opacity="1" stroke="#000000" stroke-opacity="1" stroke-width="3.2"/>
<circle clip-path="url(#clip382)" cx="1853.43" cy="1358.59" r="14.4" fill="#fdedb0" fill-rule="evenodd" fill-opacity="1" stroke="#000000" stroke-opacity="1" stroke-width="3.2"/>
<circle clip-path="url(#clip382)" cx="805.649" cy="563.942" r="14.4" fill="#fdedb0" fill-rule="evenodd" fill-opacity="1" stroke="#000000" stroke-opacity="1" stroke-width="3.2"/>
<circle clip-path="url(#clip382)" cx="1067.59" cy="131.852" r="14.4" fill="#fdedb0" fill-rule="evenodd" fill-opacity="1" stroke="#000000" stroke-opacity="1" stroke-width="3.2"/>
<circle clip-path="url(#clip382)" cx="2115.37" cy="1230.62" r="14.4" fill="#fdedb0" fill-rule="evenodd" fill-opacity="1" stroke="#000000" stroke-opacity="1" stroke-width="3.2"/>
<circle clip-path="url(#clip382)" cx="1591.48" cy="871.337" r="14.4" fill="#fdedb0" fill-rule="evenodd" fill-opacity="1" stroke="#000000" stroke-opacity="1" stroke-width="3.2"/>
<circle clip-path="url(#clip382)" cx="543.705" cy="858.002" r="14.4" fill="#fdedb0" fill-rule="evenodd" fill-opacity="1" stroke="#000000" stroke-opacity="1" stroke-width="3.2"/>
<circle clip-path="url(#clip382)" cx="674.677" cy="771.74" r="14.4" fill="#fdedb0" fill-rule="evenodd" fill-opacity="1" stroke="#000000" stroke-opacity="1" stroke-width="3.2"/>
<circle clip-path="url(#clip382)" cx="1722.45" cy="1180.3" r="14.4" fill="#fdedb0" fill-rule="evenodd" fill-opacity="1" stroke="#000000" stroke-opacity="1" stroke-width="3.2"/>
<circle clip-path="url(#clip382)" cx="2246.34" cy="1026.36" r="14.4" fill="#fdedb0" fill-rule="evenodd" fill-opacity="1" stroke="#000000" stroke-opacity="1" stroke-width="3.2"/>
<circle clip-path="url(#clip382)" cx="1198.57" cy="93.0936" r="14.4" fill="#fdedb0" fill-rule="evenodd" fill-opacity="1" stroke="#000000" stroke-opacity="1" stroke-width="3.2"/>
<circle clip-path="url(#clip382)" cx="936.621" cy="316.596" r="14.4" fill="#fdedb0" fill-rule="evenodd" fill-opacity="1" stroke="#000000" stroke-opacity="1" stroke-width="3.2"/>
<circle clip-path="url(#clip382)" cx="1984.4" cy="1367.23" r="14.4" fill="#fdedb0" fill-rule="evenodd" fill-opacity="1" stroke="#000000" stroke-opacity="1" stroke-width="3.2"/>
<circle clip-path="url(#clip382)" cx="1460.51" cy="520.305" r="14.4" fill="#fdedb0" fill-rule="evenodd" fill-opacity="1" stroke="#000000" stroke-opacity="1" stroke-width="3.2"/>
<circle clip-path="url(#clip382)" cx="412.733" cy="792.017" r="14.4" fill="#fdedb0" fill-rule="evenodd" fill-opacity="1" stroke="#000000" stroke-opacity="1" stroke-width="3.2"/>
<circle clip-path="url(#clip382)" cx="478.219" cy="843.475" r="14.4" fill="#fdedb0" fill-rule="evenodd" fill-opacity="1" stroke="#000000" stroke-opacity="1" stroke-width="3.2"/>
<circle clip-path="url(#clip382)" cx="1526" cy="694.41" r="14.4" fill="#fdedb0" fill-rule="evenodd" fill-opacity="1" stroke="#000000" stroke-opacity="1" stroke-width="3.2"/>
<circle clip-path="url(#clip382)" cx="2049.88" cy="1313.2" r="14.4" fill="#fdedb0" fill-rule="evenodd" fill-opacity="1" stroke="#000000" stroke-opacity="1" stroke-width="3.2"/>
<circle clip-path="url(#clip382)" cx="1002.11" cy="210.303" r="14.4" fill="#fdedb0" fill-rule="evenodd" fill-opacity="1" stroke="#000000" stroke-opacity="1" stroke-width="3.2"/>
<circle clip-path="url(#clip382)" cx="1264.05" cy="141.156" r="14.4" fill="#fdedb0" fill-rule="evenodd" fill-opacity="1" stroke="#000000" stroke-opacity="1" stroke-width="3.2"/>
<circle clip-path="url(#clip382)" cx="2311.83" cy="930.436" r="14.4" fill="#fdedb0" fill-rule="evenodd" fill-opacity="1" stroke="#000000" stroke-opacity="1" stroke-width="3.2"/>
<circle clip-path="url(#clip382)" cx="1787.94" cy="1289.65" r="14.4" fill="#fdedb0" fill-rule="evenodd" fill-opacity="1" stroke="#000000" stroke-opacity="1" stroke-width="3.2"/>
<circle clip-path="url(#clip382)" cx="740.163" cy="678.819" r="14.4" fill="#fdedb0" fill-rule="evenodd" fill-opacity="1" stroke="#000000" stroke-opacity="1" stroke-width="3.2"/>
<circle clip-path="url(#clip382)" cx="609.191" cy="833.435" r="14.4" fill="#fdedb0" fill-rule="evenodd" fill-opacity="1" stroke="#000000" stroke-opacity="1" stroke-width="3.2"/>
<circle clip-path="url(#clip382)" cx="1656.97" cy="1037.47" r="14.4" fill="#fdedb0" fill-rule="evenodd" fill-opacity="1" stroke="#000000" stroke-opacity="1" stroke-width="3.2"/>
<circle clip-path="url(#clip382)" cx="2180.86" cy="1130.75" r="14.4" fill="#fdedb0" fill-rule="evenodd" fill-opacity="1" stroke="#000000" stroke-opacity="1" stroke-width="3.2"/>
<circle clip-path="url(#clip382)" cx="1133.08" cy="90.7292" r="14.4" fill="#fdedb0" fill-rule="evenodd" fill-opacity="1" stroke="#000000" stroke-opacity="1" stroke-width="3.2"/>
<circle clip-path="url(#clip382)" cx="871.135" cy="438.847" r="14.4" fill="#fdedb0" fill-rule="evenodd" fill-opacity="1" stroke="#000000" stroke-opacity="1" stroke-width="3.2"/>
<circle clip-path="url(#clip382)" cx="1918.91" cy="1384.07" r="14.4" fill="#fdedb0" fill-rule="evenodd" fill-opacity="1" stroke="#000000" stroke-opacity="1" stroke-width="3.2"/>
<circle clip-path="url(#clip382)" cx="1395.02" cy="362.477" r="14.4" fill="#fdedb0" fill-rule="evenodd" fill-opacity="1" stroke="#000000" stroke-opacity="1" stroke-width="3.2"/>
<circle clip-path="url(#clip382)" cx="347.247" cy="709.697" r="14.4" fill="#fdedb0" fill-rule="evenodd" fill-opacity="1" stroke="#000000" stroke-opacity="1" stroke-width="3.2"/>
<circle clip-path="url(#clip382)" cx="379.99" cy="754.197" r="14.4" fill="#fdedb0" fill-rule="evenodd" fill-opacity="1" stroke="#000000" stroke-opacity="1" stroke-width="3.2"/>
<circle clip-path="url(#clip382)" cx="1427.77" cy="438.557" r="14.4" fill="#fdedb0" fill-rule="evenodd" fill-opacity="1" stroke="#000000" stroke-opacity="1" stroke-width="3.2"/>
<circle clip-path="url(#clip382)" cx="1951.65" cy="1380.71" r="14.4" fill="#fdedb0" fill-rule="evenodd" fill-opacity="1" stroke="#000000" stroke-opacity="1" stroke-width="3.2"/>
<circle clip-path="url(#clip382)" cx="903.878" cy="376.533" r="14.4" fill="#fdedb0" fill-rule="evenodd" fill-opacity="1" stroke="#000000" stroke-opacity="1" stroke-width="3.2"/>
<circle clip-path="url(#clip382)" cx="1925.46" cy="1384.24" r="14.4" fill="#fdedb0" fill-rule="evenodd" fill-opacity="1" stroke="#000000" stroke-opacity="1" stroke-width="3.2"/>
<circle clip-path="url(#clip382)" cx="1922.51" cy="1384.22" r="14.4" fill="#fdedb0" fill-rule="evenodd" fill-opacity="1" stroke="#000000" stroke-opacity="1" stroke-width="3.2"/>
<circle clip-path="url(#clip382)" cx="1929.06" cy="1384.15" r="14.4" fill="#fdedb0" fill-rule="evenodd" fill-opacity="1" stroke="#000000" stroke-opacity="1" stroke-width="3.2"/>
<circle clip-path="url(#clip382)" cx="1915.96" cy="1383.86" r="14.4" fill="#fdedb0" fill-rule="evenodd" fill-opacity="1" stroke="#000000" stroke-opacity="1" stroke-width="3.2"/>
<circle clip-path="url(#clip382)" cx="1935.61" cy="1383.66" r="14.4" fill="#fdedb0" fill-rule="evenodd" fill-opacity="1" stroke="#000000" stroke-opacity="1" stroke-width="3.2"/>
<circle clip-path="url(#clip382)" cx="1902.87" cy="1381.86" r="14.4" fill="#fdedb0" fill-rule="evenodd" fill-opacity="1" stroke="#000000" stroke-opacity="1" stroke-width="3.2"/>
<circle clip-path="url(#clip382)" cx="1931.35" cy="1384.03" r="14.4" fill="#fdedb0" fill-rule="evenodd" fill-opacity="1" stroke="#000000" stroke-opacity="1" stroke-width="3.2"/>
<circle clip-path="url(#clip382)" cx="1937.9" cy="1383.39" r="14.4" fill="#fdedb0" fill-rule="evenodd" fill-opacity="1" stroke="#000000" stroke-opacity="1" stroke-width="3.2"/>
<circle clip-path="url(#clip382)" cx="1940.36" cy="1383.04" r="14.4" fill="#fdedb0" fill-rule="evenodd" fill-opacity="1" stroke="#000000" stroke-opacity="1" stroke-width="3.2"/>
<circle clip-path="url(#clip382)" cx="1907.61" cy="1382.78" r="14.4" fill="#fdedb0" fill-rule="evenodd" fill-opacity="1" stroke="#000000" stroke-opacity="1" stroke-width="3.2"/>
<circle clip-path="url(#clip382)" cx="1905.16" cy="1382.33" r="14.4" fill="#fdedb0" fill-rule="evenodd" fill-opacity="1" stroke="#000000" stroke-opacity="1" stroke-width="3.2"/>
<circle clip-path="url(#clip382)" cx="1913.26" cy="1383.59" r="14.4" fill="#fdedb0" fill-rule="evenodd" fill-opacity="1" stroke="#000000" stroke-opacity="1" stroke-width="3.2"/>
<circle clip-path="url(#clip382)" cx="1946.01" cy="1382.03" r="14.4" fill="#fdedb0" fill-rule="evenodd" fill-opacity="1" stroke="#000000" stroke-opacity="1" stroke-width="3.2"/>
<circle clip-path="url(#clip382)" cx="1900.58" cy="1381.33" r="14.4" fill="#fdedb0" fill-rule="evenodd" fill-opacity="1" stroke="#000000" stroke-opacity="1" stroke-width="3.2"/>
<circle clip-path="url(#clip382)" cx="1896.89" cy="1380.37" r="14.4" fill="#fdedb0" fill-rule="evenodd" fill-opacity="1" stroke="#000000" stroke-opacity="1" stroke-width="3.2"/>
<circle clip-path="url(#clip382)" cx="1893.62" cy="1379.4" r="14.4" fill="#fdedb0" fill-rule="evenodd" fill-opacity="1" stroke="#000000" stroke-opacity="1" stroke-width="3.2"/>
<circle clip-path="url(#clip382)" cx="1933.48" cy="1383.86" r="14.4" fill="#fdedb0" fill-rule="evenodd" fill-opacity="1" stroke="#000000" stroke-opacity="1" stroke-width="3.2"/>
<circle clip-path="url(#clip382)" cx="1890.92" cy="1378.52" r="14.4" fill="#fdedb0" fill-rule="evenodd" fill-opacity="1" stroke="#000000" stroke-opacity="1" stroke-width="3.2"/>
<circle clip-path="url(#clip382)" cx="1888.26" cy="1377.58" r="14.4" fill="#fdedb0" fill-rule="evenodd" fill-opacity="1" stroke="#000000" stroke-opacity="1" stroke-width="3.2"/>
<circle clip-path="url(#clip382)" cx="1886" cy="1376.73" r="14.4" fill="#fdedb0" fill-rule="evenodd" fill-opacity="1" stroke="#000000" stroke-opacity="1" stroke-width="3.2"/>
<polyline clip-path="url(#clip382)" style="stroke:#fdedb0; stroke-linecap:round; stroke-linejoin:round; stroke-width:4; stroke-opacity:1; fill:none" points="257.204,563.786 262.612,573.144 268.021,582.462 273.429,591.731 278.838,600.944 310.515,653.407 342.192,702.31 358.03,725.015 373.869,746.349 389.707,766.17 405.545,784.345 420.282,799.67 435.018,813.373 449.754,825.373 464.49,835.6 484.242,846.416 503.993,853.811 513.869,856.197 523.745,857.697 533.621,858.305 543.497,858.017 559.818,855.577 576.139,850.695 592.461,843.392 608.782,833.708 623.959,822.614 639.136,809.562 654.313,794.621 669.49,777.867 688.542,754.405 707.594,728.425 726.647,700.144 745.699,669.806 762.789,641.056 779.879,611.06 796.969,580.029 814.06,548.181 853.183,473.42 892.307,398.368 921.552,343.78 950.797,291.797 969.5,260.448 988.202,230.918 1006.9,203.479 1025.61,178.391 1042.68,157.751 1059.75,139.442 1076.82,123.62 1093.89,110.427 1103.6,104.141 1113.31,98.7679 1123.03,94.3263 1132.74,90.8333 1142.46,88.3037 1152.17,86.7508 1161.88,86.1857 1171.6,86.6174 1187,89.3618 1202.4,94.6471 1217.8,102.478 1233.2,112.847 1242.77,120.558 1252.33,129.232 1261.9,138.86 1271.47,149.432 1281.03,160.934 1290.6,173.35 1300.17,186.665 1309.73,200.858 1324.39,224.257 1339.04,249.589 1353.69,276.766 1368.35,305.689 1378.67,327.07 1389,349.226 1399.33,372.116 1409.66,395.697 1430.32,444.753 1450.98,496.021 1481.86,575.907 1512.73,658.473 1547.84,753.81 1582.96,848.634 1600.34,894.746 1617.73,939.965 1635.12,984.045 1652.5,1026.75 1671.63,1071.88 1690.76,1114.8 1709.89,1155.22 1729.02,1192.92 1743.63,1219.74 1758.24,1244.74 1772.85,1267.85 1787.46,1289 1796.68,1301.3 1805.9,1312.79 1815.12,1323.44 1824.34,1333.25 1833.56,1342.21 1842.78,1350.31 1852,1357.55 1861.21,1363.91 1878.27,1373.4 1895.32,1379.92 1912.37,1383.48 1929.43,1384.13 1947.01,1381.82 1964.6,1376.55 1982.19,1368.44 1999.78,1357.61 2017.6,1344.01 2035.43,1327.93 2053.26,1309.55 2071.08,1289.09 2089.7,1265.72 2108.31,1240.57 2126.93,1213.9 2145.54,1186 2174.87,1140.27 2204.2,1093.38 2237.59,1040.1 2270.98,988.588 2287.68,964.026 2304.38,940.528 2321.07,918.287 2337.77,897.487 2341.52,893.035 2345.26,888.667 2349.01,884.383 2352.76,880.187 "/>
<polyline clip-path="url(#clip382)" style="stroke:#fdedb0; stroke-linecap:round; stroke-linejoin:round; stroke-width:4; stroke-opacity:1; fill:none" points="257.204,563.802 262.612,573.152 268.021,582.464 273.429,591.731 278.838,600.943 310.515,653.407 342.192,702.31 358.03,725.015 373.869,746.349 389.707,766.17 405.545,784.345 420.282,799.67 435.018,813.373 449.754,825.373 464.49,835.6 484.242,846.416 503.993,853.811 513.869,856.197 523.745,857.697 533.621,858.305 543.497,858.017 559.818,855.577 576.139,850.695 592.461,843.392 608.782,833.708 623.959,822.614 639.136,809.562 654.313,794.621 669.49,777.867 688.542,754.405 707.594,728.425 726.647,700.144 745.699,669.807 762.789,641.056 779.879,611.059 796.969,580.029 814.06,548.181 853.183,473.42 892.307,398.368 921.552,343.78 950.797,291.797 969.5,260.448 988.202,230.918 1006.9,203.479 1025.61,178.391 1042.68,157.751 1059.75,139.442 1076.82,123.62 1093.89,110.427 1103.6,104.141 1113.31,98.7679 1123.03,94.3263 1132.74,90.8333 1142.46,88.3037 1152.17,86.7508 1161.88,86.1857 1171.6,86.6174 1187,89.3618 1202.4,94.6471 1217.8,102.478 1233.2,112.848 1242.77,120.558 1252.33,129.232 1261.9,138.86 1271.47,149.433 1281.03,160.934 1290.6,173.35 1300.17,186.665 1309.73,200.859 1324.39,224.257 1339.04,249.59 1353.69,276.766 1368.35,305.689 1378.67,327.07 1389,349.226 1399.33,372.116 1409.66,395.697 1430.32,444.753 1450.98,496.021 1481.86,575.907 1512.73,658.473 1547.84,753.81 1582.96,848.634 1600.34,894.746 1617.73,939.965 1635.12,984.045 1652.5,1026.75 1671.63,1071.88 1690.76,1114.8 1709.89,1155.22 1729.02,1192.92 1743.63,1219.74 1758.24,1244.74 1772.85,1267.85 1787.46,1289 1796.68,1301.3 1805.9,1312.79 1815.12,1323.44 1824.34,1333.25 1833.56,1342.21 1842.78,1350.31 1852,1357.55 1861.21,1363.91 1878.27,1373.4 1895.32,1379.92 1912.37,1383.48 1929.43,1384.13 1947.01,1381.82 1964.6,1376.55 1982.19,1368.44 1999.78,1357.61 2017.6,1344.01 2035.43,1327.93 2053.26,1309.55 2071.08,1289.09 2089.7,1265.72 2108.31,1240.57 2126.93,1213.9 2145.54,1186 2174.87,1140.27 2204.2,1093.38 2237.59,1040.1 2270.98,988.588 2287.68,964.025 2304.38,940.528 2321.07,918.291 2337.77,897.484 2341.52,893.022 2345.26,888.637 2349.01,884.331 2352.76,880.104 "/>
</svg>
